<svg width="48" height="46" viewBox="0 0 48 46" fill="none" xmlns="http://www.w3.org/2000/svg">
<rect x="1.39062" y="0.75" width="45.861" height="44.5" rx="22.25" stroke="#FFAE9D" stroke-width="1.5"/>
<path fill-rule="evenodd" clip-rule="evenodd" d="M33.5969 34.2135C34.5374 33.867 35.5274 32.8605 35.2469 31.6395C34.2734 27.2505 30.6764 24 26.3699 24H21.9314C17.6249 24 14.0279 27.2505 13.0544 31.6395C12.7739 32.877 13.6154 33.867 14.7044 34.2135C15.7934 34.56 18.5984 35.6985 23.9609 35.6985C29.3234 35.6985 32.6564 34.56 33.5969 34.2135Z" stroke="#FFAE9D" stroke-width="1.6" stroke-linecap="round" stroke-linejoin="round"/>
<path d="M24.1068 19.6628C26.9682 19.6628 29.2878 17.3432 29.2878 14.4818C29.2878 11.6204 26.9682 9.30078 24.1068 9.30078C21.2454 9.30078 18.9258 11.6204 18.9258 14.4818C18.9258 17.3432 21.2454 19.6628 24.1068 19.6628Z" stroke="#FFAE9D" stroke-width="1.6" stroke-linecap="round" stroke-linejoin="round"/>
</svg>
