<svg width="48" height="46" viewBox="0 0 48 46" fill="none" xmlns="http://www.w3.org/2000/svg">
<rect x="1.39062" y="0.75" width="45.861" height="44.5" rx="22.25" stroke="#FFAE9D" stroke-width="1.5"/>
<path d="M24.1414 35.7008C31.4316 35.7008 37.3414 29.7909 37.3414 22.5008C37.3414 15.2106 31.4316 9.30078 24.1414 9.30078C16.8512 9.30078 10.9414 15.2106 10.9414 22.5008C10.9414 29.7909 16.8512 35.7008 24.1414 35.7008Z" stroke="#FFAE9D" stroke-width="1.6" stroke-linecap="round" stroke-linejoin="round"/>
<path d="M24.1387 30.2696C28.4308 30.2696 31.9102 26.7901 31.9102 22.4981C31.9102 18.206 28.4308 14.7266 24.1387 14.7266C19.8466 14.7266 16.3672 18.206 16.3672 22.4981C16.3672 26.7901 19.8466 30.2696 24.1387 30.2696Z" stroke="#FFAE9D" stroke-width="1.6" stroke-linecap="round" stroke-linejoin="round"/>
<path d="M24.1399 24.8423C25.4339 24.8423 26.4829 23.7933 26.4829 22.4993C26.4829 21.2052 25.4339 20.1562 24.1399 20.1562C22.8459 20.1562 21.7969 21.2052 21.7969 22.4993C21.7969 23.7933 22.8459 24.8423 24.1399 24.8423Z" stroke="#FFAE9D" stroke-width="1.6" stroke-linecap="round" stroke-linejoin="round"/>
</svg>
