<svg width="48" height="46" viewBox="0 0 48 46" fill="none" xmlns="http://www.w3.org/2000/svg">
<rect x="1.39062" y="0.75" width="45.861" height="44.5" rx="22.25" stroke="#FFAE9D" stroke-width="1.5"/>
<path d="M35.9561 23.6055C34.7681 26.0805 29.7686 27.9615 24.1421 27.9615C18.5156 27.9615 13.4996 26.097 12.3281 23.6055" stroke="#FFAE9D" stroke-width="1.6" stroke-linecap="round" stroke-linejoin="round"/>
<path d="M24.1421 20.4218C30.6668 20.4218 35.9561 17.9323 35.9561 14.8613C35.9561 11.7903 30.6668 9.30078 24.1421 9.30078C17.6174 9.30078 12.3281 11.7903 12.3281 14.8613C12.3281 17.9323 17.6174 20.4218 24.1421 20.4218Z" stroke="#FFAE9D" stroke-width="1.6" stroke-linecap="round" stroke-linejoin="round"/>
<path d="M12.3281 14.8594V31.3429C13.4831 33.8344 18.6311 35.6989 24.2741 35.6989C29.9171 35.6989 34.7516 33.8179 35.9396 31.3429V14.8594" stroke="#FFAE9D" stroke-width="1.6" stroke-linecap="round" stroke-linejoin="round"/>
</svg>
