<svg width="30" height="30" viewBox="0 0 30 30" fill="none" xmlns="http://www.w3.org/2000/svg">
<path d="M4.95217 27.7592C6.44959 27.7592 7.66349 26.5453 7.66349 25.0478C7.66349 23.5504 6.44959 22.3365 4.95217 22.3365C3.45475 22.3365 2.24084 23.5504 2.24084 25.0478C2.24084 26.5453 3.45475 27.7592 4.95217 27.7592Z" stroke="#444443" stroke-width="1.1" stroke-linecap="round" stroke-linejoin="round"/>
<path d="M4.95217 7.66348C6.44959 7.66348 7.66349 6.44958 7.66349 4.95215C7.66349 3.45473 6.44959 2.24083 4.95217 2.24083C3.45475 2.24083 2.24084 3.45473 2.24084 4.95215C2.24084 6.44958 3.45475 7.66348 4.95217 7.66348Z" stroke="#444443" stroke-width="1.1" stroke-linecap="round" stroke-linejoin="round"/>
<path d="M27.7273 14.9043H7.87085" stroke="#444443" stroke-width="1.1" stroke-linecap="round" stroke-linejoin="round"/>
<path d="M7.69535 12.193H2.27271V17.6156H7.69535V12.193Z" stroke="#444443" stroke-width="1.1" stroke-linecap="round" stroke-linejoin="round"/>
<path d="M7.75916 25H13.2775L18.7639 14.9043" stroke="#444443" stroke-width="1.1" stroke-linecap="round" stroke-linejoin="round"/>
<path d="M23.9474 20.933L27.7592 15L23.9474 9.06699" stroke="#444443" stroke-width="1.1" stroke-linecap="round" stroke-linejoin="round"/>
<path d="M7.75916 4.80861H13.2775L18.7639 14.9043" stroke="#444443" stroke-width="1.1" stroke-linecap="round" stroke-linejoin="round"/>
</svg>
