<svg width="600" height="233" viewBox="0 0 600 233" fill="none" xmlns="http://www.w3.org/2000/svg">
<path d="M135.603 106.899L138.436 106.032C139.07 105.832 139.736 106.099 140.07 106.632L141.936 109.599C142.303 110.165 142.17 110.932 141.636 111.365L139.603 113.032C139.236 113.332 139.07 113.799 139.136 114.265C139.236 115.032 139.236 115.832 139.136 116.599C139.07 117.065 139.236 117.532 139.603 117.832L141.67 119.599C142.203 120.032 142.303 120.765 141.936 121.365L140.07 124.332C139.736 124.865 139.036 125.132 138.436 124.932L135.736 124.065C135.303 123.932 134.836 124.032 134.47 124.265C133.77 124.765 133.036 125.165 132.236 125.499C131.803 125.665 131.47 126.032 131.37 126.499L130.836 129.065C130.703 129.699 130.136 130.165 129.436 130.165H125.603C124.936 130.165 124.37 129.699 124.203 129.065L123.67 126.532C123.57 126.099 123.236 125.732 122.803 125.532C122.003 125.199 121.27 124.799 120.57 124.299C120.203 124.032 119.736 123.965 119.303 124.099L116.57 124.932C116.17 125.065 115.736 124.999 115.403 124.799C115.236 124.699 115.07 124.532 114.936 124.365L113.07 121.399C112.703 120.832 112.836 120.065 113.37 119.632L115.403 117.965C115.77 117.665 115.936 117.199 115.87 116.732C115.77 115.965 115.77 115.165 115.87 114.399C115.936 113.932 115.77 113.465 115.403 113.165L113.336 111.399C112.803 110.965 112.703 110.232 113.07 109.632L114.936 106.665C115.27 106.132 115.97 105.865 116.57 106.065L119.27 106.932C119.703 107.065 120.17 106.965 120.536 106.732C121.236 106.232 121.97 105.832 122.77 105.499C123.203 105.332 123.536 104.965 123.636 104.499L124.17 101.932C124.303 101.299 124.87 100.832 125.57 100.832H129.403C130.07 100.832 130.636 101.299 130.803 101.932L131.37 104.565C131.436 104.965 131.703 105.299 132.07 105.499L134.503 106.832C134.836 107.032 135.236 107.065 135.603 106.932V106.899Z" stroke="black" stroke-width="1.6" stroke-linecap="round" stroke-linejoin="round"/>
<path d="M127.501 119.634C129.857 119.634 131.768 117.783 131.768 115.501C131.768 113.218 129.857 111.367 127.501 111.367C125.145 111.367 123.234 113.218 123.234 115.501C123.234 117.783 125.145 119.634 127.501 119.634Z" stroke="black" stroke-width="1.6" stroke-linecap="round" stroke-linejoin="round"/>
<rect x="200" y="78" width="199" height="78" rx="25" fill="#FEB3A4"/>
<path d="M241.794 117.859H238.896L238.88 116.43H241.411C241.838 116.43 242.2 116.367 242.497 116.242C242.799 116.112 243.028 115.927 243.185 115.688C243.341 115.443 243.419 115.148 243.419 114.805C243.419 114.424 243.346 114.115 243.2 113.875C243.054 113.635 242.831 113.461 242.528 113.352C242.232 113.242 241.851 113.188 241.388 113.188H239.489V123H237.528V111.625H241.388C242.013 111.625 242.57 111.685 243.06 111.805C243.554 111.924 243.974 112.112 244.318 112.367C244.666 112.617 244.929 112.935 245.107 113.32C245.289 113.706 245.38 114.164 245.38 114.695C245.38 115.164 245.268 115.594 245.044 115.984C244.82 116.37 244.489 116.685 244.052 116.93C243.614 117.174 243.07 117.32 242.419 117.367L241.794 117.859ZM241.708 123H238.278L239.161 121.445H241.708C242.151 121.445 242.521 121.372 242.818 121.227C243.114 121.076 243.336 120.87 243.482 120.609C243.633 120.344 243.708 120.034 243.708 119.68C243.708 119.31 243.643 118.99 243.513 118.719C243.383 118.443 243.177 118.232 242.896 118.086C242.614 117.935 242.247 117.859 241.794 117.859H239.591L239.607 116.43H242.474L242.919 116.969C243.544 116.99 244.057 117.128 244.458 117.383C244.864 117.638 245.166 117.969 245.364 118.375C245.562 118.781 245.661 119.219 245.661 119.688C245.661 120.411 245.502 121.018 245.185 121.508C244.872 121.997 244.422 122.37 243.833 122.625C243.245 122.875 242.536 123 241.708 123ZM253.016 121.008V114.547H254.907V123H253.126L253.016 121.008ZM253.282 119.25L253.915 119.234C253.915 119.802 253.852 120.326 253.727 120.805C253.602 121.279 253.409 121.693 253.149 122.047C252.889 122.396 252.555 122.669 252.149 122.867C251.743 123.06 251.256 123.156 250.688 123.156C250.277 123.156 249.899 123.096 249.555 122.977C249.212 122.857 248.915 122.672 248.665 122.422C248.42 122.172 248.23 121.846 248.094 121.445C247.959 121.044 247.891 120.565 247.891 120.008V114.547H249.774V120.023C249.774 120.331 249.811 120.589 249.883 120.797C249.956 121 250.055 121.164 250.18 121.289C250.305 121.414 250.451 121.503 250.618 121.555C250.784 121.607 250.962 121.633 251.149 121.633C251.686 121.633 252.107 121.529 252.415 121.32C252.727 121.107 252.949 120.82 253.079 120.461C253.214 120.102 253.282 119.698 253.282 119.25ZM262.059 120.711C262.059 120.523 262.012 120.354 261.918 120.203C261.824 120.047 261.645 119.906 261.379 119.781C261.119 119.656 260.733 119.542 260.223 119.438C259.775 119.339 259.363 119.221 258.988 119.086C258.619 118.945 258.301 118.776 258.035 118.578C257.77 118.38 257.564 118.146 257.418 117.875C257.272 117.604 257.199 117.292 257.199 116.938C257.199 116.594 257.275 116.268 257.426 115.961C257.577 115.654 257.793 115.383 258.074 115.148C258.356 114.914 258.697 114.729 259.098 114.594C259.504 114.458 259.957 114.391 260.457 114.391C261.166 114.391 261.772 114.51 262.278 114.75C262.788 114.984 263.179 115.305 263.449 115.711C263.72 116.112 263.856 116.565 263.856 117.07H261.973C261.973 116.846 261.916 116.638 261.801 116.445C261.692 116.247 261.525 116.089 261.301 115.969C261.077 115.844 260.796 115.781 260.457 115.781C260.134 115.781 259.866 115.833 259.653 115.938C259.444 116.036 259.288 116.167 259.184 116.328C259.085 116.49 259.035 116.667 259.035 116.859C259.035 117 259.061 117.128 259.113 117.242C259.171 117.352 259.264 117.453 259.395 117.547C259.525 117.635 259.702 117.719 259.926 117.797C260.155 117.875 260.442 117.951 260.785 118.023C261.431 118.159 261.986 118.333 262.449 118.547C262.918 118.755 263.278 119.026 263.528 119.359C263.778 119.688 263.903 120.104 263.903 120.609C263.903 120.984 263.822 121.328 263.66 121.641C263.504 121.948 263.275 122.216 262.973 122.445C262.671 122.669 262.309 122.844 261.887 122.969C261.47 123.094 261.001 123.156 260.481 123.156C259.715 123.156 259.067 123.021 258.535 122.75C258.004 122.474 257.6 122.122 257.324 121.695C257.054 121.263 256.918 120.815 256.918 120.352H258.738C258.759 120.701 258.856 120.979 259.028 121.188C259.205 121.391 259.423 121.539 259.684 121.633C259.949 121.721 260.223 121.766 260.504 121.766C260.843 121.766 261.126 121.721 261.356 121.633C261.585 121.539 261.759 121.414 261.879 121.258C261.999 121.096 262.059 120.914 262.059 120.711ZM268.047 114.547V123H266.156V114.547H268.047ZM266.031 112.328C266.031 112.042 266.125 111.805 266.312 111.617C266.505 111.424 266.771 111.328 267.109 111.328C267.442 111.328 267.705 111.424 267.898 111.617C268.091 111.805 268.187 112.042 268.187 112.328C268.187 112.609 268.091 112.844 267.898 113.031C267.705 113.219 267.442 113.312 267.109 113.312C266.771 113.312 266.505 113.219 266.312 113.031C266.125 112.844 266.031 112.609 266.031 112.328ZM272.456 116.352V123H270.573V114.547H272.347L272.456 116.352ZM272.12 118.461L271.511 118.453C271.516 117.854 271.599 117.305 271.761 116.805C271.928 116.305 272.157 115.875 272.448 115.516C272.745 115.156 273.099 114.88 273.511 114.688C273.922 114.49 274.381 114.391 274.886 114.391C275.292 114.391 275.659 114.448 275.987 114.562C276.321 114.672 276.605 114.852 276.839 115.102C277.079 115.352 277.261 115.677 277.386 116.078C277.511 116.474 277.573 116.961 277.573 117.539V123H275.683V117.531C275.683 117.125 275.623 116.805 275.503 116.57C275.389 116.331 275.219 116.161 274.995 116.062C274.777 115.958 274.503 115.906 274.175 115.906C273.852 115.906 273.563 115.974 273.308 116.109C273.053 116.245 272.836 116.43 272.659 116.664C272.487 116.898 272.355 117.169 272.261 117.477C272.167 117.784 272.12 118.112 272.12 118.461ZM283.702 123.156C283.077 123.156 282.512 123.055 282.007 122.852C281.507 122.643 281.079 122.354 280.725 121.984C280.376 121.615 280.108 121.18 279.921 120.68C279.733 120.18 279.639 119.641 279.639 119.062V118.75C279.639 118.089 279.736 117.49 279.928 116.953C280.121 116.417 280.389 115.958 280.733 115.578C281.077 115.193 281.483 114.898 281.952 114.695C282.421 114.492 282.928 114.391 283.475 114.391C284.079 114.391 284.608 114.492 285.061 114.695C285.514 114.898 285.889 115.185 286.186 115.555C286.488 115.919 286.712 116.354 286.858 116.859C287.009 117.365 287.085 117.922 287.085 118.531V119.336H280.553V117.984H285.225V117.836C285.215 117.497 285.147 117.18 285.022 116.883C284.902 116.586 284.718 116.346 284.468 116.164C284.218 115.982 283.884 115.891 283.468 115.891C283.155 115.891 282.876 115.958 282.632 116.094C282.392 116.224 282.191 116.414 282.03 116.664C281.869 116.914 281.744 117.216 281.655 117.57C281.572 117.919 281.53 118.312 281.53 118.75V119.062C281.53 119.432 281.579 119.776 281.678 120.094C281.783 120.406 281.934 120.68 282.132 120.914C282.329 121.148 282.569 121.333 282.85 121.469C283.132 121.599 283.452 121.664 283.811 121.664C284.264 121.664 284.668 121.573 285.022 121.391C285.376 121.208 285.684 120.951 285.944 120.617L286.936 121.578C286.754 121.844 286.517 122.099 286.225 122.344C285.934 122.583 285.577 122.779 285.155 122.93C284.738 123.081 284.254 123.156 283.702 123.156ZM293.776 120.711C293.776 120.523 293.729 120.354 293.635 120.203C293.541 120.047 293.362 119.906 293.096 119.781C292.836 119.656 292.45 119.542 291.94 119.438C291.492 119.339 291.08 119.221 290.705 119.086C290.336 118.945 290.018 118.776 289.752 118.578C289.487 118.38 289.281 118.146 289.135 117.875C288.989 117.604 288.916 117.292 288.916 116.938C288.916 116.594 288.992 116.268 289.143 115.961C289.294 115.654 289.51 115.383 289.791 115.148C290.073 114.914 290.414 114.729 290.815 114.594C291.221 114.458 291.674 114.391 292.174 114.391C292.882 114.391 293.489 114.51 293.994 114.75C294.505 114.984 294.895 115.305 295.166 115.711C295.437 116.112 295.573 116.565 295.573 117.07H293.69C293.69 116.846 293.632 116.638 293.518 116.445C293.408 116.247 293.242 116.089 293.018 115.969C292.794 115.844 292.513 115.781 292.174 115.781C291.851 115.781 291.583 115.833 291.369 115.938C291.161 116.036 291.005 116.167 290.901 116.328C290.802 116.49 290.752 116.667 290.752 116.859C290.752 117 290.778 117.128 290.83 117.242C290.888 117.352 290.981 117.453 291.112 117.547C291.242 117.635 291.419 117.719 291.643 117.797C291.872 117.875 292.158 117.951 292.502 118.023C293.148 118.159 293.703 118.333 294.166 118.547C294.635 118.755 294.994 119.026 295.244 119.359C295.494 119.688 295.619 120.104 295.619 120.609C295.619 120.984 295.539 121.328 295.377 121.641C295.221 121.948 294.992 122.216 294.69 122.445C294.388 122.669 294.026 122.844 293.604 122.969C293.187 123.094 292.718 123.156 292.198 123.156C291.432 123.156 290.783 123.021 290.252 122.75C289.721 122.474 289.317 122.122 289.041 121.695C288.77 121.263 288.635 120.815 288.635 120.352H290.455C290.476 120.701 290.573 120.979 290.744 121.188C290.921 121.391 291.14 121.539 291.401 121.633C291.666 121.721 291.94 121.766 292.221 121.766C292.559 121.766 292.843 121.721 293.073 121.633C293.302 121.539 293.476 121.414 293.596 121.258C293.716 121.096 293.776 120.914 293.776 120.711ZM302.49 120.711C302.49 120.523 302.443 120.354 302.349 120.203C302.256 120.047 302.076 119.906 301.81 119.781C301.55 119.656 301.164 119.542 300.654 119.438C300.206 119.339 299.795 119.221 299.42 119.086C299.05 118.945 298.732 118.776 298.467 118.578C298.201 118.38 297.995 118.146 297.849 117.875C297.704 117.604 297.631 117.292 297.631 116.938C297.631 116.594 297.706 116.268 297.857 115.961C298.008 115.654 298.224 115.383 298.506 115.148C298.787 114.914 299.128 114.729 299.529 114.594C299.935 114.458 300.388 114.391 300.888 114.391C301.597 114.391 302.204 114.51 302.709 114.75C303.219 114.984 303.61 115.305 303.881 115.711C304.151 116.112 304.287 116.565 304.287 117.07H302.404C302.404 116.846 302.347 116.638 302.232 116.445C302.123 116.247 301.956 116.089 301.732 115.969C301.508 115.844 301.227 115.781 300.888 115.781C300.566 115.781 300.297 115.833 300.084 115.938C299.875 116.036 299.719 116.167 299.615 116.328C299.516 116.49 299.467 116.667 299.467 116.859C299.467 117 299.493 117.128 299.545 117.242C299.602 117.352 299.696 117.453 299.826 117.547C299.956 117.635 300.133 117.719 300.357 117.797C300.586 117.875 300.873 117.951 301.217 118.023C301.862 118.159 302.417 118.333 302.881 118.547C303.349 118.755 303.709 119.026 303.959 119.359C304.209 119.688 304.334 120.104 304.334 120.609C304.334 120.984 304.253 121.328 304.092 121.641C303.935 121.948 303.706 122.216 303.404 122.445C303.102 122.669 302.74 122.844 302.318 122.969C301.901 123.094 301.433 123.156 300.912 123.156C300.146 123.156 299.498 123.021 298.967 122.75C298.435 122.474 298.032 122.122 297.756 121.695C297.485 121.263 297.349 120.815 297.349 120.352H299.17C299.191 120.701 299.287 120.979 299.459 121.188C299.636 121.391 299.855 121.539 300.115 121.633C300.381 121.721 300.654 121.766 300.935 121.766C301.274 121.766 301.558 121.721 301.787 121.633C302.016 121.539 302.191 121.414 302.31 121.258C302.43 121.096 302.49 120.914 302.49 120.711ZM311.911 111.625H313.661L316.95 120.398L320.231 111.625H321.981L317.637 123H316.247L311.911 111.625ZM311.114 111.625H312.778L313.067 119.219V123H311.114V111.625ZM321.114 111.625H322.786V123H320.825V119.219L321.114 111.625ZM325.047 118.867V118.688C325.047 118.078 325.136 117.513 325.313 116.992C325.49 116.466 325.745 116.01 326.078 115.625C326.417 115.234 326.828 114.932 327.313 114.719C327.802 114.5 328.354 114.391 328.969 114.391C329.589 114.391 330.141 114.5 330.625 114.719C331.115 114.932 331.529 115.234 331.868 115.625C332.206 116.01 332.464 116.466 332.641 116.992C332.818 117.513 332.907 118.078 332.907 118.688V118.867C332.907 119.477 332.818 120.042 332.641 120.562C332.464 121.083 332.206 121.539 331.868 121.93C331.529 122.315 331.118 122.617 330.633 122.836C330.149 123.049 329.599 123.156 328.985 123.156C328.365 123.156 327.81 123.049 327.321 122.836C326.836 122.617 326.425 122.315 326.086 121.93C325.748 121.539 325.49 121.083 325.313 120.562C325.136 120.042 325.047 119.477 325.047 118.867ZM326.93 118.688V118.867C326.93 119.247 326.969 119.607 327.047 119.945C327.125 120.284 327.248 120.581 327.414 120.836C327.581 121.091 327.795 121.292 328.055 121.438C328.315 121.583 328.625 121.656 328.985 121.656C329.334 121.656 329.636 121.583 329.891 121.438C330.151 121.292 330.365 121.091 330.532 120.836C330.698 120.581 330.821 120.284 330.899 119.945C330.982 119.607 331.024 119.247 331.024 118.867V118.688C331.024 118.312 330.982 117.958 330.899 117.625C330.821 117.286 330.696 116.987 330.524 116.727C330.357 116.466 330.144 116.263 329.883 116.117C329.628 115.966 329.323 115.891 328.969 115.891C328.615 115.891 328.308 115.966 328.047 116.117C327.792 116.263 327.581 116.466 327.414 116.727C327.248 116.987 327.125 117.286 327.047 117.625C326.969 117.958 326.93 118.312 326.93 118.688ZM340.121 121.25V111H342.012V123H340.301L340.121 121.25ZM334.621 118.867V118.703C334.621 118.062 334.696 117.479 334.848 116.953C334.999 116.422 335.217 115.966 335.504 115.586C335.79 115.201 336.139 114.906 336.551 114.703C336.962 114.495 337.426 114.391 337.941 114.391C338.452 114.391 338.9 114.49 339.285 114.688C339.67 114.885 339.999 115.169 340.269 115.539C340.54 115.904 340.756 116.341 340.918 116.852C341.079 117.357 341.194 117.919 341.262 118.539V119.062C341.194 119.667 341.079 120.219 340.918 120.719C340.756 121.219 340.54 121.651 340.269 122.016C339.999 122.38 339.668 122.661 339.277 122.859C338.892 123.057 338.441 123.156 337.926 123.156C337.415 123.156 336.954 123.049 336.543 122.836C336.137 122.622 335.79 122.323 335.504 121.938C335.217 121.552 334.999 121.099 334.848 120.578C334.696 120.052 334.621 119.482 334.621 118.867ZM336.504 118.703V118.867C336.504 119.253 336.538 119.612 336.605 119.945C336.678 120.279 336.79 120.573 336.941 120.828C337.092 121.078 337.288 121.276 337.527 121.422C337.772 121.562 338.064 121.633 338.402 121.633C338.829 121.633 339.181 121.539 339.457 121.352C339.733 121.164 339.949 120.911 340.105 120.594C340.267 120.271 340.376 119.911 340.433 119.516V118.102C340.402 117.794 340.337 117.508 340.238 117.242C340.144 116.977 340.017 116.745 339.855 116.547C339.694 116.344 339.493 116.188 339.254 116.078C339.019 115.964 338.741 115.906 338.418 115.906C338.074 115.906 337.782 115.979 337.543 116.125C337.303 116.271 337.105 116.471 336.949 116.727C336.798 116.982 336.686 117.279 336.613 117.617C336.54 117.956 336.504 118.318 336.504 118.703ZM348.187 123.156C347.562 123.156 346.997 123.055 346.492 122.852C345.992 122.643 345.564 122.354 345.21 121.984C344.861 121.615 344.593 121.18 344.406 120.68C344.218 120.18 344.124 119.641 344.124 119.062V118.75C344.124 118.089 344.221 117.49 344.413 116.953C344.606 116.417 344.874 115.958 345.218 115.578C345.562 115.193 345.968 114.898 346.437 114.695C346.906 114.492 347.413 114.391 347.96 114.391C348.564 114.391 349.093 114.492 349.546 114.695C349.999 114.898 350.374 115.185 350.671 115.555C350.973 115.919 351.197 116.354 351.343 116.859C351.494 117.365 351.57 117.922 351.57 118.531V119.336H345.038V117.984H349.71V117.836C349.7 117.497 349.632 117.18 349.507 116.883C349.387 116.586 349.202 116.346 348.952 116.164C348.702 115.982 348.369 115.891 347.952 115.891C347.64 115.891 347.361 115.958 347.117 116.094C346.877 116.224 346.676 116.414 346.515 116.664C346.354 116.914 346.229 117.216 346.14 117.57C346.057 117.919 346.015 118.312 346.015 118.75V119.062C346.015 119.432 346.064 119.776 346.163 120.094C346.268 120.406 346.419 120.68 346.617 120.914C346.814 121.148 347.054 121.333 347.335 121.469C347.617 121.599 347.937 121.664 348.296 121.664C348.749 121.664 349.153 121.573 349.507 121.391C349.861 121.208 350.169 120.951 350.429 120.617L351.421 121.578C351.239 121.844 351.002 122.099 350.71 122.344C350.419 122.583 350.062 122.779 349.64 122.93C349.223 123.081 348.739 123.156 348.187 123.156ZM355.534 111V123H353.643V111H355.534Z" fill="black"/>
<path fill-rule="evenodd" clip-rule="evenodd" d="M218.967 181.909L212.329 188.546C212.165 188.71 211.907 188.71 211.766 188.546L208.459 185.239C208.295 185.075 208.295 184.817 208.459 184.676L215.097 178.039C211.649 176.257 207.31 176.749 204.424 179.657C201.774 182.307 201.094 186.177 202.384 189.46L185.073 206.744C183.642 208.175 183.642 210.497 185.073 211.927C186.504 213.358 188.826 213.358 190.257 211.927L207.544 194.643C210.828 195.933 214.698 195.253 217.349 192.603C220.234 189.718 220.75 185.379 218.967 181.932V181.909Z" stroke="black" stroke-width="1.6" stroke-linejoin="round"/>
<path d="M391.391 45.7529L406.503 30.6406L414.358 38.4956L399.246 53.6079" stroke="black" stroke-width="1.6" stroke-linecap="round" stroke-linejoin="round"/>
<path d="M414.961 26.1407L418.855 30.0348C419.942 31.1215 419.942 32.8723 418.855 33.959L414.357 38.4568L406.509 30.6083L411.007 26.1106C412.093 25.0238 413.844 25.0238 414.931 26.1106L414.961 26.1407Z" stroke="black" stroke-width="1.6" stroke-linecap="round" stroke-linejoin="round"/>
<path d="M399.243 53.6089L386.734 58.3475L391.388 45.7539" stroke="black" stroke-width="1.6" stroke-linecap="round" stroke-linejoin="round"/>
<path d="M215.971 41.3342L206.359 31.8281L198.78 39.3245L208.391 48.8306L215.971 41.3342Z" stroke="black" stroke-width="1.6" stroke-linecap="round" stroke-linejoin="round"/>
<path d="M203.612 44.0664L193.258 54.307" stroke="black" stroke-width="1.6" stroke-linecap="round" stroke-linejoin="round"/>
<path d="M207.468 29.2769L205.694 27.5224C205.294 27.126 204.644 27.126 204.243 27.5224L194.47 37.188C194.069 37.5844 194.069 38.2271 194.47 38.6235L196.244 40.3779C196.645 40.7743 197.295 40.7743 197.695 40.3779L207.468 30.7124C207.869 30.316 207.869 29.6733 207.468 29.2769Z" stroke="black" stroke-width="1.6" stroke-linecap="round" stroke-linejoin="round"/>
<path d="M220.328 41.9996L218.554 40.2451C218.153 39.8487 217.503 39.8487 217.102 40.2451L207.329 49.9106C206.929 50.307 206.929 50.9497 207.329 51.3461L209.103 53.1006C209.504 53.497 210.154 53.497 210.555 53.1006L220.328 43.435C220.729 43.0386 220.729 42.396 220.328 41.9996Z" stroke="black" stroke-width="1.6" stroke-linecap="round" stroke-linejoin="round"/>
<g clip-path="url(#clip0_1746_53243)">
<path d="M392.685 200.784C398.815 200.784 403.784 195.815 403.784 189.685C403.784 183.555 398.815 178.586 392.685 178.586C386.555 178.586 381.586 183.555 381.586 189.685C381.586 195.815 386.555 200.784 392.685 200.784Z" stroke="#1D1D1B" stroke-width="1.6" stroke-linecap="round" stroke-linejoin="round"/>
<path d="M400.523 197.527L410.412 207.416" stroke="#1D1D1B" stroke-width="1.6" stroke-linecap="round" stroke-linejoin="round"/>
</g>
<g clip-path="url(#clip1_1746_53243)">
<path d="M476.552 109.163C476.552 106.317 475.101 103.996 473.325 103.996H457.227" stroke="black" stroke-width="1.6" stroke-linecap="round" stroke-linejoin="round"/>
<path d="M476.547 127.835V123.992" stroke="black" stroke-width="1.6" stroke-linecap="round" stroke-linejoin="round"/>
<path d="M460.454 109.163H454C454 106.298 455.45 103.996 457.227 103.996C459.004 103.996 460.454 106.298 460.454 109.163ZM460.454 109.163V127.853C460.454 130.7 461.904 133.02 463.681 133.02C465.457 133.02 466.908 130.718 466.908 127.853H483.024C483.024 130.7 481.574 133.02 479.797 133.02H463.663" stroke="black" stroke-width="1.6" stroke-linecap="round" stroke-linejoin="round"/>
<path d="M469.406 116.307L473.231 120.35L483.003 108.711" stroke="black" stroke-width="1.6" stroke-linecap="round" stroke-linejoin="round"/>
</g>
<defs>
<clipPath id="clip0_1746_53243">
<rect width="32" height="32" fill="white" transform="translate(380 177)"/>
</clipPath>
<clipPath id="clip1_1746_53243">
<rect width="31" height="31" fill="white" transform="translate(453 103)"/>
</clipPath>
</defs>
</svg>
