<svg width="600" height="233" viewBox="0 0 600 233" fill="none" xmlns="http://www.w3.org/2000/svg">
<path d="M135.603 106.899L138.436 106.032C139.07 105.832 139.736 106.099 140.07 106.632L141.936 109.599C142.303 110.165 142.17 110.932 141.636 111.365L139.603 113.032C139.236 113.332 139.07 113.799 139.136 114.265C139.236 115.032 139.236 115.832 139.136 116.599C139.07 117.065 139.236 117.532 139.603 117.832L141.67 119.599C142.203 120.032 142.303 120.765 141.936 121.365L140.07 124.332C139.736 124.865 139.036 125.132 138.436 124.932L135.736 124.065C135.303 123.932 134.836 124.032 134.47 124.265C133.77 124.765 133.036 125.165 132.236 125.499C131.803 125.665 131.47 126.032 131.37 126.499L130.836 129.065C130.703 129.699 130.136 130.165 129.436 130.165H125.603C124.936 130.165 124.37 129.699 124.203 129.065L123.67 126.532C123.57 126.099 123.236 125.732 122.803 125.532C122.003 125.199 121.27 124.799 120.57 124.299C120.203 124.032 119.736 123.965 119.303 124.099L116.57 124.932C116.17 125.065 115.736 124.999 115.403 124.799C115.236 124.699 115.07 124.532 114.936 124.365L113.07 121.399C112.703 120.832 112.836 120.065 113.37 119.632L115.403 117.965C115.77 117.665 115.936 117.199 115.87 116.732C115.77 115.965 115.77 115.165 115.87 114.399C115.936 113.932 115.77 113.465 115.403 113.165L113.336 111.399C112.803 110.965 112.703 110.232 113.07 109.632L114.936 106.665C115.27 106.132 115.97 105.865 116.57 106.065L119.27 106.932C119.703 107.065 120.17 106.965 120.536 106.732C121.236 106.232 121.97 105.832 122.77 105.499C123.203 105.332 123.536 104.965 123.636 104.499L124.17 101.932C124.303 101.299 124.87 100.832 125.57 100.832H129.403C130.07 100.832 130.636 101.299 130.803 101.932L131.37 104.565C131.436 104.965 131.703 105.299 132.07 105.499L134.503 106.832C134.836 107.032 135.236 107.065 135.603 106.932V106.899Z" stroke="black" stroke-width="1.6" stroke-linecap="round" stroke-linejoin="round"/>
<path d="M127.501 119.634C129.857 119.634 131.768 117.783 131.768 115.501C131.768 113.218 129.857 111.367 127.501 111.367C125.145 111.367 123.234 113.218 123.234 115.501C123.234 117.783 125.145 119.634 127.501 119.634Z" stroke="black" stroke-width="1.6" stroke-linecap="round" stroke-linejoin="round"/>
<rect x="200" y="78" width="199" height="78" rx="25" fill="#FEB3A4"/>
<path d="M245.891 117.188V121.531C245.729 121.745 245.477 121.979 245.133 122.234C244.794 122.484 244.344 122.701 243.781 122.883C243.219 123.065 242.518 123.156 241.68 123.156C240.966 123.156 240.312 123.036 239.719 122.797C239.125 122.552 238.612 122.195 238.18 121.727C237.753 121.258 237.422 120.688 237.188 120.016C236.953 119.339 236.836 118.568 236.836 117.703V116.914C236.836 116.055 236.943 115.289 237.156 114.617C237.375 113.94 237.688 113.367 238.094 112.898C238.5 112.43 238.99 112.076 239.562 111.836C240.141 111.591 240.794 111.469 241.523 111.469C242.456 111.469 243.227 111.625 243.836 111.938C244.451 112.245 244.924 112.672 245.258 113.219C245.591 113.766 245.802 114.391 245.891 115.094H243.969C243.906 114.698 243.784 114.344 243.602 114.031C243.424 113.719 243.169 113.474 242.836 113.297C242.508 113.115 242.081 113.023 241.555 113.023C241.102 113.023 240.703 113.109 240.359 113.281C240.016 113.453 239.729 113.706 239.5 114.039C239.276 114.372 239.107 114.779 238.992 115.258C238.878 115.737 238.82 116.284 238.82 116.898V117.703C238.82 118.328 238.885 118.883 239.016 119.367C239.151 119.852 239.344 120.26 239.594 120.594C239.849 120.927 240.159 121.18 240.523 121.352C240.888 121.518 241.299 121.602 241.758 121.602C242.206 121.602 242.573 121.565 242.859 121.492C243.146 121.414 243.372 121.323 243.539 121.219C243.711 121.109 243.844 121.005 243.938 120.906V118.648H241.57V117.188H245.891ZM252.082 123.156C251.457 123.156 250.891 123.055 250.386 122.852C249.886 122.643 249.459 122.354 249.105 121.984C248.756 121.615 248.488 121.18 248.3 120.68C248.113 120.18 248.019 119.641 248.019 119.062V118.75C248.019 118.089 248.115 117.49 248.308 116.953C248.501 116.417 248.769 115.958 249.113 115.578C249.457 115.193 249.863 114.898 250.332 114.695C250.8 114.492 251.308 114.391 251.855 114.391C252.459 114.391 252.988 114.492 253.441 114.695C253.894 114.898 254.269 115.185 254.566 115.555C254.868 115.919 255.092 116.354 255.238 116.859C255.389 117.365 255.464 117.922 255.464 118.531V119.336H248.933V117.984H253.605V117.836C253.595 117.497 253.527 117.18 253.402 116.883C253.282 116.586 253.097 116.346 252.847 116.164C252.597 115.982 252.264 115.891 251.847 115.891C251.535 115.891 251.256 115.958 251.011 116.094C250.772 116.224 250.571 116.414 250.41 116.664C250.248 116.914 250.123 117.216 250.035 117.57C249.951 117.919 249.91 118.312 249.91 118.75V119.062C249.91 119.432 249.959 119.776 250.058 120.094C250.162 120.406 250.313 120.68 250.511 120.914C250.709 121.148 250.949 121.333 251.23 121.469C251.511 121.599 251.832 121.664 252.191 121.664C252.644 121.664 253.048 121.573 253.402 121.391C253.756 121.208 254.063 120.951 254.324 120.617L255.316 121.578C255.134 121.844 254.897 122.099 254.605 122.344C254.313 122.583 253.957 122.779 253.535 122.93C253.118 123.081 252.634 123.156 252.082 123.156ZM262.155 120.711C262.155 120.523 262.108 120.354 262.015 120.203C261.921 120.047 261.741 119.906 261.476 119.781C261.215 119.656 260.83 119.542 260.319 119.438C259.871 119.339 259.46 119.221 259.085 119.086C258.715 118.945 258.397 118.776 258.132 118.578C257.866 118.38 257.661 118.146 257.515 117.875C257.369 117.604 257.296 117.292 257.296 116.938C257.296 116.594 257.371 116.268 257.522 115.961C257.674 115.654 257.89 115.383 258.171 115.148C258.452 114.914 258.793 114.729 259.194 114.594C259.601 114.458 260.054 114.391 260.554 114.391C261.262 114.391 261.869 114.51 262.374 114.75C262.884 114.984 263.275 115.305 263.546 115.711C263.817 116.112 263.952 116.565 263.952 117.07H262.069C262.069 116.846 262.012 116.638 261.897 116.445C261.788 116.247 261.621 116.089 261.397 115.969C261.174 115.844 260.892 115.781 260.554 115.781C260.231 115.781 259.963 115.833 259.749 115.938C259.541 116.036 259.384 116.167 259.28 116.328C259.181 116.49 259.132 116.667 259.132 116.859C259.132 117 259.158 117.128 259.21 117.242C259.267 117.352 259.361 117.453 259.491 117.547C259.621 117.635 259.799 117.719 260.022 117.797C260.252 117.875 260.538 117.951 260.882 118.023C261.528 118.159 262.082 118.333 262.546 118.547C263.015 118.755 263.374 119.026 263.624 119.359C263.874 119.688 263.999 120.104 263.999 120.609C263.999 120.984 263.918 121.328 263.757 121.641C263.601 121.948 263.371 122.216 263.069 122.445C262.767 122.669 262.405 122.844 261.983 122.969C261.567 123.094 261.098 123.156 260.577 123.156C259.812 123.156 259.163 123.021 258.632 122.75C258.101 122.474 257.697 122.122 257.421 121.695C257.15 121.263 257.015 120.815 257.015 120.352H258.835C258.856 120.701 258.952 120.979 259.124 121.188C259.301 121.391 259.52 121.539 259.78 121.633C260.046 121.721 260.319 121.766 260.601 121.766C260.939 121.766 261.223 121.721 261.452 121.633C261.681 121.539 261.856 121.414 261.976 121.258C262.095 121.096 262.155 120.914 262.155 120.711ZM269.581 121.656C269.888 121.656 270.164 121.596 270.409 121.477C270.659 121.352 270.859 121.18 271.01 120.961C271.167 120.742 271.253 120.49 271.268 120.203H273.042C273.031 120.75 272.87 121.247 272.557 121.695C272.245 122.143 271.831 122.5 271.315 122.766C270.799 123.026 270.229 123.156 269.604 123.156C268.958 123.156 268.396 123.047 267.917 122.828C267.437 122.604 267.039 122.297 266.721 121.906C266.404 121.516 266.164 121.065 266.003 120.555C265.846 120.044 265.768 119.497 265.768 118.914V118.641C265.768 118.057 265.846 117.51 266.003 117C266.164 116.484 266.404 116.031 266.721 115.641C267.039 115.25 267.437 114.945 267.917 114.727C268.396 114.503 268.956 114.391 269.596 114.391C270.273 114.391 270.867 114.526 271.378 114.797C271.888 115.062 272.289 115.435 272.581 115.914C272.878 116.388 273.031 116.94 273.042 117.57H271.268C271.253 117.258 271.174 116.977 271.034 116.727C270.898 116.471 270.706 116.268 270.456 116.117C270.211 115.966 269.917 115.891 269.573 115.891C269.193 115.891 268.878 115.969 268.628 116.125C268.378 116.276 268.182 116.484 268.042 116.75C267.901 117.01 267.799 117.305 267.737 117.633C267.68 117.956 267.651 118.292 267.651 118.641V118.914C267.651 119.263 267.68 119.602 267.737 119.93C267.794 120.258 267.893 120.552 268.034 120.812C268.18 121.068 268.378 121.273 268.628 121.43C268.878 121.581 269.195 121.656 269.581 121.656ZM276.826 111V123H274.951V111H276.826ZM276.498 118.461L275.889 118.453C275.894 117.87 275.975 117.331 276.131 116.836C276.292 116.341 276.516 115.911 276.803 115.547C277.094 115.177 277.443 114.893 277.85 114.695C278.256 114.492 278.706 114.391 279.201 114.391C279.618 114.391 279.993 114.448 280.326 114.562C280.665 114.677 280.956 114.862 281.201 115.117C281.446 115.367 281.631 115.695 281.756 116.102C281.886 116.503 281.951 116.992 281.951 117.57V123H280.061V117.555C280.061 117.148 280.001 116.826 279.881 116.586C279.766 116.346 279.597 116.174 279.373 116.07C279.149 115.961 278.876 115.906 278.553 115.906C278.214 115.906 277.915 115.974 277.654 116.109C277.399 116.245 277.186 116.43 277.014 116.664C276.842 116.898 276.712 117.169 276.623 117.477C276.54 117.784 276.498 118.112 276.498 118.461ZM289.103 121.305V117.273C289.103 116.971 289.048 116.711 288.939 116.492C288.83 116.273 288.663 116.104 288.439 115.984C288.22 115.865 287.944 115.805 287.611 115.805C287.304 115.805 287.038 115.857 286.814 115.961C286.59 116.065 286.416 116.206 286.291 116.383C286.166 116.56 286.103 116.76 286.103 116.984H284.228C284.228 116.651 284.309 116.328 284.47 116.016C284.632 115.703 284.866 115.424 285.173 115.18C285.481 114.935 285.848 114.742 286.275 114.602C286.702 114.461 287.181 114.391 287.713 114.391C288.348 114.391 288.91 114.497 289.4 114.711C289.895 114.924 290.283 115.247 290.564 115.68C290.851 116.107 290.994 116.643 290.994 117.289V121.047C290.994 121.432 291.02 121.779 291.072 122.086C291.129 122.388 291.21 122.651 291.314 122.875V123H289.384C289.296 122.797 289.226 122.539 289.173 122.227C289.127 121.909 289.103 121.602 289.103 121.305ZM289.377 117.859L289.392 119.023H288.041C287.692 119.023 287.384 119.057 287.119 119.125C286.853 119.188 286.632 119.281 286.455 119.406C286.278 119.531 286.145 119.682 286.056 119.859C285.968 120.036 285.923 120.237 285.923 120.461C285.923 120.685 285.976 120.891 286.08 121.078C286.184 121.26 286.335 121.404 286.533 121.508C286.736 121.612 286.981 121.664 287.267 121.664C287.653 121.664 287.989 121.586 288.275 121.43C288.567 121.268 288.796 121.073 288.963 120.844C289.129 120.609 289.218 120.388 289.228 120.18L289.838 121.016C289.775 121.229 289.668 121.458 289.517 121.703C289.366 121.948 289.168 122.182 288.923 122.406C288.684 122.625 288.395 122.805 288.056 122.945C287.723 123.086 287.338 123.156 286.9 123.156C286.348 123.156 285.856 123.047 285.423 122.828C284.991 122.604 284.653 122.305 284.408 121.93C284.163 121.549 284.041 121.12 284.041 120.641C284.041 120.193 284.124 119.797 284.291 119.453C284.463 119.104 284.713 118.812 285.041 118.578C285.374 118.344 285.78 118.167 286.259 118.047C286.739 117.922 287.285 117.859 287.9 117.859H289.377ZM285.009 112.305C285.009 112.049 285.098 111.836 285.275 111.664C285.452 111.487 285.686 111.398 285.978 111.398C286.275 111.398 286.512 111.487 286.689 111.664C286.866 111.836 286.955 112.049 286.955 112.305C286.955 112.555 286.866 112.768 286.689 112.945C286.512 113.117 286.275 113.203 285.978 113.203C285.686 113.203 285.452 113.117 285.275 112.945C285.098 112.768 285.009 112.555 285.009 112.305ZM288.627 112.312C288.627 112.057 288.715 111.844 288.892 111.672C289.069 111.495 289.306 111.406 289.603 111.406C289.895 111.406 290.129 111.495 290.306 111.672C290.489 111.844 290.58 112.057 290.58 112.312C290.58 112.562 290.489 112.776 290.306 112.953C290.129 113.125 289.895 113.211 289.603 113.211C289.306 113.211 289.069 113.125 288.892 112.953C288.715 112.776 288.627 112.562 288.627 112.312ZM295.989 123H294.107V113.734C294.107 113.104 294.224 112.576 294.458 112.148C294.698 111.716 295.039 111.391 295.482 111.172C295.924 110.948 296.448 110.836 297.052 110.836C297.239 110.836 297.424 110.849 297.607 110.875C297.789 110.896 297.966 110.93 298.138 110.977L298.091 112.43C297.987 112.404 297.872 112.385 297.747 112.375C297.627 112.365 297.497 112.359 297.357 112.359C297.07 112.359 296.823 112.414 296.614 112.523C296.411 112.628 296.255 112.781 296.146 112.984C296.041 113.188 295.989 113.438 295.989 113.734V123ZM297.732 114.547V115.922H292.81V114.547H297.732ZM303.454 114.547V115.922H298.688V114.547H303.454ZM300.063 112.477H301.946V120.664C301.946 120.924 301.982 121.125 302.055 121.266C302.133 121.401 302.24 121.492 302.376 121.539C302.511 121.586 302.67 121.609 302.852 121.609C302.982 121.609 303.107 121.602 303.227 121.586C303.347 121.57 303.443 121.555 303.516 121.539L303.524 122.977C303.368 123.023 303.186 123.065 302.977 123.102C302.774 123.138 302.54 123.156 302.274 123.156C301.842 123.156 301.459 123.081 301.126 122.93C300.792 122.773 300.532 122.521 300.344 122.172C300.157 121.823 300.063 121.359 300.063 120.781V112.477ZM310.129 120.711C310.129 120.523 310.082 120.354 309.988 120.203C309.895 120.047 309.715 119.906 309.449 119.781C309.189 119.656 308.804 119.542 308.293 119.438C307.845 119.339 307.434 119.221 307.059 119.086C306.689 118.945 306.371 118.776 306.106 118.578C305.84 118.38 305.634 118.146 305.488 117.875C305.343 117.604 305.27 117.292 305.27 116.938C305.27 116.594 305.345 116.268 305.496 115.961C305.647 115.654 305.863 115.383 306.145 115.148C306.426 114.914 306.767 114.729 307.168 114.594C307.574 114.458 308.027 114.391 308.527 114.391C309.236 114.391 309.843 114.51 310.348 114.75C310.858 114.984 311.249 115.305 311.52 115.711C311.791 116.112 311.926 116.565 311.926 117.07H310.043C310.043 116.846 309.986 116.638 309.871 116.445C309.762 116.247 309.595 116.089 309.371 115.969C309.147 115.844 308.866 115.781 308.527 115.781C308.205 115.781 307.936 115.833 307.723 115.938C307.514 116.036 307.358 116.167 307.254 116.328C307.155 116.49 307.106 116.667 307.106 116.859C307.106 117 307.132 117.128 307.184 117.242C307.241 117.352 307.335 117.453 307.465 117.547C307.595 117.635 307.772 117.719 307.996 117.797C308.225 117.875 308.512 117.951 308.856 118.023C309.501 118.159 310.056 118.333 310.52 118.547C310.988 118.755 311.348 119.026 311.598 119.359C311.848 119.688 311.973 120.104 311.973 120.609C311.973 120.984 311.892 121.328 311.731 121.641C311.574 121.948 311.345 122.216 311.043 122.445C310.741 122.669 310.379 122.844 309.957 122.969C309.541 123.094 309.072 123.156 308.551 123.156C307.785 123.156 307.137 123.021 306.606 122.75C306.074 122.474 305.671 122.122 305.395 121.695C305.124 121.263 304.988 120.815 304.988 120.352H306.809C306.83 120.701 306.926 120.979 307.098 121.188C307.275 121.391 307.494 121.539 307.754 121.633C308.02 121.721 308.293 121.766 308.574 121.766C308.913 121.766 309.197 121.721 309.426 121.633C309.655 121.539 309.83 121.414 309.949 121.258C310.069 121.096 310.129 120.914 310.129 120.711ZM315.984 116.266V123H314.101V114.547H315.875L315.984 116.266ZM315.679 118.461L315.039 118.453C315.039 117.87 315.112 117.331 315.257 116.836C315.403 116.341 315.617 115.911 315.898 115.547C316.179 115.177 316.528 114.893 316.945 114.695C317.367 114.492 317.854 114.391 318.406 114.391C318.791 114.391 319.143 114.448 319.461 114.562C319.784 114.672 320.062 114.846 320.297 115.086C320.536 115.326 320.718 115.633 320.843 116.008C320.974 116.383 321.039 116.836 321.039 117.367V123H319.156V117.531C319.156 117.12 319.093 116.797 318.968 116.562C318.849 116.328 318.674 116.161 318.445 116.062C318.221 115.958 317.953 115.906 317.64 115.906C317.286 115.906 316.984 115.974 316.734 116.109C316.489 116.245 316.289 116.43 316.132 116.664C315.976 116.898 315.862 117.169 315.789 117.477C315.716 117.784 315.679 118.112 315.679 118.461ZM320.922 117.961L320.039 118.156C320.039 117.646 320.109 117.164 320.25 116.711C320.396 116.253 320.606 115.852 320.882 115.508C321.164 115.159 321.51 114.885 321.922 114.688C322.333 114.49 322.804 114.391 323.336 114.391C323.768 114.391 324.153 114.451 324.492 114.57C324.836 114.685 325.127 114.867 325.367 115.117C325.606 115.367 325.789 115.693 325.914 116.094C326.039 116.49 326.101 116.969 326.101 117.531V123H324.211V117.523C324.211 117.096 324.148 116.766 324.023 116.531C323.903 116.297 323.731 116.135 323.507 116.047C323.284 115.953 323.015 115.906 322.703 115.906C322.411 115.906 322.153 115.961 321.929 116.07C321.711 116.174 321.526 116.323 321.375 116.516C321.224 116.703 321.109 116.919 321.031 117.164C320.958 117.409 320.922 117.674 320.922 117.961ZM328.159 118.867V118.688C328.159 118.078 328.248 117.513 328.425 116.992C328.602 116.466 328.857 116.01 329.191 115.625C329.529 115.234 329.941 114.932 330.425 114.719C330.915 114.5 331.467 114.391 332.081 114.391C332.701 114.391 333.253 114.5 333.738 114.719C334.227 114.932 334.641 115.234 334.98 115.625C335.318 116.01 335.576 116.466 335.753 116.992C335.93 117.513 336.019 118.078 336.019 118.688V118.867C336.019 119.477 335.93 120.042 335.753 120.562C335.576 121.083 335.318 121.539 334.98 121.93C334.641 122.315 334.23 122.617 333.745 122.836C333.261 123.049 332.711 123.156 332.097 123.156C331.477 123.156 330.922 123.049 330.433 122.836C329.948 122.617 329.537 122.315 329.198 121.93C328.86 121.539 328.602 121.083 328.425 120.562C328.248 120.042 328.159 119.477 328.159 118.867ZM330.042 118.688V118.867C330.042 119.247 330.081 119.607 330.159 119.945C330.238 120.284 330.36 120.581 330.527 120.836C330.693 121.091 330.907 121.292 331.167 121.438C331.428 121.583 331.738 121.656 332.097 121.656C332.446 121.656 332.748 121.583 333.003 121.438C333.264 121.292 333.477 121.091 333.644 120.836C333.81 120.581 333.933 120.284 334.011 119.945C334.094 119.607 334.136 119.247 334.136 118.867V118.688C334.136 118.312 334.094 117.958 334.011 117.625C333.933 117.286 333.808 116.987 333.636 116.727C333.469 116.466 333.256 116.263 332.995 116.117C332.74 115.966 332.435 115.891 332.081 115.891C331.727 115.891 331.42 115.966 331.159 116.117C330.904 116.263 330.693 116.466 330.527 116.727C330.36 116.987 330.238 117.286 330.159 117.625C330.081 117.958 330.042 118.312 330.042 118.688ZM343.233 121.25V111H345.124V123H343.413L343.233 121.25ZM337.733 118.867V118.703C337.733 118.062 337.809 117.479 337.96 116.953C338.111 116.422 338.329 115.966 338.616 115.586C338.902 115.201 339.251 114.906 339.663 114.703C340.074 114.495 340.538 114.391 341.053 114.391C341.564 114.391 342.012 114.49 342.397 114.688C342.783 114.885 343.111 115.169 343.382 115.539C343.652 115.904 343.869 116.341 344.03 116.852C344.191 117.357 344.306 117.919 344.374 118.539V119.062C344.306 119.667 344.191 120.219 344.03 120.719C343.869 121.219 343.652 121.651 343.382 122.016C343.111 122.38 342.78 122.661 342.389 122.859C342.004 123.057 341.553 123.156 341.038 123.156C340.527 123.156 340.066 123.049 339.655 122.836C339.249 122.622 338.902 122.323 338.616 121.938C338.329 121.552 338.111 121.099 337.96 120.578C337.809 120.052 337.733 119.482 337.733 118.867ZM339.616 118.703V118.867C339.616 119.253 339.65 119.612 339.717 119.945C339.79 120.279 339.902 120.573 340.053 120.828C340.204 121.078 340.4 121.276 340.639 121.422C340.884 121.562 341.176 121.633 341.514 121.633C341.941 121.633 342.293 121.539 342.569 121.352C342.845 121.164 343.061 120.911 343.217 120.594C343.379 120.271 343.488 119.911 343.546 119.516V118.102C343.514 117.794 343.449 117.508 343.35 117.242C343.257 116.977 343.129 116.745 342.967 116.547C342.806 116.344 342.606 116.188 342.366 116.078C342.132 115.964 341.853 115.906 341.53 115.906C341.186 115.906 340.895 115.979 340.655 116.125C340.415 116.271 340.217 116.471 340.061 116.727C339.91 116.982 339.798 117.279 339.725 117.617C339.652 117.956 339.616 118.318 339.616 118.703ZM351.299 123.156C350.674 123.156 350.109 123.055 349.604 122.852C349.104 122.643 348.677 122.354 348.323 121.984C347.974 121.615 347.705 121.18 347.518 120.68C347.33 120.18 347.237 119.641 347.237 119.062V118.75C347.237 118.089 347.333 117.49 347.526 116.953C347.718 116.417 347.987 115.958 348.33 115.578C348.674 115.193 349.08 114.898 349.549 114.695C350.018 114.492 350.526 114.391 351.073 114.391C351.677 114.391 352.205 114.492 352.658 114.695C353.112 114.898 353.487 115.185 353.783 115.555C354.086 115.919 354.309 116.354 354.455 116.859C354.606 117.365 354.682 117.922 354.682 118.531V119.336H348.151V117.984H352.823V117.836C352.812 117.497 352.744 117.18 352.619 116.883C352.5 116.586 352.315 116.346 352.065 116.164C351.815 115.982 351.481 115.891 351.065 115.891C350.752 115.891 350.474 115.958 350.229 116.094C349.989 116.224 349.789 116.414 349.627 116.664C349.466 116.914 349.341 117.216 349.252 117.57C349.169 117.919 349.127 118.312 349.127 118.75V119.062C349.127 119.432 349.177 119.776 349.276 120.094C349.38 120.406 349.531 120.68 349.729 120.914C349.927 121.148 350.166 121.333 350.448 121.469C350.729 121.599 351.049 121.664 351.408 121.664C351.862 121.664 352.265 121.573 352.619 121.391C352.974 121.208 353.281 120.951 353.541 120.617L354.533 121.578C354.351 121.844 354.114 122.099 353.823 122.344C353.531 122.583 353.174 122.779 352.752 122.93C352.336 123.081 351.851 123.156 351.299 123.156ZM358.646 111V123H356.756V111H358.646ZM363.204 111V123H361.314V111H363.204Z" fill="black"/>
<path fill-rule="evenodd" clip-rule="evenodd" d="M218.967 181.909L212.329 188.546C212.165 188.71 211.907 188.71 211.766 188.546L208.459 185.239C208.295 185.075 208.295 184.817 208.459 184.676L215.097 178.039C211.649 176.257 207.31 176.749 204.424 179.657C201.774 182.307 201.094 186.177 202.384 189.46L185.073 206.744C183.642 208.175 183.642 210.497 185.073 211.927C186.504 213.358 188.826 213.358 190.257 211.927L207.544 194.643C210.828 195.933 214.698 195.253 217.349 192.603C220.234 189.718 220.75 185.379 218.967 181.932V181.909Z" stroke="black" stroke-width="1.6" stroke-linejoin="round"/>
<path d="M391.391 45.7529L406.503 30.6406L414.358 38.4956L399.246 53.6079" stroke="black" stroke-width="1.6" stroke-linecap="round" stroke-linejoin="round"/>
<path d="M414.961 26.1407L418.855 30.0348C419.942 31.1215 419.942 32.8723 418.855 33.959L414.357 38.4568L406.509 30.6083L411.007 26.1106C412.093 25.0238 413.844 25.0238 414.931 26.1106L414.961 26.1407Z" stroke="black" stroke-width="1.6" stroke-linecap="round" stroke-linejoin="round"/>
<path d="M399.243 53.6089L386.734 58.3475L391.388 45.7539" stroke="black" stroke-width="1.6" stroke-linecap="round" stroke-linejoin="round"/>
<path d="M215.971 41.3342L206.359 31.8281L198.78 39.3245L208.391 48.8306L215.971 41.3342Z" stroke="black" stroke-width="1.6" stroke-linecap="round" stroke-linejoin="round"/>
<path d="M203.612 44.0664L193.258 54.307" stroke="black" stroke-width="1.6" stroke-linecap="round" stroke-linejoin="round"/>
<path d="M207.468 29.2769L205.694 27.5224C205.294 27.126 204.644 27.126 204.243 27.5224L194.47 37.188C194.069 37.5844 194.069 38.2271 194.47 38.6235L196.244 40.3779C196.645 40.7743 197.295 40.7743 197.695 40.3779L207.468 30.7124C207.869 30.316 207.869 29.6733 207.468 29.2769Z" stroke="black" stroke-width="1.6" stroke-linecap="round" stroke-linejoin="round"/>
<path d="M220.328 41.9996L218.554 40.2451C218.153 39.8487 217.503 39.8487 217.102 40.2451L207.329 49.9106C206.929 50.307 206.929 50.9497 207.329 51.3461L209.103 53.1006C209.504 53.497 210.154 53.497 210.555 53.1006L220.328 43.435C220.729 43.0386 220.729 42.396 220.328 41.9996Z" stroke="black" stroke-width="1.6" stroke-linecap="round" stroke-linejoin="round"/>
<g clip-path="url(#clip0_1746_53242)">
<path d="M392.685 200.784C398.815 200.784 403.784 195.815 403.784 189.685C403.784 183.555 398.815 178.586 392.685 178.586C386.555 178.586 381.586 183.555 381.586 189.685C381.586 195.815 386.555 200.784 392.685 200.784Z" stroke="#1D1D1B" stroke-width="1.6" stroke-linecap="round" stroke-linejoin="round"/>
<path d="M400.523 197.527L410.412 207.416" stroke="#1D1D1B" stroke-width="1.6" stroke-linecap="round" stroke-linejoin="round"/>
</g>
<g clip-path="url(#clip1_1746_53242)">
<path d="M476.552 109.163C476.552 106.317 475.101 103.996 473.325 103.996H457.227" stroke="black" stroke-width="1.6" stroke-linecap="round" stroke-linejoin="round"/>
<path d="M476.547 127.835V123.992" stroke="black" stroke-width="1.6" stroke-linecap="round" stroke-linejoin="round"/>
<path d="M460.454 109.163H454C454 106.298 455.45 103.996 457.227 103.996C459.004 103.996 460.454 106.298 460.454 109.163ZM460.454 109.163V127.853C460.454 130.7 461.904 133.02 463.681 133.02C465.457 133.02 466.908 130.718 466.908 127.853H483.024C483.024 130.7 481.574 133.02 479.797 133.02H463.663" stroke="black" stroke-width="1.6" stroke-linecap="round" stroke-linejoin="round"/>
<path d="M469.406 116.307L473.231 120.35L483.003 108.711" stroke="black" stroke-width="1.6" stroke-linecap="round" stroke-linejoin="round"/>
</g>
<defs>
<clipPath id="clip0_1746_53242">
<rect width="32" height="32" fill="white" transform="translate(380 177)"/>
</clipPath>
<clipPath id="clip1_1746_53242">
<rect width="31" height="31" fill="white" transform="translate(453 103)"/>
</clipPath>
</defs>
</svg>
