<svg width="30" height="30" viewBox="0 0 30 30" fill="none" xmlns="http://www.w3.org/2000/svg">
<path fill-rule="evenodd" clip-rule="evenodd" d="M27.0599 27H14.9399V16.65L21.0749 12L27.0599 16.65V27Z" stroke="#1D1D1B" stroke-width="1.1" stroke-linejoin="round"/>
<path d="M14.9399 3H2.93994V27H14.9399V3Z" stroke="#1D1D1B" stroke-width="1.1" stroke-linejoin="round"/>
<path d="M7.37994 6.14999H6.14994C5.82685 6.14999 5.56494 6.41191 5.56494 6.73499V7.96499C5.56494 8.28808 5.82685 8.54999 6.14994 8.54999H7.37994C7.70303 8.54999 7.96494 8.28808 7.96494 7.96499V6.73499C7.96494 6.41191 7.70303 6.14999 7.37994 6.14999Z" fill="#1D1D1B"/>
<path d="M11.7299 6.14999H10.4999C10.1768 6.14999 9.91492 6.41191 9.91492 6.73499V7.96499C9.91492 8.28808 10.1768 8.54999 10.4999 8.54999H11.7299C12.053 8.54999 12.3149 8.28808 12.3149 7.96499V6.73499C12.3149 6.41191 12.053 6.14999 11.7299 6.14999Z" fill="#1D1D1B"/>
<path d="M7.37994 11.25H6.14994C5.82685 11.25 5.56494 11.5119 5.56494 11.835V13.065C5.56494 13.3881 5.82685 13.65 6.14994 13.65H7.37994C7.70303 13.65 7.96494 13.3881 7.96494 13.065V11.835C7.96494 11.5119 7.70303 11.25 7.37994 11.25Z" fill="#1D1D1B"/>
<path d="M11.7299 11.25H10.4999C10.1768 11.25 9.91492 11.5119 9.91492 11.835V13.065C9.91492 13.3881 10.1768 13.65 10.4999 13.65H11.7299C12.053 13.65 12.3149 13.3881 12.3149 13.065V11.835C12.3149 11.5119 12.053 11.25 11.7299 11.25Z" fill="#1D1D1B"/>
<path d="M7.37994 16.35H6.14994C5.82685 16.35 5.56494 16.6119 5.56494 16.935V18.165C5.56494 18.4881 5.82685 18.75 6.14994 18.75H7.37994C7.70303 18.75 7.96494 18.4881 7.96494 18.165V16.935C7.96494 16.6119 7.70303 16.35 7.37994 16.35Z" fill="#1D1D1B"/>
<path d="M11.7299 16.35H10.4999C10.1768 16.35 9.91492 16.6119 9.91492 16.935V18.165C9.91492 18.4881 10.1768 18.75 10.4999 18.75H11.7299C12.053 18.75 12.3149 18.4881 12.3149 18.165V16.935C12.3149 16.6119 12.053 16.35 11.7299 16.35Z" fill="#1D1D1B"/>
<path d="M7.37994 21.45H6.14994C5.82685 21.45 5.56494 21.7119 5.56494 22.035V23.265C5.56494 23.5881 5.82685 23.85 6.14994 23.85H7.37994C7.70303 23.85 7.96494 23.5881 7.96494 23.265V22.035C7.96494 21.7119 7.70303 21.45 7.37994 21.45Z" fill="#1D1D1B"/>
<path d="M11.7299 21.45H10.4999C10.1768 21.45 9.91492 21.7119 9.91492 22.035V23.265C9.91492 23.5881 10.1768 23.85 10.4999 23.85H11.7299C12.053 23.85 12.3149 23.5881 12.3149 23.265V22.035C12.3149 21.7119 12.053 21.45 11.7299 21.45Z" fill="#1D1D1B"/>
<path d="M23.01 21H19.11V27H23.01V21Z" stroke="#1D1D1B" stroke-width="1.1" stroke-linejoin="round"/>
</svg>
