<svg width="600" height="233" viewBox="0 0 600 233" fill="none" xmlns="http://www.w3.org/2000/svg">
<g clip-path="url(#clip0_1510_32093)">
<path d="M119.541 116.238L200.59 89.8432C189.278 55.8097 157.276 31.2162 119.5 31L119.551 116.238H119.541Z" fill="#FFA28F" fill-opacity="0.2"/>
<path d="M119.031 116.949H118.958L118.938 117.012L119 117.053L119.052 117.012L119.031 116.949Z" fill="#FFA28F"/>
<path d="M118.447 116.238L118.396 31C80.6194 31.2677 48.6486 55.8817 37.3672 89.9461L118.447 116.238Z" fill="#FFA28F"/>
<path d="M200.958 90.8945L119.898 117.29L170.037 186.221C191.241 170.553 205.003 145.393 205.003 117.001C205.003 107.901 203.582 99.1301 200.958 90.8945Z" fill="#FFA28F" fill-opacity="0.4"/>
<path d="M118.104 117.287L37.0144 90.9844C34.4102 99.1891 33 107.929 33 116.988C33 145.411 46.7929 170.612 68.0485 186.27L118.104 117.287Z" fill="#FFA28F" fill-opacity="0.8"/>
<path d="M118.999 117.938L68.9531 186.921C83.0549 197.03 100.327 203.011 118.999 203.011C137.671 203.011 155.015 197.02 169.127 186.869L118.999 117.948V117.938Z" fill="#FFA28F" fill-opacity="0.6"/>
<path d="M114.944 180.396C115.91 180.396 116.693 179.613 116.693 178.647C116.693 177.681 115.91 176.898 114.944 176.898C113.978 176.898 113.195 177.681 113.195 178.647C113.195 179.613 113.978 180.396 114.944 180.396Z" stroke="black" stroke-width="1.1" stroke-linecap="round" stroke-linejoin="round"/>
<path d="M114.944 167.435C115.91 167.435 116.693 166.652 116.693 165.686C116.693 164.72 115.91 163.938 114.944 163.938C113.978 163.938 113.195 164.72 113.195 165.686C113.195 166.652 113.978 167.435 114.944 167.435Z" stroke="black" stroke-width="1.1" stroke-linecap="round" stroke-linejoin="round"/>
<path d="M129.636 172.105H116.828" stroke="black" stroke-width="1.1" stroke-linecap="round" stroke-linejoin="round"/>
<path d="M116.716 170.355H113.219V173.853H116.716V170.355Z" stroke="black" stroke-width="1.1" stroke-linecap="round" stroke-linejoin="round"/>
<path d="M116.758 178.617H120.317L123.856 172.105" stroke="black" stroke-width="1.1" stroke-linecap="round" stroke-linejoin="round"/>
<path d="M127.195 175.993L129.654 172.167L127.195 168.34" stroke="black" stroke-width="1.1" stroke-linecap="round" stroke-linejoin="round"/>
<path d="M116.758 165.594H120.317L123.856 172.105" stroke="black" stroke-width="1.1" stroke-linecap="round" stroke-linejoin="round"/>
<path d="M181.081 135.922C180.385 137.373 177.453 138.476 174.154 138.476C170.855 138.476 167.913 137.383 167.227 135.922" stroke="black" stroke-width="1.1" stroke-linecap="round" stroke-linejoin="round"/>
<path d="M174.154 134.052C177.98 134.052 181.081 132.592 181.081 130.792C181.081 128.991 177.98 127.531 174.154 127.531C170.328 127.531 167.227 128.991 167.227 130.792C167.227 132.592 170.328 134.052 174.154 134.052Z" stroke="black" stroke-width="1.1" stroke-linecap="round" stroke-linejoin="round"/>
<path d="M167.227 130.793V140.458C167.904 141.919 170.922 143.012 174.231 143.012C177.54 143.012 180.375 141.91 181.071 140.458V130.793" stroke="black" stroke-width="1.1" stroke-linecap="round" stroke-linejoin="round"/>
<path d="M66.5859 130.434L71.6073 127.531L73.281 130.434" stroke="black" stroke-width="0.9" stroke-linecap="round" stroke-linejoin="round"/>
<path d="M68.0545 140.109L63.0331 143.012L61.3594 140.109" stroke="black" stroke-width="0.9" stroke-linecap="round" stroke-linejoin="round"/>
<path d="M61.6307 135.313C61.6307 135.186 61.7333 135.084 61.8599 135.084C61.9865 135.084 62.0891 135.186 62.0891 135.313C62.0891 135.44 61.9865 135.542 61.8599 135.542C61.7333 135.542 61.6307 135.44 61.6307 135.313Z" fill="black" stroke="black" stroke-width="1.6"/>
<path d="M74.3159 130.434H58.8359V140.109H74.3159V130.434Z" stroke="black" stroke-width="1.1" stroke-linecap="round" stroke-linejoin="round"/>
<path d="M74.3192 133.472C72.6358 133.472 71.2812 132.107 71.2812 130.434" stroke="black" stroke-width="0.9" stroke-linecap="round" stroke-linejoin="round"/>
<path d="M71.2812 140.108C71.2812 138.425 72.6454 137.07 74.3192 137.07" stroke="black" stroke-width="0.9" stroke-linecap="round" stroke-linejoin="round"/>
<path d="M58.8359 133.472C60.5194 133.472 61.8739 132.107 61.8739 130.434" stroke="black" stroke-width="0.9" stroke-linecap="round" stroke-linejoin="round"/>
<path d="M61.8739 140.108C61.8739 138.425 60.5097 137.07 58.8359 137.07" stroke="black" stroke-width="0.9" stroke-linecap="round" stroke-linejoin="round"/>
<path d="M66.575 138.172C67.9108 138.172 68.9937 136.873 68.9937 135.27C68.9937 133.667 67.9108 132.367 66.575 132.367C65.2392 132.367 64.1562 133.667 64.1562 135.27C64.1562 136.873 65.2392 138.172 66.575 138.172Z" stroke="black" stroke-width="1.1" stroke-miterlimit="10" stroke-linecap="round"/>
<path d="M71.2896 135.88C71.6048 135.88 71.8604 135.624 71.8604 135.309C71.8604 134.994 71.6048 134.738 71.2896 134.738C70.9743 134.738 70.7188 134.994 70.7188 135.309C70.7188 135.624 70.9743 135.88 71.2896 135.88Z" fill="black"/>
<path fill-rule="evenodd" clip-rule="evenodd" d="M93.4289 81.9654C93.9803 81.7622 94.5608 81.172 94.3964 80.4561C93.8255 77.8825 91.7164 75.9766 89.1912 75.9766H86.5886C84.0635 75.9766 81.9543 77.8825 81.3835 80.4561C81.219 81.1817 81.7124 81.7622 82.351 81.9654C82.9895 82.1686 84.6343 82.8361 87.7787 82.8361C90.923 82.8361 92.8774 82.1686 93.4289 81.9654Z" stroke="black" stroke-width="1.1" stroke-linecap="round" stroke-linejoin="round"/>
<path d="M87.8661 73.4314C89.5439 73.4314 90.904 72.0712 90.904 70.3934C90.904 68.7156 89.5439 67.3555 87.8661 67.3555C86.1883 67.3555 84.8281 68.7156 84.8281 70.3934C84.8281 72.0712 86.1883 73.4314 87.8661 73.4314Z" stroke="black" stroke-width="1.1" stroke-linecap="round" stroke-linejoin="round"/>
<path d="M150.74 81.5737C155.015 81.5737 158.48 78.1084 158.48 73.8337C158.48 69.5591 155.015 66.0938 150.74 66.0938C146.465 66.0938 143 69.5591 143 73.8337C143 78.1084 146.465 81.5737 150.74 81.5737Z" stroke="black" stroke-width="1.1" stroke-linecap="round" stroke-linejoin="round"/>
<path d="M150.737 78.3912C153.253 78.3912 155.294 76.351 155.294 73.8343C155.294 71.3175 153.253 69.2773 150.737 69.2773C148.22 69.2773 146.18 71.3175 146.18 73.8343C146.18 76.351 148.22 78.3912 150.737 78.3912Z" stroke="black" stroke-width="1.1" stroke-linecap="round" stroke-linejoin="round"/>
<path d="M150.741 75.2086C151.5 75.2086 152.115 74.5935 152.115 73.8348C152.115 73.076 151.5 72.4609 150.741 72.4609C149.982 72.4609 149.367 73.076 149.367 73.8348C149.367 74.5935 149.982 75.2086 150.741 75.2086Z" stroke="black" stroke-width="1.1" stroke-linecap="round" stroke-linejoin="round"/>
</g>
<path d="M261.497 71.7008C268.787 71.7008 274.697 65.7909 274.697 58.5008C274.697 51.2106 268.787 45.3008 261.497 45.3008C254.207 45.3008 248.297 51.2106 248.297 58.5008C248.297 65.7909 254.207 71.7008 261.497 71.7008Z" stroke="black" stroke-width="1.6" stroke-linecap="round" stroke-linejoin="round"/>
<path d="M261.498 66.2696C265.79 66.2696 269.27 62.7901 269.27 58.4981C269.27 54.206 265.79 50.7266 261.498 50.7266C257.206 50.7266 253.727 54.206 253.727 58.4981C253.727 62.7901 257.206 66.2696 261.498 66.2696Z" stroke="black" stroke-width="1.6" stroke-linecap="round" stroke-linejoin="round"/>
<path d="M261.499 60.8423C262.793 60.8423 263.842 59.7933 263.842 58.4993C263.842 57.2052 262.793 56.1562 261.499 56.1562C260.205 56.1562 259.156 57.2052 259.156 58.4993C259.156 59.7933 260.205 60.8423 261.499 60.8423Z" stroke="black" stroke-width="1.6" stroke-linecap="round" stroke-linejoin="round"/>
<path d="M291.141 61.0703C291.141 60.8359 291.104 60.6276 291.031 60.4453C290.964 60.263 290.841 60.0964 290.664 59.9453C290.487 59.7943 290.237 59.6484 289.914 59.5078C289.596 59.362 289.19 59.2135 288.695 59.0625C288.154 58.8958 287.654 58.7109 287.195 58.5078C286.742 58.2995 286.346 58.0599 286.008 57.7891C285.669 57.513 285.406 57.1979 285.219 56.8438C285.031 56.4844 284.938 56.0703 284.938 55.6016C284.938 55.138 285.034 54.7161 285.227 54.3359C285.424 53.9557 285.703 53.6276 286.062 53.3516C286.427 53.0703 286.857 52.8542 287.352 52.7031C287.846 52.5469 288.393 52.4688 288.992 52.4688C289.836 52.4688 290.562 52.625 291.172 52.9375C291.786 53.25 292.258 53.6693 292.586 54.1953C292.919 54.7214 293.086 55.3021 293.086 55.9375H291.141C291.141 55.5625 291.06 55.2318 290.898 54.9453C290.742 54.6536 290.503 54.4245 290.18 54.2578C289.862 54.0911 289.458 54.0078 288.969 54.0078C288.505 54.0078 288.12 54.0781 287.812 54.2188C287.505 54.3594 287.276 54.5495 287.125 54.7891C286.974 55.0286 286.898 55.2995 286.898 55.6016C286.898 55.8151 286.948 56.0104 287.047 56.1875C287.146 56.3594 287.297 56.5208 287.5 56.6719C287.703 56.8177 287.958 56.9557 288.266 57.0859C288.573 57.2161 288.935 57.3411 289.352 57.4609C289.982 57.6484 290.531 57.8568 291 58.0859C291.469 58.3099 291.859 58.5651 292.172 58.8516C292.484 59.138 292.719 59.4635 292.875 59.8281C293.031 60.1875 293.109 60.5964 293.109 61.0547C293.109 61.5339 293.013 61.9661 292.82 62.3516C292.628 62.7318 292.352 63.0573 291.992 63.3281C291.638 63.5938 291.211 63.7995 290.711 63.9453C290.216 64.0859 289.664 64.1562 289.055 64.1562C288.508 64.1562 287.969 64.0833 287.438 63.9375C286.911 63.7917 286.432 63.5703 286 63.2734C285.568 62.9714 285.224 62.5964 284.969 62.1484C284.714 61.6953 284.586 61.1667 284.586 60.5625H286.547C286.547 60.9323 286.609 61.2474 286.734 61.5078C286.865 61.7682 287.044 61.9818 287.273 62.1484C287.503 62.3099 287.768 62.4297 288.07 62.5078C288.378 62.5859 288.706 62.625 289.055 62.625C289.513 62.625 289.896 62.5599 290.203 62.4297C290.516 62.2995 290.75 62.1172 290.906 61.8828C291.062 61.6484 291.141 61.3776 291.141 61.0703ZM299.011 55.5469V56.9219H294.246V55.5469H299.011ZM295.621 53.4766H297.503V61.6641C297.503 61.9245 297.54 62.125 297.613 62.2656C297.691 62.401 297.798 62.4922 297.933 62.5391C298.069 62.5859 298.227 62.6094 298.41 62.6094C298.54 62.6094 298.665 62.6016 298.785 62.5859C298.904 62.5703 299.001 62.5547 299.074 62.5391L299.082 63.9766C298.925 64.0234 298.743 64.0651 298.535 64.1016C298.332 64.138 298.097 64.1562 297.832 64.1562C297.399 64.1562 297.016 64.0807 296.683 63.9297C296.35 63.7734 296.089 63.5208 295.902 63.1719C295.714 62.8229 295.621 62.3594 295.621 61.7812V53.4766ZM302.835 57.1562V64H300.952V55.5469H302.749L302.835 57.1562ZM305.421 55.4922L305.405 57.2422C305.291 57.2214 305.166 57.2057 305.03 57.1953C304.9 57.1849 304.77 57.1797 304.64 57.1797C304.317 57.1797 304.033 57.2266 303.788 57.3203C303.543 57.4089 303.338 57.5391 303.171 57.7109C303.009 57.8776 302.884 58.0807 302.796 58.3203C302.707 58.5599 302.655 58.8281 302.64 59.125L302.21 59.1562C302.21 58.625 302.262 58.1328 302.366 57.6797C302.47 57.2266 302.627 56.8281 302.835 56.4844C303.049 56.1406 303.314 55.8724 303.632 55.6797C303.955 55.487 304.327 55.3906 304.749 55.3906C304.864 55.3906 304.986 55.401 305.116 55.4219C305.252 55.4427 305.353 55.4661 305.421 55.4922ZM312.167 62.0078V55.5469H314.057V64H312.276L312.167 62.0078ZM312.432 60.25L313.065 60.2344C313.065 60.8021 313.003 61.3255 312.878 61.8047C312.753 62.2786 312.56 62.6927 312.299 63.0469C312.039 63.3958 311.706 63.6693 311.299 63.8672C310.893 64.0599 310.406 64.1562 309.838 64.1562C309.427 64.1562 309.049 64.0964 308.706 63.9766C308.362 63.8568 308.065 63.6719 307.815 63.4219C307.57 63.1719 307.38 62.8464 307.245 62.4453C307.109 62.0443 307.042 61.5651 307.042 61.0078V55.5469H308.924V61.0234C308.924 61.3307 308.961 61.5885 309.034 61.7969C309.107 62 309.206 62.1641 309.331 62.2891C309.456 62.4141 309.601 62.5026 309.768 62.5547C309.935 62.6068 310.112 62.6328 310.299 62.6328C310.836 62.6328 311.258 62.5286 311.565 62.3203C311.878 62.1068 312.099 61.8203 312.229 61.4609C312.364 61.1016 312.432 60.6979 312.432 60.25ZM318.365 52V64H316.475V52H318.365ZM323.615 55.5469L319.936 59.625L317.92 61.6875L317.428 60.0938L318.951 58.2109L321.342 55.5469H323.615ZM321.748 64L319.006 60.0312L320.193 58.7109L323.928 64H321.748ZM329.166 55.5469V56.9219H324.4V55.5469H329.166ZM325.775 53.4766H327.658V61.6641C327.658 61.9245 327.694 62.125 327.767 62.2656C327.845 62.401 327.952 62.4922 328.088 62.5391C328.223 62.5859 328.382 62.6094 328.564 62.6094C328.694 62.6094 328.819 62.6016 328.939 62.5859C329.059 62.5703 329.155 62.5547 329.228 62.5391L329.236 63.9766C329.08 64.0234 328.897 64.0651 328.689 64.1016C328.486 64.138 328.252 64.1562 327.986 64.1562C327.554 64.1562 327.171 64.0807 326.838 63.9297C326.504 63.7734 326.244 63.5208 326.056 63.1719C325.869 62.8229 325.775 62.3594 325.775 61.7812V53.4766ZM336.185 62.0078V55.5469H338.075V64H336.294L336.185 62.0078ZM336.45 60.25L337.083 60.2344C337.083 60.8021 337.021 61.3255 336.896 61.8047C336.771 62.2786 336.578 62.6927 336.318 63.0469C336.057 63.3958 335.724 63.6693 335.318 63.8672C334.911 64.0599 334.424 64.1562 333.857 64.1562C333.445 64.1562 333.068 64.0964 332.724 63.9766C332.38 63.8568 332.083 63.6719 331.833 63.4219C331.588 63.1719 331.398 62.8464 331.263 62.4453C331.127 62.0443 331.06 61.5651 331.06 61.0078V55.5469H332.943V61.0234C332.943 61.3307 332.979 61.5885 333.052 61.7969C333.125 62 333.224 62.1641 333.349 62.2891C333.474 62.4141 333.62 62.5026 333.786 62.5547C333.953 62.6068 334.13 62.6328 334.318 62.6328C334.854 62.6328 335.276 62.5286 335.583 62.3203C335.896 62.1068 336.117 61.8203 336.247 61.4609C336.383 61.1016 336.45 60.6979 336.45 60.25ZM342.376 57.1562V64H340.493V55.5469H342.29L342.376 57.1562ZM344.962 55.4922L344.946 57.2422C344.831 57.2214 344.706 57.2057 344.571 57.1953C344.441 57.1849 344.311 57.1797 344.18 57.1797C343.857 57.1797 343.574 57.2266 343.329 57.3203C343.084 57.4089 342.878 57.5391 342.712 57.7109C342.55 57.8776 342.425 58.0807 342.337 58.3203C342.248 58.5599 342.196 58.8281 342.18 59.125L341.751 59.1562C341.751 58.625 341.803 58.1328 341.907 57.6797C342.011 57.2266 342.167 56.8281 342.376 56.4844C342.589 56.1406 342.855 55.8724 343.173 55.6797C343.495 55.487 343.868 55.3906 344.29 55.3906C344.404 55.3906 344.527 55.401 344.657 55.4219C344.792 55.4427 344.894 55.4661 344.962 55.4922ZM350.192 64.1562C349.567 64.1562 349.001 64.0547 348.496 63.8516C347.996 63.6432 347.569 63.3542 347.215 62.9844C346.866 62.6146 346.598 62.1797 346.41 61.6797C346.223 61.1797 346.129 60.6406 346.129 60.0625V59.75C346.129 59.0885 346.225 58.4896 346.418 57.9531C346.611 57.4167 346.879 56.9583 347.223 56.5781C347.567 56.1927 347.973 55.8984 348.442 55.6953C348.91 55.4922 349.418 55.3906 349.965 55.3906C350.569 55.3906 351.098 55.4922 351.551 55.6953C352.004 55.8984 352.379 56.1849 352.676 56.5547C352.978 56.9193 353.202 57.3542 353.348 57.8594C353.499 58.3646 353.574 58.9219 353.574 59.5312V60.3359H347.043V58.9844H351.715V58.8359C351.705 58.4974 351.637 58.1797 351.512 57.8828C351.392 57.5859 351.207 57.3464 350.957 57.1641C350.707 56.9818 350.374 56.8906 349.957 56.8906C349.645 56.8906 349.366 56.9583 349.121 57.0938C348.882 57.224 348.681 57.4141 348.52 57.6641C348.358 57.9141 348.233 58.2161 348.145 58.5703C348.061 58.9193 348.02 59.3125 348.02 59.75V60.0625C348.02 60.4323 348.069 60.776 348.168 61.0938C348.272 61.4062 348.423 61.6797 348.621 61.9141C348.819 62.1484 349.059 62.3333 349.34 62.4688C349.621 62.599 349.942 62.6641 350.301 62.6641C350.754 62.6641 351.158 62.5729 351.512 62.3906C351.866 62.2083 352.173 61.9505 352.434 61.6172L353.426 62.5781C353.244 62.8438 353.007 63.099 352.715 63.3438C352.423 63.5833 352.067 63.7786 351.645 63.9297C351.228 64.0807 350.744 64.1562 350.192 64.1562ZM357.539 52V64H355.648V52H357.539ZM362.097 52V64H360.206V52H362.097Z" fill="black"/>
<path d="M273.316 116.605C272.128 119.08 267.128 120.961 261.502 120.961C255.875 120.961 250.859 119.097 249.688 116.605" stroke="black" stroke-width="1.6" stroke-linecap="round" stroke-linejoin="round"/>
<path d="M261.502 113.422C268.026 113.422 273.316 110.932 273.316 107.861C273.316 104.79 268.026 102.301 261.502 102.301C254.977 102.301 249.688 104.79 249.688 107.861C249.688 110.932 254.977 113.422 261.502 113.422Z" stroke="black" stroke-width="1.6" stroke-linecap="round" stroke-linejoin="round"/>
<path d="M249.688 107.859V124.343C250.843 126.834 255.99 128.699 261.634 128.699C267.277 128.699 272.111 126.818 273.299 124.343V107.859" stroke="black" stroke-width="1.6" stroke-linecap="round" stroke-linejoin="round"/>
<path d="M289.836 109.625V121H287.891V109.625H289.836ZM293.406 109.625V111.188H284.352V109.625H293.406ZM298.175 121.156C297.55 121.156 296.985 121.055 296.48 120.852C295.98 120.643 295.553 120.354 295.199 119.984C294.85 119.615 294.582 119.18 294.394 118.68C294.207 118.18 294.113 117.641 294.113 117.062V116.75C294.113 116.089 294.209 115.49 294.402 114.953C294.595 114.417 294.863 113.958 295.207 113.578C295.55 113.193 295.957 112.898 296.425 112.695C296.894 112.492 297.402 112.391 297.949 112.391C298.553 112.391 299.082 112.492 299.535 112.695C299.988 112.898 300.363 113.185 300.66 113.555C300.962 113.919 301.186 114.354 301.332 114.859C301.483 115.365 301.558 115.922 301.558 116.531V117.336H295.027V115.984H299.699V115.836C299.688 115.497 299.621 115.18 299.496 114.883C299.376 114.586 299.191 114.346 298.941 114.164C298.691 113.982 298.358 113.891 297.941 113.891C297.628 113.891 297.35 113.958 297.105 114.094C296.865 114.224 296.665 114.414 296.503 114.664C296.342 114.914 296.217 115.216 296.128 115.57C296.045 115.919 296.003 116.312 296.003 116.75V117.062C296.003 117.432 296.053 117.776 296.152 118.094C296.256 118.406 296.407 118.68 296.605 118.914C296.803 119.148 297.042 119.333 297.324 119.469C297.605 119.599 297.925 119.664 298.285 119.664C298.738 119.664 299.141 119.573 299.496 119.391C299.85 119.208 300.157 118.951 300.417 118.617L301.41 119.578C301.227 119.844 300.99 120.099 300.699 120.344C300.407 120.583 300.05 120.779 299.628 120.93C299.212 121.081 298.727 121.156 298.175 121.156ZM306.96 119.656C307.267 119.656 307.543 119.596 307.788 119.477C308.038 119.352 308.239 119.18 308.39 118.961C308.546 118.742 308.632 118.49 308.647 118.203H310.421C310.411 118.75 310.249 119.247 309.937 119.695C309.624 120.143 309.21 120.5 308.694 120.766C308.179 121.026 307.608 121.156 306.983 121.156C306.338 121.156 305.775 121.047 305.296 120.828C304.817 120.604 304.418 120.297 304.101 119.906C303.783 119.516 303.543 119.065 303.382 118.555C303.226 118.044 303.147 117.497 303.147 116.914V116.641C303.147 116.057 303.226 115.51 303.382 115C303.543 114.484 303.783 114.031 304.101 113.641C304.418 113.25 304.817 112.945 305.296 112.727C305.775 112.503 306.335 112.391 306.976 112.391C307.653 112.391 308.246 112.526 308.757 112.797C309.267 113.062 309.668 113.435 309.96 113.914C310.257 114.388 310.411 114.94 310.421 115.57H308.647C308.632 115.258 308.554 114.977 308.413 114.727C308.278 114.471 308.085 114.268 307.835 114.117C307.59 113.966 307.296 113.891 306.952 113.891C306.572 113.891 306.257 113.969 306.007 114.125C305.757 114.276 305.562 114.484 305.421 114.75C305.28 115.01 305.179 115.305 305.116 115.633C305.059 115.956 305.03 116.292 305.03 116.641V116.914C305.03 117.263 305.059 117.602 305.116 117.93C305.174 118.258 305.272 118.552 305.413 118.812C305.559 119.068 305.757 119.273 306.007 119.43C306.257 119.581 306.575 119.656 306.96 119.656ZM314.206 109V121H312.331V109H314.206ZM313.878 116.461L313.268 116.453C313.273 115.87 313.354 115.331 313.51 114.836C313.672 114.341 313.896 113.911 314.182 113.547C314.474 113.177 314.823 112.893 315.229 112.695C315.635 112.492 316.086 112.391 316.581 112.391C316.997 112.391 317.372 112.448 317.706 112.562C318.044 112.677 318.336 112.862 318.581 113.117C318.825 113.367 319.01 113.695 319.135 114.102C319.266 114.503 319.331 114.992 319.331 115.57V121H317.44V115.555C317.44 115.148 317.38 114.826 317.26 114.586C317.146 114.346 316.976 114.174 316.753 114.07C316.529 113.961 316.255 113.906 315.932 113.906C315.594 113.906 315.294 113.974 315.034 114.109C314.779 114.245 314.565 114.43 314.393 114.664C314.221 114.898 314.091 115.169 314.003 115.477C313.919 115.784 313.878 116.112 313.878 116.461ZM323.584 114.352V121H321.701V112.547H323.475L323.584 114.352ZM323.248 116.461L322.639 116.453C322.644 115.854 322.727 115.305 322.889 114.805C323.055 114.305 323.285 113.875 323.576 113.516C323.873 113.156 324.227 112.88 324.639 112.688C325.05 112.49 325.509 112.391 326.014 112.391C326.42 112.391 326.787 112.448 327.115 112.562C327.449 112.672 327.732 112.852 327.967 113.102C328.206 113.352 328.389 113.677 328.514 114.078C328.639 114.474 328.701 114.961 328.701 115.539V121H326.811V115.531C326.811 115.125 326.751 114.805 326.631 114.57C326.516 114.331 326.347 114.161 326.123 114.062C325.904 113.958 325.631 113.906 325.303 113.906C324.98 113.906 324.691 113.974 324.436 114.109C324.18 114.245 323.964 114.43 323.787 114.664C323.615 114.898 323.482 115.169 323.389 115.477C323.295 115.784 323.248 116.112 323.248 116.461ZM333.119 112.547V121H331.228V112.547H333.119ZM331.103 110.328C331.103 110.042 331.197 109.805 331.384 109.617C331.577 109.424 331.843 109.328 332.181 109.328C332.515 109.328 332.778 109.424 332.97 109.617C333.163 109.805 333.259 110.042 333.259 110.328C333.259 110.609 333.163 110.844 332.97 111.031C332.778 111.219 332.515 111.312 332.181 111.312C331.843 111.312 331.577 111.219 331.384 111.031C331.197 110.844 331.103 110.609 331.103 110.328ZM340.403 118.711C340.403 118.523 340.357 118.354 340.263 118.203C340.169 118.047 339.989 117.906 339.724 117.781C339.463 117.656 339.078 117.542 338.568 117.438C338.12 117.339 337.708 117.221 337.333 117.086C336.963 116.945 336.646 116.776 336.38 116.578C336.114 116.38 335.909 116.146 335.763 115.875C335.617 115.604 335.544 115.292 335.544 114.938C335.544 114.594 335.62 114.268 335.771 113.961C335.922 113.654 336.138 113.383 336.419 113.148C336.7 112.914 337.041 112.729 337.443 112.594C337.849 112.458 338.302 112.391 338.802 112.391C339.51 112.391 340.117 112.51 340.622 112.75C341.133 112.984 341.523 113.305 341.794 113.711C342.065 114.112 342.2 114.565 342.2 115.07H340.318C340.318 114.846 340.26 114.638 340.146 114.445C340.036 114.247 339.87 114.089 339.646 113.969C339.422 113.844 339.14 113.781 338.802 113.781C338.479 113.781 338.211 113.833 337.997 113.938C337.789 114.036 337.633 114.167 337.528 114.328C337.429 114.49 337.38 114.667 337.38 114.859C337.38 115 337.406 115.128 337.458 115.242C337.515 115.352 337.609 115.453 337.739 115.547C337.87 115.635 338.047 115.719 338.271 115.797C338.5 115.875 338.786 115.951 339.13 116.023C339.776 116.159 340.331 116.333 340.794 116.547C341.263 116.755 341.622 117.026 341.872 117.359C342.122 117.688 342.247 118.104 342.247 118.609C342.247 118.984 342.166 119.328 342.005 119.641C341.849 119.948 341.62 120.216 341.318 120.445C341.015 120.669 340.653 120.844 340.232 120.969C339.815 121.094 339.346 121.156 338.825 121.156C338.06 121.156 337.411 121.021 336.88 120.75C336.349 120.474 335.945 120.122 335.669 119.695C335.398 119.263 335.263 118.815 335.263 118.352H337.083C337.104 118.701 337.2 118.979 337.372 119.188C337.549 119.391 337.768 119.539 338.028 119.633C338.294 119.721 338.568 119.766 338.849 119.766C339.187 119.766 339.471 119.721 339.7 119.633C339.929 119.539 340.104 119.414 340.224 119.258C340.344 119.096 340.403 118.914 340.403 118.711ZM347.829 119.656C348.136 119.656 348.412 119.596 348.657 119.477C348.907 119.352 349.107 119.18 349.258 118.961C349.415 118.742 349.501 118.49 349.516 118.203H351.29C351.279 118.75 351.118 119.247 350.805 119.695C350.493 120.143 350.079 120.5 349.563 120.766C349.048 121.026 348.477 121.156 347.852 121.156C347.206 121.156 346.644 121.047 346.165 120.828C345.686 120.604 345.287 120.297 344.969 119.906C344.652 119.516 344.412 119.065 344.251 118.555C344.094 118.044 344.016 117.497 344.016 116.914V116.641C344.016 116.057 344.094 115.51 344.251 115C344.412 114.484 344.652 114.031 344.969 113.641C345.287 113.25 345.686 112.945 346.165 112.727C346.644 112.503 347.204 112.391 347.844 112.391C348.521 112.391 349.115 112.526 349.626 112.797C350.136 113.062 350.537 113.435 350.829 113.914C351.126 114.388 351.279 114.94 351.29 115.57H349.516C349.501 115.258 349.423 114.977 349.282 114.727C349.146 114.471 348.954 114.268 348.704 114.117C348.459 113.966 348.165 113.891 347.821 113.891C347.441 113.891 347.126 113.969 346.876 114.125C346.626 114.276 346.43 114.484 346.29 114.75C346.149 115.01 346.048 115.305 345.985 115.633C345.928 115.956 345.899 116.292 345.899 116.641V116.914C345.899 117.263 345.928 117.602 345.985 117.93C346.042 118.258 346.141 118.552 346.282 118.812C346.428 119.068 346.626 119.273 346.876 119.43C347.126 119.581 347.443 119.656 347.829 119.656ZM355.074 109V121H353.199V109H355.074ZM354.746 116.461L354.137 116.453C354.142 115.87 354.223 115.331 354.379 114.836C354.541 114.341 354.764 113.911 355.051 113.547C355.343 113.177 355.692 112.893 356.098 112.695C356.504 112.492 356.955 112.391 357.449 112.391C357.866 112.391 358.241 112.448 358.574 112.562C358.913 112.677 359.205 112.862 359.449 113.117C359.694 113.367 359.879 113.695 360.004 114.102C360.134 114.503 360.199 114.992 360.199 115.57V121H358.309V115.555C358.309 115.148 358.249 114.826 358.129 114.586C358.014 114.346 357.845 114.174 357.621 114.07C357.397 113.961 357.124 113.906 356.801 113.906C356.462 113.906 356.163 113.974 355.902 114.109C355.647 114.245 355.434 114.43 355.262 114.664C355.09 114.898 354.96 115.169 354.871 115.477C354.788 115.784 354.746 116.112 354.746 116.461Z" fill="black"/>
<path d="M249.92 183.574C251.407 183.574 252.613 182.368 252.613 180.881C252.613 179.393 251.407 178.188 249.92 178.188C248.432 178.188 247.227 179.393 247.227 180.881C247.227 182.368 248.432 183.574 249.92 183.574Z" stroke="black" stroke-width="1.6" stroke-linecap="round" stroke-linejoin="round"/>
<path d="M249.92 163.613C251.407 163.613 252.613 162.407 252.613 160.92C252.613 159.432 251.407 158.227 249.92 158.227C248.432 158.227 247.227 159.432 247.227 160.92C247.227 162.407 248.432 163.613 249.92 163.613Z" stroke="black" stroke-width="1.6" stroke-linecap="round" stroke-linejoin="round"/>
<path d="M272.546 170.809H252.82" stroke="black" stroke-width="1.6" stroke-linecap="round" stroke-linejoin="round"/>
<path d="M252.645 168.113H247.258V173.5H252.645V168.113Z" stroke="black" stroke-width="1.6" stroke-linecap="round" stroke-linejoin="round"/>
<path d="M252.711 180.834H258.193L263.643 170.805" stroke="black" stroke-width="1.6" stroke-linecap="round" stroke-linejoin="round"/>
<path d="M268.789 176.795L272.576 170.902L268.789 165.008" stroke="black" stroke-width="1.6" stroke-linecap="round" stroke-linejoin="round"/>
<path d="M252.711 160.777H258.193L263.643 170.806" stroke="black" stroke-width="1.6" stroke-linecap="round" stroke-linejoin="round"/>
<path d="M294.227 170V170.625C294.227 171.484 294.115 172.255 293.891 172.938C293.667 173.62 293.346 174.201 292.93 174.68C292.518 175.159 292.023 175.526 291.445 175.781C290.867 176.031 290.227 176.156 289.523 176.156C288.826 176.156 288.188 176.031 287.609 175.781C287.036 175.526 286.539 175.159 286.117 174.68C285.695 174.201 285.367 173.62 285.133 172.938C284.904 172.255 284.789 171.484 284.789 170.625V170C284.789 169.141 284.904 168.372 285.133 167.695C285.362 167.013 285.685 166.432 286.102 165.953C286.523 165.469 287.021 165.102 287.594 164.852C288.172 164.596 288.81 164.469 289.508 164.469C290.211 164.469 290.852 164.596 291.43 164.852C292.008 165.102 292.505 165.469 292.922 165.953C293.339 166.432 293.659 167.013 293.883 167.695C294.112 168.372 294.227 169.141 294.227 170ZM292.266 170.625V169.984C292.266 169.349 292.203 168.789 292.078 168.305C291.958 167.815 291.779 167.406 291.539 167.078C291.305 166.745 291.016 166.495 290.672 166.328C290.328 166.156 289.94 166.07 289.508 166.07C289.076 166.07 288.69 166.156 288.352 166.328C288.013 166.495 287.724 166.745 287.484 167.078C287.25 167.406 287.07 167.815 286.945 168.305C286.82 168.789 286.758 169.349 286.758 169.984V170.625C286.758 171.26 286.82 171.823 286.945 172.312C287.07 172.802 287.253 173.216 287.492 173.555C287.737 173.888 288.029 174.141 288.367 174.312C288.706 174.479 289.091 174.562 289.523 174.562C289.961 174.562 290.349 174.479 290.688 174.312C291.026 174.141 291.312 173.888 291.547 173.555C291.781 173.216 291.958 172.802 292.078 172.312C292.203 171.823 292.266 171.26 292.266 170.625ZM298.371 169.156V176H296.488V167.547H298.285L298.371 169.156ZM300.957 167.492L300.941 169.242C300.826 169.221 300.701 169.206 300.566 169.195C300.436 169.185 300.306 169.18 300.175 169.18C299.852 169.18 299.569 169.227 299.324 169.32C299.079 169.409 298.873 169.539 298.707 169.711C298.545 169.878 298.42 170.081 298.332 170.32C298.243 170.56 298.191 170.828 298.175 171.125L297.746 171.156C297.746 170.625 297.798 170.133 297.902 169.68C298.006 169.227 298.162 168.828 298.371 168.484C298.584 168.141 298.85 167.872 299.167 167.68C299.49 167.487 299.863 167.391 300.285 167.391C300.399 167.391 300.522 167.401 300.652 167.422C300.787 167.443 300.889 167.466 300.957 167.492ZM307.874 167.547H309.585V175.766C309.585 176.526 309.424 177.172 309.101 177.703C308.778 178.234 308.327 178.638 307.749 178.914C307.171 179.195 306.502 179.336 305.741 179.336C305.418 179.336 305.059 179.289 304.663 179.195C304.272 179.102 303.892 178.951 303.522 178.742C303.158 178.539 302.853 178.271 302.608 177.938L303.491 176.828C303.793 177.188 304.127 177.451 304.491 177.617C304.856 177.784 305.239 177.867 305.64 177.867C306.072 177.867 306.439 177.786 306.741 177.625C307.049 177.469 307.286 177.237 307.452 176.93C307.619 176.622 307.702 176.247 307.702 175.805V169.461L307.874 167.547ZM302.132 171.867V171.703C302.132 171.062 302.21 170.479 302.366 169.953C302.522 169.422 302.746 168.966 303.038 168.586C303.33 168.201 303.684 167.906 304.101 167.703C304.517 167.495 304.989 167.391 305.515 167.391C306.062 167.391 306.528 167.49 306.913 167.688C307.304 167.885 307.629 168.169 307.89 168.539C308.15 168.904 308.353 169.341 308.499 169.852C308.65 170.357 308.762 170.919 308.835 171.539V172.062C308.767 172.667 308.653 173.219 308.491 173.719C308.33 174.219 308.116 174.651 307.851 175.016C307.585 175.38 307.257 175.661 306.866 175.859C306.481 176.057 306.025 176.156 305.499 176.156C304.983 176.156 304.517 176.049 304.101 175.836C303.689 175.622 303.335 175.323 303.038 174.938C302.746 174.552 302.522 174.099 302.366 173.578C302.21 173.052 302.132 172.482 302.132 171.867ZM304.015 171.703V171.867C304.015 172.253 304.051 172.612 304.124 172.945C304.202 173.279 304.319 173.573 304.476 173.828C304.637 174.078 304.84 174.276 305.085 174.422C305.335 174.562 305.629 174.633 305.968 174.633C306.411 174.633 306.772 174.539 307.054 174.352C307.34 174.164 307.559 173.911 307.71 173.594C307.866 173.271 307.976 172.911 308.038 172.516V171.102C308.007 170.794 307.942 170.508 307.843 170.242C307.749 169.977 307.621 169.745 307.46 169.547C307.299 169.344 307.095 169.188 306.851 169.078C306.606 168.964 306.317 168.906 305.983 168.906C305.645 168.906 305.351 168.979 305.101 169.125C304.851 169.271 304.645 169.471 304.483 169.727C304.327 169.982 304.21 170.279 304.132 170.617C304.054 170.956 304.015 171.318 304.015 171.703ZM316.784 174.305V170.273C316.784 169.971 316.729 169.711 316.62 169.492C316.51 169.273 316.344 169.104 316.12 168.984C315.901 168.865 315.625 168.805 315.292 168.805C314.984 168.805 314.719 168.857 314.495 168.961C314.271 169.065 314.096 169.206 313.971 169.383C313.846 169.56 313.784 169.76 313.784 169.984H311.909C311.909 169.651 311.989 169.328 312.151 169.016C312.312 168.703 312.547 168.424 312.854 168.18C313.161 167.935 313.529 167.742 313.956 167.602C314.383 167.461 314.862 167.391 315.393 167.391C316.029 167.391 316.591 167.497 317.081 167.711C317.575 167.924 317.963 168.247 318.245 168.68C318.531 169.107 318.674 169.643 318.674 170.289V174.047C318.674 174.432 318.7 174.779 318.753 175.086C318.81 175.388 318.891 175.651 318.995 175.875V176H317.065C316.976 175.797 316.906 175.539 316.854 175.227C316.807 174.909 316.784 174.602 316.784 174.305ZM317.057 170.859L317.073 172.023H315.721C315.372 172.023 315.065 172.057 314.799 172.125C314.534 172.188 314.312 172.281 314.135 172.406C313.958 172.531 313.825 172.682 313.737 172.859C313.648 173.036 313.604 173.237 313.604 173.461C313.604 173.685 313.656 173.891 313.76 174.078C313.864 174.26 314.016 174.404 314.213 174.508C314.417 174.612 314.661 174.664 314.948 174.664C315.333 174.664 315.669 174.586 315.956 174.43C316.247 174.268 316.476 174.073 316.643 173.844C316.81 173.609 316.898 173.388 316.909 173.18L317.518 174.016C317.456 174.229 317.349 174.458 317.198 174.703C317.047 174.948 316.849 175.182 316.604 175.406C316.364 175.625 316.075 175.805 315.737 175.945C315.404 176.086 315.018 176.156 314.581 176.156C314.029 176.156 313.536 176.047 313.104 175.828C312.672 175.604 312.333 175.305 312.088 174.93C311.844 174.549 311.721 174.12 311.721 173.641C311.721 173.193 311.805 172.797 311.971 172.453C312.143 172.104 312.393 171.812 312.721 171.578C313.055 171.344 313.461 171.167 313.94 171.047C314.419 170.922 314.966 170.859 315.581 170.859H317.057ZM322.99 169.352V176H321.107V167.547H322.881L322.99 169.352ZM322.654 171.461L322.045 171.453C322.05 170.854 322.134 170.305 322.295 169.805C322.462 169.305 322.691 168.875 322.982 168.516C323.279 168.156 323.634 167.88 324.045 167.688C324.456 167.49 324.915 167.391 325.42 167.391C325.826 167.391 326.193 167.448 326.522 167.562C326.855 167.672 327.139 167.852 327.373 168.102C327.613 168.352 327.795 168.677 327.92 169.078C328.045 169.474 328.107 169.961 328.107 170.539V176H326.217V170.531C326.217 170.125 326.157 169.805 326.037 169.57C325.923 169.331 325.753 169.161 325.529 169.062C325.311 168.958 325.037 168.906 324.709 168.906C324.386 168.906 324.097 168.974 323.842 169.109C323.587 169.245 323.371 169.43 323.193 169.664C323.022 169.898 322.889 170.169 322.795 170.477C322.701 170.784 322.654 171.112 322.654 171.461ZM332.525 167.547V176H330.634V167.547H332.525ZM330.509 165.328C330.509 165.042 330.603 164.805 330.791 164.617C330.983 164.424 331.249 164.328 331.588 164.328C331.921 164.328 332.184 164.424 332.377 164.617C332.569 164.805 332.666 165.042 332.666 165.328C332.666 165.609 332.569 165.844 332.377 166.031C332.184 166.219 331.921 166.312 331.588 166.312C331.249 166.312 330.983 166.219 330.791 166.031C330.603 165.844 330.509 165.609 330.509 165.328ZM339.81 173.711C339.81 173.523 339.763 173.354 339.669 173.203C339.575 173.047 339.396 172.906 339.13 172.781C338.87 172.656 338.484 172.542 337.974 172.438C337.526 172.339 337.114 172.221 336.739 172.086C336.37 171.945 336.052 171.776 335.786 171.578C335.521 171.38 335.315 171.146 335.169 170.875C335.023 170.604 334.95 170.292 334.95 169.938C334.95 169.594 335.026 169.268 335.177 168.961C335.328 168.654 335.544 168.383 335.825 168.148C336.107 167.914 336.448 167.729 336.849 167.594C337.255 167.458 337.708 167.391 338.208 167.391C338.916 167.391 339.523 167.51 340.028 167.75C340.539 167.984 340.929 168.305 341.2 168.711C341.471 169.112 341.607 169.565 341.607 170.07H339.724C339.724 169.846 339.666 169.638 339.552 169.445C339.443 169.247 339.276 169.089 339.052 168.969C338.828 168.844 338.547 168.781 338.208 168.781C337.885 168.781 337.617 168.833 337.403 168.938C337.195 169.036 337.039 169.167 336.935 169.328C336.836 169.49 336.786 169.667 336.786 169.859C336.786 170 336.812 170.128 336.864 170.242C336.922 170.352 337.015 170.453 337.146 170.547C337.276 170.635 337.453 170.719 337.677 170.797C337.906 170.875 338.193 170.951 338.536 171.023C339.182 171.159 339.737 171.333 340.2 171.547C340.669 171.755 341.028 172.026 341.278 172.359C341.528 172.688 341.653 173.104 341.653 173.609C341.653 173.984 341.573 174.328 341.411 174.641C341.255 174.948 341.026 175.216 340.724 175.445C340.422 175.669 340.06 175.844 339.638 175.969C339.221 176.094 338.752 176.156 338.232 176.156C337.466 176.156 336.818 176.021 336.286 175.75C335.755 175.474 335.351 175.122 335.075 174.695C334.804 174.263 334.669 173.815 334.669 173.352H336.489C336.51 173.701 336.607 173.979 336.778 174.188C336.956 174.391 337.174 174.539 337.435 174.633C337.7 174.721 337.974 174.766 338.255 174.766C338.594 174.766 338.877 174.721 339.107 174.633C339.336 174.539 339.51 174.414 339.63 174.258C339.75 174.096 339.81 173.914 339.81 173.711ZM348.548 174.305V170.273C348.548 169.971 348.493 169.711 348.383 169.492C348.274 169.273 348.107 169.104 347.883 168.984C347.665 168.865 347.389 168.805 347.055 168.805C346.748 168.805 346.482 168.857 346.258 168.961C346.034 169.065 345.86 169.206 345.735 169.383C345.61 169.56 345.548 169.76 345.548 169.984H343.673C343.673 169.651 343.753 169.328 343.915 169.016C344.076 168.703 344.311 168.424 344.618 168.18C344.925 167.935 345.292 167.742 345.719 167.602C346.146 167.461 346.626 167.391 347.157 167.391C347.792 167.391 348.355 167.497 348.844 167.711C349.339 167.924 349.727 168.247 350.008 168.68C350.295 169.107 350.438 169.643 350.438 170.289V174.047C350.438 174.432 350.464 174.779 350.516 175.086C350.574 175.388 350.654 175.651 350.758 175.875V176H348.829C348.74 175.797 348.67 175.539 348.618 175.227C348.571 174.909 348.548 174.602 348.548 174.305ZM348.821 170.859L348.837 172.023H347.485C347.136 172.023 346.829 172.057 346.563 172.125C346.298 172.188 346.076 172.281 345.899 172.406C345.722 172.531 345.589 172.682 345.501 172.859C345.412 173.036 345.368 173.237 345.368 173.461C345.368 173.685 345.42 173.891 345.524 174.078C345.628 174.26 345.779 174.404 345.977 174.508C346.18 174.612 346.425 174.664 346.712 174.664C347.097 174.664 347.433 174.586 347.719 174.43C348.011 174.268 348.24 174.073 348.407 173.844C348.574 173.609 348.662 173.388 348.673 173.18L349.282 174.016C349.219 174.229 349.113 174.458 348.962 174.703C348.811 174.948 348.613 175.182 348.368 175.406C348.128 175.625 347.839 175.805 347.501 175.945C347.167 176.086 346.782 176.156 346.344 176.156C345.792 176.156 345.3 176.047 344.868 175.828C344.436 175.604 344.097 175.305 343.852 174.93C343.607 174.549 343.485 174.12 343.485 173.641C343.485 173.193 343.568 172.797 343.735 172.453C343.907 172.104 344.157 171.812 344.485 171.578C344.818 171.344 345.225 171.167 345.704 171.047C346.183 170.922 346.73 170.859 347.344 170.859H348.821ZM356.762 167.547V168.922H351.996V167.547H356.762ZM353.371 165.477H355.254V173.664C355.254 173.924 355.291 174.125 355.363 174.266C355.442 174.401 355.548 174.492 355.684 174.539C355.819 174.586 355.978 174.609 356.16 174.609C356.291 174.609 356.416 174.602 356.535 174.586C356.655 174.57 356.751 174.555 356.824 174.539L356.832 175.977C356.676 176.023 356.494 176.065 356.285 176.102C356.082 176.138 355.848 176.156 355.582 176.156C355.15 176.156 354.767 176.081 354.434 175.93C354.1 175.773 353.84 175.521 353.652 175.172C353.465 174.823 353.371 174.359 353.371 173.781V165.477ZM358.148 171.867V171.688C358.148 171.078 358.237 170.513 358.414 169.992C358.591 169.466 358.846 169.01 359.179 168.625C359.518 168.234 359.929 167.932 360.414 167.719C360.903 167.5 361.455 167.391 362.07 167.391C362.69 167.391 363.242 167.5 363.726 167.719C364.216 167.932 364.63 168.234 364.968 168.625C365.307 169.01 365.565 169.466 365.742 169.992C365.919 170.513 366.007 171.078 366.007 171.688V171.867C366.007 172.477 365.919 173.042 365.742 173.562C365.565 174.083 365.307 174.539 364.968 174.93C364.63 175.315 364.218 175.617 363.734 175.836C363.25 176.049 362.7 176.156 362.086 176.156C361.466 176.156 360.911 176.049 360.422 175.836C359.937 175.617 359.526 175.315 359.187 174.93C358.849 174.539 358.591 174.083 358.414 173.562C358.237 173.042 358.148 172.477 358.148 171.867ZM360.031 171.688V171.867C360.031 172.247 360.07 172.607 360.148 172.945C360.226 173.284 360.349 173.581 360.515 173.836C360.682 174.091 360.896 174.292 361.156 174.438C361.416 174.583 361.726 174.656 362.086 174.656C362.435 174.656 362.737 174.583 362.992 174.438C363.252 174.292 363.466 174.091 363.632 173.836C363.799 173.581 363.922 173.284 364 172.945C364.083 172.607 364.125 172.247 364.125 171.867V171.688C364.125 171.312 364.083 170.958 364 170.625C363.922 170.286 363.797 169.987 363.625 169.727C363.458 169.466 363.244 169.263 362.984 169.117C362.729 168.966 362.424 168.891 362.07 168.891C361.716 168.891 361.409 168.966 361.148 169.117C360.893 169.263 360.682 169.466 360.515 169.727C360.349 169.987 360.226 170.286 360.148 170.625C360.07 170.958 360.031 171.312 360.031 171.688ZM369.956 169.156V176H368.073V167.547H369.87L369.956 169.156ZM372.542 167.492L372.527 169.242C372.412 169.221 372.287 169.206 372.152 169.195C372.021 169.185 371.891 169.18 371.761 169.18C371.438 169.18 371.154 169.227 370.909 169.32C370.665 169.409 370.459 169.539 370.292 169.711C370.131 169.878 370.006 170.081 369.917 170.32C369.829 170.56 369.777 170.828 369.761 171.125L369.331 171.156C369.331 170.625 369.383 170.133 369.488 169.68C369.592 169.227 369.748 168.828 369.956 168.484C370.17 168.141 370.435 167.872 370.753 167.68C371.076 167.487 371.448 167.391 371.87 167.391C371.985 167.391 372.107 167.401 372.238 167.422C372.373 167.443 372.474 167.466 372.542 167.492ZM376.217 167.547V176H374.327V167.547H376.217ZM374.202 165.328C374.202 165.042 374.296 164.805 374.483 164.617C374.676 164.424 374.941 164.328 375.28 164.328C375.613 164.328 375.876 164.424 376.069 164.617C376.262 164.805 376.358 165.042 376.358 165.328C376.358 165.609 376.262 165.844 376.069 166.031C375.876 166.219 375.613 166.312 375.28 166.312C374.941 166.312 374.676 166.219 374.483 166.031C374.296 165.844 374.202 165.609 374.202 165.328ZM383.502 173.711C383.502 173.523 383.455 173.354 383.362 173.203C383.268 173.047 383.088 172.906 382.823 172.781C382.562 172.656 382.177 172.542 381.666 172.438C381.218 172.339 380.807 172.221 380.432 172.086C380.062 171.945 379.744 171.776 379.479 171.578C379.213 171.38 379.007 171.146 378.862 170.875C378.716 170.604 378.643 170.292 378.643 169.938C378.643 169.594 378.718 169.268 378.869 168.961C379.02 168.654 379.237 168.383 379.518 168.148C379.799 167.914 380.14 167.729 380.541 167.594C380.948 167.458 381.401 167.391 381.901 167.391C382.609 167.391 383.216 167.51 383.721 167.75C384.231 167.984 384.622 168.305 384.893 168.711C385.164 169.112 385.299 169.565 385.299 170.07H383.416C383.416 169.846 383.359 169.638 383.244 169.445C383.135 169.247 382.968 169.089 382.744 168.969C382.52 168.844 382.239 168.781 381.901 168.781C381.578 168.781 381.309 168.833 381.096 168.938C380.888 169.036 380.731 169.167 380.627 169.328C380.528 169.49 380.479 169.667 380.479 169.859C380.479 170 380.505 170.128 380.557 170.242C380.614 170.352 380.708 170.453 380.838 170.547C380.968 170.635 381.145 170.719 381.369 170.797C381.599 170.875 381.885 170.951 382.229 171.023C382.875 171.159 383.429 171.333 383.893 171.547C384.362 171.755 384.721 172.026 384.971 172.359C385.221 172.688 385.346 173.104 385.346 173.609C385.346 173.984 385.265 174.328 385.104 174.641C384.948 174.948 384.718 175.216 384.416 175.445C384.114 175.669 383.752 175.844 383.33 175.969C382.914 176.094 382.445 176.156 381.924 176.156C381.158 176.156 380.51 176.021 379.979 175.75C379.448 175.474 379.044 175.122 378.768 174.695C378.497 174.263 378.362 173.815 378.362 173.352H380.182C380.203 173.701 380.299 173.979 380.471 174.188C380.648 174.391 380.867 174.539 381.127 174.633C381.393 174.721 381.666 174.766 381.948 174.766C382.286 174.766 382.57 174.721 382.799 174.633C383.028 174.539 383.203 174.414 383.323 174.258C383.442 174.096 383.502 173.914 383.502 173.711ZM390.927 174.656C391.235 174.656 391.511 174.596 391.756 174.477C392.006 174.352 392.206 174.18 392.357 173.961C392.513 173.742 392.599 173.49 392.615 173.203H394.388C394.378 173.75 394.217 174.247 393.904 174.695C393.592 175.143 393.177 175.5 392.662 175.766C392.146 176.026 391.576 176.156 390.951 176.156C390.305 176.156 389.743 176.047 389.263 175.828C388.784 175.604 388.386 175.297 388.068 174.906C387.75 174.516 387.511 174.065 387.349 173.555C387.193 173.044 387.115 172.497 387.115 171.914V171.641C387.115 171.057 387.193 170.51 387.349 170C387.511 169.484 387.75 169.031 388.068 168.641C388.386 168.25 388.784 167.945 389.263 167.727C389.743 167.503 390.302 167.391 390.943 167.391C391.62 167.391 392.214 167.526 392.724 167.797C393.235 168.062 393.636 168.435 393.927 168.914C394.224 169.388 394.378 169.94 394.388 170.57H392.615C392.599 170.258 392.521 169.977 392.381 169.727C392.245 169.471 392.052 169.268 391.802 169.117C391.558 168.966 391.263 168.891 390.92 168.891C390.539 168.891 390.224 168.969 389.974 169.125C389.724 169.276 389.529 169.484 389.388 169.75C389.248 170.01 389.146 170.305 389.084 170.633C389.026 170.956 388.998 171.292 388.998 171.641V171.914C388.998 172.263 389.026 172.602 389.084 172.93C389.141 173.258 389.24 173.552 389.381 173.812C389.526 174.068 389.724 174.273 389.974 174.43C390.224 174.581 390.542 174.656 390.927 174.656ZM398.173 164V176H396.298V164H398.173ZM397.845 171.461L397.236 171.453C397.241 170.87 397.322 170.331 397.478 169.836C397.639 169.341 397.863 168.911 398.15 168.547C398.441 168.177 398.79 167.893 399.197 167.695C399.603 167.492 400.053 167.391 400.548 167.391C400.965 167.391 401.34 167.448 401.673 167.562C402.012 167.677 402.303 167.862 402.548 168.117C402.793 168.367 402.978 168.695 403.103 169.102C403.233 169.503 403.298 169.992 403.298 170.57V176H401.408V170.555C401.408 170.148 401.348 169.826 401.228 169.586C401.113 169.346 400.944 169.174 400.72 169.07C400.496 168.961 400.223 168.906 399.9 168.906C399.561 168.906 399.262 168.974 399.001 169.109C398.746 169.245 398.533 169.43 398.361 169.664C398.189 169.898 398.059 170.169 397.97 170.477C397.887 170.784 397.845 171.112 397.845 171.461Z" fill="black"/>
<path d="M483.227 58V58.625C483.227 59.4844 483.115 60.2552 482.891 60.9375C482.667 61.6198 482.346 62.2005 481.93 62.6797C481.518 63.1589 481.023 63.526 480.445 63.7812C479.867 64.0312 479.227 64.1562 478.523 64.1562C477.826 64.1562 477.188 64.0312 476.609 63.7812C476.036 63.526 475.539 63.1589 475.117 62.6797C474.695 62.2005 474.367 61.6198 474.133 60.9375C473.904 60.2552 473.789 59.4844 473.789 58.625V58C473.789 57.1406 473.904 56.3724 474.133 55.6953C474.362 55.013 474.685 54.4323 475.102 53.9531C475.523 53.4688 476.021 53.1016 476.594 52.8516C477.172 52.5964 477.81 52.4688 478.508 52.4688C479.211 52.4688 479.852 52.5964 480.43 52.8516C481.008 53.1016 481.505 53.4688 481.922 53.9531C482.339 54.4323 482.659 55.013 482.883 55.6953C483.112 56.3724 483.227 57.1406 483.227 58ZM481.266 58.625V57.9844C481.266 57.349 481.203 56.7891 481.078 56.3047C480.958 55.8151 480.779 55.4062 480.539 55.0781C480.305 54.7448 480.016 54.4948 479.672 54.3281C479.328 54.1562 478.94 54.0703 478.508 54.0703C478.076 54.0703 477.69 54.1562 477.352 54.3281C477.013 54.4948 476.724 54.7448 476.484 55.0781C476.25 55.4062 476.07 55.8151 475.945 56.3047C475.82 56.7891 475.758 57.349 475.758 57.9844V58.625C475.758 59.2604 475.82 59.8229 475.945 60.3125C476.07 60.8021 476.253 61.2161 476.492 61.5547C476.737 61.888 477.029 62.1406 477.367 62.3125C477.706 62.4792 478.091 62.5625 478.523 62.5625C478.961 62.5625 479.349 62.4792 479.688 62.3125C480.026 62.1406 480.312 61.888 480.547 61.5547C480.781 61.2161 480.958 60.8021 481.078 60.3125C481.203 59.8229 481.266 59.2604 481.266 58.625ZM475.742 50.8672C475.742 50.612 475.831 50.3984 476.008 50.2266C476.185 50.0495 476.419 49.9609 476.711 49.9609C477.008 49.9609 477.245 50.0495 477.422 50.2266C477.599 50.3984 477.688 50.612 477.688 50.8672C477.688 51.1172 477.599 51.3307 477.422 51.5078C477.245 51.6797 477.008 51.7656 476.711 51.7656C476.419 51.7656 476.185 51.6797 476.008 51.5078C475.831 51.3307 475.742 51.1172 475.742 50.8672ZM479.359 50.875C479.359 50.6198 479.448 50.4062 479.625 50.2344C479.802 50.0573 480.039 49.9688 480.336 49.9688C480.628 49.9688 480.862 50.0573 481.039 50.2344C481.221 50.4062 481.312 50.6198 481.312 50.875C481.312 51.125 481.221 51.3385 481.039 51.5156C480.862 51.6875 480.628 51.7734 480.336 51.7734C480.039 51.7734 479.802 51.6875 479.625 51.5156C479.448 51.3385 479.359 51.125 479.359 50.875ZM487.378 52V64H485.488V52H487.378ZM492.628 55.5469L488.949 59.625L486.933 61.6875L486.441 60.0938L487.964 58.2109L490.355 55.5469H492.628ZM490.761 64L488.019 60.0312L489.207 58.7109L492.941 64H490.761ZM493.944 59.8672V59.6875C493.944 59.0781 494.033 58.513 494.21 57.9922C494.387 57.4661 494.642 57.0104 494.976 56.625C495.314 56.2344 495.726 55.9323 496.21 55.7188C496.7 55.5 497.252 55.3906 497.866 55.3906C498.486 55.3906 499.038 55.5 499.522 55.7188C500.012 55.9323 500.426 56.2344 500.765 56.625C501.103 57.0104 501.361 57.4661 501.538 57.9922C501.715 58.513 501.804 59.0781 501.804 59.6875V59.8672C501.804 60.4766 501.715 61.0417 501.538 61.5625C501.361 62.0833 501.103 62.5391 500.765 62.9297C500.426 63.3151 500.015 63.6172 499.53 63.8359C499.046 64.0495 498.496 64.1562 497.882 64.1562C497.262 64.1562 496.707 64.0495 496.218 63.8359C495.733 63.6172 495.322 63.3151 494.983 62.9297C494.645 62.5391 494.387 62.0833 494.21 61.5625C494.033 61.0417 493.944 60.4766 493.944 59.8672ZM495.827 59.6875V59.8672C495.827 60.2474 495.866 60.6068 495.944 60.9453C496.022 61.2839 496.145 61.5807 496.312 61.8359C496.478 62.0911 496.692 62.2917 496.952 62.4375C497.213 62.5833 497.522 62.6562 497.882 62.6562C498.231 62.6562 498.533 62.5833 498.788 62.4375C499.049 62.2917 499.262 62.0911 499.429 61.8359C499.595 61.5807 499.718 61.2839 499.796 60.9453C499.879 60.6068 499.921 60.2474 499.921 59.8672V59.6875C499.921 59.3125 499.879 58.9583 499.796 58.625C499.718 58.2865 499.593 57.987 499.421 57.7266C499.254 57.4661 499.041 57.263 498.78 57.1172C498.525 56.9661 498.22 56.8906 497.866 56.8906C497.512 56.8906 497.205 56.9661 496.944 57.1172C496.689 57.263 496.478 57.4661 496.312 57.7266C496.145 57.987 496.022 58.2865 495.944 58.625C495.866 58.9583 495.827 59.3125 495.827 59.6875ZM505.729 57.3516V64H503.846V55.5469H505.62L505.729 57.3516ZM505.393 59.4609L504.784 59.4531C504.789 58.8542 504.872 58.3047 505.034 57.8047C505.2 57.3047 505.43 56.875 505.721 56.5156C506.018 56.1562 506.372 55.8802 506.784 55.6875C507.195 55.4896 507.654 55.3906 508.159 55.3906C508.565 55.3906 508.932 55.4479 509.26 55.5625C509.594 55.6719 509.878 55.8516 510.112 56.1016C510.351 56.3516 510.534 56.6771 510.659 57.0781C510.784 57.474 510.846 57.9609 510.846 58.5391V64H508.956V58.5312C508.956 58.125 508.896 57.8047 508.776 57.5703C508.661 57.3307 508.492 57.1615 508.268 57.0625C508.049 56.9583 507.776 56.9062 507.448 56.9062C507.125 56.9062 506.836 56.974 506.581 57.1094C506.325 57.2448 506.109 57.4297 505.932 57.6641C505.76 57.8984 505.628 58.1693 505.534 58.4766C505.44 58.7839 505.393 59.112 505.393 59.4609ZM512.889 59.8672V59.6875C512.889 59.0781 512.977 58.513 513.154 57.9922C513.331 57.4661 513.587 57.0104 513.92 56.625C514.259 56.2344 514.67 55.9323 515.154 55.7188C515.644 55.5 516.196 55.3906 516.811 55.3906C517.43 55.3906 517.982 55.5 518.467 55.7188C518.956 55.9323 519.371 56.2344 519.709 56.625C520.048 57.0104 520.305 57.4661 520.482 57.9922C520.66 58.513 520.748 59.0781 520.748 59.6875V59.8672C520.748 60.4766 520.66 61.0417 520.482 61.5625C520.305 62.0833 520.048 62.5391 519.709 62.9297C519.371 63.3151 518.959 63.6172 518.475 63.8359C517.99 64.0495 517.441 64.1562 516.826 64.1562C516.206 64.1562 515.652 64.0495 515.162 63.8359C514.678 63.6172 514.266 63.3151 513.928 62.9297C513.589 62.5391 513.331 62.0833 513.154 61.5625C512.977 61.0417 512.889 60.4766 512.889 59.8672ZM514.772 59.6875V59.8672C514.772 60.2474 514.811 60.6068 514.889 60.9453C514.967 61.2839 515.089 61.5807 515.256 61.8359C515.423 62.0911 515.636 62.2917 515.897 62.4375C516.157 62.5833 516.467 62.6562 516.826 62.6562C517.175 62.6562 517.477 62.5833 517.732 62.4375C517.993 62.2917 518.206 62.0911 518.373 61.8359C518.54 61.5807 518.662 61.2839 518.74 60.9453C518.824 60.6068 518.865 60.2474 518.865 59.8672V59.6875C518.865 59.3125 518.824 58.9583 518.74 58.625C518.662 58.2865 518.537 57.987 518.365 57.7266C518.199 57.4661 517.985 57.263 517.725 57.1172C517.469 56.9661 517.165 56.8906 516.811 56.8906C516.456 56.8906 516.149 56.9661 515.889 57.1172C515.634 57.263 515.423 57.4661 515.256 57.7266C515.089 57.987 514.967 58.2865 514.889 58.625C514.811 58.9583 514.772 59.3125 514.772 59.6875ZM524.689 57.2656V64H522.806V55.5469H524.58L524.689 57.2656ZM524.384 59.4609L523.744 59.4531C523.744 58.8698 523.817 58.3307 523.963 57.8359C524.108 57.3411 524.322 56.9115 524.603 56.5469C524.884 56.1771 525.233 55.8932 525.65 55.6953C526.072 55.4922 526.559 55.3906 527.111 55.3906C527.496 55.3906 527.848 55.4479 528.166 55.5625C528.489 55.6719 528.767 55.8464 529.002 56.0859C529.241 56.3255 529.423 56.6328 529.548 57.0078C529.679 57.3828 529.744 57.8359 529.744 58.3672V64H527.861V58.5312C527.861 58.1198 527.798 57.7969 527.673 57.5625C527.554 57.3281 527.379 57.1615 527.15 57.0625C526.926 56.9583 526.658 56.9062 526.345 56.9062C525.991 56.9062 525.689 56.974 525.439 57.1094C525.194 57.2448 524.994 57.4297 524.838 57.6641C524.681 57.8984 524.567 58.1693 524.494 58.4766C524.421 58.7839 524.384 59.112 524.384 59.4609ZM529.627 58.9609L528.744 59.1562C528.744 58.6458 528.814 58.1641 528.955 57.7109C529.101 57.2526 529.311 56.8516 529.588 56.5078C529.869 56.1589 530.215 55.8854 530.627 55.6875C531.038 55.4896 531.509 55.3906 532.041 55.3906C532.473 55.3906 532.858 55.4505 533.197 55.5703C533.541 55.6849 533.832 55.8672 534.072 56.1172C534.311 56.3672 534.494 56.6927 534.619 57.0938C534.744 57.4896 534.806 57.9688 534.806 58.5312V64H532.916V58.5234C532.916 58.0964 532.853 57.7656 532.728 57.5312C532.608 57.2969 532.436 57.1354 532.213 57.0469C531.989 56.9531 531.72 56.9062 531.408 56.9062C531.116 56.9062 530.858 56.9609 530.634 57.0703C530.416 57.1745 530.231 57.3229 530.08 57.5156C529.929 57.7031 529.814 57.9193 529.736 58.1641C529.663 58.4089 529.627 58.6745 529.627 58.9609ZM539.239 55.5469V64H537.349V55.5469H539.239ZM537.224 53.3281C537.224 53.0417 537.318 52.8047 537.505 52.6172C537.698 52.4245 537.963 52.3281 538.302 52.3281C538.635 52.3281 538.898 52.4245 539.091 52.6172C539.284 52.8047 539.38 53.0417 539.38 53.3281C539.38 53.6094 539.284 53.8438 539.091 54.0312C538.898 54.2188 538.635 54.3125 538.302 54.3125C537.963 54.3125 537.698 54.2188 537.505 54.0312C537.318 53.8438 537.224 53.6094 537.224 53.3281ZM546.524 61.7109C546.524 61.5234 546.477 61.3542 546.383 61.2031C546.29 61.0469 546.11 60.9062 545.844 60.7812C545.584 60.6562 545.199 60.5417 544.688 60.4375C544.24 60.3385 543.829 60.2214 543.454 60.0859C543.084 59.9453 542.766 59.776 542.501 59.5781C542.235 59.3802 542.029 59.1458 541.883 58.875C541.738 58.6042 541.665 58.2917 541.665 57.9375C541.665 57.5938 541.74 57.2682 541.891 56.9609C542.042 56.6536 542.258 56.3828 542.54 56.1484C542.821 55.9141 543.162 55.7292 543.563 55.5938C543.969 55.4583 544.423 55.3906 544.923 55.3906C545.631 55.3906 546.238 55.5104 546.743 55.75C547.253 55.9844 547.644 56.3047 547.915 56.7109C548.186 57.112 548.321 57.5651 548.321 58.0703H546.438C546.438 57.8464 546.381 57.638 546.266 57.4453C546.157 57.2474 545.99 57.0885 545.766 56.9688C545.542 56.8438 545.261 56.7812 544.923 56.7812C544.6 56.7812 544.331 56.8333 544.118 56.9375C543.909 57.0365 543.753 57.1667 543.649 57.3281C543.55 57.4896 543.501 57.6667 543.501 57.8594C543.501 58 543.527 58.1276 543.579 58.2422C543.636 58.3516 543.73 58.4531 543.86 58.5469C543.99 58.6354 544.167 58.7188 544.391 58.7969C544.62 58.875 544.907 58.9505 545.251 59.0234C545.896 59.1589 546.451 59.3333 546.915 59.5469C547.383 59.7552 547.743 60.026 547.993 60.3594C548.243 60.6875 548.368 61.1042 548.368 61.6094C548.368 61.9844 548.287 62.3281 548.126 62.6406C547.969 62.9479 547.74 63.2161 547.438 63.4453C547.136 63.6693 546.774 63.8438 546.352 63.9688C545.936 64.0938 545.467 64.1562 544.946 64.1562C544.18 64.1562 543.532 64.0208 543.001 63.75C542.469 63.474 542.066 63.1224 541.79 62.6953C541.519 62.263 541.383 61.8151 541.383 61.3516H543.204C543.225 61.7005 543.321 61.9792 543.493 62.1875C543.67 62.3906 543.889 62.5391 544.149 62.6328C544.415 62.7214 544.688 62.7656 544.969 62.7656C545.308 62.7656 545.592 62.7214 545.821 62.6328C546.05 62.5391 546.225 62.4141 546.344 62.2578C546.464 62.0964 546.524 61.9141 546.524 61.7109ZM553.949 62.6562C554.257 62.6562 554.533 62.5964 554.777 62.4766C555.027 62.3516 555.228 62.1797 555.379 61.9609C555.535 61.7422 555.621 61.4896 555.637 61.2031H557.41C557.4 61.75 557.238 62.2474 556.926 62.6953C556.613 63.1432 556.199 63.5 555.684 63.7656C555.168 64.026 554.598 64.1562 553.973 64.1562C553.327 64.1562 552.764 64.0469 552.285 63.8281C551.806 63.6042 551.408 63.2969 551.09 62.9062C550.772 62.5156 550.533 62.0651 550.371 61.5547C550.215 61.0443 550.137 60.4974 550.137 59.9141V59.6406C550.137 59.0573 550.215 58.5104 550.371 58C550.533 57.4844 550.772 57.0312 551.09 56.6406C551.408 56.25 551.806 55.9453 552.285 55.7266C552.764 55.5026 553.324 55.3906 553.965 55.3906C554.642 55.3906 555.236 55.526 555.746 55.7969C556.257 56.0625 556.658 56.4349 556.949 56.9141C557.246 57.388 557.4 57.9401 557.41 58.5703H555.637C555.621 58.2578 555.543 57.9766 555.402 57.7266C555.267 57.4714 555.074 57.2682 554.824 57.1172C554.58 56.9661 554.285 56.8906 553.942 56.8906C553.561 56.8906 553.246 56.9688 552.996 57.125C552.746 57.276 552.551 57.4844 552.41 57.75C552.27 58.0104 552.168 58.3047 552.106 58.6328C552.048 58.9557 552.02 59.2917 552.02 59.6406V59.9141C552.02 60.263 552.048 60.6016 552.106 60.9297C552.163 61.2578 552.262 61.5521 552.402 61.8125C552.548 62.0677 552.746 62.2734 552.996 62.4297C553.246 62.5807 553.564 62.6562 553.949 62.6562ZM561.195 52V64H559.32V52H561.195ZM560.867 59.4609L560.257 59.4531C560.263 58.8698 560.343 58.3307 560.5 57.8359C560.661 57.3411 560.885 56.9115 561.172 56.5469C561.463 56.1771 561.812 55.8932 562.218 55.6953C562.625 55.4922 563.075 55.3906 563.57 55.3906C563.987 55.3906 564.362 55.4479 564.695 55.5625C565.034 55.6771 565.325 55.862 565.57 56.1172C565.815 56.3672 566 56.6953 566.125 57.1016C566.255 57.5026 566.32 57.9922 566.32 58.5703V64H564.429V58.5547C564.429 58.1484 564.369 57.8255 564.25 57.5859C564.135 57.3464 563.966 57.1745 563.742 57.0703C563.518 56.9609 563.244 56.9062 562.922 56.9062C562.583 56.9062 562.284 56.974 562.023 57.1094C561.768 57.2448 561.554 57.4297 561.382 57.6641C561.211 57.8984 561.08 58.1693 560.992 58.4766C560.909 58.7839 560.867 59.112 560.867 59.4609Z" fill="black"/>
<path d="M450.516 50.2508L459.079 45.3008L461.934 50.2508" stroke="black" stroke-width="1.1" stroke-linecap="round" stroke-linejoin="round"/>
<path d="M453.027 66.75L444.464 71.7L441.609 66.75" stroke="black" stroke-width="1.6" stroke-linecap="round" stroke-linejoin="round"/>
<path d="M442.639 58.5672C442.639 58.6631 442.562 58.7407 442.466 58.7407C442.37 58.7407 442.292 58.6631 442.292 58.5672C442.292 58.4714 442.37 58.3938 442.466 58.3938C442.562 58.3938 442.639 58.4714 442.639 58.5672Z" fill="black" stroke="black" stroke-width="1.6"/>
<path d="M463.697 50.25H437.297V66.75H463.697V50.25Z" stroke="black" stroke-width="1.6" stroke-linecap="round" stroke-linejoin="round"/>
<path d="M463.697 55.431C460.826 55.431 458.516 53.1045 458.516 50.25" stroke="black" stroke-width="1.6" stroke-linecap="round" stroke-linejoin="round"/>
<path d="M458.516 66.7513C458.516 63.8803 460.842 61.5703 463.697 61.5703" stroke="black" stroke-width="1.6" stroke-linecap="round" stroke-linejoin="round"/>
<path d="M437.297 55.431C440.168 55.431 442.478 53.1045 442.478 50.25" stroke="black" stroke-width="1.6" stroke-linecap="round" stroke-linejoin="round"/>
<path d="M442.478 66.7513C442.478 63.8803 440.151 61.5703 437.297 61.5703" stroke="black" stroke-width="1.6" stroke-linecap="round" stroke-linejoin="round"/>
<path d="M450.5 63.4508C452.778 63.4508 454.625 61.2346 454.625 58.5008C454.625 55.767 452.778 53.5508 450.5 53.5508C448.222 53.5508 446.375 55.767 446.375 58.5008C446.375 61.2346 448.222 63.4508 450.5 63.4508Z" stroke="black" stroke-width="1.6" stroke-miterlimit="10" stroke-linecap="round"/>
<path d="M458.536 59.5407C459.074 59.5407 459.51 59.1049 459.51 58.5672C459.51 58.0296 459.074 57.5938 458.536 57.5938C457.998 57.5938 457.562 58.0296 457.562 58.5672C457.562 59.1049 457.998 59.5407 458.536 59.5407Z" fill="black"/>
<path d="M480.141 118.07C480.141 117.836 480.104 117.628 480.031 117.445C479.964 117.263 479.841 117.096 479.664 116.945C479.487 116.794 479.237 116.648 478.914 116.508C478.596 116.362 478.19 116.214 477.695 116.062C477.154 115.896 476.654 115.711 476.195 115.508C475.742 115.299 475.346 115.06 475.008 114.789C474.669 114.513 474.406 114.198 474.219 113.844C474.031 113.484 473.938 113.07 473.938 112.602C473.938 112.138 474.034 111.716 474.227 111.336C474.424 110.956 474.703 110.628 475.062 110.352C475.427 110.07 475.857 109.854 476.352 109.703C476.846 109.547 477.393 109.469 477.992 109.469C478.836 109.469 479.562 109.625 480.172 109.938C480.786 110.25 481.258 110.669 481.586 111.195C481.919 111.721 482.086 112.302 482.086 112.938H480.141C480.141 112.562 480.06 112.232 479.898 111.945C479.742 111.654 479.503 111.424 479.18 111.258C478.862 111.091 478.458 111.008 477.969 111.008C477.505 111.008 477.12 111.078 476.812 111.219C476.505 111.359 476.276 111.549 476.125 111.789C475.974 112.029 475.898 112.299 475.898 112.602C475.898 112.815 475.948 113.01 476.047 113.188C476.146 113.359 476.297 113.521 476.5 113.672C476.703 113.818 476.958 113.956 477.266 114.086C477.573 114.216 477.935 114.341 478.352 114.461C478.982 114.648 479.531 114.857 480 115.086C480.469 115.31 480.859 115.565 481.172 115.852C481.484 116.138 481.719 116.464 481.875 116.828C482.031 117.188 482.109 117.596 482.109 118.055C482.109 118.534 482.013 118.966 481.82 119.352C481.628 119.732 481.352 120.057 480.992 120.328C480.638 120.594 480.211 120.799 479.711 120.945C479.216 121.086 478.664 121.156 478.055 121.156C477.508 121.156 476.969 121.083 476.438 120.938C475.911 120.792 475.432 120.57 475 120.273C474.568 119.971 474.224 119.596 473.969 119.148C473.714 118.695 473.586 118.167 473.586 117.562H475.547C475.547 117.932 475.609 118.247 475.734 118.508C475.865 118.768 476.044 118.982 476.273 119.148C476.503 119.31 476.768 119.43 477.07 119.508C477.378 119.586 477.706 119.625 478.055 119.625C478.513 119.625 478.896 119.56 479.203 119.43C479.516 119.299 479.75 119.117 479.906 118.883C480.062 118.648 480.141 118.378 480.141 118.07ZM483.777 116.867V116.688C483.777 116.078 483.865 115.513 484.042 114.992C484.22 114.466 484.475 114.01 484.808 113.625C485.147 113.234 485.558 112.932 486.042 112.719C486.532 112.5 487.084 112.391 487.699 112.391C488.319 112.391 488.871 112.5 489.355 112.719C489.845 112.932 490.259 113.234 490.597 113.625C490.936 114.01 491.194 114.466 491.371 114.992C491.548 115.513 491.636 116.078 491.636 116.688V116.867C491.636 117.477 491.548 118.042 491.371 118.562C491.194 119.083 490.936 119.539 490.597 119.93C490.259 120.315 489.847 120.617 489.363 120.836C488.878 121.049 488.329 121.156 487.714 121.156C487.095 121.156 486.54 121.049 486.05 120.836C485.566 120.617 485.154 120.315 484.816 119.93C484.477 119.539 484.22 119.083 484.042 118.562C483.865 118.042 483.777 117.477 483.777 116.867ZM485.66 116.688V116.867C485.66 117.247 485.699 117.607 485.777 117.945C485.855 118.284 485.977 118.581 486.144 118.836C486.311 119.091 486.524 119.292 486.785 119.438C487.045 119.583 487.355 119.656 487.714 119.656C488.063 119.656 488.365 119.583 488.621 119.438C488.881 119.292 489.095 119.091 489.261 118.836C489.428 118.581 489.55 118.284 489.628 117.945C489.712 117.607 489.753 117.247 489.753 116.867V116.688C489.753 116.312 489.712 115.958 489.628 115.625C489.55 115.286 489.425 114.987 489.253 114.727C489.087 114.466 488.873 114.263 488.613 114.117C488.358 113.966 488.053 113.891 487.699 113.891C487.345 113.891 487.037 113.966 486.777 114.117C486.522 114.263 486.311 114.466 486.144 114.727C485.977 114.987 485.855 115.286 485.777 115.625C485.699 115.958 485.66 116.312 485.66 116.688ZM500.108 119.5V121H493.812V119.5H500.108ZM499.937 113.719L494.452 121H493.233V119.789L498.687 112.547H499.937V113.719ZM499.21 112.547V114.047H493.327V112.547H499.21ZM504.112 112.547V121H502.221V112.547H504.112ZM502.096 110.328C502.096 110.042 502.19 109.805 502.378 109.617C502.57 109.424 502.836 109.328 503.174 109.328C503.508 109.328 503.771 109.424 503.963 109.617C504.156 109.805 504.253 110.042 504.253 110.328C504.253 110.609 504.156 110.844 503.963 111.031C503.771 111.219 503.508 111.312 503.174 111.312C502.836 111.312 502.57 111.219 502.378 111.031C502.19 110.844 502.096 110.609 502.096 110.328ZM511.42 119.305V115.273C511.42 114.971 511.365 114.711 511.256 114.492C511.147 114.273 510.98 114.104 510.756 113.984C510.537 113.865 510.261 113.805 509.928 113.805C509.621 113.805 509.355 113.857 509.131 113.961C508.907 114.065 508.732 114.206 508.607 114.383C508.482 114.56 508.42 114.76 508.42 114.984H506.545C506.545 114.651 506.626 114.328 506.787 114.016C506.949 113.703 507.183 113.424 507.49 113.18C507.798 112.935 508.165 112.742 508.592 112.602C509.019 112.461 509.498 112.391 510.029 112.391C510.665 112.391 511.227 112.497 511.717 112.711C512.212 112.924 512.6 113.247 512.881 113.68C513.167 114.107 513.311 114.643 513.311 115.289V119.047C513.311 119.432 513.337 119.779 513.389 120.086C513.446 120.388 513.527 120.651 513.631 120.875V121H511.701C511.613 120.797 511.542 120.539 511.49 120.227C511.443 119.909 511.42 119.602 511.42 119.305ZM511.693 115.859L511.709 117.023H510.357C510.009 117.023 509.701 117.057 509.436 117.125C509.17 117.188 508.949 117.281 508.772 117.406C508.594 117.531 508.462 117.682 508.373 117.859C508.285 118.036 508.24 118.237 508.24 118.461C508.24 118.685 508.292 118.891 508.397 119.078C508.501 119.26 508.652 119.404 508.85 119.508C509.053 119.612 509.298 119.664 509.584 119.664C509.969 119.664 510.305 119.586 510.592 119.43C510.884 119.268 511.113 119.073 511.279 118.844C511.446 118.609 511.535 118.388 511.545 118.18L512.154 119.016C512.092 119.229 511.985 119.458 511.834 119.703C511.683 119.948 511.485 120.182 511.24 120.406C511.001 120.625 510.712 120.805 510.373 120.945C510.04 121.086 509.654 121.156 509.217 121.156C508.665 121.156 508.173 121.047 507.74 120.828C507.308 120.604 506.969 120.305 506.725 119.93C506.48 119.549 506.357 119.12 506.357 118.641C506.357 118.193 506.441 117.797 506.607 117.453C506.779 117.104 507.029 116.812 507.357 116.578C507.691 116.344 508.097 116.167 508.576 116.047C509.055 115.922 509.602 115.859 510.217 115.859H511.693ZM517.775 109V121H515.884V109H517.775Z" fill="black"/>
<path fill-rule="evenodd" clip-rule="evenodd" d="M459.956 127.214C460.897 126.867 461.887 125.861 461.606 124.64C460.633 120.251 457.036 117 452.729 117H448.291C443.984 117 440.387 120.251 439.414 124.64C439.133 125.877 439.975 126.867 441.064 127.214C442.153 127.56 444.958 128.699 450.32 128.699C455.683 128.699 459.016 127.56 459.956 127.214Z" stroke="black" stroke-width="1.6" stroke-linecap="round" stroke-linejoin="round"/>
<path d="M450.47 112.663C453.331 112.663 455.651 110.343 455.651 107.482C455.651 104.62 453.331 102.301 450.47 102.301C447.609 102.301 445.289 104.62 445.289 107.482C445.289 110.343 447.609 112.663 450.47 112.663Z" stroke="black" stroke-width="1.6" stroke-linecap="round" stroke-linejoin="round"/>
<defs>
<clipPath id="clip0_1510_32093">
<rect width="172" height="172" fill="white" transform="translate(33 31)"/>
</clipPath>
</defs>
</svg>
