<?xml version="1.0" encoding="UTF-8"?>
<svg id="Ebene_2" data-name="Ebene 2" xmlns="http://www.w3.org/2000/svg" width="5.93732mm" height="6.14365mm" viewBox="0 0 16.8302 17.41507">
  <g id="icons">
    <g>
      <circle cx="5.54668" cy="6.57378" r=".61727" style="fill: none; stroke: #000; stroke-miterlimit: 10; stroke-width: .75px;"/>
      <path d="m5.08719,6.01824s-.5914-.60347-.54312-1.32763.71209-.89314,1.19487-.84486.95391.33823.79658.82072c-.17738.54396-.91089.38117-.89508,1.29386" style="fill: none; stroke: #000; stroke-miterlimit: 10; stroke-width: .75px;"/>
      <path d="m6.13347,7.04938c.87.32.44.95.89,1.31.01.01.03.02.04.02" style="fill: none; stroke: #000; stroke-miterlimit: 10; stroke-width: .75px;"/>
      <path d="m6.29347,6.51938s.78-.33,1.44-.02c.4.19.52.53.5.86" style="fill: none; stroke: #000; stroke-miterlimit: 10; stroke-width: .75px;"/>
      <path d="m5.24761,7.20776s-.2713.80021-.9392,1.08421-1.11847-.23193-1.29345-.68446-.12908-1.00384.37245-1.08139c.56432-.08726.75076.63767,1.55389.2167" style="fill: none; stroke: #000; stroke-miterlimit: 10; stroke-width: .75px;"/>
    </g>
    <g>
      <polyline points="1.5439 3.63161 1.5439 10.44161 3.4839 10.44161" style="fill: none; fill-rule: evenodd; stroke: #1d1d1b; stroke-linecap: round; stroke-linejoin: round; stroke-width: 1.1px;"/>
      <line x1="9.4539" y1="4.94161" x2="9.4539" y2="3.63161" style="fill: none; stroke: #1d1d1b; stroke-linecap: round; stroke-linejoin: round; stroke-width: 1.1px;"/>
      <polyline points=".55 4.35794 5.51449 .55 10.44415 4.39059" style="fill: none; stroke: #1d1d1b; stroke-linecap: round; stroke-linejoin: round; stroke-width: 1.1px;"/>
    </g>
    <g>
      <circle cx="10.13116" cy="10.71604" r="3.85096" style="fill: none; stroke: #1d1d1b; stroke-linecap: round; stroke-linejoin: round; stroke-width: 1.1px;"/>
      <line x1="12.85421" y1="13.43908" x2="16.2802" y2="16.86507" style="fill: none; stroke: #1d1d1b; stroke-linecap: round; stroke-linejoin: round; stroke-width: 1.1px;"/>
    </g>
  </g>
</svg>