<svg width="311" height="183" viewBox="0 0 311 183" fill="none" xmlns="http://www.w3.org/2000/svg">
<path d="M9.74905 91.2317H9.75716L8.13528 90.2984C7.28699 89.8102 7.28996 88.5992 8.13388 88.1172L8.13453 88.1168L148.751 7.51621L148.752 7.51574C151.117 6.15446 154.037 6.16356 156.398 7.53037L156.4 7.53179L296.564 87.5997L296.564 87.5999C297.811 88.3107 297.812 90.0995 296.568 90.8156C296.568 90.8157 296.568 90.8157 296.568 90.8158L156.058 171.558L156.056 171.56C153.91 172.809 151.25 172.813 149.098 171.574L9.74905 91.2317Z" fill="white" stroke="#878787"/>
<path d="M78.3906 66.7031L81.2129 56.7812H82.5801L81.7891 60.6387L78.752 71H77.3945L78.3906 66.7031ZM75.4707 56.7812L77.7168 66.5078L78.3906 71H77.043L73.5957 56.7812H75.4707ZM86.2324 66.498L88.4297 56.7812H90.3145L86.877 71H85.5293L86.2324 66.498ZM82.7852 56.7812L85.5293 66.7031L86.5254 71H85.168L82.2383 60.6387L81.4375 56.7812H82.7852ZM94.6938 60.4336V71H92.8773V60.4336H94.6938ZM92.7406 57.6309C92.7406 57.3379 92.8285 57.0905 93.0043 56.8887C93.1866 56.6868 93.4535 56.5859 93.8051 56.5859C94.1501 56.5859 94.4138 56.6868 94.5961 56.8887C94.7849 57.0905 94.8793 57.3379 94.8793 57.6309C94.8793 57.9108 94.7849 58.1517 94.5961 58.3535C94.4138 58.5488 94.1501 58.6465 93.8051 58.6465C93.4535 58.6465 93.1866 58.5488 93.0043 58.3535C92.8285 58.1517 92.7406 57.9108 92.7406 57.6309ZM104.346 68.1973C104.346 67.9368 104.288 67.696 104.171 67.4746C104.06 67.2467 103.829 67.0417 103.477 66.8594C103.132 66.6706 102.611 66.5078 101.915 66.3711C101.329 66.2474 100.798 66.1009 100.323 65.9316C99.8543 65.7624 99.4539 65.5573 99.1219 65.3164C98.7964 65.0755 98.5457 64.7923 98.3699 64.4668C98.1941 64.1413 98.1063 63.7604 98.1063 63.3242C98.1063 62.9076 98.1974 62.5137 98.3797 62.1426C98.5685 61.7715 98.8322 61.4427 99.1707 61.1562C99.5158 60.8698 99.9292 60.6452 100.411 60.4824C100.893 60.3197 101.43 60.2383 102.022 60.2383C102.869 60.2383 103.591 60.388 104.19 60.6875C104.789 60.987 105.248 61.3874 105.567 61.8887C105.886 62.3835 106.046 62.9336 106.046 63.5391H104.239C104.239 63.2461 104.151 62.9629 103.975 62.6895C103.806 62.4095 103.555 62.1784 103.223 61.9961C102.898 61.8138 102.498 61.7227 102.022 61.7227C101.521 61.7227 101.114 61.8008 100.802 61.957C100.496 62.1068 100.271 62.2988 100.128 62.5332C99.991 62.7676 99.9227 63.015 99.9227 63.2754C99.9227 63.4707 99.9552 63.6465 100.02 63.8027C100.092 63.9525 100.216 64.0924 100.391 64.2227C100.567 64.3464 100.815 64.4635 101.134 64.5742C101.453 64.6849 101.86 64.7956 102.354 64.9062C103.22 65.1016 103.933 65.3359 104.493 65.6094C105.053 65.8828 105.47 66.2181 105.743 66.6152C106.016 67.0124 106.153 67.4941 106.153 68.0605C106.153 68.5228 106.055 68.946 105.86 69.3301C105.671 69.7142 105.395 70.0462 105.03 70.3262C104.672 70.5996 104.242 70.8145 103.741 70.9707C103.246 71.1204 102.69 71.1953 102.071 71.1953C101.14 71.1953 100.352 71.0293 99.7078 70.6973C99.0633 70.3652 98.575 69.9355 98.243 69.4082C97.9109 68.8809 97.7449 68.3242 97.7449 67.7383H99.5613C99.5874 68.2331 99.7306 68.627 99.991 68.9199C100.251 69.2064 100.57 69.4115 100.948 69.5352C101.326 69.6523 101.7 69.7109 102.071 69.7109C102.566 69.7109 102.979 69.6458 103.311 69.5156C103.65 69.3854 103.907 69.2064 104.083 68.9785C104.259 68.7507 104.346 68.4902 104.346 68.1973ZM115.279 68.1973C115.279 67.9368 115.22 67.696 115.103 67.4746C114.992 67.2467 114.761 67.0417 114.409 66.8594C114.064 66.6706 113.543 66.5078 112.847 66.3711C112.261 66.2474 111.73 66.1009 111.255 65.9316C110.786 65.7624 110.386 65.5573 110.054 65.3164C109.728 65.0755 109.478 64.7923 109.302 64.4668C109.126 64.1413 109.038 63.7604 109.038 63.3242C109.038 62.9076 109.129 62.5137 109.312 62.1426C109.501 61.7715 109.764 61.4427 110.103 61.1562C110.448 60.8698 110.861 60.6452 111.343 60.4824C111.825 60.3197 112.362 60.2383 112.954 60.2383C113.801 60.2383 114.523 60.388 115.122 60.6875C115.721 60.987 116.18 61.3874 116.499 61.8887C116.818 62.3835 116.978 62.9336 116.978 63.5391H115.171C115.171 63.2461 115.083 62.9629 114.907 62.6895C114.738 62.4095 114.487 62.1784 114.155 61.9961C113.83 61.8138 113.43 61.7227 112.954 61.7227C112.453 61.7227 112.046 61.8008 111.734 61.957C111.428 62.1068 111.203 62.2988 111.06 62.5332C110.923 62.7676 110.855 63.015 110.855 63.2754C110.855 63.4707 110.887 63.6465 110.952 63.8027C111.024 63.9525 111.148 64.0924 111.323 64.2227C111.499 64.3464 111.747 64.4635 112.066 64.5742C112.385 64.6849 112.792 64.7956 113.286 64.9062C114.152 65.1016 114.865 65.3359 115.425 65.6094C115.985 65.8828 116.402 66.2181 116.675 66.6152C116.948 67.0124 117.085 67.4941 117.085 68.0605C117.085 68.5228 116.987 68.946 116.792 69.3301C116.603 69.7142 116.327 70.0462 115.962 70.3262C115.604 70.5996 115.174 70.8145 114.673 70.9707C114.178 71.1204 113.622 71.1953 113.003 71.1953C112.072 71.1953 111.284 71.0293 110.64 70.6973C109.995 70.3652 109.507 69.9355 109.175 69.4082C108.843 68.8809 108.677 68.3242 108.677 67.7383H110.493C110.519 68.2331 110.663 68.627 110.923 68.9199C111.183 69.2064 111.502 69.4115 111.88 69.5352C112.258 69.6523 112.632 69.7109 113.003 69.7109C113.498 69.7109 113.911 69.6458 114.243 69.5156C114.582 69.3854 114.839 69.2064 115.015 68.9785C115.191 68.7507 115.279 68.4902 115.279 68.1973ZM124.443 71.1953C123.707 71.1953 123.04 71.0716 122.441 70.8242C121.849 70.5703 121.338 70.2155 120.908 69.7598C120.485 69.304 120.159 68.7637 119.931 68.1387C119.703 67.5137 119.589 66.8301 119.589 66.0879V65.6777C119.589 64.8184 119.716 64.0534 119.97 63.3828C120.224 62.7057 120.569 62.1328 121.005 61.6641C121.442 61.1953 121.936 60.8405 122.49 60.5996C123.043 60.3587 123.616 60.2383 124.209 60.2383C124.964 60.2383 125.615 60.3685 126.162 60.6289C126.715 60.8893 127.168 61.2539 127.519 61.7227C127.871 62.1849 128.131 62.7318 128.3 63.3633C128.47 63.9883 128.554 64.6719 128.554 65.4141V66.2246H120.664V64.75H126.748V64.6133C126.722 64.1445 126.624 63.6888 126.455 63.2461C126.292 62.8034 126.032 62.4388 125.673 62.1523C125.315 61.8659 124.827 61.7227 124.209 61.7227C123.798 61.7227 123.421 61.8105 123.076 61.9863C122.731 62.1556 122.435 62.4095 122.187 62.748C121.94 63.0866 121.748 63.5 121.611 63.9883C121.474 64.4766 121.406 65.0397 121.406 65.6777V66.0879C121.406 66.5892 121.474 67.0612 121.611 67.5039C121.754 67.9401 121.959 68.3242 122.226 68.6562C122.5 68.9883 122.828 69.2487 123.213 69.4375C123.603 69.6263 124.046 69.7207 124.541 69.7207C125.179 69.7207 125.719 69.5905 126.162 69.3301C126.604 69.0697 126.992 68.7214 127.324 68.2852L128.418 69.1543C128.19 69.4993 127.9 69.8281 127.548 70.1406C127.197 70.4531 126.764 70.707 126.25 70.9023C125.742 71.0977 125.14 71.1953 124.443 71.1953ZM133.07 62.6895V71H131.264V60.4336H132.973L133.07 62.6895ZM132.641 65.3164L131.889 65.2871C131.895 64.5645 132.003 63.8971 132.211 63.2852C132.419 62.6667 132.712 62.1296 133.09 61.6738C133.467 61.2181 133.917 60.8665 134.438 60.6191C134.965 60.3652 135.548 60.2383 136.186 60.2383C136.706 60.2383 137.175 60.3099 137.592 60.4531C138.008 60.5898 138.363 60.8112 138.656 61.1172C138.956 61.4232 139.184 61.8203 139.34 62.3086C139.496 62.7904 139.574 63.3796 139.574 64.0762V71H137.758V64.0566C137.758 63.5033 137.676 63.0605 137.514 62.7285C137.351 62.39 137.113 62.1458 136.801 61.9961C136.488 61.8398 136.104 61.7617 135.648 61.7617C135.199 61.7617 134.789 61.8561 134.418 62.0449C134.053 62.2337 133.738 62.4941 133.471 62.8262C133.21 63.1582 133.005 63.5391 132.855 63.9688C132.712 64.3919 132.641 64.8411 132.641 65.3164ZM149.071 68.1973C149.071 67.9368 149.012 67.696 148.895 67.4746C148.784 67.2467 148.553 67.0417 148.202 66.8594C147.857 66.6706 147.336 66.5078 146.639 66.3711C146.053 66.2474 145.523 66.1009 145.047 65.9316C144.579 65.7624 144.178 65.5573 143.846 65.3164C143.521 65.0755 143.27 64.7923 143.094 64.4668C142.918 64.1413 142.83 63.7604 142.83 63.3242C142.83 62.9076 142.922 62.5137 143.104 62.1426C143.293 61.7715 143.556 61.4427 143.895 61.1562C144.24 60.8698 144.653 60.6452 145.135 60.4824C145.617 60.3197 146.154 60.2383 146.746 60.2383C147.593 60.2383 148.315 60.388 148.914 60.6875C149.513 60.987 149.972 61.3874 150.291 61.8887C150.61 62.3835 150.77 62.9336 150.77 63.5391H148.963C148.963 63.2461 148.875 62.9629 148.7 62.6895C148.53 62.4095 148.28 62.1784 147.948 61.9961C147.622 61.8138 147.222 61.7227 146.746 61.7227C146.245 61.7227 145.838 61.8008 145.526 61.957C145.22 62.1068 144.995 62.2988 144.852 62.5332C144.715 62.7676 144.647 63.015 144.647 63.2754C144.647 63.4707 144.679 63.6465 144.745 63.8027C144.816 63.9525 144.94 64.0924 145.116 64.2227C145.291 64.3464 145.539 64.4635 145.858 64.5742C146.177 64.6849 146.584 64.7956 147.079 64.9062C147.944 65.1016 148.657 65.3359 149.217 65.6094C149.777 65.8828 150.194 66.2181 150.467 66.6152C150.741 67.0124 150.877 67.4941 150.877 68.0605C150.877 68.5228 150.78 68.946 150.584 69.3301C150.396 69.7142 150.119 70.0462 149.754 70.3262C149.396 70.5996 148.967 70.8145 148.465 70.9707C147.97 71.1204 147.414 71.1953 146.795 71.1953C145.864 71.1953 145.077 71.0293 144.432 70.6973C143.787 70.3652 143.299 69.9355 142.967 69.4082C142.635 68.8809 142.469 68.3242 142.469 67.7383H144.286C144.312 68.2331 144.455 68.627 144.715 68.9199C144.976 69.2064 145.295 69.4115 145.672 69.5352C146.05 69.6523 146.424 69.7109 146.795 69.7109C147.29 69.7109 147.704 69.6458 148.036 69.5156C148.374 69.3854 148.631 69.2064 148.807 68.9785C148.983 68.7507 149.071 68.4902 149.071 68.1973ZM155.657 62.4648V75.0625H153.841V60.4336H155.501L155.657 62.4648ZM162.776 65.6289V65.834C162.776 66.6022 162.685 67.3151 162.503 67.9727C162.32 68.6237 162.054 69.1901 161.702 69.6719C161.357 70.1536 160.93 70.528 160.423 70.7949C159.915 71.0618 159.332 71.1953 158.675 71.1953C158.004 71.1953 157.412 71.0846 156.897 70.8633C156.383 70.6419 155.947 70.3197 155.589 69.8965C155.231 69.4733 154.944 68.9655 154.729 68.373C154.521 67.7806 154.378 67.1133 154.3 66.3711V65.2773C154.378 64.4961 154.524 63.7962 154.739 63.1777C154.954 62.5592 155.237 62.0319 155.589 61.5957C155.947 61.153 156.38 60.8177 156.887 60.5898C157.395 60.3555 157.981 60.2383 158.645 60.2383C159.309 60.2383 159.899 60.3685 160.413 60.6289C160.927 60.8828 161.36 61.2474 161.712 61.7227C162.063 62.1979 162.327 62.7676 162.503 63.4316C162.685 64.0892 162.776 64.8216 162.776 65.6289ZM160.96 65.834V65.6289C160.96 65.1016 160.904 64.6068 160.794 64.1445C160.683 63.6758 160.511 63.2656 160.276 62.9141C160.048 62.556 159.755 62.276 159.397 62.0742C159.039 61.8659 158.613 61.7617 158.118 61.7617C157.662 61.7617 157.265 61.8398 156.927 61.9961C156.595 62.1523 156.311 62.3639 156.077 62.6309C155.843 62.8913 155.651 63.1908 155.501 63.5293C155.358 63.8613 155.25 64.2064 155.179 64.5645V67.0938C155.309 67.5495 155.491 67.9792 155.725 68.3828C155.96 68.7799 156.272 69.1022 156.663 69.3496C157.054 69.5905 157.545 69.7109 158.137 69.7109C158.626 69.7109 159.046 69.61 159.397 69.4082C159.755 69.1999 160.048 68.9167 160.276 68.5586C160.511 68.2005 160.683 67.7904 160.794 67.3281C160.904 66.8594 160.96 66.3613 160.96 65.834ZM167.644 56V71H165.827V56H167.644ZM177.375 69.1934V63.7539C177.375 63.3372 177.29 62.9759 177.121 62.6699C176.958 62.3574 176.711 62.1165 176.379 61.9473C176.046 61.778 175.636 61.6934 175.148 61.6934C174.692 61.6934 174.292 61.7715 173.947 61.9277C173.608 62.084 173.341 62.2891 173.146 62.543C172.957 62.7969 172.863 63.0703 172.863 63.3633H171.056C171.056 62.9857 171.154 62.6113 171.349 62.2402C171.545 61.8691 171.824 61.5339 172.189 61.2344C172.56 60.9284 173.003 60.6875 173.517 60.5117C174.038 60.3294 174.617 60.2383 175.255 60.2383C176.024 60.2383 176.701 60.3685 177.287 60.6289C177.879 60.8893 178.341 61.2832 178.673 61.8105C179.012 62.3314 179.181 62.9857 179.181 63.7734V68.6953C179.181 69.0469 179.211 69.4212 179.269 69.8184C179.334 70.2155 179.429 70.5573 179.552 70.8438V71H177.668C177.576 70.7917 177.505 70.515 177.453 70.1699C177.401 69.8184 177.375 69.4928 177.375 69.1934ZM177.687 64.5938L177.707 65.8633H175.88C175.366 65.8633 174.907 65.9056 174.504 65.9902C174.1 66.0684 173.761 66.1888 173.488 66.3516C173.214 66.5143 173.006 66.7194 172.863 66.9668C172.72 67.2077 172.648 67.4909 172.648 67.8164C172.648 68.1484 172.723 68.4512 172.873 68.7246C173.022 68.998 173.247 69.2161 173.546 69.3789C173.852 69.5352 174.227 69.6133 174.67 69.6133C175.223 69.6133 175.711 69.4961 176.134 69.2617C176.558 69.0273 176.893 68.7409 177.14 68.4023C177.394 68.0638 177.531 67.735 177.55 67.416L178.322 68.2852C178.276 68.5586 178.153 68.8613 177.951 69.1934C177.749 69.5254 177.479 69.8444 177.14 70.1504C176.808 70.4499 176.411 70.7005 175.949 70.9023C175.493 71.0977 174.979 71.1953 174.406 71.1953C173.69 71.1953 173.061 71.0553 172.521 70.7754C171.987 70.4954 171.571 70.1211 171.271 69.6523C170.978 69.1771 170.832 68.6465 170.832 68.0605C170.832 67.4941 170.942 66.9961 171.164 66.5664C171.385 66.1302 171.704 65.7689 172.121 65.4824C172.537 65.1895 173.039 64.9681 173.625 64.8184C174.211 64.6686 174.865 64.5938 175.588 64.5938H177.687ZM187.047 60.4336V61.8203H181.334V60.4336H187.047ZM183.268 57.8652H185.074V68.3828C185.074 68.7409 185.13 69.0111 185.24 69.1934C185.351 69.3757 185.494 69.4961 185.67 69.5547C185.846 69.6133 186.035 69.6426 186.236 69.6426C186.386 69.6426 186.542 69.6296 186.705 69.6035C186.874 69.571 187.001 69.5449 187.086 69.5254L187.096 71C186.952 71.0456 186.764 71.0879 186.529 71.127C186.301 71.1725 186.025 71.1953 185.699 71.1953C185.257 71.1953 184.85 71.1074 184.479 70.9316C184.107 70.7559 183.811 70.4629 183.59 70.0527C183.375 69.6361 183.268 69.0762 183.268 68.373V57.8652ZM194.19 60.4336V61.8203H188.477V60.4336H194.19ZM190.411 57.8652H192.217V68.3828C192.217 68.7409 192.273 69.0111 192.383 69.1934C192.494 69.3757 192.637 69.4961 192.813 69.5547C192.989 69.6133 193.177 69.6426 193.379 69.6426C193.529 69.6426 193.685 69.6296 193.848 69.6035C194.017 69.571 194.144 69.5449 194.229 69.5254L194.239 71C194.095 71.0456 193.907 71.0879 193.672 71.127C193.444 71.1725 193.168 71.1953 192.842 71.1953C192.399 71.1953 191.993 71.1074 191.621 70.9316C191.25 70.7559 190.954 70.4629 190.733 70.0527C190.518 69.6361 190.411 69.0762 190.411 68.373V57.8652ZM199.604 71H197.798V59.3203C197.798 58.5586 197.934 57.9173 198.208 57.3965C198.488 56.8691 198.888 56.472 199.409 56.2051C199.93 55.9316 200.548 55.7949 201.264 55.7949C201.473 55.7949 201.681 55.8079 201.889 55.834C202.104 55.86 202.313 55.8991 202.514 55.9512L202.417 57.4258C202.28 57.3932 202.124 57.3704 201.948 57.3574C201.779 57.3444 201.61 57.3379 201.44 57.3379C201.056 57.3379 200.724 57.416 200.444 57.5723C200.171 57.722 199.962 57.9434 199.819 58.2363C199.676 58.5293 199.604 58.8906 199.604 59.3203V71ZM201.85 60.4336V61.8203H196.128V60.4336H201.85ZM203.984 65.834V65.6094C203.984 64.8477 204.094 64.1413 204.316 63.4902C204.537 62.8327 204.856 62.263 205.273 61.7812C205.689 61.293 206.194 60.9154 206.786 60.6484C207.379 60.375 208.043 60.2383 208.779 60.2383C209.521 60.2383 210.188 60.375 210.78 60.6484C211.379 60.9154 211.887 61.293 212.304 61.7812C212.727 62.263 213.049 62.8327 213.271 63.4902C213.492 64.1413 213.603 64.8477 213.603 65.6094V65.834C213.603 66.5957 213.492 67.3021 213.271 67.9531C213.049 68.6042 212.727 69.1738 212.304 69.6621C211.887 70.1439 211.383 70.5215 210.79 70.7949C210.204 71.0618 209.54 71.1953 208.798 71.1953C208.056 71.1953 207.389 71.0618 206.796 70.7949C206.204 70.5215 205.696 70.1439 205.273 69.6621C204.856 69.1738 204.537 68.6042 204.316 67.9531C204.094 67.3021 203.984 66.5957 203.984 65.834ZM205.79 65.6094V65.834C205.79 66.3613 205.852 66.8594 205.976 67.3281C206.099 67.7904 206.285 68.2005 206.532 68.5586C206.786 68.9167 207.102 69.1999 207.48 69.4082C207.857 69.61 208.297 69.7109 208.798 69.7109C209.293 69.7109 209.726 69.61 210.097 69.4082C210.474 69.1999 210.787 68.9167 211.034 68.5586C211.282 68.2005 211.467 67.7904 211.591 67.3281C211.721 66.8594 211.786 66.3613 211.786 65.834V65.6094C211.786 65.0885 211.721 64.597 211.591 64.1348C211.467 63.666 211.279 63.2526 211.025 62.8945C210.777 62.5299 210.465 62.2435 210.087 62.0352C209.716 61.8268 209.28 61.7227 208.779 61.7227C208.284 61.7227 207.848 61.8268 207.47 62.0352C207.099 62.2435 206.786 62.5299 206.532 62.8945C206.285 63.2526 206.099 63.666 205.976 64.1348C205.852 64.597 205.79 65.0885 205.79 65.6094ZM218.275 62.0938V71H216.468V60.4336H218.226L218.275 62.0938ZM221.576 60.375L221.566 62.0547C221.416 62.0221 221.273 62.0026 221.136 61.9961C221.006 61.9831 220.856 61.9766 220.687 61.9766C220.27 61.9766 219.903 62.0417 219.584 62.1719C219.265 62.3021 218.994 62.4844 218.773 62.7188C218.552 62.9531 218.376 63.2331 218.246 63.5586C218.122 63.8776 218.041 64.2292 218.002 64.6133L217.494 64.9062C217.494 64.2682 217.556 63.6693 217.679 63.1094C217.809 62.5495 218.008 62.0547 218.275 61.625C218.542 61.1888 218.88 60.8503 219.291 60.6094C219.707 60.362 220.202 60.2383 220.775 60.2383C220.905 60.2383 221.055 60.2546 221.224 60.2871C221.393 60.3132 221.511 60.3424 221.576 60.375ZM225.643 62.5332V71H223.826V60.4336H225.545L225.643 62.5332ZM225.271 65.3164L224.432 65.2871C224.438 64.5645 224.533 63.8971 224.715 63.2852C224.897 62.6667 225.167 62.1296 225.525 61.6738C225.883 61.2181 226.329 60.8665 226.863 60.6191C227.397 60.3652 228.016 60.2383 228.719 60.2383C229.214 60.2383 229.669 60.3099 230.086 60.4531C230.503 60.5898 230.864 60.8079 231.17 61.1074C231.476 61.4069 231.714 61.791 231.883 62.2598C232.052 62.7285 232.137 63.2949 232.137 63.959V71H230.33V64.0469C230.33 63.4935 230.236 63.0508 230.047 62.7188C229.865 62.3867 229.604 62.1458 229.266 61.9961C228.927 61.8398 228.53 61.7617 228.074 61.7617C227.54 61.7617 227.094 61.8561 226.736 62.0449C226.378 62.2337 226.092 62.4941 225.877 62.8262C225.662 63.1582 225.506 63.5391 225.408 63.9688C225.317 64.3919 225.271 64.8411 225.271 65.3164ZM232.117 64.3203L230.906 64.6914C230.913 64.112 231.007 63.5553 231.189 63.0215C231.378 62.4876 231.648 62.0124 232 61.5957C232.358 61.179 232.798 60.8503 233.318 60.6094C233.839 60.362 234.435 60.2383 235.105 60.2383C235.672 60.2383 236.173 60.3132 236.609 60.4629C237.052 60.6126 237.423 60.8438 237.723 61.1562C238.029 61.4622 238.26 61.8561 238.416 62.3379C238.572 62.8197 238.65 63.3926 238.65 64.0566V71H236.834V64.0371C236.834 63.4447 236.74 62.9857 236.551 62.6602C236.368 62.3281 236.108 62.097 235.77 61.9668C235.438 61.8301 235.04 61.7617 234.578 61.7617C234.181 61.7617 233.829 61.8301 233.523 61.9668C233.217 62.1035 232.96 62.2923 232.752 62.5332C232.544 62.7676 232.384 63.0378 232.273 63.3438C232.169 63.6497 232.117 63.9753 232.117 64.3203Z" fill="black"/>
<path d="M94.498 93H91.5293L91.5488 91.4668H94.498C95.5137 91.4668 96.36 91.2552 97.0371 90.832C97.7142 90.4023 98.222 89.8034 98.5605 89.0352C98.9056 88.2604 99.0781 87.3555 99.0781 86.3203V85.4512C99.0781 84.6374 98.9805 83.9147 98.7852 83.2832C98.5898 82.6452 98.3034 82.1081 97.9258 81.6719C97.5482 81.2292 97.0859 80.8939 96.5391 80.666C95.9987 80.4382 95.377 80.3242 94.6738 80.3242H91.4707V78.7812H94.6738C95.6048 78.7812 96.4544 78.9375 97.2227 79.25C97.9909 79.556 98.6517 80.002 99.2051 80.5879C99.765 81.1673 100.195 81.8704 100.494 82.6973C100.794 83.5176 100.943 84.4421 100.943 85.4707V86.3203C100.943 87.349 100.794 88.2767 100.494 89.1035C100.195 89.9238 99.7617 90.6237 99.1953 91.2031C98.6354 91.7826 97.9583 92.2285 97.1641 92.541C96.3763 92.847 95.4876 93 94.498 93ZM92.5352 78.7812V93H90.6504V78.7812H92.5352ZM106.065 82.4336V93H104.248V82.4336H106.065ZM104.112 79.6309C104.112 79.3379 104.2 79.0905 104.375 78.8887C104.558 78.6868 104.825 78.5859 105.176 78.5859C105.521 78.5859 105.785 78.6868 105.967 78.8887C106.156 79.0905 106.25 79.3379 106.25 79.6309C106.25 79.9108 106.156 80.1517 105.967 80.3535C105.785 80.5488 105.521 80.6465 105.176 80.6465C104.825 80.6465 104.558 80.5488 104.375 80.3535C104.2 80.1517 104.112 79.9108 104.112 79.6309ZM116.411 82.4336H118.052V92.7754C118.052 93.7064 117.863 94.5007 117.485 95.1582C117.108 95.8158 116.58 96.3138 115.903 96.6523C115.233 96.9974 114.458 97.1699 113.579 97.1699C113.214 97.1699 112.785 97.1113 112.29 96.9941C111.802 96.8835 111.32 96.6914 110.845 96.418C110.376 96.151 109.982 95.7897 109.663 95.334L110.61 94.2598C111.053 94.7936 111.515 95.1647 111.997 95.373C112.485 95.5814 112.967 95.6855 113.442 95.6855C114.015 95.6855 114.51 95.5781 114.927 95.3633C115.343 95.1484 115.665 94.8294 115.893 94.4062C116.128 93.9896 116.245 93.4753 116.245 92.8633V84.7578L116.411 82.4336ZM109.136 87.834V87.6289C109.136 86.8216 109.23 86.0892 109.419 85.4316C109.614 84.7676 109.891 84.1979 110.249 83.7227C110.613 83.2474 111.053 82.8828 111.567 82.6289C112.082 82.3685 112.661 82.2383 113.305 82.2383C113.97 82.2383 114.549 82.3555 115.044 82.5898C115.545 82.8177 115.968 83.153 116.313 83.5957C116.665 84.0319 116.942 84.5592 117.143 85.1777C117.345 85.7962 117.485 86.4961 117.563 87.2773V88.1758C117.492 88.9505 117.352 89.6471 117.143 90.2656C116.942 90.8841 116.665 91.4115 116.313 91.8477C115.968 92.2839 115.545 92.6191 115.044 92.8535C114.542 93.0814 113.957 93.1953 113.286 93.1953C112.654 93.1953 112.082 93.0618 111.567 92.7949C111.059 92.528 110.623 92.1536 110.259 91.6719C109.894 91.1901 109.614 90.6237 109.419 89.9727C109.23 89.3151 109.136 88.6022 109.136 87.834ZM110.942 87.6289V87.834C110.942 88.3613 110.994 88.8561 111.098 89.3184C111.209 89.7806 111.375 90.1875 111.596 90.5391C111.824 90.8906 112.114 91.1673 112.466 91.3691C112.817 91.5645 113.237 91.6621 113.725 91.6621C114.324 91.6621 114.819 91.5352 115.21 91.2812C115.6 91.0273 115.91 90.6921 116.138 90.2754C116.372 89.8587 116.554 89.4062 116.684 88.918V86.5645C116.613 86.2064 116.502 85.8613 116.352 85.5293C116.209 85.1908 116.02 84.8913 115.786 84.6309C115.558 84.3639 115.275 84.1523 114.936 83.9961C114.598 83.8398 114.201 83.7617 113.745 83.7617C113.25 83.7617 112.824 83.8659 112.466 84.0742C112.114 84.276 111.824 84.556 111.596 84.9141C111.375 85.2656 111.209 85.6758 111.098 86.1445C110.994 86.6068 110.942 87.1016 110.942 87.6289ZM123.359 82.4336V93H121.542V82.4336H123.359ZM121.405 79.6309C121.405 79.3379 121.493 79.0905 121.669 78.8887C121.851 78.6868 122.118 78.5859 122.47 78.5859C122.815 78.5859 123.079 78.6868 123.261 78.8887C123.45 79.0905 123.544 79.3379 123.544 79.6309C123.544 79.9108 123.45 80.1517 123.261 80.3535C123.079 80.5488 122.815 80.6465 122.47 80.6465C122.118 80.6465 121.851 80.5488 121.669 80.3535C121.493 80.1517 121.405 79.9108 121.405 79.6309ZM131.283 82.4336V83.8203H125.57V82.4336H131.283ZM127.504 79.8652H129.31V90.3828C129.31 90.7409 129.365 91.0111 129.476 91.1934C129.587 91.3757 129.73 91.4961 129.906 91.5547C130.082 91.6133 130.27 91.6426 130.472 91.6426C130.622 91.6426 130.778 91.6296 130.941 91.6035C131.11 91.571 131.237 91.5449 131.322 91.5254L131.332 93C131.188 93.0456 131 93.0879 130.765 93.127C130.537 93.1725 130.261 93.1953 129.935 93.1953C129.492 93.1953 129.086 93.1074 128.714 92.9316C128.343 92.7559 128.047 92.4629 127.826 92.0527C127.611 91.6361 127.504 91.0762 127.504 90.373V79.8652ZM140.232 91.1934V85.7539C140.232 85.3372 140.148 84.9759 139.979 84.6699C139.816 84.3574 139.568 84.1165 139.236 83.9473C138.904 83.778 138.494 83.6934 138.006 83.6934C137.55 83.6934 137.15 83.7715 136.805 83.9277C136.466 84.084 136.199 84.2891 136.004 84.543C135.815 84.7969 135.721 85.0703 135.721 85.3633H133.914C133.914 84.9857 134.012 84.6113 134.207 84.2402C134.402 83.8691 134.682 83.5339 135.047 83.2344C135.418 82.9284 135.861 82.6875 136.375 82.5117C136.896 82.3294 137.475 82.2383 138.113 82.2383C138.882 82.2383 139.559 82.3685 140.145 82.6289C140.737 82.8893 141.199 83.2832 141.531 83.8105C141.87 84.3314 142.039 84.9857 142.039 85.7734V90.6953C142.039 91.0469 142.068 91.4212 142.127 91.8184C142.192 92.2155 142.286 92.5573 142.41 92.8438V93H140.525C140.434 92.7917 140.363 92.515 140.311 92.1699C140.258 91.8184 140.232 91.4928 140.232 91.1934ZM140.545 86.5938L140.564 87.8633H138.738C138.224 87.8633 137.765 87.9056 137.361 87.9902C136.958 88.0684 136.619 88.1888 136.346 88.3516C136.072 88.5143 135.864 88.7194 135.721 88.9668C135.577 89.2077 135.506 89.4909 135.506 89.8164C135.506 90.1484 135.581 90.4512 135.73 90.7246C135.88 90.998 136.105 91.2161 136.404 91.3789C136.71 91.5352 137.085 91.6133 137.527 91.6133C138.081 91.6133 138.569 91.4961 138.992 91.2617C139.415 91.0273 139.751 90.7409 139.998 90.4023C140.252 90.0638 140.389 89.735 140.408 89.416L141.18 90.2852C141.134 90.5586 141.01 90.8613 140.809 91.1934C140.607 91.5254 140.337 91.8444 139.998 92.1504C139.666 92.4499 139.269 92.7005 138.807 92.9023C138.351 93.0977 137.837 93.1953 137.264 93.1953C136.548 93.1953 135.919 93.0553 135.379 92.7754C134.845 92.4954 134.428 92.1211 134.129 91.6523C133.836 91.1771 133.689 90.6465 133.689 90.0605C133.689 89.4941 133.8 88.9961 134.021 88.5664C134.243 88.1302 134.562 87.7689 134.979 87.4824C135.395 87.1895 135.896 86.9681 136.482 86.8184C137.068 86.6686 137.723 86.5938 138.445 86.5938H140.545ZM147.444 78V93H145.627V78H147.444ZM152.907 82.4336V93H151.091V82.4336H152.907ZM150.954 79.6309C150.954 79.3379 151.042 79.0905 151.218 78.8887C151.4 78.6868 151.667 78.5859 152.018 78.5859C152.363 78.5859 152.627 78.6868 152.809 78.8887C152.998 79.0905 153.093 79.3379 153.093 79.6309C153.093 79.9108 152.998 80.1517 152.809 80.3535C152.627 80.5488 152.363 80.6465 152.018 80.6465C151.667 80.6465 151.4 80.5488 151.218 80.3535C151.042 80.1517 150.954 79.9108 150.954 79.6309ZM162.56 90.1973C162.56 89.9368 162.501 89.696 162.384 89.4746C162.273 89.2467 162.042 89.0417 161.691 88.8594C161.346 88.6706 160.825 88.5078 160.128 88.3711C159.542 88.2474 159.012 88.1009 158.536 87.9316C158.068 87.7624 157.667 87.5573 157.335 87.3164C157.01 87.0755 156.759 86.7923 156.583 86.4668C156.407 86.1413 156.32 85.7604 156.32 85.3242C156.32 84.9076 156.411 84.5137 156.593 84.1426C156.782 83.7715 157.045 83.4427 157.384 83.1562C157.729 82.8698 158.142 82.6452 158.624 82.4824C159.106 82.3197 159.643 82.2383 160.236 82.2383C161.082 82.2383 161.805 82.388 162.404 82.6875C163.002 82.987 163.461 83.3874 163.78 83.8887C164.099 84.3835 164.259 84.9336 164.259 85.5391H162.452C162.452 85.2461 162.364 84.9629 162.189 84.6895C162.019 84.4095 161.769 84.1784 161.437 83.9961C161.111 83.8138 160.711 83.7227 160.236 83.7227C159.734 83.7227 159.327 83.8008 159.015 83.957C158.709 84.1068 158.484 84.2988 158.341 84.5332C158.204 84.7676 158.136 85.015 158.136 85.2754C158.136 85.4707 158.168 85.6465 158.234 85.8027C158.305 85.9525 158.429 86.0924 158.605 86.2227C158.78 86.3464 159.028 86.4635 159.347 86.5742C159.666 86.6849 160.073 86.7956 160.568 86.9062C161.433 87.1016 162.146 87.3359 162.706 87.6094C163.266 87.8828 163.683 88.2181 163.956 88.6152C164.23 89.0124 164.366 89.4941 164.366 90.0605C164.366 90.5228 164.269 90.946 164.073 91.3301C163.885 91.7142 163.608 92.0462 163.243 92.3262C162.885 92.5996 162.456 92.8145 161.954 92.9707C161.46 93.1204 160.903 93.1953 160.284 93.1953C159.353 93.1953 158.566 93.0293 157.921 92.6973C157.277 92.3652 156.788 91.9355 156.456 91.4082C156.124 90.8809 155.958 90.3242 155.958 89.7383H157.775C157.801 90.2331 157.944 90.627 158.204 90.9199C158.465 91.2064 158.784 91.4115 159.161 91.5352C159.539 91.6523 159.913 91.7109 160.284 91.7109C160.779 91.7109 161.193 91.6458 161.525 91.5156C161.863 91.3854 162.12 91.2064 162.296 90.9785C162.472 90.7507 162.56 90.4902 162.56 90.1973ZM169.302 82.4336V93H167.486V82.4336H169.302ZM167.349 79.6309C167.349 79.3379 167.437 79.0905 167.613 78.8887C167.795 78.6868 168.062 78.5859 168.414 78.5859C168.759 78.5859 169.022 78.6868 169.205 78.8887C169.393 79.0905 169.488 79.3379 169.488 79.6309C169.488 79.9108 169.393 80.1517 169.205 80.3535C169.022 80.5488 168.759 80.6465 168.414 80.6465C168.062 80.6465 167.795 80.5488 167.613 80.3535C167.437 80.1517 167.349 79.9108 167.349 79.6309ZM177.188 93.1953C176.452 93.1953 175.785 93.0716 175.186 92.8242C174.593 92.5703 174.082 92.2155 173.652 91.7598C173.229 91.304 172.904 90.7637 172.676 90.1387C172.448 89.5137 172.334 88.8301 172.334 88.0879V87.6777C172.334 86.8184 172.461 86.0534 172.715 85.3828C172.969 84.7057 173.314 84.1328 173.75 83.6641C174.186 83.1953 174.681 82.8405 175.234 82.5996C175.788 82.3587 176.361 82.2383 176.953 82.2383C177.708 82.2383 178.359 82.3685 178.906 82.6289C179.46 82.8893 179.912 83.2539 180.264 83.7227C180.615 84.1849 180.876 84.7318 181.045 85.3633C181.214 85.9883 181.299 86.6719 181.299 87.4141V88.2246H173.408V86.75H179.492V86.6133C179.466 86.1445 179.368 85.6888 179.199 85.2461C179.036 84.8034 178.776 84.4388 178.418 84.1523C178.06 83.8659 177.572 83.7227 176.953 83.7227C176.543 83.7227 176.165 83.8105 175.82 83.9863C175.475 84.1556 175.179 84.4095 174.932 84.748C174.684 85.0866 174.492 85.5 174.355 85.9883C174.219 86.4766 174.15 87.0397 174.15 87.6777V88.0879C174.15 88.5892 174.219 89.0612 174.355 89.5039C174.499 89.9401 174.704 90.3242 174.971 90.6562C175.244 90.9883 175.573 91.2487 175.957 91.4375C176.348 91.6263 176.79 91.7207 177.285 91.7207C177.923 91.7207 178.464 91.5905 178.906 91.3301C179.349 91.0697 179.736 90.7214 180.068 90.2852L181.162 91.1543C180.934 91.4993 180.645 91.8281 180.293 92.1406C179.941 92.4531 179.508 92.707 178.994 92.9023C178.486 93.0977 177.884 93.1953 177.188 93.1953ZM185.815 84.0938V93H184.008V82.4336H185.766L185.815 84.0938ZM189.116 82.375L189.106 84.0547C188.956 84.0221 188.813 84.0026 188.676 83.9961C188.546 83.9831 188.396 83.9766 188.227 83.9766C187.81 83.9766 187.442 84.0417 187.123 84.1719C186.804 84.3021 186.534 84.4844 186.313 84.7188C186.092 84.9531 185.916 85.2331 185.786 85.5586C185.662 85.8776 185.58 86.2292 185.541 86.6133L185.034 86.9062C185.034 86.2682 185.095 85.6693 185.219 85.1094C185.349 84.5495 185.548 84.0547 185.815 83.625C186.082 83.1888 186.42 82.8503 186.83 82.6094C187.247 82.362 187.742 82.2383 188.315 82.2383C188.445 82.2383 188.595 82.2546 188.764 82.2871C188.933 82.3132 189.051 82.3424 189.116 82.375ZM197.85 90.5586V82.4336H199.667V93H197.938L197.85 90.5586ZM198.192 88.332L198.944 88.3125C198.944 89.0156 198.869 89.6667 198.72 90.2656C198.576 90.8581 198.342 91.3724 198.016 91.8086C197.691 92.2448 197.264 92.5866 196.737 92.834C196.21 93.0749 195.568 93.1953 194.813 93.1953C194.299 93.1953 193.827 93.1204 193.397 92.9707C192.974 92.821 192.61 92.5898 192.304 92.2773C191.998 91.9648 191.76 91.5579 191.591 91.0566C191.428 90.5553 191.346 89.9531 191.346 89.25V82.4336H193.153V89.2695C193.153 89.7448 193.205 90.1387 193.309 90.4512C193.42 90.7572 193.567 91.0013 193.749 91.1836C193.938 91.3594 194.146 91.4831 194.374 91.5547C194.608 91.6263 194.849 91.6621 195.096 91.6621C195.865 91.6621 196.473 91.5156 196.923 91.2227C197.372 90.9232 197.694 90.5228 197.889 90.0215C198.091 89.5137 198.192 88.9505 198.192 88.332ZM204.827 84.6895V93H203.021V82.4336H204.73L204.827 84.6895ZM204.398 87.3164L203.646 87.2871C203.652 86.5645 203.76 85.8971 203.968 85.2852C204.176 84.6667 204.469 84.1296 204.847 83.6738C205.224 83.2181 205.674 82.8665 206.195 82.6191C206.722 82.3652 207.305 82.2383 207.943 82.2383C208.463 82.2383 208.932 82.3099 209.349 82.4531C209.765 82.5898 210.12 82.8112 210.413 83.1172C210.713 83.4232 210.941 83.8203 211.097 84.3086C211.253 84.7904 211.331 85.3796 211.331 86.0762V93H209.515V86.0566C209.515 85.5033 209.433 85.0605 209.271 84.7285C209.108 84.39 208.87 84.1458 208.558 83.9961C208.245 83.8398 207.861 83.7617 207.405 83.7617C206.956 83.7617 206.546 83.8561 206.175 84.0449C205.81 84.2337 205.495 84.4941 205.228 84.8262C204.967 85.1582 204.762 85.5391 204.613 85.9688C204.469 86.3919 204.398 86.8411 204.398 87.3164ZM221.521 82.4336H223.162V92.7754C223.162 93.7064 222.973 94.5007 222.595 95.1582C222.218 95.8158 221.69 96.3138 221.013 96.6523C220.343 96.9974 219.568 97.1699 218.689 97.1699C218.324 97.1699 217.895 97.1113 217.4 96.9941C216.912 96.8835 216.43 96.6914 215.955 96.418C215.486 96.151 215.092 95.7897 214.773 95.334L215.72 94.2598C216.163 94.7936 216.625 95.1647 217.107 95.373C217.595 95.5814 218.077 95.6855 218.552 95.6855C219.125 95.6855 219.62 95.5781 220.037 95.3633C220.453 95.1484 220.776 94.8294 221.004 94.4062C221.238 93.9896 221.355 93.4753 221.355 92.8633V84.7578L221.521 82.4336ZM214.246 87.834V87.6289C214.246 86.8216 214.34 86.0892 214.529 85.4316C214.724 84.7676 215.001 84.1979 215.359 83.7227C215.724 83.2474 216.163 82.8828 216.677 82.6289C217.192 82.3685 217.771 82.2383 218.416 82.2383C219.08 82.2383 219.659 82.3555 220.154 82.5898C220.655 82.8177 221.078 83.153 221.423 83.5957C221.775 84.0319 222.052 84.5592 222.254 85.1777C222.455 85.7962 222.595 86.4961 222.673 87.2773V88.1758C222.602 88.9505 222.462 89.6471 222.254 90.2656C222.052 90.8841 221.775 91.4115 221.423 91.8477C221.078 92.2839 220.655 92.6191 220.154 92.8535C219.653 93.0814 219.067 93.1953 218.396 93.1953C217.765 93.1953 217.192 93.0618 216.677 92.7949C216.17 92.528 215.733 92.1536 215.369 91.6719C215.004 91.1901 214.724 90.6237 214.529 89.9727C214.34 89.3151 214.246 88.6022 214.246 87.834ZM216.052 87.6289V87.834C216.052 88.3613 216.104 88.8561 216.209 89.3184C216.319 89.7806 216.485 90.1875 216.707 90.5391C216.935 90.8906 217.224 91.1673 217.576 91.3691C217.927 91.5645 218.347 91.6621 218.836 91.6621C219.435 91.6621 219.929 91.5352 220.32 91.2812C220.711 91.0273 221.02 90.6921 221.248 90.2754C221.482 89.8587 221.664 89.4062 221.795 88.918V86.5645C221.723 86.2064 221.612 85.8613 221.463 85.5293C221.319 85.1908 221.13 84.8913 220.896 84.6309C220.668 84.3639 220.385 84.1523 220.046 83.9961C219.708 83.8398 219.311 83.7617 218.855 83.7617C218.36 83.7617 217.934 83.8659 217.576 84.0742C217.224 84.276 216.935 84.556 216.707 84.9141C216.485 85.2656 216.319 85.6758 216.209 86.1445C216.104 86.6068 216.052 87.1016 216.052 87.6289Z" fill="black"/>
<path d="M69.6836 113.467V115H62.1543V113.467H69.6836ZM62.5352 100.781V115H60.6504V100.781H62.5352ZM68.6875 106.895V108.428H62.1543V106.895H68.6875ZM69.5859 100.781V102.324H62.1543V100.781H69.5859ZM74.1508 106.689V115H72.3441V104.434H74.0531L74.1508 106.689ZM73.7211 109.316L72.9691 109.287C72.9757 108.564 73.0831 107.897 73.2914 107.285C73.4997 106.667 73.7927 106.13 74.1703 105.674C74.5479 105.218 74.9971 104.867 75.518 104.619C76.0453 104.365 76.628 104.238 77.266 104.238C77.7868 104.238 78.2556 104.31 78.6723 104.453C79.0889 104.59 79.4438 104.811 79.7367 105.117C80.0362 105.423 80.2641 105.82 80.4203 106.309C80.5766 106.79 80.6547 107.38 80.6547 108.076V115H78.8383V108.057C78.8383 107.503 78.7569 107.061 78.5941 106.729C78.4314 106.39 78.1938 106.146 77.8813 105.996C77.5688 105.84 77.1846 105.762 76.7289 105.762C76.2797 105.762 75.8695 105.856 75.4984 106.045C75.1339 106.234 74.8181 106.494 74.5512 106.826C74.2908 107.158 74.0857 107.539 73.9359 107.969C73.7927 108.392 73.7211 108.841 73.7211 109.316ZM88.3836 115.195C87.6479 115.195 86.9806 115.072 86.3816 114.824C85.7892 114.57 85.2781 114.215 84.8484 113.76C84.4253 113.304 84.0997 112.764 83.8719 112.139C83.644 111.514 83.5301 110.83 83.5301 110.088V109.678C83.5301 108.818 83.657 108.053 83.9109 107.383C84.1648 106.706 84.5099 106.133 84.9461 105.664C85.3823 105.195 85.8771 104.84 86.4305 104.6C86.9839 104.359 87.5568 104.238 88.1492 104.238C88.9044 104.238 89.5555 104.368 90.1023 104.629C90.6557 104.889 91.1082 105.254 91.4598 105.723C91.8113 106.185 92.0717 106.732 92.241 107.363C92.4103 107.988 92.4949 108.672 92.4949 109.414V110.225H84.6043V108.75H90.6883V108.613C90.6622 108.145 90.5646 107.689 90.3953 107.246C90.2326 106.803 89.9721 106.439 89.6141 106.152C89.256 105.866 88.7677 105.723 88.1492 105.723C87.7391 105.723 87.3615 105.811 87.0164 105.986C86.6714 106.156 86.3751 106.41 86.1277 106.748C85.8803 107.087 85.6883 107.5 85.5516 107.988C85.4148 108.477 85.3465 109.04 85.3465 109.678V110.088C85.3465 110.589 85.4148 111.061 85.5516 111.504C85.6948 111.94 85.8999 112.324 86.1668 112.656C86.4402 112.988 86.769 113.249 87.1531 113.438C87.5438 113.626 87.9865 113.721 88.4813 113.721C89.1193 113.721 89.6596 113.59 90.1023 113.33C90.5451 113.07 90.9324 112.721 91.2645 112.285L92.3582 113.154C92.1303 113.499 91.8406 113.828 91.4891 114.141C91.1375 114.453 90.7046 114.707 90.1902 114.902C89.6824 115.098 89.0802 115.195 88.3836 115.195ZM97.0109 106.094V115H95.2043V104.434H96.9621L97.0109 106.094ZM100.312 104.375L100.302 106.055C100.152 106.022 100.009 106.003 99.8723 105.996C99.7421 105.983 99.5923 105.977 99.423 105.977C99.0064 105.977 98.6385 106.042 98.3195 106.172C98.0005 106.302 97.7303 106.484 97.509 106.719C97.2876 106.953 97.1118 107.233 96.9816 107.559C96.8579 107.878 96.7766 108.229 96.7375 108.613L96.2297 108.906C96.2297 108.268 96.2915 107.669 96.4152 107.109C96.5454 106.549 96.744 106.055 97.0109 105.625C97.2779 105.189 97.6164 104.85 98.0266 104.609C98.4432 104.362 98.938 104.238 99.5109 104.238C99.6411 104.238 99.7909 104.255 99.9602 104.287C100.129 104.313 100.247 104.342 100.312 104.375ZM109.232 104.434H110.873V114.775C110.873 115.706 110.684 116.501 110.306 117.158C109.929 117.816 109.401 118.314 108.724 118.652C108.054 118.997 107.279 119.17 106.4 119.17C106.035 119.17 105.606 119.111 105.111 118.994C104.623 118.883 104.141 118.691 103.666 118.418C103.197 118.151 102.803 117.79 102.484 117.334L103.431 116.26C103.874 116.794 104.336 117.165 104.818 117.373C105.306 117.581 105.788 117.686 106.263 117.686C106.836 117.686 107.331 117.578 107.748 117.363C108.164 117.148 108.487 116.829 108.714 116.406C108.949 115.99 109.066 115.475 109.066 114.863V106.758L109.232 104.434ZM101.957 109.834V109.629C101.957 108.822 102.051 108.089 102.24 107.432C102.435 106.768 102.712 106.198 103.07 105.723C103.435 105.247 103.874 104.883 104.388 104.629C104.903 104.368 105.482 104.238 106.127 104.238C106.791 104.238 107.37 104.355 107.865 104.59C108.366 104.818 108.789 105.153 109.134 105.596C109.486 106.032 109.763 106.559 109.964 107.178C110.166 107.796 110.306 108.496 110.384 109.277V110.176C110.313 110.951 110.173 111.647 109.964 112.266C109.763 112.884 109.486 113.411 109.134 113.848C108.789 114.284 108.366 114.619 107.865 114.854C107.364 115.081 106.778 115.195 106.107 115.195C105.476 115.195 104.903 115.062 104.388 114.795C103.88 114.528 103.444 114.154 103.08 113.672C102.715 113.19 102.435 112.624 102.24 111.973C102.051 111.315 101.957 110.602 101.957 109.834ZM103.763 109.629V109.834C103.763 110.361 103.815 110.856 103.92 111.318C104.03 111.781 104.196 112.188 104.418 112.539C104.645 112.891 104.935 113.167 105.287 113.369C105.638 113.564 106.058 113.662 106.546 113.662C107.145 113.662 107.64 113.535 108.031 113.281C108.421 113.027 108.731 112.692 108.959 112.275C109.193 111.859 109.375 111.406 109.505 110.918V108.564C109.434 108.206 109.323 107.861 109.173 107.529C109.03 107.191 108.841 106.891 108.607 106.631C108.379 106.364 108.096 106.152 107.757 105.996C107.419 105.84 107.022 105.762 106.566 105.762C106.071 105.762 105.645 105.866 105.287 106.074C104.935 106.276 104.645 106.556 104.418 106.914C104.196 107.266 104.03 107.676 103.92 108.145C103.815 108.607 103.763 109.102 103.763 109.629ZM116.18 104.434V115H114.363V104.434H116.18ZM114.227 101.631C114.227 101.338 114.314 101.09 114.49 100.889C114.673 100.687 114.939 100.586 115.291 100.586C115.636 100.586 115.9 100.687 116.082 100.889C116.271 101.09 116.365 101.338 116.365 101.631C116.365 101.911 116.271 102.152 116.082 102.354C115.9 102.549 115.636 102.646 115.291 102.646C114.939 102.646 114.673 102.549 114.49 102.354C114.314 102.152 114.227 101.911 114.227 101.631ZM124.065 115.195C123.329 115.195 122.662 115.072 122.063 114.824C121.47 114.57 120.959 114.215 120.53 113.76C120.107 113.304 119.781 112.764 119.553 112.139C119.325 111.514 119.211 110.83 119.211 110.088V109.678C119.211 108.818 119.338 108.053 119.592 107.383C119.846 106.706 120.191 106.133 120.627 105.664C121.064 105.195 121.558 104.84 122.112 104.6C122.665 104.359 123.238 104.238 123.83 104.238C124.586 104.238 125.237 104.368 125.784 104.629C126.337 104.889 126.789 105.254 127.141 105.723C127.493 106.185 127.753 106.732 127.922 107.363C128.092 107.988 128.176 108.672 128.176 109.414V110.225H120.286V108.75H126.37V108.613C126.343 108.145 126.246 107.689 126.077 107.246C125.914 106.803 125.653 106.439 125.295 106.152C124.937 105.866 124.449 105.723 123.83 105.723C123.42 105.723 123.043 105.811 122.698 105.986C122.353 106.156 122.056 106.41 121.809 106.748C121.562 107.087 121.37 107.5 121.233 107.988C121.096 108.477 121.028 109.04 121.028 109.678V110.088C121.028 110.589 121.096 111.061 121.233 111.504C121.376 111.94 121.581 112.324 121.848 112.656C122.121 112.988 122.45 113.249 122.834 113.438C123.225 113.626 123.668 113.721 124.162 113.721C124.801 113.721 125.341 113.59 125.784 113.33C126.226 113.07 126.614 112.721 126.946 112.285L128.039 113.154C127.812 113.499 127.522 113.828 127.17 114.141C126.819 114.453 126.386 114.707 125.871 114.902C125.364 115.098 124.761 115.195 124.065 115.195ZM133.561 113.125L136.276 104.434H137.468L137.233 106.162L134.47 115H133.307L133.561 113.125ZM131.735 104.434L134.05 113.223L134.216 115H132.995L129.929 104.434H131.735ZM140.065 113.154L142.272 104.434H144.069L141.003 115H139.792L140.065 113.154ZM137.731 104.434L140.387 112.979L140.69 115H139.538L136.696 106.143L136.462 104.434H137.731ZM150.909 115.195C150.174 115.195 149.506 115.072 148.907 114.824C148.315 114.57 147.804 114.215 147.374 113.76C146.951 113.304 146.626 112.764 146.398 112.139C146.17 111.514 146.056 110.83 146.056 110.088V109.678C146.056 108.818 146.183 108.053 146.437 107.383C146.691 106.706 147.036 106.133 147.472 105.664C147.908 105.195 148.403 104.84 148.956 104.6C149.51 104.359 150.083 104.238 150.675 104.238C151.43 104.238 152.081 104.368 152.628 104.629C153.182 104.889 153.634 105.254 153.986 105.723C154.337 106.185 154.598 106.732 154.767 107.363C154.936 107.988 155.021 108.672 155.021 109.414V110.225H147.13V108.75H153.214V108.613C153.188 108.145 153.09 107.689 152.921 107.246C152.758 106.803 152.498 106.439 152.14 106.152C151.782 105.866 151.293 105.723 150.675 105.723C150.265 105.723 149.887 105.811 149.542 105.986C149.197 106.156 148.901 106.41 148.654 106.748C148.406 107.087 148.214 107.5 148.077 107.988C147.941 108.477 147.872 109.04 147.872 109.678V110.088C147.872 110.589 147.941 111.061 148.077 111.504C148.221 111.94 148.426 112.324 148.693 112.656C148.966 112.988 149.295 113.249 149.679 113.438C150.07 113.626 150.512 113.721 151.007 113.721C151.645 113.721 152.185 113.59 152.628 113.33C153.071 113.07 153.458 112.721 153.79 112.285L154.884 113.154C154.656 113.499 154.366 113.828 154.015 114.141C153.663 114.453 153.23 114.707 152.716 114.902C152.208 115.098 151.606 115.195 150.909 115.195ZM159.537 106.689V115H157.73V104.434H159.439L159.537 106.689ZM159.107 109.316L158.355 109.287C158.362 108.564 158.469 107.897 158.677 107.285C158.886 106.667 159.179 106.13 159.556 105.674C159.934 105.218 160.383 104.867 160.904 104.619C161.431 104.365 162.014 104.238 162.652 104.238C163.173 104.238 163.642 104.31 164.058 104.453C164.475 104.59 164.83 104.811 165.123 105.117C165.422 105.423 165.65 105.82 165.806 106.309C165.963 106.79 166.041 107.38 166.041 108.076V115H164.224V108.057C164.224 107.503 164.143 107.061 163.98 106.729C163.817 106.39 163.58 106.146 163.267 105.996C162.955 105.84 162.571 105.762 162.115 105.762C161.666 105.762 161.255 105.856 160.884 106.045C160.52 106.234 160.204 106.494 159.937 106.826C159.677 107.158 159.472 107.539 159.322 107.969C159.179 108.392 159.107 108.841 159.107 109.316ZM176.045 112.949V100H177.861V115H176.201L176.045 112.949ZM168.936 109.834V109.629C168.936 108.822 169.033 108.089 169.229 107.432C169.43 106.768 169.714 106.198 170.078 105.723C170.449 105.247 170.889 104.883 171.396 104.629C171.911 104.368 172.484 104.238 173.115 104.238C173.779 104.238 174.359 104.355 174.854 104.59C175.355 104.818 175.778 105.153 176.123 105.596C176.475 106.032 176.751 106.559 176.953 107.178C177.155 107.796 177.295 108.496 177.373 109.277V110.176C177.301 110.951 177.161 111.647 176.953 112.266C176.751 112.884 176.475 113.411 176.123 113.848C175.778 114.284 175.355 114.619 174.854 114.854C174.352 115.081 173.766 115.195 173.096 115.195C172.477 115.195 171.911 115.062 171.396 114.795C170.889 114.528 170.449 114.154 170.078 113.672C169.714 113.19 169.43 112.624 169.229 111.973C169.033 111.315 168.936 110.602 168.936 109.834ZM170.752 109.629V109.834C170.752 110.361 170.804 110.856 170.908 111.318C171.019 111.781 171.188 112.188 171.416 112.539C171.644 112.891 171.934 113.167 172.285 113.369C172.637 113.564 173.057 113.662 173.545 113.662C174.144 113.662 174.635 113.535 175.02 113.281C175.41 113.027 175.723 112.692 175.957 112.275C176.191 111.859 176.374 111.406 176.504 110.918V108.564C176.426 108.206 176.312 107.861 176.162 107.529C176.019 107.191 175.83 106.891 175.596 106.631C175.368 106.364 175.085 106.152 174.746 105.996C174.414 105.84 174.02 105.762 173.564 105.762C173.07 105.762 172.643 105.866 172.285 106.074C171.934 106.276 171.644 106.556 171.416 106.914C171.188 107.266 171.019 107.676 170.908 108.145C170.804 108.607 170.752 109.102 170.752 109.629ZM185.659 115.195C184.923 115.195 184.256 115.072 183.657 114.824C183.064 114.57 182.553 114.215 182.123 113.76C181.7 113.304 181.375 112.764 181.147 112.139C180.919 111.514 180.805 110.83 180.805 110.088V109.678C180.805 108.818 180.932 108.053 181.186 107.383C181.44 106.706 181.785 106.133 182.221 105.664C182.657 105.195 183.152 104.84 183.705 104.6C184.259 104.359 184.832 104.238 185.424 104.238C186.179 104.238 186.83 104.368 187.377 104.629C187.931 104.889 188.383 105.254 188.735 105.723C189.086 106.185 189.347 106.732 189.516 107.363C189.685 107.988 189.77 108.672 189.77 109.414V110.225H181.879V108.75H187.963V108.613C187.937 108.145 187.84 107.689 187.67 107.246C187.508 106.803 187.247 106.439 186.889 106.152C186.531 105.866 186.043 105.723 185.424 105.723C185.014 105.723 184.636 105.811 184.291 105.986C183.946 106.156 183.65 106.41 183.403 106.748C183.155 107.087 182.963 107.5 182.827 107.988C182.69 108.477 182.621 109.04 182.621 109.678V110.088C182.621 110.589 182.69 111.061 182.827 111.504C182.97 111.94 183.175 112.324 183.442 112.656C183.715 112.988 184.044 113.249 184.428 113.438C184.819 113.626 185.261 113.721 185.756 113.721C186.394 113.721 186.935 113.59 187.377 113.33C187.82 113.07 188.207 112.721 188.539 112.285L189.633 113.154C189.405 113.499 189.116 113.828 188.764 114.141C188.412 114.453 187.98 114.707 187.465 114.902C186.957 115.098 186.355 115.195 185.659 115.195ZM192.47 100H194.286V112.949L194.13 115H192.47V100ZM201.425 109.629V109.834C201.425 110.602 201.333 111.315 201.151 111.973C200.969 112.624 200.702 113.19 200.35 113.672C199.999 114.154 199.569 114.528 199.061 114.795C198.554 115.062 197.971 115.195 197.313 115.195C196.643 115.195 196.054 115.081 195.546 114.854C195.044 114.619 194.621 114.284 194.276 113.848C193.931 113.411 193.654 112.884 193.446 112.266C193.244 111.647 193.104 110.951 193.026 110.176V109.277C193.104 108.496 193.244 107.796 193.446 107.178C193.654 106.559 193.931 106.032 194.276 105.596C194.621 105.153 195.044 104.818 195.546 104.59C196.047 104.355 196.63 104.238 197.294 104.238C197.958 104.238 198.547 104.368 199.061 104.629C199.576 104.883 200.005 105.247 200.35 105.723C200.702 106.198 200.969 106.768 201.151 107.432C201.333 108.089 201.425 108.822 201.425 109.629ZM199.608 109.834V109.629C199.608 109.102 199.559 108.607 199.462 108.145C199.364 107.676 199.208 107.266 198.993 106.914C198.778 106.556 198.495 106.276 198.143 106.074C197.792 105.866 197.359 105.762 196.845 105.762C196.389 105.762 195.992 105.84 195.653 105.996C195.321 106.152 195.038 106.364 194.804 106.631C194.569 106.891 194.377 107.191 194.227 107.529C194.084 107.861 193.977 108.206 193.905 108.564V110.918C194.009 111.374 194.179 111.813 194.413 112.236C194.654 112.653 194.973 112.995 195.37 113.262C195.774 113.529 196.272 113.662 196.864 113.662C197.352 113.662 197.769 113.564 198.114 113.369C198.466 113.167 198.749 112.891 198.964 112.539C199.185 112.188 199.348 111.781 199.452 111.318C199.556 110.856 199.608 110.361 199.608 109.834ZM210.54 113.193V107.754C210.54 107.337 210.456 106.976 210.286 106.67C210.124 106.357 209.876 106.117 209.544 105.947C209.212 105.778 208.802 105.693 208.314 105.693C207.858 105.693 207.458 105.771 207.113 105.928C206.774 106.084 206.507 106.289 206.312 106.543C206.123 106.797 206.029 107.07 206.029 107.363H204.222C204.222 106.986 204.32 106.611 204.515 106.24C204.71 105.869 204.99 105.534 205.355 105.234C205.726 104.928 206.168 104.688 206.683 104.512C207.204 104.329 207.783 104.238 208.421 104.238C209.189 104.238 209.866 104.368 210.452 104.629C211.045 104.889 211.507 105.283 211.839 105.811C212.178 106.331 212.347 106.986 212.347 107.773V112.695C212.347 113.047 212.376 113.421 212.435 113.818C212.5 114.215 212.594 114.557 212.718 114.844V115H210.833C210.742 114.792 210.67 114.515 210.618 114.17C210.566 113.818 210.54 113.493 210.54 113.193ZM210.853 108.594L210.872 109.863H209.046C208.532 109.863 208.073 109.906 207.669 109.99C207.265 110.068 206.927 110.189 206.654 110.352C206.38 110.514 206.172 110.719 206.029 110.967C205.885 111.208 205.814 111.491 205.814 111.816C205.814 112.148 205.889 112.451 206.038 112.725C206.188 112.998 206.413 113.216 206.712 113.379C207.018 113.535 207.392 113.613 207.835 113.613C208.389 113.613 208.877 113.496 209.3 113.262C209.723 113.027 210.058 112.741 210.306 112.402C210.56 112.064 210.696 111.735 210.716 111.416L211.488 112.285C211.442 112.559 211.318 112.861 211.116 113.193C210.915 113.525 210.644 113.844 210.306 114.15C209.974 114.45 209.577 114.701 209.114 114.902C208.659 115.098 208.144 115.195 207.571 115.195C206.855 115.195 206.227 115.055 205.687 114.775C205.153 114.495 204.736 114.121 204.437 113.652C204.144 113.177 203.997 112.646 203.997 112.061C203.997 111.494 204.108 110.996 204.329 110.566C204.551 110.13 204.87 109.769 205.286 109.482C205.703 109.189 206.204 108.968 206.79 108.818C207.376 108.669 208.03 108.594 208.753 108.594H210.853ZM222.254 112.559V104.434H224.07V115H222.341L222.254 112.559ZM222.595 110.332L223.347 110.312C223.347 111.016 223.272 111.667 223.123 112.266C222.979 112.858 222.745 113.372 222.42 113.809C222.094 114.245 221.668 114.587 221.14 114.834C220.613 115.075 219.972 115.195 219.216 115.195C218.702 115.195 218.23 115.12 217.8 114.971C217.377 114.821 217.013 114.59 216.707 114.277C216.401 113.965 216.163 113.558 215.994 113.057C215.831 112.555 215.75 111.953 215.75 111.25V104.434H217.556V111.27C217.556 111.745 217.608 112.139 217.712 112.451C217.823 112.757 217.97 113.001 218.152 113.184C218.341 113.359 218.549 113.483 218.777 113.555C219.011 113.626 219.252 113.662 219.5 113.662C220.268 113.662 220.877 113.516 221.326 113.223C221.775 112.923 222.097 112.523 222.293 112.021C222.494 111.514 222.595 110.951 222.595 110.332ZM231.809 115.195C231.073 115.195 230.406 115.072 229.807 114.824C229.214 114.57 228.703 114.215 228.273 113.76C227.85 113.304 227.525 112.764 227.297 112.139C227.069 111.514 226.955 110.83 226.955 110.088V109.678C226.955 108.818 227.082 108.053 227.336 107.383C227.59 106.706 227.935 106.133 228.371 105.664C228.807 105.195 229.302 104.84 229.855 104.6C230.409 104.359 230.982 104.238 231.574 104.238C232.329 104.238 232.98 104.368 233.527 104.629C234.081 104.889 234.533 105.254 234.885 105.723C235.236 106.185 235.497 106.732 235.666 107.363C235.835 107.988 235.92 108.672 235.92 109.414V110.225H228.029V108.75H234.113V108.613C234.087 108.145 233.99 107.689 233.82 107.246C233.658 106.803 233.397 106.439 233.039 106.152C232.681 105.866 232.193 105.723 231.574 105.723C231.164 105.723 230.786 105.811 230.441 105.986C230.096 106.156 229.8 106.41 229.553 106.748C229.305 107.087 229.113 107.5 228.977 107.988C228.84 108.477 228.771 109.04 228.771 109.678V110.088C228.771 110.589 228.84 111.061 228.977 111.504C229.12 111.94 229.325 112.324 229.592 112.656C229.865 112.988 230.194 113.249 230.578 113.438C230.969 113.626 231.411 113.721 231.906 113.721C232.544 113.721 233.085 113.59 233.527 113.33C233.97 113.07 234.357 112.721 234.689 112.285L235.783 113.154C235.555 113.499 235.266 113.828 234.914 114.141C234.562 114.453 234.13 114.707 233.615 114.902C233.107 115.098 232.505 115.195 231.809 115.195ZM240.436 106.689V115H238.629V104.434H240.338L240.436 106.689ZM240.006 109.316L239.254 109.287C239.261 108.564 239.368 107.897 239.577 107.285C239.785 106.667 240.078 106.13 240.455 105.674C240.833 105.218 241.282 104.867 241.803 104.619C242.33 104.365 242.913 104.238 243.551 104.238C244.072 104.238 244.541 104.31 244.957 104.453C245.374 104.59 245.729 104.811 246.022 105.117C246.321 105.423 246.549 105.82 246.705 106.309C246.862 106.79 246.94 107.38 246.94 108.076V115H245.123V108.057C245.123 107.503 245.042 107.061 244.879 106.729C244.717 106.39 244.479 106.146 244.166 105.996C243.854 105.84 243.47 105.762 243.014 105.762C242.565 105.762 242.155 105.856 241.784 106.045C241.419 106.234 241.103 106.494 240.836 106.826C240.576 107.158 240.371 107.539 240.221 107.969C240.078 108.392 240.006 108.841 240.006 109.316Z" fill="black"/>
</svg>
