<svg width="48" height="46" viewBox="0 0 48 46" fill="none" xmlns="http://www.w3.org/2000/svg">
<rect x="0.75" y="0.75" width="45.861" height="44.5" rx="22.25" fill="#F5E86A" stroke="#F5E86A" stroke-width="1.5"/>
<path d="M31.6675 23.6213C31.123 27.6473 27.6745 30.7493 23.5 30.7493C18.946 30.7493 15.25 27.0533 15.25 22.4993C15.25 18.2423 18.4675 14.7443 22.609 14.2988" stroke="white" stroke-width="1.8" stroke-linecap="round" stroke-linejoin="round"/>
<path d="M36.6969 22.5008C36.6969 29.7938 30.7899 35.7008 23.4969 35.7008C16.2039 35.7008 10.2969 29.7938 10.2969 22.5008C10.2969 15.2078 16.2039 9.30078 23.4969 9.30078" stroke="white" stroke-width="1.8" stroke-linecap="round" stroke-linejoin="round"/>
<path d="M26.3246 24.233C25.7471 25.1735 24.7076 25.8005 23.5031 25.8005C21.6881 25.8005 20.2031 24.3155 20.2031 22.5005C20.2031 21.329 20.8136 20.306 21.7211 19.7285" stroke="white" stroke-width="1.8" stroke-linecap="round" stroke-linejoin="round"/>
<path fill-rule="evenodd" clip-rule="evenodd" d="M32.4892 18.7553L27.8362 18.0788L27.2422 13.5083L31.4497 9.30078L33.0172 13.1453L36.6967 14.5478L32.4892 18.7553Z" stroke="white" stroke-width="1.8" stroke-linecap="round" stroke-linejoin="round"/>
<path d="M30.4436 15.5547L24.2891 21.7092" stroke="white" stroke-width="1.8" stroke-linecap="round" stroke-linejoin="round"/>
</svg>
