<svg width="48" height="46" viewBox="0 0 48 46" fill="none" xmlns="http://www.w3.org/2000/svg">
<rect x="0.75" y="0.75" width="45.861" height="44.5" rx="22.25" fill="#FFAE9D" stroke="#FFAE9D" stroke-width="1.5"/>
<path fill-rule="evenodd" clip-rule="evenodd" d="M32.9563 34.2155C33.8968 33.869 34.8868 32.8625 34.6063 31.6415C33.6328 27.2525 30.0358 24.002 25.7293 24.002H21.2908C16.9843 24.002 13.3873 27.2525 12.4138 31.6415C12.1333 32.879 12.9748 33.869 14.0638 34.2155C15.1528 34.562 17.9578 35.7005 23.3203 35.7005C28.6828 35.7005 32.0158 34.562 32.9563 34.2155Z" stroke="white" stroke-width="1.6" stroke-linecap="round" stroke-linejoin="round"/>
<path d="M23.4701 19.6628C26.3314 19.6628 28.6511 17.3432 28.6511 14.4818C28.6511 11.6204 26.3314 9.30078 23.4701 9.30078C20.6087 9.30078 18.2891 11.6204 18.2891 14.4818C18.2891 17.3432 20.6087 19.6628 23.4701 19.6628Z" stroke="white" stroke-width="1.6" stroke-linecap="round" stroke-linejoin="round"/>
</svg>
