<svg width="30" height="30" viewBox="0 0 30 30" fill="none" xmlns="http://www.w3.org/2000/svg">
<path fill-rule="evenodd" clip-rule="evenodd" d="M27 22.875L22.845 27L18.225 22.47L22.38 18.345L27 22.875Z" stroke="black" stroke-width="1.1" stroke-linejoin="round"/>
<path d="M12.615 12.75L10.395 10.605L6.33 10.695L3 5.175L5.205 3L10.485 6.555L10.395 10.605" stroke="black" stroke-width="1.1" stroke-linecap="round" stroke-linejoin="round"/>
<path fill-rule="evenodd" clip-rule="evenodd" d="M26.145 6.27001L21.9 10.515C21.795 10.62 21.63 10.62 21.54 10.515L19.425 8.40001C19.32 8.29501 19.32 8.13001 19.425 8.04001L23.67 3.79501C21.465 2.65501 18.69 2.97001 16.845 4.83001C15.15 6.52501 14.715 9.00001 15.54 11.1L4.48496 22.155C3.56996 23.07 3.56996 24.555 4.48496 25.47C5.39996 26.385 6.88496 26.385 7.79996 25.47L18.855 14.415C20.955 15.24 23.43 14.805 25.125 13.11C26.97 11.265 27.3 8.49001 26.16 6.28501L26.145 6.27001Z" stroke="black" stroke-width="1.1" stroke-linejoin="round"/>
</svg>
