<svg width="22" height="23" viewBox="0 0 22 23" fill="none" xmlns="http://www.w3.org/2000/svg">
<g clip-path="url(#clip0_1597_50604)">
<path d="M3.28049 4.64844C2.37991 4.64844 1.64307 5.41314 1.64307 6.36608V17.6367C1.64307 18.5896 2.37991 19.3543 3.28049 19.3543H18.7191C19.6197 19.3543 20.3565 18.5896 20.3565 17.6367V6.36608C20.3565 5.41314 19.6197 4.64844 18.7191 4.64844H3.28049Z" stroke="black" stroke-width="1.1" stroke-linecap="round" stroke-linejoin="round"/>
</g>
<path d="M5.45898 14H4.70605L4.71191 13.291H5.45898C5.66602 13.291 5.82715 13.2539 5.94238 13.1797C6.05762 13.1055 6.13867 12.9883 6.18555 12.8281C6.23438 12.668 6.25879 12.458 6.25879 12.1982V11.5332C6.25879 11.3359 6.24609 11.1689 6.2207 11.0322C6.19531 10.8936 6.15234 10.7822 6.0918 10.6982C6.03125 10.6123 5.9502 10.5488 5.84863 10.5078C5.74707 10.4668 5.62109 10.4463 5.4707 10.4463H4.69141V9.73438H5.4707C5.7168 9.73438 5.94043 9.77441 6.1416 9.85449C6.34277 9.93457 6.51562 10.0518 6.66016 10.2061C6.80469 10.3584 6.91602 10.5469 6.99414 10.7715C7.07227 10.9961 7.11133 11.252 7.11133 11.5391V12.1982C7.11133 12.4873 7.07227 12.7432 6.99414 12.9658C6.91602 13.1885 6.80469 13.377 6.66016 13.5312C6.51758 13.6836 6.34473 13.7998 6.1416 13.8799C5.93848 13.96 5.71094 14 5.45898 14ZM5.2041 9.73438V14H4.3457V9.73438H5.2041ZM9.73141 12.4971H8.85836V11.7852H9.73141C9.8525 11.7852 9.95113 11.7578 10.0273 11.7031C10.1054 11.6484 10.1621 11.5732 10.1972 11.4775C10.2324 11.3799 10.25 11.2705 10.25 11.1494C10.25 11.0264 10.2314 10.9121 10.1943 10.8066C10.1591 10.6992 10.1035 10.6123 10.0273 10.5459C9.95309 10.4795 9.85445 10.4463 9.73141 10.4463H9.13375V14H8.27828V9.73438H9.73141C10.0185 9.73438 10.2656 9.79492 10.4726 9.91602C10.6796 10.0371 10.8379 10.2041 10.9472 10.417C11.0586 10.6279 11.1142 10.8701 11.1142 11.1436C11.1142 11.4189 11.0586 11.6582 10.9472 11.8613C10.8379 12.0625 10.6796 12.2188 10.4726 12.3301C10.2656 12.4414 10.0185 12.4971 9.73141 12.4971ZM13.1191 9.73438V14H12.2665V9.73438H13.1191ZM15.9882 10.4961L15.0712 14H14.1659L15.4989 9.73438H16.0643L15.9882 10.4961ZM16.7118 14L15.7889 10.4961L15.704 9.73438H16.2782L17.6229 14H16.7118ZM16.744 12.4092V13.1211H14.8192V12.4092H16.744Z" fill="black"/>
<defs>
<clipPath id="clip0_1597_50604">
<rect width="20" height="16" fill="white" transform="translate(1 4)"/>
</clipPath>
</defs>
</svg>
