<svg width="22" height="23" viewBox="0 0 22 23" fill="none" xmlns="http://www.w3.org/2000/svg">
<path d="M18 16.7266C17.3966 17.9146 14.8575 18.8175 12 18.8175C9.14246 18.8175 6.59497 17.9225 6 16.7266" stroke="black" stroke-width="1.1" stroke-linecap="round" stroke-linejoin="round"/>
<path d="M12 15.6804C15.3137 15.6804 18 14.5102 18 13.0668C18 11.6233 15.3137 10.4531 12 10.4531C8.68629 10.4531 6 11.6233 6 13.0668C6 14.5102 8.68629 15.6804 12 15.6804Z" stroke="black" stroke-width="1.1" stroke-linecap="round" stroke-linejoin="round"/>
<path d="M6 13.5898V20.2053C6.587 21.2052 9.20335 21.9535 12.0713 21.9535C14.9392 21.9535 17.3962 21.1986 18 20.2053V13.5898" stroke="black" stroke-width="1.1" stroke-linecap="round" stroke-linejoin="round"/>
<path d="M0.999761 5.9375L3.98976 9.30207L6.96826 5.9375" stroke="black" stroke-width="1.1" stroke-linecap="round" stroke-linejoin="round"/>
<path d="M3.99951 9.41051L3.99951 1.04688" stroke="black" stroke-width="1.1" stroke-linecap="round" stroke-linejoin="round"/>
</svg>
