<svg width="22" height="23" viewBox="0 0 22 23" fill="none" xmlns="http://www.w3.org/2000/svg">
<path d="M13.145 14.5703V20.2628" stroke="black" stroke-width="1.1" stroke-linecap="round" stroke-linejoin="round"/>
<path d="M17.688 14.5703V20.2628" stroke="black" stroke-width="1.1" stroke-linecap="round" stroke-linejoin="round"/>
<path d="M19.8002 14.5703H15.5762" stroke="black" stroke-width="1.1" stroke-linecap="round" stroke-linejoin="round"/>
<path d="M14.9162 8.48828L8.86618 9.52328L2.80518 8.48828" stroke="black" stroke-width="0.95" stroke-miterlimit="10" stroke-linecap="round"/>
<path d="M14.6631 10.4423C15.1471 8.34928 15.4001 5.98028 15.5211 4.55428C15.5761 3.82978 15.1471 3.16278 14.4651 2.94428C13.0901 2.49578 10.8351 1.86328 8.86612 1.86328C6.89712 1.86328 4.64212 2.48428 3.26712 2.94428C2.58512 3.17428 2.14512 3.84128 2.21112 4.55428C2.36512 6.40578 2.75012 9.87878 3.57512 12.2363C4.56512 15.0423 6.79812 16.7098 8.06312 17.4573" stroke="black" stroke-width="1.1" stroke-miterlimit="10" stroke-linecap="round"/>
<path d="M8.86621 1.86328V12.9723" stroke="black" stroke-width="0.95" stroke-miterlimit="10" stroke-linecap="round"/>
</svg>
