<svg width="569" height="166" viewBox="0 0 569 166" fill="none" xmlns="http://www.w3.org/2000/svg">
<rect x="344" width="110" height="166" rx="1" fill="#8FDE97" fill-opacity="0.8"/>
<path d="M356.182 22H353.904L353.919 20.5425H356.182C356.841 20.5425 357.393 20.3984 357.837 20.1104C358.287 19.8223 358.624 19.4097 358.848 18.8726C359.078 18.3354 359.192 17.6958 359.192 16.9536V16.375C359.192 15.7988 359.126 15.2886 358.995 14.8442C358.868 14.3999 358.677 14.0264 358.423 13.7236C358.174 13.4209 357.867 13.1914 357.5 13.0352C357.139 12.8789 356.722 12.8008 356.248 12.8008H353.86V11.3359H356.248C356.956 11.3359 357.603 11.4556 358.189 11.6948C358.775 11.9292 359.28 12.2686 359.705 12.7129C360.135 13.1572 360.464 13.6895 360.694 14.3096C360.923 14.9297 361.038 15.623 361.038 16.3896V16.9536C361.038 17.7202 360.923 18.4136 360.694 19.0337C360.464 19.6538 360.135 20.186 359.705 20.6304C359.275 21.0698 358.763 21.4092 358.167 21.6484C357.576 21.8828 356.915 22 356.182 22ZM354.922 11.3359V22H353.084V11.3359H354.922ZM367.476 20.4106V16.6313C367.476 16.3481 367.425 16.104 367.322 15.8989C367.219 15.6938 367.063 15.5352 366.853 15.4229C366.648 15.3105 366.389 15.2544 366.077 15.2544C365.789 15.2544 365.54 15.3032 365.33 15.4009C365.12 15.4985 364.956 15.6304 364.839 15.7964C364.722 15.9624 364.663 16.1504 364.663 16.3604H362.905C362.905 16.0479 362.981 15.7451 363.133 15.4521C363.284 15.1592 363.504 14.8979 363.792 14.6685C364.08 14.439 364.424 14.2583 364.824 14.1265C365.225 13.9946 365.674 13.9287 366.172 13.9287C366.768 13.9287 367.295 14.0288 367.754 14.229C368.218 14.4292 368.582 14.7319 368.845 15.1372C369.114 15.5376 369.248 16.0405 369.248 16.646V20.1689C369.248 20.5303 369.273 20.855 369.321 21.1431C369.375 21.4263 369.451 21.6729 369.549 21.8828V22H367.739C367.656 21.8096 367.591 21.5679 367.542 21.2749C367.498 20.9771 367.476 20.689 367.476 20.4106ZM367.732 17.1807L367.747 18.272H366.48C366.153 18.272 365.864 18.3037 365.615 18.3672C365.366 18.4258 365.159 18.5137 364.993 18.6309C364.827 18.748 364.702 18.8896 364.619 19.0557C364.536 19.2217 364.495 19.4097 364.495 19.6196C364.495 19.8296 364.544 20.0225 364.641 20.1982C364.739 20.3691 364.881 20.5034 365.066 20.6011C365.257 20.6987 365.486 20.7476 365.755 20.7476C366.116 20.7476 366.431 20.6743 366.699 20.5278C366.973 20.3765 367.188 20.1934 367.344 19.9785C367.5 19.7588 367.583 19.5513 367.593 19.356L368.164 20.1396C368.106 20.3398 368.006 20.5547 367.864 20.7842C367.722 21.0137 367.537 21.2334 367.307 21.4434C367.083 21.6484 366.812 21.8169 366.494 21.9487C366.182 22.0806 365.821 22.1465 365.41 22.1465C364.893 22.1465 364.431 22.0439 364.026 21.8389C363.621 21.6289 363.303 21.3481 363.074 20.9966C362.844 20.6401 362.73 20.2373 362.73 19.7881C362.73 19.3682 362.808 18.9971 362.964 18.6748C363.125 18.3477 363.36 18.0742 363.667 17.8545C363.98 17.6348 364.361 17.4688 364.81 17.3564C365.259 17.2393 365.772 17.1807 366.348 17.1807H367.732ZM375.027 14.0752V15.3643H370.559V14.0752H375.027ZM371.848 12.1343H373.613V19.8101C373.613 20.0542 373.647 20.2422 373.716 20.374C373.789 20.501 373.889 20.5864 374.016 20.6304C374.143 20.6743 374.292 20.6963 374.463 20.6963C374.585 20.6963 374.702 20.689 374.814 20.6743C374.927 20.6597 375.017 20.645 375.085 20.6304L375.093 21.978C374.946 22.022 374.775 22.061 374.58 22.0952C374.39 22.1294 374.17 22.1465 373.921 22.1465C373.516 22.1465 373.157 22.0757 372.844 21.9341C372.532 21.7876 372.288 21.5508 372.112 21.2236C371.936 20.8965 371.848 20.4619 371.848 19.9199V12.1343ZM380.183 22.1465C379.597 22.1465 379.067 22.0513 378.593 21.8608C378.125 21.6655 377.724 21.3945 377.392 21.0479C377.065 20.7012 376.814 20.2935 376.638 19.8247C376.462 19.356 376.374 18.8506 376.374 18.3086V18.0156C376.374 17.3955 376.464 16.834 376.645 16.3311C376.826 15.8281 377.077 15.3984 377.4 15.042C377.722 14.6807 378.103 14.4048 378.542 14.2144C378.982 14.0239 379.458 13.9287 379.97 13.9287C380.537 13.9287 381.032 14.0239 381.457 14.2144C381.882 14.4048 382.233 14.6733 382.512 15.02C382.795 15.3618 383.005 15.7695 383.142 16.2432C383.283 16.7168 383.354 17.2393 383.354 17.8105V18.5649H377.231V17.2979H381.611V17.1587C381.601 16.8413 381.538 16.5435 381.421 16.2651C381.308 15.9868 381.135 15.7622 380.9 15.5913C380.666 15.4204 380.354 15.335 379.963 15.335C379.67 15.335 379.409 15.3984 379.179 15.5254C378.955 15.6475 378.767 15.8257 378.615 16.0601C378.464 16.2944 378.347 16.5776 378.264 16.9097C378.186 17.2368 378.147 17.6055 378.147 18.0156V18.3086C378.147 18.6553 378.193 18.9775 378.286 19.2754C378.383 19.5684 378.525 19.8247 378.711 20.0444C378.896 20.2642 379.121 20.4375 379.384 20.5645C379.648 20.6865 379.948 20.7476 380.285 20.7476C380.71 20.7476 381.088 20.6621 381.421 20.4912C381.753 20.3203 382.041 20.0786 382.285 19.7661L383.215 20.667C383.044 20.916 382.822 21.1553 382.548 21.3848C382.275 21.6094 381.941 21.7925 381.545 21.9341C381.154 22.0757 380.7 22.1465 380.183 22.1465ZM386.782 15.7671V22H385.016V14.0752H386.679L386.782 15.7671ZM386.467 17.7446L385.895 17.7373C385.9 17.1758 385.978 16.6606 386.13 16.1919C386.286 15.7231 386.501 15.3203 386.774 14.9834C387.053 14.6465 387.385 14.3877 387.77 14.207C388.156 14.0215 388.586 13.9287 389.059 13.9287C389.44 13.9287 389.784 13.9824 390.092 14.0898C390.405 14.1924 390.671 14.3608 390.89 14.5952C391.115 14.8296 391.286 15.1348 391.403 15.5107C391.52 15.8818 391.579 16.3384 391.579 16.8804V22H389.806V16.873C389.806 16.4922 389.75 16.1919 389.638 15.9722C389.531 15.7476 389.372 15.5889 389.162 15.4961C388.957 15.3984 388.7 15.3496 388.393 15.3496C388.09 15.3496 387.819 15.4131 387.58 15.54C387.341 15.667 387.138 15.8403 386.972 16.0601C386.811 16.2798 386.686 16.5337 386.598 16.8218C386.511 17.1099 386.467 17.4175 386.467 17.7446ZM397.233 16.7412V18.1475H393.358V16.7412H397.233ZM355.486 38.6011L357.427 32.0752H359.258L356.504 40H355.362L355.486 38.6011ZM354 32.0752L355.977 38.6304L356.072 40H354.93L352.161 32.0752H354ZM364.041 40.1465C363.455 40.1465 362.925 40.0513 362.451 39.8608C361.983 39.6655 361.582 39.3945 361.25 39.0479C360.923 38.7012 360.672 38.2935 360.496 37.8247C360.32 37.356 360.232 36.8506 360.232 36.3086V36.0156C360.232 35.3955 360.322 34.834 360.503 34.3311C360.684 33.8281 360.935 33.3984 361.258 33.042C361.58 32.6807 361.961 32.4048 362.4 32.2144C362.84 32.0239 363.316 31.9287 363.828 31.9287C364.395 31.9287 364.89 32.0239 365.315 32.2144C365.74 32.4048 366.092 32.6733 366.37 33.02C366.653 33.3618 366.863 33.7695 367 34.2432C367.141 34.7168 367.212 35.2393 367.212 35.8105V36.5649H361.089V35.2979H365.469V35.1587C365.459 34.8413 365.396 34.5435 365.279 34.2651C365.166 33.9868 364.993 33.7622 364.758 33.5913C364.524 33.4204 364.212 33.335 363.821 33.335C363.528 33.335 363.267 33.3984 363.037 33.5254C362.813 33.6475 362.625 33.8257 362.473 34.0601C362.322 34.2944 362.205 34.5776 362.122 34.9097C362.044 35.2368 362.005 35.6055 362.005 36.0156V36.3086C362.005 36.6553 362.051 36.9775 362.144 37.2754C362.241 37.5684 362.383 37.8247 362.569 38.0444C362.754 38.2642 362.979 38.4375 363.242 38.5645C363.506 38.6865 363.806 38.7476 364.143 38.7476C364.568 38.7476 364.946 38.6621 365.279 38.4912C365.611 38.3203 365.899 38.0786 366.143 37.7661L367.073 38.667C366.902 38.916 366.68 39.1553 366.406 39.3848C366.133 39.6094 365.799 39.7925 365.403 39.9341C365.012 40.0757 364.558 40.1465 364.041 40.1465ZM370.662 33.584V40H368.896V32.0752H370.581L370.662 33.584ZM373.086 32.0239L373.071 33.6646C372.964 33.645 372.847 33.6304 372.72 33.6206C372.598 33.6108 372.475 33.606 372.353 33.606C372.051 33.606 371.785 33.6499 371.555 33.7378C371.326 33.8208 371.133 33.9429 370.976 34.104C370.825 34.2603 370.708 34.4507 370.625 34.6753C370.542 34.8999 370.493 35.1514 370.478 35.4297L370.076 35.459C370.076 34.9609 370.124 34.4995 370.222 34.0747C370.32 33.6499 370.466 33.2764 370.662 32.9541C370.862 32.6318 371.111 32.3804 371.409 32.1997C371.711 32.019 372.06 31.9287 372.456 31.9287C372.563 31.9287 372.678 31.9385 372.8 31.958C372.927 31.9775 373.022 31.9995 373.086 32.0239ZM378.696 38.4106V34.6313C378.696 34.3481 378.645 34.104 378.542 33.8989C378.44 33.6938 378.283 33.5352 378.073 33.4229C377.868 33.3105 377.609 33.2544 377.297 33.2544C377.009 33.2544 376.76 33.3032 376.55 33.4009C376.34 33.4985 376.176 33.6304 376.059 33.7964C375.942 33.9624 375.883 34.1504 375.883 34.3604H374.126C374.126 34.0479 374.201 33.7451 374.353 33.4521C374.504 33.1592 374.724 32.8979 375.012 32.6685C375.3 32.439 375.644 32.2583 376.045 32.1265C376.445 31.9946 376.894 31.9287 377.392 31.9287C377.988 31.9287 378.515 32.0288 378.974 32.229C379.438 32.4292 379.802 32.7319 380.066 33.1372C380.334 33.5376 380.468 34.0405 380.468 34.646V38.1689C380.468 38.5303 380.493 38.855 380.542 39.1431C380.595 39.4263 380.671 39.6729 380.769 39.8828V40H378.96C378.877 39.8096 378.811 39.5679 378.762 39.2749C378.718 38.9771 378.696 38.689 378.696 38.4106ZM378.952 35.1807L378.967 36.272H377.7C377.373 36.272 377.085 36.3037 376.836 36.3672C376.587 36.4258 376.379 36.5137 376.213 36.6309C376.047 36.748 375.922 36.8896 375.839 37.0557C375.756 37.2217 375.715 37.4097 375.715 37.6196C375.715 37.8296 375.764 38.0225 375.861 38.1982C375.959 38.3691 376.101 38.5034 376.286 38.6011C376.477 38.6987 376.706 38.7476 376.975 38.7476C377.336 38.7476 377.651 38.6743 377.92 38.5278C378.193 38.3765 378.408 38.1934 378.564 37.9785C378.72 37.7588 378.803 37.5513 378.813 37.356L379.384 38.1396C379.326 38.3398 379.226 38.5547 379.084 38.7842C378.942 39.0137 378.757 39.2334 378.527 39.4434C378.303 39.6484 378.032 39.8169 377.714 39.9487C377.402 40.0806 377.041 40.1465 376.63 40.1465C376.113 40.1465 375.651 40.0439 375.246 39.8389C374.841 39.6289 374.524 39.3481 374.294 38.9966C374.065 38.6401 373.95 38.2373 373.95 37.7881C373.95 37.3682 374.028 36.9971 374.184 36.6748C374.345 36.3477 374.58 36.0742 374.887 35.8545C375.2 35.6348 375.581 35.4688 376.03 35.3564C376.479 35.2393 376.992 35.1807 377.568 35.1807H378.952ZM384.387 33.584V40H382.621V32.0752H384.306L384.387 33.584ZM386.811 32.0239L386.796 33.6646C386.689 33.645 386.572 33.6304 386.445 33.6206C386.323 33.6108 386.2 33.606 386.078 33.606C385.776 33.606 385.51 33.6499 385.28 33.7378C385.051 33.8208 384.858 33.9429 384.701 34.104C384.55 34.2603 384.433 34.4507 384.35 34.6753C384.267 34.8999 384.218 35.1514 384.203 35.4297L383.801 35.459C383.801 34.9609 383.849 34.4995 383.947 34.0747C384.045 33.6499 384.191 33.2764 384.387 32.9541C384.587 32.6318 384.836 32.3804 385.134 32.1997C385.436 32.019 385.785 31.9287 386.181 31.9287C386.288 31.9287 386.403 31.9385 386.525 31.958C386.652 31.9775 386.747 31.9995 386.811 32.0239ZM388.224 28.75H389.989V38.3081L389.821 40H388.224V28.75ZM395.16 35.9644V36.1182C395.16 36.7041 395.094 37.2437 394.962 37.7368C394.835 38.2251 394.64 38.6499 394.376 39.0112C394.118 39.3726 393.795 39.6533 393.41 39.8535C393.029 40.0488 392.587 40.1465 392.084 40.1465C391.591 40.1465 391.161 40.0537 390.795 39.8682C390.429 39.6826 390.121 39.4189 389.872 39.0771C389.628 38.7354 389.43 38.3276 389.279 37.854C389.127 37.3804 389.02 36.8579 388.957 36.2866V35.7959C389.02 35.2197 389.127 34.6973 389.279 34.2285C389.43 33.7549 389.628 33.3472 389.872 33.0054C390.121 32.6587 390.426 32.3926 390.788 32.207C391.154 32.0215 391.581 31.9287 392.069 31.9287C392.577 31.9287 393.024 32.0264 393.41 32.2217C393.8 32.417 394.125 32.6953 394.384 33.0566C394.643 33.4131 394.835 33.8379 394.962 34.3311C395.094 34.8242 395.16 35.3687 395.16 35.9644ZM393.395 36.1182V35.9644C393.395 35.6079 393.366 35.2734 393.307 34.9609C393.249 34.6436 393.151 34.3652 393.014 34.126C392.882 33.8867 392.702 33.6987 392.472 33.562C392.248 33.4204 391.967 33.3496 391.63 33.3496C391.317 33.3496 391.049 33.4033 390.824 33.5107C390.6 33.6182 390.412 33.7646 390.26 33.9502C390.109 34.1357 389.989 34.3506 389.901 34.5947C389.818 34.8389 389.762 35.1025 389.733 35.3857V36.7114C389.777 37.0776 389.87 37.4146 390.011 37.7222C390.158 38.0249 390.363 38.269 390.626 38.4546C390.89 38.6353 391.229 38.7256 391.645 38.7256C391.972 38.7256 392.248 38.6597 392.472 38.5278C392.697 38.396 392.875 38.2129 393.007 37.9785C393.144 37.7393 393.241 37.4609 393.3 37.1436C393.363 36.8262 393.395 36.4844 393.395 36.1182ZM400.448 40.1465C399.862 40.1465 399.332 40.0513 398.859 39.8608C398.39 39.6655 397.989 39.3945 397.657 39.0479C397.33 38.7012 397.079 38.2935 396.903 37.8247C396.727 37.356 396.639 36.8506 396.639 36.3086V36.0156C396.639 35.3955 396.73 34.834 396.91 34.3311C397.091 33.8281 397.342 33.3984 397.665 33.042C397.987 32.6807 398.368 32.4048 398.807 32.2144C399.247 32.0239 399.723 31.9287 400.236 31.9287C400.802 31.9287 401.298 32.0239 401.722 32.2144C402.147 32.4048 402.499 32.6733 402.777 33.02C403.06 33.3618 403.27 33.7695 403.407 34.2432C403.549 34.7168 403.619 35.2393 403.619 35.8105V36.5649H397.496V35.2979H401.876V35.1587C401.866 34.8413 401.803 34.5435 401.686 34.2651C401.573 33.9868 401.4 33.7622 401.166 33.5913C400.931 33.4204 400.619 33.335 400.228 33.335C399.935 33.335 399.674 33.3984 399.445 33.5254C399.22 33.6475 399.032 33.8257 398.881 34.0601C398.729 34.2944 398.612 34.5776 398.529 34.9097C398.451 35.2368 398.412 35.6055 398.412 36.0156V36.3086C398.412 36.6553 398.458 36.9775 398.551 37.2754C398.649 37.5684 398.79 37.8247 398.976 38.0444C399.161 38.2642 399.386 38.4375 399.65 38.5645C399.913 38.6865 400.214 38.7476 400.55 38.7476C400.975 38.7476 401.354 38.6621 401.686 38.4912C402.018 38.3203 402.306 38.0786 402.55 37.7661L403.48 38.667C403.309 38.916 403.087 39.1553 402.814 39.3848C402.54 39.6094 402.206 39.7925 401.81 39.9341C401.42 40.0757 400.966 40.1465 400.448 40.1465ZM407.186 32.0752V40H405.413V32.0752H407.186ZM405.296 29.9951C405.296 29.7266 405.384 29.5044 405.56 29.3286C405.741 29.1479 405.99 29.0576 406.307 29.0576C406.62 29.0576 406.866 29.1479 407.047 29.3286C407.227 29.5044 407.318 29.7266 407.318 29.9951C407.318 30.2588 407.227 30.4785 407.047 30.6543C406.866 30.8301 406.62 30.918 406.307 30.918C405.99 30.918 405.741 30.8301 405.56 30.6543C405.384 30.4785 405.296 30.2588 405.296 29.9951ZM413.052 32.0752V33.3643H408.585V32.0752H413.052ZM409.874 30.1343H411.639V37.8101C411.639 38.0542 411.673 38.2422 411.741 38.374C411.815 38.501 411.915 38.5864 412.042 38.6304C412.169 38.6743 412.317 38.6963 412.488 38.6963C412.61 38.6963 412.728 38.689 412.84 38.6743C412.952 38.6597 413.043 38.645 413.111 38.6304L413.118 39.978C412.972 40.022 412.801 40.061 412.606 40.0952C412.415 40.1294 412.195 40.1465 411.946 40.1465C411.541 40.1465 411.182 40.0757 410.87 39.9341C410.557 39.7876 410.313 39.5508 410.137 39.2236C409.962 38.8965 409.874 38.4619 409.874 37.9199V30.1343ZM419.483 38.1323V32.0752H421.255V40H419.585L419.483 38.1323ZM419.732 36.4844L420.325 36.4697C420.325 37.002 420.266 37.4927 420.149 37.9419C420.032 38.3862 419.851 38.7744 419.607 39.1064C419.363 39.4336 419.051 39.6899 418.67 39.8755C418.289 40.0562 417.832 40.1465 417.3 40.1465C416.914 40.1465 416.56 40.0903 416.238 39.978C415.916 39.8657 415.638 39.6924 415.403 39.458C415.174 39.2236 414.995 38.9185 414.868 38.5425C414.742 38.1665 414.678 37.7173 414.678 37.1948V32.0752H416.443V37.2095C416.443 37.4976 416.477 37.7393 416.546 37.9346C416.614 38.125 416.707 38.2788 416.824 38.396C416.941 38.5132 417.078 38.5962 417.234 38.645C417.39 38.6938 417.556 38.7183 417.732 38.7183C418.235 38.7183 418.631 38.6206 418.919 38.4253C419.212 38.2251 419.419 37.9565 419.541 37.6196C419.668 37.2827 419.732 36.9043 419.732 36.4844ZM425.115 33.7671V40H423.35V32.0752H425.012L425.115 33.7671ZM424.8 35.7446L424.229 35.7373C424.233 35.1758 424.312 34.6606 424.463 34.1919C424.619 33.7231 424.834 33.3203 425.107 32.9834C425.386 32.6465 425.718 32.3877 426.104 32.207C426.489 32.0215 426.919 31.9287 427.393 31.9287C427.773 31.9287 428.118 31.9824 428.425 32.0898C428.738 32.1924 429.004 32.3608 429.224 32.5952C429.448 32.8296 429.619 33.1348 429.736 33.5107C429.854 33.8818 429.912 34.3384 429.912 34.8804V40H428.14V34.873C428.14 34.4922 428.083 34.1919 427.971 33.9722C427.864 33.7476 427.705 33.5889 427.495 33.4961C427.29 33.3984 427.034 33.3496 426.726 33.3496C426.423 33.3496 426.152 33.4131 425.913 33.54C425.674 33.667 425.471 33.8403 425.305 34.0601C425.144 34.2798 425.02 34.5337 424.932 34.8218C424.844 35.1099 424.8 35.4175 424.8 35.7446ZM437.09 32.0752H438.694V39.7803C438.694 40.4932 438.542 41.0986 438.239 41.5967C437.937 42.0947 437.514 42.4731 436.972 42.7319C436.43 42.9956 435.803 43.1274 435.09 43.1274C434.787 43.1274 434.45 43.0835 434.079 42.9956C433.713 42.9077 433.357 42.7661 433.01 42.5708C432.668 42.3804 432.383 42.1289 432.153 41.8164L432.981 40.7764C433.264 41.1133 433.576 41.3599 433.918 41.5161C434.26 41.6724 434.619 41.7505 434.995 41.7505C435.4 41.7505 435.744 41.6748 436.028 41.5234C436.316 41.377 436.538 41.1597 436.694 40.8716C436.85 40.5835 436.928 40.2319 436.928 39.8169V33.8696L437.09 32.0752ZM431.706 36.1255V35.9717C431.706 35.3711 431.779 34.8242 431.926 34.3311C432.072 33.833 432.282 33.4058 432.556 33.0493C432.829 32.688 433.161 32.4121 433.552 32.2217C433.943 32.0264 434.384 31.9287 434.878 31.9287C435.39 31.9287 435.827 32.0215 436.189 32.207C436.555 32.3926 436.86 32.6587 437.104 33.0054C437.348 33.3472 437.539 33.7573 437.675 34.2358C437.817 34.7095 437.922 35.2368 437.99 35.8179V36.3086C437.927 36.875 437.82 37.3926 437.668 37.8613C437.517 38.3301 437.317 38.7354 437.068 39.0771C436.819 39.4189 436.511 39.6826 436.145 39.8682C435.783 40.0537 435.356 40.1465 434.863 40.1465C434.38 40.1465 433.943 40.0464 433.552 39.8462C433.166 39.646 432.834 39.3652 432.556 39.0039C432.282 38.6426 432.072 38.2178 431.926 37.7295C431.779 37.2363 431.706 36.7017 431.706 36.1255ZM433.471 35.9717V36.1255C433.471 36.4868 433.506 36.8237 433.574 37.1362C433.647 37.4487 433.757 37.7246 433.904 37.9639C434.055 38.1982 434.245 38.3838 434.475 38.5205C434.709 38.6523 434.985 38.7183 435.302 38.7183C435.717 38.7183 436.057 38.6304 436.321 38.4546C436.589 38.2788 436.794 38.042 436.936 37.7441C437.082 37.4414 437.185 37.1045 437.243 36.7334V35.4077C437.214 35.1196 437.153 34.8511 437.06 34.6021C436.972 34.353 436.853 34.1357 436.701 33.9502C436.55 33.7598 436.36 33.6133 436.13 33.5107C435.901 33.4033 435.63 33.3496 435.317 33.3496C435 33.3496 434.724 33.418 434.489 33.5547C434.255 33.6914 434.062 33.8794 433.911 34.1187C433.764 34.3579 433.654 34.6362 433.581 34.9536C433.508 35.271 433.471 35.6104 433.471 35.9717Z" fill="black"/>
<path d="M432 128L446 142L432 156" stroke="black" stroke-width="2.5"/>
<rect width="109" height="166" rx="1" fill="#8FDE97" fill-opacity="0.13"/>
<path d="M12.1821 22H9.9043L9.91895 20.5425H12.1821C12.8413 20.5425 13.3931 20.3984 13.8374 20.1104C14.2866 19.8223 14.6235 19.4097 14.8481 18.8726C15.0776 18.3354 15.1924 17.6958 15.1924 16.9536V16.375C15.1924 15.7988 15.1265 15.2886 14.9946 14.8442C14.8677 14.3999 14.6772 14.0264 14.4233 13.7236C14.1743 13.4209 13.8667 13.1914 13.5005 13.0352C13.1392 12.8789 12.7217 12.8008 12.248 12.8008H9.86035V11.3359H12.248C12.9561 11.3359 13.603 11.4556 14.189 11.6948C14.7749 11.9292 15.2803 12.2686 15.7051 12.7129C16.1348 13.1572 16.4644 13.6895 16.6938 14.3096C16.9233 14.9297 17.0381 15.623 17.0381 16.3896V16.9536C17.0381 17.7202 16.9233 18.4136 16.6938 19.0337C16.4644 19.6538 16.1348 20.186 15.7051 20.6304C15.2754 21.0698 14.7627 21.4092 14.167 21.6484C13.5762 21.8828 12.9146 22 12.1821 22ZM10.9224 11.3359V22H9.08398V11.3359H10.9224ZM23.4758 20.4106V16.6313C23.4758 16.3481 23.4245 16.104 23.322 15.8989C23.2194 15.6938 23.0632 15.5352 22.8532 15.4229C22.6481 15.3105 22.3894 15.2544 22.0769 15.2544C21.7888 15.2544 21.5397 15.3032 21.3298 15.4009C21.1198 15.4985 20.9563 15.6304 20.8391 15.7964C20.7219 15.9624 20.6633 16.1504 20.6633 16.3604H18.9055C18.9055 16.0479 18.9812 15.7451 19.1325 15.4521C19.2839 15.1592 19.5036 14.8979 19.7917 14.6685C20.0798 14.439 20.424 14.2583 20.8244 14.1265C21.2248 13.9946 21.674 13.9287 22.1721 13.9287C22.7678 13.9287 23.2951 14.0288 23.7541 14.229C24.218 14.4292 24.5817 14.7319 24.8454 15.1372C25.114 15.5376 25.2482 16.0405 25.2482 16.646V20.1689C25.2482 20.5303 25.2727 20.855 25.3215 21.1431C25.3752 21.4263 25.4509 21.6729 25.5485 21.8828V22H23.7395C23.6564 21.8096 23.5905 21.5679 23.5417 21.2749C23.4978 20.9771 23.4758 20.689 23.4758 20.4106ZM23.7321 17.1807L23.7468 18.272H22.4797C22.1525 18.272 21.8645 18.3037 21.6154 18.3672C21.3664 18.4258 21.1589 18.5137 20.9929 18.6309C20.8269 18.748 20.7023 18.8896 20.6193 19.0557C20.5363 19.2217 20.4948 19.4097 20.4948 19.6196C20.4948 19.8296 20.5437 20.0225 20.6413 20.1982C20.739 20.3691 20.8806 20.5034 21.0661 20.6011C21.2565 20.6987 21.486 20.7476 21.7546 20.7476C22.1159 20.7476 22.4309 20.6743 22.6994 20.5278C22.9729 20.3765 23.1877 20.1934 23.3439 19.9785C23.5002 19.7588 23.5832 19.5513 23.593 19.356L24.1643 20.1396C24.1057 20.3398 24.0056 20.5547 23.864 20.7842C23.7224 21.0137 23.5368 21.2334 23.3073 21.4434C23.0827 21.6484 22.8117 21.8169 22.4943 21.9487C22.1818 22.0806 21.8205 22.1465 21.4104 22.1465C20.8928 22.1465 20.4313 22.0439 20.0261 21.8389C19.6208 21.6289 19.3034 21.3481 19.0739 20.9966C18.8444 20.6401 18.7297 20.2373 18.7297 19.7881C18.7297 19.3682 18.8078 18.9971 18.9641 18.6748C19.1252 18.3477 19.3596 18.0742 19.6672 17.8545C19.9797 17.6348 20.3605 17.4688 20.8098 17.3564C21.259 17.2393 21.7717 17.1807 22.3479 17.1807H23.7321ZM31.0268 14.0752V15.3643H26.559V14.0752H31.0268ZM27.848 12.1343H29.6132V19.8101C29.6132 20.0542 29.6474 20.2422 29.7157 20.374C29.789 20.501 29.8891 20.5864 30.016 20.6304C30.143 20.6743 30.2919 20.6963 30.4628 20.6963C30.5849 20.6963 30.7021 20.689 30.8144 20.6743C30.9267 20.6597 31.017 20.645 31.0854 20.6304L31.0927 21.978C30.9462 22.022 30.7753 22.061 30.58 22.0952C30.3896 22.1294 30.1698 22.1465 29.9208 22.1465C29.5155 22.1465 29.1566 22.0757 28.8441 21.9341C28.5316 21.7876 28.2875 21.5508 28.1117 21.2236C27.9359 20.8965 27.848 20.4619 27.848 19.9199V12.1343ZM36.1827 22.1465C35.5968 22.1465 35.067 22.0513 34.5934 21.8608C34.1246 21.6655 33.7242 21.3945 33.3922 21.0479C33.065 20.7012 32.8136 20.2935 32.6378 19.8247C32.462 19.356 32.3741 18.8506 32.3741 18.3086V18.0156C32.3741 17.3955 32.4645 16.834 32.6451 16.3311C32.8258 15.8281 33.0772 15.3984 33.3995 15.042C33.7218 14.6807 34.1026 14.4048 34.5421 14.2144C34.9815 14.0239 35.4576 13.9287 35.9703 13.9287C36.5367 13.9287 37.0323 14.0239 37.4571 14.2144C37.8819 14.4048 38.2335 14.6733 38.5118 15.02C38.795 15.3618 39.005 15.7695 39.1417 16.2432C39.2833 16.7168 39.3541 17.2393 39.3541 17.8105V18.5649H33.2311V17.2979H37.6109V17.1587C37.6012 16.8413 37.5377 16.5435 37.4205 16.2651C37.3082 15.9868 37.1349 15.7622 36.9005 15.5913C36.6661 15.4204 36.3536 15.335 35.963 15.335C35.67 15.335 35.4088 15.3984 35.1793 15.5254C34.9547 15.6475 34.7667 15.8257 34.6153 16.0601C34.464 16.2944 34.3468 16.5776 34.2638 16.9097C34.1856 17.2368 34.1466 17.6055 34.1466 18.0156V18.3086C34.1466 18.6553 34.193 18.9775 34.2857 19.2754C34.3834 19.5684 34.525 19.8247 34.7105 20.0444C34.8961 20.2642 35.1207 20.4375 35.3844 20.5645C35.648 20.6865 35.9483 20.7476 36.2853 20.7476C36.7101 20.7476 37.0885 20.6621 37.4205 20.4912C37.7525 20.3203 38.0406 20.0786 38.2848 19.7661L39.2149 20.667C39.044 20.916 38.8219 21.1553 38.5484 21.3848C38.275 21.6094 37.9405 21.7925 37.545 21.9341C37.1544 22.0757 36.7003 22.1465 36.1827 22.1465ZM42.7815 15.7671V22H41.0164V14.0752H42.679L42.7815 15.7671ZM42.4666 17.7446L41.8953 17.7373C41.9002 17.1758 41.9783 16.6606 42.1297 16.1919C42.2859 15.7231 42.5008 15.3203 42.7742 14.9834C43.0525 14.6465 43.3846 14.3877 43.7703 14.207C44.1561 14.0215 44.5857 13.9287 45.0594 13.9287C45.4402 13.9287 45.7845 13.9824 46.0921 14.0898C46.4046 14.1924 46.6707 14.3608 46.8904 14.5952C47.115 14.8296 47.2859 15.1348 47.4031 15.5107C47.5203 15.8818 47.5789 16.3384 47.5789 16.8804V22H45.8064V16.873C45.8064 16.4922 45.7503 16.1919 45.638 15.9722C45.5306 15.7476 45.3719 15.5889 45.1619 15.4961C44.9568 15.3984 44.7005 15.3496 44.3929 15.3496C44.0901 15.3496 43.8191 15.4131 43.5799 15.54C43.3406 15.667 43.138 15.8403 42.972 16.0601C42.8108 16.2798 42.6863 16.5337 42.5984 16.8218C42.5105 17.1099 42.4666 17.4175 42.4666 17.7446ZM53.2329 16.7412V18.1475H49.3584V16.7412H53.2329ZM12.4019 40.1465C11.8159 40.1465 11.2861 40.0513 10.8125 39.8608C10.3438 39.6655 9.94336 39.3945 9.61133 39.0479C9.28418 38.7012 9.03271 38.2935 8.85693 37.8247C8.68115 37.356 8.59326 36.8506 8.59326 36.3086V36.0156C8.59326 35.3955 8.68359 34.834 8.86426 34.3311C9.04492 33.8281 9.29639 33.3984 9.61865 33.042C9.94092 32.6807 10.3218 32.4048 10.7612 32.2144C11.2007 32.0239 11.6768 31.9287 12.1895 31.9287C12.7559 31.9287 13.2515 32.0239 13.6763 32.2144C14.1011 32.4048 14.4526 32.6733 14.731 33.02C15.0142 33.3618 15.2241 33.7695 15.3608 34.2432C15.5024 34.7168 15.5732 35.2393 15.5732 35.8105V36.5649H9.4502V35.2979H13.8301V35.1587C13.8203 34.8413 13.7568 34.5435 13.6396 34.2651C13.5273 33.9868 13.354 33.7622 13.1196 33.5913C12.8853 33.4204 12.5728 33.335 12.1821 33.335C11.8892 33.335 11.6279 33.3984 11.3984 33.5254C11.1738 33.6475 10.9858 33.8257 10.8345 34.0601C10.6831 34.2944 10.5659 34.5776 10.4829 34.9097C10.4048 35.2368 10.3657 35.6055 10.3657 36.0156V36.3086C10.3657 36.6553 10.4121 36.9775 10.5049 37.2754C10.6025 37.5684 10.7441 37.8247 10.9297 38.0444C11.1152 38.2642 11.3398 38.4375 11.6035 38.5645C11.8672 38.6865 12.1675 38.7476 12.5044 38.7476C12.9292 38.7476 13.3076 38.6621 13.6396 38.4912C13.9717 38.3203 14.2598 38.0786 14.5039 37.7661L15.4341 38.667C15.2632 38.916 15.041 39.1553 14.7676 39.3848C14.4941 39.6094 14.1597 39.7925 13.7642 39.9341C13.3735 40.0757 12.9194 40.1465 12.4019 40.1465ZM19.0227 33.584V40H17.2575V32.0752H18.9421L19.0227 33.584ZM21.447 32.0239L21.4323 33.6646C21.3249 33.645 21.2077 33.6304 21.0808 33.6206C20.9587 33.6108 20.8366 33.606 20.7146 33.606C20.4118 33.606 20.1457 33.6499 19.9162 33.7378C19.6867 33.8208 19.4938 33.9429 19.3376 34.104C19.1862 34.2603 19.069 34.4507 18.986 34.6753C18.903 34.8999 18.8542 35.1514 18.8396 35.4297L18.4367 35.459C18.4367 34.9609 18.4855 34.4995 18.5832 34.0747C18.6809 33.6499 18.8273 33.2764 19.0227 32.9541C19.2229 32.6318 19.4719 32.3804 19.7697 32.1997C20.0725 32.019 20.4216 31.9287 20.8171 31.9287C20.9245 31.9287 21.0393 31.9385 21.1613 31.958C21.2883 31.9775 21.3835 31.9995 21.447 32.0239ZM25.3725 40H23.6073V31.3135C23.6073 30.7227 23.7172 30.2271 23.9369 29.8267C24.1615 29.4214 24.4813 29.1162 24.8964 28.9111C25.3114 28.7012 25.8021 28.5962 26.3686 28.5962C26.5443 28.5962 26.7177 28.6084 26.8886 28.6328C27.0595 28.6523 27.2255 28.6841 27.3866 28.728L27.3427 30.0903C27.245 30.0659 27.1376 30.0488 27.0204 30.0391C26.9081 30.0293 26.786 30.0244 26.6542 30.0244C26.3856 30.0244 26.1537 30.0757 25.9584 30.1782C25.768 30.2759 25.6215 30.4199 25.5189 30.6104C25.4213 30.8008 25.3725 31.0352 25.3725 31.3135V40ZM27.0058 32.0752V33.3643H22.3915V32.0752H27.0058ZM33.0553 38.4106V34.6313C33.0553 34.3481 33.004 34.104 32.9015 33.8989C32.7989 33.6938 32.6427 33.5352 32.4327 33.4229C32.2276 33.3105 31.9688 33.2544 31.6563 33.2544C31.3683 33.2544 31.1192 33.3032 30.9093 33.4009C30.6993 33.4985 30.5357 33.6304 30.4186 33.7964C30.3014 33.9624 30.2428 34.1504 30.2428 34.3604H28.485C28.485 34.0479 28.5606 33.7451 28.712 33.4521C28.8634 33.1592 29.0831 32.8979 29.3712 32.6685C29.6593 32.439 30.0035 32.2583 30.4039 32.1265C30.8043 31.9946 31.2535 31.9287 31.7516 31.9287C32.3473 31.9287 32.8746 32.0288 33.3336 32.229C33.7975 32.4292 34.1612 32.7319 34.4249 33.1372C34.6935 33.5376 34.8277 34.0405 34.8277 34.646V38.1689C34.8277 38.5303 34.8521 38.855 34.901 39.1431C34.9547 39.4263 35.0304 39.6729 35.128 39.8828V40H33.3189C33.2359 39.8096 33.17 39.5679 33.1212 39.2749C33.0772 38.9771 33.0553 38.689 33.0553 38.4106ZM33.3116 35.1807L33.3263 36.272H32.0592C31.732 36.272 31.4439 36.3037 31.1949 36.3672C30.9459 36.4258 30.7384 36.5137 30.5724 36.6309C30.4063 36.748 30.2818 36.8896 30.1988 37.0557C30.1158 37.2217 30.0743 37.4097 30.0743 37.6196C30.0743 37.8296 30.1231 38.0225 30.2208 38.1982C30.3185 38.3691 30.4601 38.5034 30.6456 38.6011C30.836 38.6987 31.0655 38.7476 31.3341 38.7476C31.6954 38.7476 32.0104 38.6743 32.2789 38.5278C32.5523 38.3765 32.7672 38.1934 32.9234 37.9785C33.0797 37.7588 33.1627 37.5513 33.1725 37.356L33.7437 38.1396C33.6852 38.3398 33.5851 38.5547 33.4435 38.7842C33.3019 39.0137 33.1163 39.2334 32.8868 39.4434C32.6622 39.6484 32.3912 39.8169 32.0738 39.9487C31.7613 40.0806 31.4 40.1465 30.9898 40.1465C30.4723 40.1465 30.0108 40.0439 29.6056 39.8389C29.2003 39.6289 28.8829 39.3481 28.6534 38.9966C28.4239 38.6401 28.3092 38.2373 28.3092 37.7881C28.3092 37.3682 28.3873 36.9971 28.5436 36.6748C28.7047 36.3477 28.9391 36.0742 29.2467 35.8545C29.5592 35.6348 29.94 35.4688 30.3893 35.3564C30.8385 35.2393 31.3512 35.1807 31.9273 35.1807H33.3116ZM41.4192 37.854C41.4192 37.6782 41.3753 37.5195 41.2874 37.3779C41.1995 37.2314 41.0311 37.0996 40.782 36.9824C40.5379 36.8652 40.1766 36.7578 39.698 36.6602C39.2781 36.5674 38.8924 36.4575 38.5408 36.3306C38.1941 36.1987 37.8963 36.04 37.6473 35.8545C37.3982 35.6689 37.2054 35.4492 37.0687 35.1953C36.9319 34.9414 36.8636 34.6484 36.8636 34.3164C36.8636 33.9941 36.9344 33.689 37.076 33.4009C37.2176 33.1128 37.4202 32.8589 37.6839 32.6392C37.9476 32.4194 38.2674 32.2461 38.6434 32.1191C39.0242 31.9922 39.449 31.9287 39.9178 31.9287C40.5818 31.9287 41.1507 32.041 41.6243 32.2656C42.1028 32.4854 42.469 32.7856 42.7229 33.1665C42.9769 33.5425 43.1038 33.9673 43.1038 34.4409H41.3387C41.3387 34.231 41.285 34.0356 41.1775 33.855C41.075 33.6694 40.9188 33.5205 40.7088 33.4082C40.4988 33.291 40.2352 33.2324 39.9178 33.2324C39.615 33.2324 39.3636 33.2812 39.1634 33.3789C38.9681 33.4717 38.8216 33.5938 38.7239 33.7451C38.6312 33.8965 38.5848 34.0625 38.5848 34.2432C38.5848 34.375 38.6092 34.4946 38.658 34.6021C38.7117 34.7046 38.7996 34.7998 38.9217 34.8877C39.0438 34.9707 39.2098 35.0488 39.4197 35.1221C39.6346 35.1953 39.9031 35.2661 40.2254 35.3345C40.8309 35.4614 41.3509 35.625 41.7854 35.8252C42.2249 36.0205 42.5618 36.2744 42.7962 36.5869C43.0306 36.8945 43.1478 37.2852 43.1478 37.7588C43.1478 38.1104 43.0721 38.4326 42.9207 38.7256C42.7742 39.0137 42.5594 39.2651 42.2762 39.48C41.993 39.6899 41.6536 39.8535 41.2581 39.9707C40.8675 40.0879 40.428 40.1465 39.9397 40.1465C39.222 40.1465 38.6141 40.0195 38.116 39.7656C37.618 39.5068 37.2396 39.1772 36.9808 38.7769C36.7269 38.3716 36.5999 37.9517 36.5999 37.5171H38.3064C38.326 37.8442 38.4163 38.1055 38.5774 38.3008C38.7435 38.4912 38.9485 38.6304 39.1927 38.7183C39.4417 38.8013 39.698 38.8428 39.9617 38.8428C40.2791 38.8428 40.5452 38.8013 40.7601 38.7183C40.9749 38.6304 41.1385 38.5132 41.2508 38.3667C41.3631 38.2153 41.4192 38.0444 41.4192 37.854ZM49.439 37.854C49.439 37.6782 49.395 37.5195 49.3071 37.3779C49.2192 37.2314 49.0508 37.0996 48.8018 36.9824C48.5576 36.8652 48.1963 36.7578 47.7178 36.6602C47.2979 36.5674 46.9121 36.4575 46.5605 36.3306C46.2139 36.1987 45.916 36.04 45.667 35.8545C45.418 35.6689 45.2251 35.4492 45.0884 35.1953C44.9517 34.9414 44.8833 34.6484 44.8833 34.3164C44.8833 33.9941 44.9541 33.689 45.0957 33.4009C45.2373 33.1128 45.4399 32.8589 45.7036 32.6392C45.9673 32.4194 46.2871 32.2461 46.6631 32.1191C47.0439 31.9922 47.4688 31.9287 47.9375 31.9287C48.6016 31.9287 49.1704 32.041 49.644 32.2656C50.1226 32.4854 50.4888 32.7856 50.7427 33.1665C50.9966 33.5425 51.1235 33.9673 51.1235 34.4409H49.3584C49.3584 34.231 49.3047 34.0356 49.1973 33.855C49.0947 33.6694 48.9385 33.5205 48.7285 33.4082C48.5186 33.291 48.2549 33.2324 47.9375 33.2324C47.6348 33.2324 47.3833 33.2812 47.1831 33.3789C46.9878 33.4717 46.8413 33.5938 46.7437 33.7451C46.6509 33.8965 46.6045 34.0625 46.6045 34.2432C46.6045 34.375 46.6289 34.4946 46.6777 34.6021C46.7314 34.7046 46.8193 34.7998 46.9414 34.8877C47.0635 34.9707 47.2295 35.0488 47.4395 35.1221C47.6543 35.1953 47.9229 35.2661 48.2451 35.3345C48.8506 35.4614 49.3706 35.625 49.8052 35.8252C50.2446 36.0205 50.5815 36.2744 50.8159 36.5869C51.0503 36.8945 51.1675 37.2852 51.1675 37.7588C51.1675 38.1104 51.0918 38.4326 50.9404 38.7256C50.7939 39.0137 50.5791 39.2651 50.2959 39.48C50.0127 39.6899 49.6733 39.8535 49.2778 39.9707C48.8872 40.0879 48.4478 40.1465 47.9595 40.1465C47.2417 40.1465 46.6338 40.0195 46.1357 39.7656C45.6377 39.5068 45.2593 39.1772 45.0005 38.7769C44.7466 38.3716 44.6196 37.9517 44.6196 37.5171H46.3262C46.3457 37.8442 46.436 38.1055 46.5972 38.3008C46.7632 38.4912 46.9683 38.6304 47.2124 38.7183C47.4614 38.8013 47.7178 38.8428 47.9814 38.8428C48.2988 38.8428 48.5649 38.8013 48.7798 38.7183C48.9946 38.6304 49.1582 38.5132 49.2705 38.3667C49.3828 38.2153 49.439 38.0444 49.439 37.854ZM57.781 38.1323V32.0752H59.5534V40H57.8835L57.781 38.1323ZM58.03 36.4844L58.6232 36.4697C58.6232 37.002 58.5646 37.4927 58.4475 37.9419C58.3303 38.3862 58.1496 38.7744 57.9055 39.1064C57.6613 39.4336 57.3488 39.6899 56.968 39.8755C56.5871 40.0562 56.1306 40.1465 55.5983 40.1465C55.2126 40.1465 54.8586 40.0903 54.5363 39.978C54.2141 39.8657 53.9357 39.6924 53.7014 39.458C53.4719 39.2236 53.2937 38.9185 53.1667 38.5425C53.0397 38.1665 52.9763 37.7173 52.9763 37.1948V32.0752H54.7414V37.2095C54.7414 37.4976 54.7756 37.7393 54.8439 37.9346C54.9123 38.125 55.0051 38.2788 55.1223 38.396C55.2395 38.5132 55.3762 38.5962 55.5324 38.645C55.6887 38.6938 55.8547 38.7183 56.0305 38.7183C56.5334 38.7183 56.9289 38.6206 57.217 38.4253C57.51 38.2251 57.7175 37.9565 57.8396 37.6196C57.9665 37.2827 58.03 36.9043 58.03 36.4844ZM63.413 33.7671V40H61.6479V32.0752H63.3104L63.413 33.7671ZM63.098 35.7446L62.5268 35.7373C62.5316 35.1758 62.6098 34.6606 62.7611 34.1919C62.9174 33.7231 63.1322 33.3203 63.4057 32.9834C63.684 32.6465 64.016 32.3877 64.4018 32.207C64.7875 32.0215 65.2172 31.9287 65.6908 31.9287C66.0717 31.9287 66.4159 31.9824 66.7235 32.0898C67.036 32.1924 67.3021 32.3608 67.5219 32.5952C67.7465 32.8296 67.9174 33.1348 68.0346 33.5107C68.1518 33.8818 68.2104 34.3384 68.2104 34.8804V40H66.4379V34.873C66.4379 34.4922 66.3817 34.1919 66.2694 33.9722C66.162 33.7476 66.0033 33.5889 65.7934 33.4961C65.5883 33.3984 65.3319 33.3496 65.0243 33.3496C64.7216 33.3496 64.4506 33.4131 64.2113 33.54C63.9721 33.667 63.7694 33.8403 63.6034 34.0601C63.4423 34.2798 63.3178 34.5337 63.2299 34.8218C63.142 35.1099 63.098 35.4175 63.098 35.7446ZM75.3878 32.0752H76.9918V39.7803C76.9918 40.4932 76.8404 41.0986 76.5377 41.5967C76.235 42.0947 75.8126 42.4731 75.2706 42.7319C74.7286 42.9956 74.1012 43.1274 73.3883 43.1274C73.0855 43.1274 72.7486 43.0835 72.3775 42.9956C72.0113 42.9077 71.6549 42.7661 71.3082 42.5708C70.9664 42.3804 70.6808 42.1289 70.4513 41.8164L71.2789 40.7764C71.5621 41.1133 71.8746 41.3599 72.2164 41.5161C72.5582 41.6724 72.9171 41.7505 73.2931 41.7505C73.6983 41.7505 74.0426 41.6748 74.3258 41.5234C74.6139 41.377 74.836 41.1597 74.9923 40.8716C75.1485 40.5835 75.2267 40.2319 75.2267 39.8169V33.8696L75.3878 32.0752ZM70.0045 36.1255V35.9717C70.0045 35.3711 70.0777 34.8242 70.2242 34.3311C70.3707 33.833 70.5807 33.4058 70.8541 33.0493C71.1275 32.688 71.4596 32.4121 71.8502 32.2217C72.2408 32.0264 72.6827 31.9287 73.1759 31.9287C73.6886 31.9287 74.1256 32.0215 74.4869 32.207C74.8531 32.3926 75.1583 32.6587 75.4024 33.0054C75.6466 33.3472 75.837 33.7573 75.9737 34.2358C76.1153 34.7095 76.2203 35.2368 76.2887 35.8179V36.3086C76.2252 36.875 76.1178 37.3926 75.9664 37.8613C75.815 38.3301 75.6148 38.7354 75.3658 39.0771C75.1168 39.4189 74.8092 39.6826 74.443 39.8682C74.0816 40.0537 73.6544 40.1465 73.1612 40.1465C72.6778 40.1465 72.2408 40.0464 71.8502 39.8462C71.4645 39.646 71.1324 39.3652 70.8541 39.0039C70.5807 38.6426 70.3707 38.2178 70.2242 37.7295C70.0777 37.2363 70.0045 36.7017 70.0045 36.1255ZM71.7696 35.9717V36.1255C71.7696 36.4868 71.8038 36.8237 71.8722 37.1362C71.9454 37.4487 72.0553 37.7246 72.2018 37.9639C72.3531 38.1982 72.5436 38.3838 72.773 38.5205C73.0074 38.6523 73.2833 38.7183 73.6007 38.7183C74.0157 38.7183 74.3551 38.6304 74.6188 38.4546C74.8873 38.2788 75.0924 38.042 75.234 37.7441C75.3805 37.4414 75.483 37.1045 75.5416 36.7334V35.4077C75.5123 35.1196 75.4513 34.8511 75.3585 34.6021C75.2706 34.353 75.151 34.1357 74.9996 33.9502C74.8482 33.7598 74.6578 33.6133 74.4283 33.5107C74.1988 33.4033 73.9278 33.3496 73.6153 33.3496C73.298 33.3496 73.0221 33.418 72.7877 33.5547C72.5533 33.6914 72.3605 33.8794 72.2091 34.1187C72.0626 34.3579 71.9527 34.6362 71.8795 34.9536C71.8063 35.271 71.7696 35.6104 71.7696 35.9717Z" fill="black"/>
<path d="M87 128L101 142L87 156" stroke="black" stroke-width="2.5"/>
<rect x="114" width="110" height="166" rx="1" fill="#8FDE97" fill-opacity="0.4"/>
<path d="M126.182 22H123.904L123.919 20.5425H126.182C126.841 20.5425 127.393 20.3984 127.837 20.1104C128.287 19.8223 128.624 19.4097 128.848 18.8726C129.078 18.3354 129.192 17.6958 129.192 16.9536V16.375C129.192 15.7988 129.126 15.2886 128.995 14.8442C128.868 14.3999 128.677 14.0264 128.423 13.7236C128.174 13.4209 127.867 13.1914 127.5 13.0352C127.139 12.8789 126.722 12.8008 126.248 12.8008H123.86V11.3359H126.248C126.956 11.3359 127.603 11.4556 128.189 11.6948C128.775 11.9292 129.28 12.2686 129.705 12.7129C130.135 13.1572 130.464 13.6895 130.694 14.3096C130.923 14.9297 131.038 15.623 131.038 16.3896V16.9536C131.038 17.7202 130.923 18.4136 130.694 19.0337C130.464 19.6538 130.135 20.186 129.705 20.6304C129.275 21.0698 128.763 21.4092 128.167 21.6484C127.576 21.8828 126.915 22 126.182 22ZM124.922 11.3359V22H123.084V11.3359H124.922ZM137.476 20.4106V16.6313C137.476 16.3481 137.425 16.104 137.322 15.8989C137.219 15.6938 137.063 15.5352 136.853 15.4229C136.648 15.3105 136.389 15.2544 136.077 15.2544C135.789 15.2544 135.54 15.3032 135.33 15.4009C135.12 15.4985 134.956 15.6304 134.839 15.7964C134.722 15.9624 134.663 16.1504 134.663 16.3604H132.905C132.905 16.0479 132.981 15.7451 133.133 15.4521C133.284 15.1592 133.504 14.8979 133.792 14.6685C134.08 14.439 134.424 14.2583 134.824 14.1265C135.225 13.9946 135.674 13.9287 136.172 13.9287C136.768 13.9287 137.295 14.0288 137.754 14.229C138.218 14.4292 138.582 14.7319 138.845 15.1372C139.114 15.5376 139.248 16.0405 139.248 16.646V20.1689C139.248 20.5303 139.273 20.855 139.321 21.1431C139.375 21.4263 139.451 21.6729 139.549 21.8828V22H137.739C137.656 21.8096 137.591 21.5679 137.542 21.2749C137.498 20.9771 137.476 20.689 137.476 20.4106ZM137.732 17.1807L137.747 18.272H136.48C136.153 18.272 135.864 18.3037 135.615 18.3672C135.366 18.4258 135.159 18.5137 134.993 18.6309C134.827 18.748 134.702 18.8896 134.619 19.0557C134.536 19.2217 134.495 19.4097 134.495 19.6196C134.495 19.8296 134.544 20.0225 134.641 20.1982C134.739 20.3691 134.881 20.5034 135.066 20.6011C135.257 20.6987 135.486 20.7476 135.755 20.7476C136.116 20.7476 136.431 20.6743 136.699 20.5278C136.973 20.3765 137.188 20.1934 137.344 19.9785C137.5 19.7588 137.583 19.5513 137.593 19.356L138.164 20.1396C138.106 20.3398 138.006 20.5547 137.864 20.7842C137.722 21.0137 137.537 21.2334 137.307 21.4434C137.083 21.6484 136.812 21.8169 136.494 21.9487C136.182 22.0806 135.821 22.1465 135.41 22.1465C134.893 22.1465 134.431 22.0439 134.026 21.8389C133.621 21.6289 133.303 21.3481 133.074 20.9966C132.844 20.6401 132.73 20.2373 132.73 19.7881C132.73 19.3682 132.808 18.9971 132.964 18.6748C133.125 18.3477 133.36 18.0742 133.667 17.8545C133.98 17.6348 134.361 17.4688 134.81 17.3564C135.259 17.2393 135.772 17.1807 136.348 17.1807H137.732ZM145.027 14.0752V15.3643H140.559V14.0752H145.027ZM141.848 12.1343H143.613V19.8101C143.613 20.0542 143.647 20.2422 143.716 20.374C143.789 20.501 143.889 20.5864 144.016 20.6304C144.143 20.6743 144.292 20.6963 144.463 20.6963C144.585 20.6963 144.702 20.689 144.814 20.6743C144.927 20.6597 145.017 20.645 145.085 20.6304L145.093 21.978C144.946 22.022 144.775 22.061 144.58 22.0952C144.39 22.1294 144.17 22.1465 143.921 22.1465C143.516 22.1465 143.157 22.0757 142.844 21.9341C142.532 21.7876 142.288 21.5508 142.112 21.2236C141.936 20.8965 141.848 20.4619 141.848 19.9199V12.1343ZM150.183 22.1465C149.597 22.1465 149.067 22.0513 148.593 21.8608C148.125 21.6655 147.724 21.3945 147.392 21.0479C147.065 20.7012 146.814 20.2935 146.638 19.8247C146.462 19.356 146.374 18.8506 146.374 18.3086V18.0156C146.374 17.3955 146.464 16.834 146.645 16.3311C146.826 15.8281 147.077 15.3984 147.4 15.042C147.722 14.6807 148.103 14.4048 148.542 14.2144C148.982 14.0239 149.458 13.9287 149.97 13.9287C150.537 13.9287 151.032 14.0239 151.457 14.2144C151.882 14.4048 152.233 14.6733 152.512 15.02C152.795 15.3618 153.005 15.7695 153.142 16.2432C153.283 16.7168 153.354 17.2393 153.354 17.8105V18.5649H147.231V17.2979H151.611V17.1587C151.601 16.8413 151.538 16.5435 151.421 16.2651C151.308 15.9868 151.135 15.7622 150.9 15.5913C150.666 15.4204 150.354 15.335 149.963 15.335C149.67 15.335 149.409 15.3984 149.179 15.5254C148.955 15.6475 148.767 15.8257 148.615 16.0601C148.464 16.2944 148.347 16.5776 148.264 16.9097C148.186 17.2368 148.147 17.6055 148.147 18.0156V18.3086C148.147 18.6553 148.193 18.9775 148.286 19.2754C148.383 19.5684 148.525 19.8247 148.711 20.0444C148.896 20.2642 149.121 20.4375 149.384 20.5645C149.648 20.6865 149.948 20.7476 150.285 20.7476C150.71 20.7476 151.088 20.6621 151.421 20.4912C151.753 20.3203 152.041 20.0786 152.285 19.7661L153.215 20.667C153.044 20.916 152.822 21.1553 152.548 21.3848C152.275 21.6094 151.941 21.7925 151.545 21.9341C151.154 22.0757 150.7 22.1465 150.183 22.1465ZM156.782 15.7671V22H155.016V14.0752H156.679L156.782 15.7671ZM156.467 17.7446L155.895 17.7373C155.9 17.1758 155.978 16.6606 156.13 16.1919C156.286 15.7231 156.501 15.3203 156.774 14.9834C157.053 14.6465 157.385 14.3877 157.77 14.207C158.156 14.0215 158.586 13.9287 159.059 13.9287C159.44 13.9287 159.784 13.9824 160.092 14.0898C160.405 14.1924 160.671 14.3608 160.89 14.5952C161.115 14.8296 161.286 15.1348 161.403 15.5107C161.52 15.8818 161.579 16.3384 161.579 16.8804V22H159.806V16.873C159.806 16.4922 159.75 16.1919 159.638 15.9722C159.531 15.7476 159.372 15.5889 159.162 15.4961C158.957 15.3984 158.7 15.3496 158.393 15.3496C158.09 15.3496 157.819 15.4131 157.58 15.54C157.341 15.667 157.138 15.8403 156.972 16.0601C156.811 16.2798 156.686 16.5337 156.598 16.8218C156.511 17.1099 156.467 17.4175 156.467 17.7446ZM167.233 16.7412V18.1475H163.358V16.7412H167.233ZM124.688 28.75V40H122.916V28.75H124.688ZM129.61 32.0752L126.16 35.8984L124.271 37.832L123.809 36.3379L125.237 34.5728L127.479 32.0752H129.61ZM127.859 40L125.289 36.2793L126.402 35.0415L129.903 40H127.859ZM135.799 38.1323V32.0752H137.571V40H135.901L135.799 38.1323ZM136.048 36.4844L136.641 36.4697C136.641 37.002 136.582 37.4927 136.465 37.9419C136.348 38.3862 136.167 38.7744 135.923 39.1064C135.679 39.4336 135.366 39.6899 134.986 39.8755C134.605 40.0562 134.148 40.1465 133.616 40.1465C133.23 40.1465 132.876 40.0903 132.554 39.978C132.232 39.8657 131.953 39.6924 131.719 39.458C131.489 39.2236 131.311 38.9185 131.184 38.5425C131.057 38.1665 130.994 37.7173 130.994 37.1948V32.0752H132.759V37.2095C132.759 37.4976 132.793 37.7393 132.862 37.9346C132.93 38.125 133.023 38.2788 133.14 38.396C133.257 38.5132 133.394 38.5962 133.55 38.645C133.706 38.6938 133.872 38.7183 134.048 38.7183C134.551 38.7183 134.946 38.6206 135.235 38.4253C135.528 38.2251 135.735 37.9565 135.857 37.6196C135.984 37.2827 136.048 36.9043 136.048 36.4844ZM141.453 33.584V40H139.687V32.0752H141.372L141.453 33.584ZM143.877 32.0239L143.862 33.6646C143.755 33.645 143.638 33.6304 143.511 33.6206C143.389 33.6108 143.267 33.606 143.144 33.606C142.842 33.606 142.576 33.6499 142.346 33.7378C142.117 33.8208 141.924 33.9429 141.767 34.104C141.616 34.2603 141.499 34.4507 141.416 34.6753C141.333 34.8999 141.284 35.1514 141.269 35.4297L140.867 35.459C140.867 34.9609 140.915 34.4995 141.013 34.0747C141.111 33.6499 141.257 33.2764 141.453 32.9541C141.653 32.6318 141.902 32.3804 142.2 32.1997C142.502 32.019 142.851 31.9287 143.247 31.9287C143.354 31.9287 143.469 31.9385 143.591 31.958C143.718 31.9775 143.813 31.9995 143.877 32.0239ZM149.487 38.4106V34.6313C149.487 34.3481 149.436 34.104 149.333 33.8989C149.231 33.6938 149.074 33.5352 148.864 33.4229C148.659 33.3105 148.4 33.2544 148.088 33.2544C147.8 33.2544 147.551 33.3032 147.341 33.4009C147.131 33.4985 146.967 33.6304 146.85 33.7964C146.733 33.9624 146.674 34.1504 146.674 34.3604H144.917C144.917 34.0479 144.992 33.7451 145.144 33.4521C145.295 33.1592 145.515 32.8979 145.803 32.6685C146.091 32.439 146.435 32.2583 146.836 32.1265C147.236 31.9946 147.685 31.9287 148.183 31.9287C148.779 31.9287 149.306 32.0288 149.765 32.229C150.229 32.4292 150.593 32.7319 150.857 33.1372C151.125 33.5376 151.259 34.0405 151.259 34.646V38.1689C151.259 38.5303 151.284 38.855 151.333 39.1431C151.386 39.4263 151.462 39.6729 151.56 39.8828V40H149.751C149.668 39.8096 149.602 39.5679 149.553 39.2749C149.509 38.9771 149.487 38.689 149.487 38.4106ZM149.743 35.1807L149.758 36.272H148.491C148.164 36.272 147.876 36.3037 147.627 36.3672C147.378 36.4258 147.17 36.5137 147.004 36.6309C146.838 36.748 146.713 36.8896 146.63 37.0557C146.547 37.2217 146.506 37.4097 146.506 37.6196C146.506 37.8296 146.555 38.0225 146.652 38.1982C146.75 38.3691 146.892 38.5034 147.077 38.6011C147.268 38.6987 147.497 38.7476 147.766 38.7476C148.127 38.7476 148.442 38.6743 148.711 38.5278C148.984 38.3765 149.199 38.1934 149.355 37.9785C149.511 37.7588 149.594 37.5513 149.604 37.356L150.175 38.1396C150.117 38.3398 150.017 38.5547 149.875 38.7842C149.733 39.0137 149.548 39.2334 149.318 39.4434C149.094 39.6484 148.823 39.8169 148.505 39.9487C148.193 40.0806 147.832 40.1465 147.421 40.1465C146.904 40.1465 146.442 40.0439 146.037 39.8389C145.632 39.6289 145.315 39.3481 145.085 38.9966C144.856 38.6401 144.741 38.2373 144.741 37.7881C144.741 37.3682 144.819 36.9971 144.975 36.6748C145.136 36.3477 145.371 36.0742 145.678 35.8545C145.991 35.6348 146.372 35.4688 146.821 35.3564C147.27 35.2393 147.783 35.1807 148.359 35.1807H149.743ZM157.038 32.0752V33.3643H152.57V32.0752H157.038ZM153.859 30.1343H155.624V37.8101C155.624 38.0542 155.658 38.2422 155.727 38.374C155.8 38.501 155.9 38.5864 156.027 38.6304C156.154 38.6743 156.303 38.6963 156.474 38.6963C156.596 38.6963 156.713 38.689 156.825 38.6743C156.938 38.6597 157.028 38.645 157.096 38.6304L157.104 39.978C156.957 40.022 156.786 40.061 156.591 40.0952C156.401 40.1294 156.181 40.1465 155.932 40.1465C155.527 40.1465 155.168 40.0757 154.855 39.9341C154.543 39.7876 154.299 39.5508 154.123 39.2236C153.947 38.8965 153.859 38.4619 153.859 37.9199V30.1343ZM160.59 32.0752V40H158.817V32.0752H160.59ZM158.7 29.9951C158.7 29.7266 158.788 29.5044 158.964 29.3286C159.145 29.1479 159.394 29.0576 159.711 29.0576C160.023 29.0576 160.27 29.1479 160.451 29.3286C160.631 29.5044 160.722 29.7266 160.722 29.9951C160.722 30.2588 160.631 30.4785 160.451 30.6543C160.27 30.8301 160.023 30.918 159.711 30.918C159.394 30.918 159.145 30.8301 158.964 30.6543C158.788 30.4785 158.7 30.2588 158.7 29.9951ZM162.487 36.1255V35.957C162.487 35.3857 162.57 34.856 162.736 34.3677C162.902 33.8745 163.141 33.4473 163.453 33.0859C163.771 32.7197 164.156 32.4365 164.611 32.2363C165.07 32.0312 165.587 31.9287 166.163 31.9287C166.744 31.9287 167.262 32.0312 167.716 32.2363C168.175 32.4365 168.563 32.7197 168.881 33.0859C169.198 33.4473 169.44 33.8745 169.606 34.3677C169.772 34.856 169.855 35.3857 169.855 35.957V36.1255C169.855 36.6968 169.772 37.2266 169.606 37.7148C169.44 38.2031 169.198 38.6304 168.881 38.9966C168.563 39.3579 168.177 39.6411 167.723 39.8462C167.269 40.0464 166.754 40.1465 166.178 40.1465C165.597 40.1465 165.077 40.0464 164.618 39.8462C164.164 39.6411 163.778 39.3579 163.461 38.9966C163.143 38.6304 162.902 38.2031 162.736 37.7148C162.57 37.2266 162.487 36.6968 162.487 36.1255ZM164.252 35.957V36.1255C164.252 36.4819 164.288 36.8188 164.362 37.1362C164.435 37.4536 164.55 37.7319 164.706 37.9712C164.862 38.2104 165.062 38.3984 165.306 38.5352C165.55 38.6719 165.841 38.7402 166.178 38.7402C166.505 38.7402 166.788 38.6719 167.028 38.5352C167.272 38.3984 167.472 38.2104 167.628 37.9712C167.784 37.7319 167.899 37.4536 167.972 37.1362C168.05 36.8188 168.09 36.4819 168.09 36.1255V35.957C168.09 35.6055 168.05 35.2734 167.972 34.9609C167.899 34.6436 167.782 34.3628 167.621 34.1187C167.465 33.8745 167.264 33.6841 167.02 33.5474C166.781 33.4058 166.495 33.335 166.163 33.335C165.831 33.335 165.543 33.4058 165.299 33.5474C165.06 33.6841 164.862 33.8745 164.706 34.1187C164.55 34.3628 164.435 34.6436 164.362 34.9609C164.288 35.2734 164.252 35.6055 164.252 35.957ZM173.385 33.7671V40H171.62V32.0752H173.282L173.385 33.7671ZM173.07 35.7446L172.498 35.7373C172.503 35.1758 172.581 34.6606 172.733 34.1919C172.889 33.7231 173.104 33.3203 173.377 32.9834C173.656 32.6465 173.988 32.3877 174.373 32.207C174.759 32.0215 175.189 31.9287 175.662 31.9287C176.043 31.9287 176.388 31.9824 176.695 32.0898C177.008 32.1924 177.274 32.3608 177.494 32.5952C177.718 32.8296 177.889 33.1348 178.006 33.5107C178.123 33.8818 178.182 34.3384 178.182 34.8804V40H176.41V34.873C176.41 34.4922 176.353 34.1919 176.241 33.9722C176.134 33.7476 175.975 33.5889 175.765 33.4961C175.56 33.3984 175.304 33.3496 174.996 33.3496C174.693 33.3496 174.422 33.4131 174.183 33.54C173.944 33.667 173.741 33.8403 173.575 34.0601C173.414 34.2798 173.289 34.5337 173.202 34.8218C173.114 35.1099 173.07 35.4175 173.07 35.7446Z" fill="black"/>
<path d="M202 128L216 142L202 156" stroke="black" stroke-width="2.5"/>
<rect x="229" width="110" height="166" rx="1" fill="#8FDE97" fill-opacity="0.6"/>
<path d="M241.182 22H238.904L238.919 20.5425H241.182C241.841 20.5425 242.393 20.3984 242.837 20.1104C243.287 19.8223 243.624 19.4097 243.848 18.8726C244.078 18.3354 244.192 17.6958 244.192 16.9536V16.375C244.192 15.7988 244.126 15.2886 243.995 14.8442C243.868 14.3999 243.677 14.0264 243.423 13.7236C243.174 13.4209 242.867 13.1914 242.5 13.0352C242.139 12.8789 241.722 12.8008 241.248 12.8008H238.86V11.3359H241.248C241.956 11.3359 242.603 11.4556 243.189 11.6948C243.775 11.9292 244.28 12.2686 244.705 12.7129C245.135 13.1572 245.464 13.6895 245.694 14.3096C245.923 14.9297 246.038 15.623 246.038 16.3896V16.9536C246.038 17.7202 245.923 18.4136 245.694 19.0337C245.464 19.6538 245.135 20.186 244.705 20.6304C244.275 21.0698 243.763 21.4092 243.167 21.6484C242.576 21.8828 241.915 22 241.182 22ZM239.922 11.3359V22H238.084V11.3359H239.922ZM252.476 20.4106V16.6313C252.476 16.3481 252.425 16.104 252.322 15.8989C252.219 15.6938 252.063 15.5352 251.853 15.4229C251.648 15.3105 251.389 15.2544 251.077 15.2544C250.789 15.2544 250.54 15.3032 250.33 15.4009C250.12 15.4985 249.956 15.6304 249.839 15.7964C249.722 15.9624 249.663 16.1504 249.663 16.3604H247.905C247.905 16.0479 247.981 15.7451 248.133 15.4521C248.284 15.1592 248.504 14.8979 248.792 14.6685C249.08 14.439 249.424 14.2583 249.824 14.1265C250.225 13.9946 250.674 13.9287 251.172 13.9287C251.768 13.9287 252.295 14.0288 252.754 14.229C253.218 14.4292 253.582 14.7319 253.845 15.1372C254.114 15.5376 254.248 16.0405 254.248 16.646V20.1689C254.248 20.5303 254.273 20.855 254.321 21.1431C254.375 21.4263 254.451 21.6729 254.549 21.8828V22H252.739C252.656 21.8096 252.591 21.5679 252.542 21.2749C252.498 20.9771 252.476 20.689 252.476 20.4106ZM252.732 17.1807L252.747 18.272H251.48C251.153 18.272 250.864 18.3037 250.615 18.3672C250.366 18.4258 250.159 18.5137 249.993 18.6309C249.827 18.748 249.702 18.8896 249.619 19.0557C249.536 19.2217 249.495 19.4097 249.495 19.6196C249.495 19.8296 249.544 20.0225 249.641 20.1982C249.739 20.3691 249.881 20.5034 250.066 20.6011C250.257 20.6987 250.486 20.7476 250.755 20.7476C251.116 20.7476 251.431 20.6743 251.699 20.5278C251.973 20.3765 252.188 20.1934 252.344 19.9785C252.5 19.7588 252.583 19.5513 252.593 19.356L253.164 20.1396C253.106 20.3398 253.006 20.5547 252.864 20.7842C252.722 21.0137 252.537 21.2334 252.307 21.4434C252.083 21.6484 251.812 21.8169 251.494 21.9487C251.182 22.0806 250.821 22.1465 250.41 22.1465C249.893 22.1465 249.431 22.0439 249.026 21.8389C248.621 21.6289 248.303 21.3481 248.074 20.9966C247.844 20.6401 247.73 20.2373 247.73 19.7881C247.73 19.3682 247.808 18.9971 247.964 18.6748C248.125 18.3477 248.36 18.0742 248.667 17.8545C248.98 17.6348 249.361 17.4688 249.81 17.3564C250.259 17.2393 250.772 17.1807 251.348 17.1807H252.732ZM260.027 14.0752V15.3643H255.559V14.0752H260.027ZM256.848 12.1343H258.613V19.8101C258.613 20.0542 258.647 20.2422 258.716 20.374C258.789 20.501 258.889 20.5864 259.016 20.6304C259.143 20.6743 259.292 20.6963 259.463 20.6963C259.585 20.6963 259.702 20.689 259.814 20.6743C259.927 20.6597 260.017 20.645 260.085 20.6304L260.093 21.978C259.946 22.022 259.775 22.061 259.58 22.0952C259.39 22.1294 259.17 22.1465 258.921 22.1465C258.516 22.1465 258.157 22.0757 257.844 21.9341C257.532 21.7876 257.288 21.5508 257.112 21.2236C256.936 20.8965 256.848 20.4619 256.848 19.9199V12.1343ZM265.183 22.1465C264.597 22.1465 264.067 22.0513 263.593 21.8608C263.125 21.6655 262.724 21.3945 262.392 21.0479C262.065 20.7012 261.814 20.2935 261.638 19.8247C261.462 19.356 261.374 18.8506 261.374 18.3086V18.0156C261.374 17.3955 261.464 16.834 261.645 16.3311C261.826 15.8281 262.077 15.3984 262.4 15.042C262.722 14.6807 263.103 14.4048 263.542 14.2144C263.982 14.0239 264.458 13.9287 264.97 13.9287C265.537 13.9287 266.032 14.0239 266.457 14.2144C266.882 14.4048 267.233 14.6733 267.512 15.02C267.795 15.3618 268.005 15.7695 268.142 16.2432C268.283 16.7168 268.354 17.2393 268.354 17.8105V18.5649H262.231V17.2979H266.611V17.1587C266.601 16.8413 266.538 16.5435 266.421 16.2651C266.308 15.9868 266.135 15.7622 265.9 15.5913C265.666 15.4204 265.354 15.335 264.963 15.335C264.67 15.335 264.409 15.3984 264.179 15.5254C263.955 15.6475 263.767 15.8257 263.615 16.0601C263.464 16.2944 263.347 16.5776 263.264 16.9097C263.186 17.2368 263.147 17.6055 263.147 18.0156V18.3086C263.147 18.6553 263.193 18.9775 263.286 19.2754C263.383 19.5684 263.525 19.8247 263.711 20.0444C263.896 20.2642 264.121 20.4375 264.384 20.5645C264.648 20.6865 264.948 20.7476 265.285 20.7476C265.71 20.7476 266.088 20.6621 266.421 20.4912C266.753 20.3203 267.041 20.0786 267.285 19.7661L268.215 20.667C268.044 20.916 267.822 21.1553 267.548 21.3848C267.275 21.6094 266.941 21.7925 266.545 21.9341C266.154 22.0757 265.7 22.1465 265.183 22.1465ZM271.782 15.7671V22H270.016V14.0752H271.679L271.782 15.7671ZM271.467 17.7446L270.895 17.7373C270.9 17.1758 270.978 16.6606 271.13 16.1919C271.286 15.7231 271.501 15.3203 271.774 14.9834C272.053 14.6465 272.385 14.3877 272.77 14.207C273.156 14.0215 273.586 13.9287 274.059 13.9287C274.44 13.9287 274.784 13.9824 275.092 14.0898C275.405 14.1924 275.671 14.3608 275.89 14.5952C276.115 14.8296 276.286 15.1348 276.403 15.5107C276.52 15.8818 276.579 16.3384 276.579 16.8804V22H274.806V16.873C274.806 16.4922 274.75 16.1919 274.638 15.9722C274.531 15.7476 274.372 15.5889 274.162 15.4961C273.957 15.3984 273.7 15.3496 273.393 15.3496C273.09 15.3496 272.819 15.4131 272.58 15.54C272.341 15.667 272.138 15.8403 271.972 16.0601C271.811 16.2798 271.686 16.5337 271.598 16.8218C271.511 17.1099 271.467 17.4175 271.467 17.7446ZM282.233 16.7412V18.1475H278.358V16.7412H282.233ZM239.673 33.6865V40H237.908V32.0752H239.571L239.673 33.6865ZM239.388 35.7446L238.787 35.7373C238.787 35.1904 238.855 34.6851 238.992 34.2212C239.129 33.7573 239.329 33.3545 239.593 33.0127C239.856 32.666 240.184 32.3999 240.574 32.2144C240.97 32.0239 241.426 31.9287 241.944 31.9287C242.305 31.9287 242.635 31.9824 242.933 32.0898C243.235 32.1924 243.497 32.356 243.716 32.5806C243.941 32.8052 244.112 33.0933 244.229 33.4448C244.351 33.7964 244.412 34.2212 244.412 34.7192V40H242.647V34.873C242.647 34.4873 242.588 34.1846 242.471 33.9648C242.359 33.7451 242.195 33.5889 241.98 33.4961C241.771 33.3984 241.519 33.3496 241.226 33.3496C240.894 33.3496 240.611 33.4131 240.376 33.54C240.147 33.667 239.959 33.8403 239.812 34.0601C239.666 34.2798 239.559 34.5337 239.49 34.8218C239.422 35.1099 239.388 35.4175 239.388 35.7446ZM244.302 35.2759L243.475 35.459C243.475 34.9805 243.541 34.5288 243.672 34.104C243.809 33.6743 244.007 33.2983 244.266 32.9761C244.529 32.6489 244.854 32.3926 245.24 32.207C245.625 32.0215 246.067 31.9287 246.565 31.9287C246.971 31.9287 247.332 31.9849 247.649 32.0972C247.972 32.2046 248.245 32.3755 248.47 32.6099C248.694 32.8442 248.865 33.1494 248.982 33.5254C249.1 33.8965 249.158 34.3457 249.158 34.873V40H247.386V34.8657C247.386 34.4653 247.327 34.1553 247.21 33.9355C247.098 33.7158 246.937 33.5645 246.727 33.4814C246.517 33.3936 246.265 33.3496 245.972 33.3496C245.699 33.3496 245.457 33.4009 245.247 33.5034C245.042 33.6011 244.869 33.7402 244.727 33.9209C244.585 34.0967 244.478 34.2993 244.405 34.5288C244.336 34.7583 244.302 35.0073 244.302 35.2759ZM255.742 38.4106V34.6313C255.742 34.3481 255.691 34.104 255.589 33.8989C255.486 33.6938 255.33 33.5352 255.12 33.4229C254.915 33.3105 254.656 33.2544 254.343 33.2544C254.055 33.2544 253.806 33.3032 253.596 33.4009C253.386 33.4985 253.223 33.6304 253.106 33.7964C252.988 33.9624 252.93 34.1504 252.93 34.3604H251.172C251.172 34.0479 251.248 33.7451 251.399 33.4521C251.55 33.1592 251.77 32.8979 252.058 32.6685C252.346 32.439 252.691 32.2583 253.091 32.1265C253.491 31.9946 253.941 31.9287 254.439 31.9287C255.034 31.9287 255.562 32.0288 256.021 32.229C256.485 32.4292 256.848 32.7319 257.112 33.1372C257.381 33.5376 257.515 34.0405 257.515 34.646V38.1689C257.515 38.5303 257.539 38.855 257.588 39.1431C257.642 39.4263 257.717 39.6729 257.815 39.8828V40H256.006C255.923 39.8096 255.857 39.5679 255.808 39.2749C255.764 38.9771 255.742 38.689 255.742 38.4106ZM255.999 35.1807L256.013 36.272H254.746C254.419 36.272 254.131 36.3037 253.882 36.3672C253.633 36.4258 253.425 36.5137 253.259 36.6309C253.093 36.748 252.969 36.8896 252.886 37.0557C252.803 37.2217 252.761 37.4097 252.761 37.6196C252.761 37.8296 252.81 38.0225 252.908 38.1982C253.006 38.3691 253.147 38.5034 253.333 38.6011C253.523 38.6987 253.753 38.7476 254.021 38.7476C254.383 38.7476 254.697 38.6743 254.966 38.5278C255.239 38.3765 255.454 38.1934 255.611 37.9785C255.767 37.7588 255.85 37.5513 255.86 37.356L256.431 38.1396C256.372 38.3398 256.272 38.5547 256.131 38.7842C255.989 39.0137 255.803 39.2334 255.574 39.4434C255.349 39.6484 255.078 39.8169 254.761 39.9487C254.448 40.0806 254.087 40.1465 253.677 40.1465C253.159 40.1465 252.698 40.0439 252.293 39.8389C251.887 39.6289 251.57 39.3481 251.341 38.9966C251.111 38.6401 250.996 38.2373 250.996 37.7881C250.996 37.3682 251.074 36.9971 251.231 36.6748C251.392 36.3477 251.626 36.0742 251.934 35.8545C252.246 35.6348 252.627 35.4688 253.076 35.3564C253.526 35.2393 254.038 35.1807 254.614 35.1807H255.999ZM261.411 33.7671V40H259.646V32.0752H261.308L261.411 33.7671ZM261.096 35.7446L260.525 35.7373C260.53 35.1758 260.608 34.6606 260.759 34.1919C260.915 33.7231 261.13 33.3203 261.404 32.9834C261.682 32.6465 262.014 32.3877 262.4 32.207C262.786 32.0215 263.215 31.9287 263.689 31.9287C264.07 31.9287 264.414 31.9824 264.722 32.0898C265.034 32.1924 265.3 32.3608 265.52 32.5952C265.745 32.8296 265.915 33.1348 266.033 33.5107C266.15 33.8818 266.208 34.3384 266.208 34.8804V40H264.436V34.873C264.436 34.4922 264.38 34.1919 264.267 33.9722C264.16 33.7476 264.001 33.5889 263.791 33.4961C263.586 33.3984 263.33 33.3496 263.022 33.3496C262.72 33.3496 262.449 33.4131 262.209 33.54C261.97 33.667 261.767 33.8403 261.601 34.0601C261.44 34.2798 261.316 34.5337 261.228 34.8218C261.14 35.1099 261.096 35.4175 261.096 35.7446ZM272.778 38.4106V34.6313C272.778 34.3481 272.727 34.104 272.624 33.8989C272.522 33.6938 272.365 33.5352 272.155 33.4229C271.95 33.3105 271.692 33.2544 271.379 33.2544C271.091 33.2544 270.842 33.3032 270.632 33.4009C270.422 33.4985 270.258 33.6304 270.141 33.7964C270.024 33.9624 269.965 34.1504 269.965 34.3604H268.208C268.208 34.0479 268.283 33.7451 268.435 33.4521C268.586 33.1592 268.806 32.8979 269.094 32.6685C269.382 32.439 269.726 32.2583 270.127 32.1265C270.527 31.9946 270.976 31.9287 271.474 31.9287C272.07 31.9287 272.597 32.0288 273.056 32.229C273.52 32.4292 273.884 32.7319 274.148 33.1372C274.416 33.5376 274.55 34.0405 274.55 34.646V38.1689C274.55 38.5303 274.575 38.855 274.624 39.1431C274.677 39.4263 274.753 39.6729 274.851 39.8828V40H273.042C272.959 39.8096 272.893 39.5679 272.844 39.2749C272.8 38.9771 272.778 38.689 272.778 38.4106ZM273.034 35.1807L273.049 36.272H271.782C271.455 36.272 271.167 36.3037 270.918 36.3672C270.669 36.4258 270.461 36.5137 270.295 36.6309C270.129 36.748 270.004 36.8896 269.921 37.0557C269.838 37.2217 269.797 37.4097 269.797 37.6196C269.797 37.8296 269.846 38.0225 269.943 38.1982C270.041 38.3691 270.183 38.5034 270.368 38.6011C270.559 38.6987 270.788 38.7476 271.057 38.7476C271.418 38.7476 271.733 38.6743 272.002 38.5278C272.275 38.3765 272.49 38.1934 272.646 37.9785C272.802 37.7588 272.885 37.5513 272.895 37.356L273.466 38.1396C273.408 38.3398 273.308 38.5547 273.166 38.7842C273.025 39.0137 272.839 39.2334 272.609 39.4434C272.385 39.6484 272.114 39.8169 271.796 39.9487C271.484 40.0806 271.123 40.1465 270.712 40.1465C270.195 40.1465 269.733 40.0439 269.328 39.8389C268.923 39.6289 268.606 39.3481 268.376 38.9966C268.147 38.6401 268.032 38.2373 268.032 37.7881C268.032 37.3682 268.11 36.9971 268.266 36.6748C268.427 36.3477 268.662 36.0742 268.969 35.8545C269.282 35.6348 269.663 35.4688 270.112 35.3564C270.561 35.2393 271.074 35.1807 271.65 35.1807H273.034ZM281.772 32.0752H283.376V39.7803C283.376 40.4932 283.224 41.0986 282.922 41.5967C282.619 42.0947 282.197 42.4731 281.655 42.7319C281.113 42.9956 280.485 43.1274 279.772 43.1274C279.47 43.1274 279.133 43.0835 278.762 42.9956C278.395 42.9077 278.039 42.7661 277.692 42.5708C277.35 42.3804 277.065 42.1289 276.835 41.8164L277.663 40.7764C277.946 41.1133 278.259 41.3599 278.6 41.5161C278.942 41.6724 279.301 41.7505 279.677 41.7505C280.082 41.7505 280.427 41.6748 280.71 41.5234C280.998 41.377 281.22 41.1597 281.376 40.8716C281.533 40.5835 281.611 40.2319 281.611 39.8169V33.8696L281.772 32.0752ZM276.388 36.1255V35.9717C276.388 35.3711 276.462 34.8242 276.608 34.3311C276.755 33.833 276.965 33.4058 277.238 33.0493C277.512 32.688 277.844 32.4121 278.234 32.2217C278.625 32.0264 279.067 31.9287 279.56 31.9287C280.073 31.9287 280.51 32.0215 280.871 32.207C281.237 32.3926 281.542 32.6587 281.786 33.0054C282.031 33.3472 282.221 33.7573 282.358 34.2358C282.499 34.7095 282.604 35.2368 282.673 35.8179V36.3086C282.609 36.875 282.502 37.3926 282.35 37.8613C282.199 38.3301 281.999 38.7354 281.75 39.0771C281.501 39.4189 281.193 39.6826 280.827 39.8682C280.466 40.0537 280.038 40.1465 279.545 40.1465C279.062 40.1465 278.625 40.0464 278.234 39.8462C277.848 39.646 277.516 39.3652 277.238 39.0039C276.965 38.6426 276.755 38.2178 276.608 37.7295C276.462 37.2363 276.388 36.7017 276.388 36.1255ZM278.154 35.9717V36.1255C278.154 36.4868 278.188 36.8237 278.256 37.1362C278.329 37.4487 278.439 37.7246 278.586 37.9639C278.737 38.1982 278.928 38.3838 279.157 38.5205C279.391 38.6523 279.667 38.7183 279.985 38.7183C280.4 38.7183 280.739 38.6304 281.003 38.4546C281.271 38.2788 281.476 38.042 281.618 37.7441C281.764 37.4414 281.867 37.1045 281.926 36.7334V35.4077C281.896 35.1196 281.835 34.8511 281.742 34.6021C281.655 34.353 281.535 34.1357 281.384 33.9502C281.232 33.7598 281.042 33.6133 280.812 33.5107C280.583 33.4033 280.312 33.3496 279.999 33.3496C279.682 33.3496 279.406 33.418 279.172 33.5547C278.937 33.6914 278.744 33.8794 278.593 34.1187C278.447 34.3579 278.337 34.6362 278.263 34.9536C278.19 35.271 278.154 35.6104 278.154 35.9717ZM289 40.1465C288.415 40.1465 287.885 40.0513 287.411 39.8608C286.942 39.6655 286.542 39.3945 286.21 39.0479C285.883 38.7012 285.631 38.2935 285.456 37.8247C285.28 37.356 285.192 36.8506 285.192 36.3086V36.0156C285.192 35.3955 285.282 34.834 285.463 34.3311C285.644 33.8281 285.895 33.3984 286.217 33.042C286.54 32.6807 286.92 32.4048 287.36 32.2144C287.799 32.0239 288.275 31.9287 288.788 31.9287C289.354 31.9287 289.85 32.0239 290.275 32.2144C290.7 32.4048 291.051 32.6733 291.33 33.02C291.613 33.3618 291.823 33.7695 291.959 34.2432C292.101 34.7168 292.172 35.2393 292.172 35.8105V36.5649H286.049V35.2979H290.429V35.1587C290.419 34.8413 290.355 34.5435 290.238 34.2651C290.126 33.9868 289.953 33.7622 289.718 33.5913C289.484 33.4204 289.171 33.335 288.781 33.335C288.488 33.335 288.227 33.3984 287.997 33.5254C287.772 33.6475 287.584 33.8257 287.433 34.0601C287.282 34.2944 287.165 34.5776 287.082 34.9097C287.003 35.2368 286.964 35.6055 286.964 36.0156V36.3086C286.964 36.6553 287.011 36.9775 287.104 37.2754C287.201 37.5684 287.343 37.8247 287.528 38.0444C287.714 38.2642 287.938 38.4375 288.202 38.5645C288.466 38.6865 288.766 38.7476 289.103 38.7476C289.528 38.7476 289.906 38.6621 290.238 38.4912C290.57 38.3203 290.858 38.0786 291.103 37.7661L292.033 38.667C291.862 38.916 291.64 39.1553 291.366 39.3848C291.093 39.6094 290.758 39.7925 290.363 39.9341C289.972 40.0757 289.518 40.1465 289 40.1465ZM295.614 33.6865V40H293.849V32.0752H295.511L295.614 33.6865ZM295.328 35.7446L294.728 35.7373C294.728 35.1904 294.796 34.6851 294.933 34.2212C295.07 33.7573 295.27 33.3545 295.533 33.0127C295.797 32.666 296.124 32.3999 296.515 32.2144C296.91 32.0239 297.367 31.9287 297.884 31.9287C298.246 31.9287 298.575 31.9824 298.873 32.0898C299.176 32.1924 299.437 32.356 299.657 32.5806C299.882 32.8052 300.052 33.0933 300.17 33.4448C300.292 33.7964 300.353 34.2212 300.353 34.7192V40H298.588V34.873C298.588 34.4873 298.529 34.1846 298.412 33.9648C298.3 33.7451 298.136 33.5889 297.921 33.4961C297.711 33.3984 297.46 33.3496 297.167 33.3496C296.835 33.3496 296.551 33.4131 296.317 33.54C296.088 33.667 295.9 33.8403 295.753 34.0601C295.607 34.2798 295.499 34.5337 295.431 34.8218C295.362 35.1099 295.328 35.4175 295.328 35.7446ZM300.243 35.2759L299.415 35.459C299.415 34.9805 299.481 34.5288 299.613 34.104C299.75 33.6743 299.947 33.2983 300.206 32.9761C300.47 32.6489 300.795 32.3926 301.18 32.207C301.566 32.0215 302.008 31.9287 302.506 31.9287C302.911 31.9287 303.273 31.9849 303.59 32.0972C303.912 32.2046 304.186 32.3755 304.41 32.6099C304.635 32.8442 304.806 33.1494 304.923 33.5254C305.04 33.8965 305.099 34.3457 305.099 34.873V40H303.326V34.8657C303.326 34.4653 303.268 34.1553 303.151 33.9355C303.038 33.7158 302.877 33.5645 302.667 33.4814C302.457 33.3936 302.206 33.3496 301.913 33.3496C301.639 33.3496 301.398 33.4009 301.188 33.5034C300.983 33.6011 300.809 33.7402 300.668 33.9209C300.526 34.0967 300.419 34.2993 300.345 34.5288C300.277 34.7583 300.243 35.0073 300.243 35.2759ZM310.709 40.1465C310.123 40.1465 309.593 40.0513 309.12 39.8608C308.651 39.6655 308.25 39.3945 307.918 39.0479C307.591 38.7012 307.34 38.2935 307.164 37.8247C306.988 37.356 306.9 36.8506 306.9 36.3086V36.0156C306.9 35.3955 306.991 34.834 307.171 34.3311C307.352 33.8281 307.603 33.3984 307.926 33.042C308.248 32.6807 308.629 32.4048 309.068 32.2144C309.508 32.0239 309.984 31.9287 310.496 31.9287C311.063 31.9287 311.558 32.0239 311.983 32.2144C312.408 32.4048 312.76 32.6733 313.038 33.02C313.321 33.3618 313.531 33.7695 313.668 34.2432C313.809 34.7168 313.88 35.2393 313.88 35.8105V36.5649H307.757V35.2979H312.137V35.1587C312.127 34.8413 312.064 34.5435 311.947 34.2651C311.834 33.9868 311.661 33.7622 311.427 33.5913C311.192 33.4204 310.88 33.335 310.489 33.335C310.196 33.335 309.935 33.3984 309.705 33.5254C309.481 33.6475 309.293 33.8257 309.142 34.0601C308.99 34.2944 308.873 34.5776 308.79 34.9097C308.712 35.2368 308.673 35.6055 308.673 36.0156V36.3086C308.673 36.6553 308.719 36.9775 308.812 37.2754C308.91 37.5684 309.051 37.8247 309.237 38.0444C309.422 38.2642 309.647 38.4375 309.911 38.5645C310.174 38.6865 310.475 38.7476 310.811 38.7476C311.236 38.7476 311.615 38.6621 311.947 38.4912C312.279 38.3203 312.567 38.0786 312.811 37.7661L313.741 38.667C313.57 38.916 313.348 39.1553 313.075 39.3848C312.801 39.6094 312.467 39.7925 312.071 39.9341C311.681 40.0757 311.226 40.1465 310.709 40.1465ZM317.308 33.7671V40H315.543V32.0752H317.205L317.308 33.7671ZM316.993 35.7446L316.421 35.7373C316.426 35.1758 316.504 34.6606 316.656 34.1919C316.812 33.7231 317.027 33.3203 317.3 32.9834C317.579 32.6465 317.911 32.3877 318.296 32.207C318.682 32.0215 319.112 31.9287 319.586 31.9287C319.966 31.9287 320.311 31.9824 320.618 32.0898C320.931 32.1924 321.197 32.3608 321.417 32.5952C321.641 32.8296 321.812 33.1348 321.929 33.5107C322.046 33.8818 322.105 34.3384 322.105 34.8804V40H320.333V34.873C320.333 34.4922 320.276 34.1919 320.164 33.9722C320.057 33.7476 319.898 33.5889 319.688 33.4961C319.483 33.3984 319.227 33.3496 318.919 33.3496C318.616 33.3496 318.345 33.4131 318.106 33.54C317.867 33.667 317.664 33.8403 317.498 34.0601C317.337 34.2798 317.213 34.5337 317.125 34.8218C317.037 35.1099 316.993 35.4175 316.993 35.7446ZM327.84 32.0752V33.3643H323.372V32.0752H327.84ZM324.661 30.1343H326.426V37.8101C326.426 38.0542 326.46 38.2422 326.529 38.374C326.602 38.501 326.702 38.5864 326.829 38.6304C326.956 38.6743 327.105 38.6963 327.276 38.6963C327.398 38.6963 327.515 38.689 327.627 38.6743C327.74 38.6597 327.83 38.645 327.898 38.6304L327.906 39.978C327.759 40.022 327.588 40.061 327.393 40.0952C327.202 40.1294 326.983 40.1465 326.734 40.1465C326.328 40.1465 325.97 40.0757 325.657 39.9341C325.345 39.7876 325.1 39.5508 324.925 39.2236C324.749 38.8965 324.661 38.4619 324.661 37.9199V30.1343Z" fill="black"/>
<path d="M317 128L331 142L317 156" stroke="black" stroke-width="2.5"/>
<rect x="459" width="110" height="166" rx="1" fill="#8FDE97"/>
<path d="M471.182 22H468.904L468.919 20.5425H471.182C471.841 20.5425 472.393 20.3984 472.837 20.1104C473.287 19.8223 473.624 19.4097 473.848 18.8726C474.078 18.3354 474.192 17.6958 474.192 16.9536V16.375C474.192 15.7988 474.126 15.2886 473.995 14.8442C473.868 14.3999 473.677 14.0264 473.423 13.7236C473.174 13.4209 472.867 13.1914 472.5 13.0352C472.139 12.8789 471.722 12.8008 471.248 12.8008H468.86V11.3359H471.248C471.956 11.3359 472.603 11.4556 473.189 11.6948C473.775 11.9292 474.28 12.2686 474.705 12.7129C475.135 13.1572 475.464 13.6895 475.694 14.3096C475.923 14.9297 476.038 15.623 476.038 16.3896V16.9536C476.038 17.7202 475.923 18.4136 475.694 19.0337C475.464 19.6538 475.135 20.186 474.705 20.6304C474.275 21.0698 473.763 21.4092 473.167 21.6484C472.576 21.8828 471.915 22 471.182 22ZM469.922 11.3359V22H468.084V11.3359H469.922ZM482.476 20.4106V16.6313C482.476 16.3481 482.425 16.104 482.322 15.8989C482.219 15.6938 482.063 15.5352 481.853 15.4229C481.648 15.3105 481.389 15.2544 481.077 15.2544C480.789 15.2544 480.54 15.3032 480.33 15.4009C480.12 15.4985 479.956 15.6304 479.839 15.7964C479.722 15.9624 479.663 16.1504 479.663 16.3604H477.905C477.905 16.0479 477.981 15.7451 478.133 15.4521C478.284 15.1592 478.504 14.8979 478.792 14.6685C479.08 14.439 479.424 14.2583 479.824 14.1265C480.225 13.9946 480.674 13.9287 481.172 13.9287C481.768 13.9287 482.295 14.0288 482.754 14.229C483.218 14.4292 483.582 14.7319 483.845 15.1372C484.114 15.5376 484.248 16.0405 484.248 16.646V20.1689C484.248 20.5303 484.273 20.855 484.321 21.1431C484.375 21.4263 484.451 21.6729 484.549 21.8828V22H482.739C482.656 21.8096 482.591 21.5679 482.542 21.2749C482.498 20.9771 482.476 20.689 482.476 20.4106ZM482.732 17.1807L482.747 18.272H481.48C481.153 18.272 480.864 18.3037 480.615 18.3672C480.366 18.4258 480.159 18.5137 479.993 18.6309C479.827 18.748 479.702 18.8896 479.619 19.0557C479.536 19.2217 479.495 19.4097 479.495 19.6196C479.495 19.8296 479.544 20.0225 479.641 20.1982C479.739 20.3691 479.881 20.5034 480.066 20.6011C480.257 20.6987 480.486 20.7476 480.755 20.7476C481.116 20.7476 481.431 20.6743 481.699 20.5278C481.973 20.3765 482.188 20.1934 482.344 19.9785C482.5 19.7588 482.583 19.5513 482.593 19.356L483.164 20.1396C483.106 20.3398 483.006 20.5547 482.864 20.7842C482.722 21.0137 482.537 21.2334 482.307 21.4434C482.083 21.6484 481.812 21.8169 481.494 21.9487C481.182 22.0806 480.821 22.1465 480.41 22.1465C479.893 22.1465 479.431 22.0439 479.026 21.8389C478.621 21.6289 478.303 21.3481 478.074 20.9966C477.844 20.6401 477.73 20.2373 477.73 19.7881C477.73 19.3682 477.808 18.9971 477.964 18.6748C478.125 18.3477 478.36 18.0742 478.667 17.8545C478.98 17.6348 479.361 17.4688 479.81 17.3564C480.259 17.2393 480.772 17.1807 481.348 17.1807H482.732ZM490.027 14.0752V15.3643H485.559V14.0752H490.027ZM486.848 12.1343H488.613V19.8101C488.613 20.0542 488.647 20.2422 488.716 20.374C488.789 20.501 488.889 20.5864 489.016 20.6304C489.143 20.6743 489.292 20.6963 489.463 20.6963C489.585 20.6963 489.702 20.689 489.814 20.6743C489.927 20.6597 490.017 20.645 490.085 20.6304L490.093 21.978C489.946 22.022 489.775 22.061 489.58 22.0952C489.39 22.1294 489.17 22.1465 488.921 22.1465C488.516 22.1465 488.157 22.0757 487.844 21.9341C487.532 21.7876 487.288 21.5508 487.112 21.2236C486.936 20.8965 486.848 20.4619 486.848 19.9199V12.1343ZM495.183 22.1465C494.597 22.1465 494.067 22.0513 493.593 21.8608C493.125 21.6655 492.724 21.3945 492.392 21.0479C492.065 20.7012 491.814 20.2935 491.638 19.8247C491.462 19.356 491.374 18.8506 491.374 18.3086V18.0156C491.374 17.3955 491.464 16.834 491.645 16.3311C491.826 15.8281 492.077 15.3984 492.4 15.042C492.722 14.6807 493.103 14.4048 493.542 14.2144C493.982 14.0239 494.458 13.9287 494.97 13.9287C495.537 13.9287 496.032 14.0239 496.457 14.2144C496.882 14.4048 497.233 14.6733 497.512 15.02C497.795 15.3618 498.005 15.7695 498.142 16.2432C498.283 16.7168 498.354 17.2393 498.354 17.8105V18.5649H492.231V17.2979H496.611V17.1587C496.601 16.8413 496.538 16.5435 496.421 16.2651C496.308 15.9868 496.135 15.7622 495.9 15.5913C495.666 15.4204 495.354 15.335 494.963 15.335C494.67 15.335 494.409 15.3984 494.179 15.5254C493.955 15.6475 493.767 15.8257 493.615 16.0601C493.464 16.2944 493.347 16.5776 493.264 16.9097C493.186 17.2368 493.147 17.6055 493.147 18.0156V18.3086C493.147 18.6553 493.193 18.9775 493.286 19.2754C493.383 19.5684 493.525 19.8247 493.711 20.0444C493.896 20.2642 494.121 20.4375 494.384 20.5645C494.648 20.6865 494.948 20.7476 495.285 20.7476C495.71 20.7476 496.088 20.6621 496.421 20.4912C496.753 20.3203 497.041 20.0786 497.285 19.7661L498.215 20.667C498.044 20.916 497.822 21.1553 497.548 21.3848C497.275 21.6094 496.941 21.7925 496.545 21.9341C496.154 22.0757 495.7 22.1465 495.183 22.1465ZM501.782 15.7671V22H500.016V14.0752H501.679L501.782 15.7671ZM501.467 17.7446L500.895 17.7373C500.9 17.1758 500.978 16.6606 501.13 16.1919C501.286 15.7231 501.501 15.3203 501.774 14.9834C502.053 14.6465 502.385 14.3877 502.77 14.207C503.156 14.0215 503.586 13.9287 504.059 13.9287C504.44 13.9287 504.784 13.9824 505.092 14.0898C505.405 14.1924 505.671 14.3608 505.89 14.5952C506.115 14.8296 506.286 15.1348 506.403 15.5107C506.52 15.8818 506.579 16.3384 506.579 16.8804V22H504.806V16.873C504.806 16.4922 504.75 16.1919 504.638 15.9722C504.531 15.7476 504.372 15.5889 504.162 15.4961C503.957 15.3984 503.7 15.3496 503.393 15.3496C503.09 15.3496 502.819 15.4131 502.58 15.54C502.341 15.667 502.138 15.8403 501.972 16.0601C501.811 16.2798 501.686 16.5337 501.598 16.8218C501.511 17.1099 501.467 17.4175 501.467 17.7446ZM512.233 16.7412V18.1475H508.358V16.7412H512.233ZM469.659 33.7671V40H467.894V32.0752H469.556L469.659 33.7671ZM469.344 35.7446L468.772 35.7373C468.777 35.1758 468.855 34.6606 469.007 34.1919C469.163 33.7231 469.378 33.3203 469.651 32.9834C469.93 32.6465 470.262 32.3877 470.647 32.207C471.033 32.0215 471.463 31.9287 471.937 31.9287C472.317 31.9287 472.662 31.9824 472.969 32.0898C473.282 32.1924 473.548 32.3608 473.768 32.5952C473.992 32.8296 474.163 33.1348 474.28 33.5107C474.397 33.8818 474.456 34.3384 474.456 34.8804V40H472.684V34.873C472.684 34.4922 472.627 34.1919 472.515 33.9722C472.408 33.7476 472.249 33.5889 472.039 33.4961C471.834 33.3984 471.578 33.3496 471.27 33.3496C470.967 33.3496 470.696 33.4131 470.457 33.54C470.218 33.667 470.015 33.8403 469.849 34.0601C469.688 34.2798 469.563 34.5337 469.476 34.8218C469.388 35.1099 469.344 35.4175 469.344 35.7446ZM481.326 38.1323V32.0752H483.098V40H481.428L481.326 38.1323ZM481.575 36.4844L482.168 36.4697C482.168 37.002 482.11 37.4927 481.992 37.9419C481.875 38.3862 481.695 38.7744 481.45 39.1064C481.206 39.4336 480.894 39.6899 480.513 39.8755C480.132 40.0562 479.675 40.1465 479.143 40.1465C478.758 40.1465 478.404 40.0903 478.081 39.978C477.759 39.8657 477.481 39.6924 477.246 39.458C477.017 39.2236 476.839 38.9185 476.712 38.5425C476.585 38.1665 476.521 37.7173 476.521 37.1948V32.0752H478.286V37.2095C478.286 37.4976 478.321 37.7393 478.389 37.9346C478.457 38.125 478.55 38.2788 478.667 38.396C478.784 38.5132 478.921 38.5962 479.077 38.645C479.234 38.6938 479.4 38.7183 479.575 38.7183C480.078 38.7183 480.474 38.6206 480.762 38.4253C481.055 38.2251 481.262 37.9565 481.384 37.6196C481.511 37.2827 481.575 36.9043 481.575 36.4844ZM488.84 32.0752V33.3643H484.372V32.0752H488.84ZM485.662 30.1343H487.427V37.8101C487.427 38.0542 487.461 38.2422 487.529 38.374C487.602 38.501 487.703 38.5864 487.829 38.6304C487.956 38.6743 488.105 38.6963 488.276 38.6963C488.398 38.6963 488.516 38.689 488.628 38.6743C488.74 38.6597 488.83 38.645 488.899 38.6304L488.906 39.978C488.76 40.022 488.589 40.061 488.393 40.0952C488.203 40.1294 487.983 40.1465 487.734 40.1465C487.329 40.1465 486.97 40.0757 486.658 39.9341C486.345 39.7876 486.101 39.5508 485.925 39.2236C485.749 38.8965 485.662 38.4619 485.662 37.9199V30.1343ZM496.633 38.5938V40H490.73V38.5938H496.633ZM496.472 33.1738L491.33 40H490.188V38.8647L495.3 32.0752H496.472V33.1738ZM495.791 32.0752V33.4814H490.275V32.0752H495.791ZM503.115 38.1323V32.0752H504.887V40H503.217L503.115 38.1323ZM503.364 36.4844L503.957 36.4697C503.957 37.002 503.898 37.4927 503.781 37.9419C503.664 38.3862 503.483 38.7744 503.239 39.1064C502.995 39.4336 502.682 39.6899 502.302 39.8755C501.921 40.0562 501.464 40.1465 500.932 40.1465C500.546 40.1465 500.192 40.0903 499.87 39.978C499.548 39.8657 499.269 39.6924 499.035 39.458C498.805 39.2236 498.627 38.9185 498.5 38.5425C498.373 38.1665 498.31 37.7173 498.31 37.1948V32.0752H500.075V37.2095C500.075 37.4976 500.109 37.7393 500.178 37.9346C500.246 38.125 500.339 38.2788 500.456 38.396C500.573 38.5132 500.71 38.5962 500.866 38.645C501.022 38.6938 501.188 38.7183 501.364 38.7183C501.867 38.7183 502.263 38.6206 502.551 38.4253C502.844 38.2251 503.051 37.9565 503.173 37.6196C503.3 37.2827 503.364 36.9043 503.364 36.4844ZM508.747 33.7671V40H506.981V32.0752H508.644L508.747 33.7671ZM508.432 35.7446L507.86 35.7373C507.865 35.1758 507.943 34.6606 508.095 34.1919C508.251 33.7231 508.466 33.3203 508.739 32.9834C509.018 32.6465 509.35 32.3877 509.735 32.207C510.121 32.0215 510.551 31.9287 511.024 31.9287C511.405 31.9287 511.75 31.9824 512.057 32.0898C512.37 32.1924 512.636 32.3608 512.855 32.5952C513.08 32.8296 513.251 33.1348 513.368 33.5107C513.485 33.8818 513.544 34.3384 513.544 34.8804V40H511.771V34.873C511.771 34.4922 511.715 34.1919 511.603 33.9722C511.496 33.7476 511.337 33.5889 511.127 33.4961C510.922 33.3984 510.666 33.3496 510.358 33.3496C510.055 33.3496 509.784 33.4131 509.545 33.54C509.306 33.667 509.103 33.8403 508.937 34.0601C508.776 34.2798 508.651 34.5337 508.563 34.8218C508.476 35.1099 508.432 35.4175 508.432 35.7446ZM520.721 32.0752H522.325V39.7803C522.325 40.4932 522.174 41.0986 521.871 41.5967C521.569 42.0947 521.146 42.4731 520.604 42.7319C520.062 42.9956 519.435 43.1274 518.722 43.1274C518.419 43.1274 518.082 43.0835 517.711 42.9956C517.345 42.9077 516.988 42.7661 516.642 42.5708C516.3 42.3804 516.014 42.1289 515.785 41.8164L516.612 40.7764C516.896 41.1133 517.208 41.3599 517.55 41.5161C517.892 41.6724 518.251 41.7505 518.627 41.7505C519.032 41.7505 519.376 41.6748 519.659 41.5234C519.947 41.377 520.17 41.1597 520.326 40.8716C520.482 40.5835 520.56 40.2319 520.56 39.8169V33.8696L520.721 32.0752ZM515.338 36.1255V35.9717C515.338 35.3711 515.411 34.8242 515.558 34.3311C515.704 33.833 515.914 33.4058 516.188 33.0493C516.461 32.688 516.793 32.4121 517.184 32.2217C517.574 32.0264 518.016 31.9287 518.509 31.9287C519.022 31.9287 519.459 32.0215 519.821 32.207C520.187 32.3926 520.492 32.6587 520.736 33.0054C520.98 33.3472 521.171 33.7573 521.307 34.2358C521.449 34.7095 521.554 35.2368 521.622 35.8179V36.3086C521.559 36.875 521.451 37.3926 521.3 37.8613C521.149 38.3301 520.948 38.7354 520.699 39.0771C520.45 39.4189 520.143 39.6826 519.777 39.8682C519.415 40.0537 518.988 40.1465 518.495 40.1465C518.011 40.1465 517.574 40.0464 517.184 39.8462C516.798 39.646 516.466 39.3652 516.188 39.0039C515.914 38.6426 515.704 38.2178 515.558 37.7295C515.411 37.2363 515.338 36.7017 515.338 36.1255ZM517.103 35.9717V36.1255C517.103 36.4868 517.137 36.8237 517.206 37.1362C517.279 37.4487 517.389 37.7246 517.535 37.9639C517.687 38.1982 517.877 38.3838 518.107 38.5205C518.341 38.6523 518.617 38.7183 518.934 38.7183C519.349 38.7183 519.689 38.6304 519.952 38.4546C520.221 38.2788 520.426 38.042 520.568 37.7441C520.714 37.4414 520.817 37.1045 520.875 36.7334V35.4077C520.846 35.1196 520.785 34.8511 520.692 34.6021C520.604 34.353 520.485 34.1357 520.333 33.9502C520.182 33.7598 519.991 33.6133 519.762 33.5107C519.532 33.4033 519.261 33.3496 518.949 33.3496C518.632 33.3496 518.356 33.418 518.121 33.5547C517.887 33.6914 517.694 33.8794 517.543 34.1187C517.396 34.3579 517.286 34.6362 517.213 34.9536C517.14 35.271 517.103 35.6104 517.103 35.9717Z" fill="black"/>
<path d="M547 128L561 142L547 156" stroke="black" stroke-width="2.5"/>
</svg>
