<?xml version="1.0" standalone="no"?>
<!DOCTYPE svg PUBLIC "-//W3C//DTD SVG 20010904//EN"
 "http://www.w3.org/TR/2001/REC-SVG-20010904/DTD/svg10.dtd">
<svg version="1.0" xmlns="http://www.w3.org/2000/svg"
 width="1343.000000pt" height="1343.000000pt" viewBox="0 0 1343.000000 1343.000000"
 preserveAspectRatio="xMidYMid meet">
<metadata>
Created by potrace 1.14, written by Peter Selinger 2001-2017
</metadata>
<g transform="translate(0.000000,1343.000000) scale(0.100000,-0.100000)"
fill="#000000" stroke="none">
<path d="M6512 10047 l-223 -223 221 -219 c121 -121 222 -222 225 -224 6 -5
449 438 444 444 -11 11 -335 338 -386 387 l-58 58 -223 -223z"/>
<path d="M7351 9905 l-2 -55 30 0 c31 0 61 33 42 44 -5 3 -7 15 -4 25 5 20
-10 34 -43 38 -18 3 -21 -2 -23 -52z m52 19 c-5 -14 -25 -19 -36 -8 -12 12 5
32 23 27 11 -3 16 -11 13 -19z m2 -44 c0 -8 -10 -16 -22 -18 -17 -3 -20 1 -16
18 6 24 38 24 38 0z"/>
<path d="M7784 9908 c2 -52 3 -53 31 -53 28 0 30 3 30 35 0 29 -4 36 -22 38
-13 2 -23 10 -23 18 0 8 -4 14 -9 14 -4 0 -7 -24 -7 -52z m50 -3 c8 -21 -3
-45 -20 -45 -9 0 -14 11 -14 30 0 32 23 42 34 15z"/>
<path d="M7879 9953 c-3 -31 0 -95 5 -100 3 -4 6 19 6 50 0 32 -2 57 -5 57 -3
0 -5 -3 -6 -7z"/>
<path d="M8051 9906 c0 -33 2 -56 7 -52 4 4 7 20 7 34 0 41 29 35 35 -8 5 -33
6 -34 11 -8 7 33 -6 58 -31 58 -10 0 -21 8 -23 18 -3 9 -5 -10 -6 -42z"/>
<path d="M7541 9937 c-6 -8 -8 -17 -4 -21 4 -4 7 -19 8 -33 0 -14 6 -28 14
-31 10 -3 11 0 3 14 -6 11 -7 27 -1 41 5 15 5 23 -2 23 -6 0 -7 5 -4 10 9 15
-1 12 -14 -3z"/>
<path d="M7462 9921 c-8 -4 -12 -21 -10 -37 2 -23 9 -30 31 -32 15 -2 27 1 27
6 0 6 -8 8 -19 5 -10 -3 -22 0 -25 6 -7 11 6 15 32 12 19 -3 11 43 -8 46 -8 2
-21 -1 -28 -6z m32 -10 c3 -5 -1 -11 -9 -15 -15 -6 -29 7 -18 18 9 9 21 8 27
-3z"/>
<path d="M7599 9925 c-6 -2 -3 -75 3 -75 4 0 8 13 8 30 0 17 7 33 18 39 15 9
14 10 -5 8 -13 -1 -23 -1 -24 -2z"/>
<path d="M7660 9930 c-8 -15 -7 -81 2 -72 5 5 8 25 5 43 -2 19 -5 32 -7 29z"/>
<path d="M7700 9910 c-8 -14 -8 -26 0 -40 11 -20 44 -27 54 -12 3 5 -4 8 -16
8 -12 -1 -23 4 -25 11 -3 7 5 10 21 9 27 -3 30 1 20 28 -9 22 -41 20 -54 -4z
m45 0 c3 -5 -3 -10 -15 -10 -12 0 -18 5 -15 10 3 6 10 10 15 10 5 0 12 -4 15
-10z"/>
<path d="M7920 9892 c0 -23 3 -42 8 -42 9 0 9 66 0 76 -5 4 -8 -11 -8 -34z"/>
<path d="M7973 9923 c-14 -5 -17 -31 -7 -57 7 -18 32 -21 54 -5 12 8 9 9 -11
5 -29 -6 -43 11 -33 39 7 18 16 19 33 3 11 -11 13 -10 9 2 -5 16 -25 22 -45
13z"/>
<path d="M8146 9915 c-9 -25 -7 -50 5 -62 11 -11 49 -6 49 7 0 5 -8 6 -19 3
-10 -3 -22 0 -25 6 -4 6 -2 12 3 12 6 1 17 2 24 3 6 0 12 10 12 21 0 25 -40
33 -49 10z m38 -4 c3 -5 -1 -11 -9 -15 -15 -6 -29 7 -18 18 9 9 21 8 27 -3z"/>
<path d="M8228 9905 c-3 -12 -1 -30 3 -41 6 -16 8 -14 8 10 1 16 9 35 19 42
16 12 15 13 -5 11 -13 -1 -23 -9 -25 -22z"/>
<path d="M7351 9702 c-1 -36 1 -52 8 -47 6 3 11 15 11 25 0 14 6 18 20 15 11
-2 18 0 15 6 -4 5 -15 9 -26 9 -16 0 -18 3 -9 20 6 10 17 17 24 14 8 -3 17 -1
20 4 3 5 -9 9 -28 9 -33 -1 -33 -1 -35 -55z"/>
<path d="M7530 9705 c0 -30 4 -55 10 -55 5 0 7 7 4 15 -4 8 -2 15 4 15 5 0 15
-7 22 -15 7 -8 17 -15 22 -15 5 0 2 7 -6 16 -19 19 -20 36 -4 52 8 8 8 12 1
12 -6 0 -13 -7 -17 -15 -10 -26 -22 -16 -20 15 1 17 -2 30 -7 30 -5 0 -9 -25
-9 -55z"/>
<path d="M7454 9722 c-30 -20 -18 -72 16 -72 27 0 44 34 30 60 -11 21 -27 25
-46 12z m31 -32 c0 -13 -6 -25 -12 -27 -16 -6 -27 21 -19 43 9 23 31 11 31
-16z"/>
<path d="M7616 9703 c1 -16 2 -34 3 -40 0 -7 14 -13 31 -13 28 0 30 3 30 35 0
19 -4 35 -10 35 -5 0 -8 -12 -7 -27 1 -19 -3 -29 -15 -31 -15 -3 -18 4 -18 32
0 20 -4 36 -8 36 -4 0 -7 -12 -6 -27z"/>
<path d="M7717 9723 c-13 -13 -7 -32 13 -38 30 -10 25 -28 -6 -21 -17 5 -23 3
-19 -4 10 -16 52 -12 59 5 4 10 -3 20 -19 27 -30 14 -33 32 -4 23 15 -5 19 -4
15 4 -8 12 -29 15 -39 4z"/>
<path d="M6802 9084 c-29 -18 -56 -34 -61 -34 -5 0 -14 -7 -21 -15 -7 -9 -15
-13 -18 -10 -3 3 -12 -1 -21 -9 -9 -7 -41 -27 -71 -43 -108 -58 -98 -35 -96
-217 1 -89 0 -166 -2 -173 -2 -8 -25 1 -65 26 -34 21 -88 52 -120 70 l-58 31
-87 -51 c-48 -29 -111 -65 -140 -80 -28 -16 -69 -40 -90 -53 l-39 -24 2 -192
c1 -161 -2 -196 -15 -210 -8 -9 -141 -89 -295 -178 -154 -88 -338 -194 -409
-235 l-129 -74 -78 46 c-60 36 -78 51 -79 69 0 28 -40 48 -54 27 -8 -10 -19
-7 -55 12 -25 14 -50 29 -55 34 -17 16 -25 10 -48 -38 -64 -132 -112 -213
-124 -213 -8 0 -14 -4 -14 -10 0 -5 -7 -10 -15 -10 -8 0 -15 -4 -15 -9 0 -5
-9 -13 -21 -16 -15 -5 -18 -10 -10 -18 6 -6 11 -49 11 -103 l0 -92 -191 -111
c-105 -61 -193 -111 -197 -111 -3 0 -13 -6 -21 -14 -9 -7 -38 -26 -66 -41 -27
-15 -105 -59 -173 -99 -67 -39 -133 -77 -145 -83 -79 -42 -520 -302 -542 -319
-32 -27 -37 -77 -9 -104 10 -10 46 -34 79 -53 33 -19 100 -57 149 -85 49 -29
93 -52 97 -52 5 0 9 -4 9 -10 0 -5 4 -10 9 -10 6 0 60 -29 121 -65 61 -36 132
-77 158 -91 26 -15 146 -84 267 -154 121 -70 236 -137 255 -148 59 -33 353
-204 385 -223 17 -10 39 -23 51 -28 12 -5 46 -26 77 -45 31 -20 59 -36 62 -36
3 0 38 -20 78 -44 39 -24 88 -53 107 -63 19 -11 181 -104 360 -208 179 -103
345 -199 370 -213 25 -14 59 -34 75 -44 17 -10 37 -21 45 -25 8 -4 73 -41 146
-84 72 -42 151 -88 175 -102 150 -84 248 -141 272 -158 15 -11 32 -17 37 -14
6 3 10 1 10 -5 0 -20 93 -51 155 -52 75 -1 92 7 301 128 93 54 182 105 197
113 16 9 36 21 46 26 58 35 217 126 501 290 179 103 336 194 350 203 14 9 27
17 30 17 3 0 48 26 100 56 131 78 289 169 325 188 17 9 32 19 33 24 2 4 7 7
12 7 5 0 48 23 97 51 48 29 108 63 133 77 25 13 50 28 55 32 6 5 33 21 61 37
28 15 116 66 197 113 183 106 168 97 257 148 41 23 93 53 115 67 22 13 51 30
65 38 31 17 53 30 265 152 298 172 401 233 412 247 6 7 15 26 18 41 6 23 2 33
-27 60 -20 17 -57 44 -84 58 -27 14 -94 52 -149 84 -55 32 -260 150 -455 263
-195 112 -359 208 -364 212 -9 9 -11 787 -2 817 4 14 -8 26 -57 54 -34 20
-102 60 -152 89 -49 29 -106 62 -125 73 -19 10 -64 36 -100 57 -36 21 -81 47
-100 58 -19 11 -75 43 -123 71 -49 28 -91 51 -93 51 -3 0 -49 -25 -102 -56
-120 -70 -211 -122 -237 -135 -19 -9 -20 -19 -18 -224 l2 -215 -27 14 c-71 37
-447 258 -452 265 -8 13 -5 606 4 619 7 12 -16 29 -164 114 -93 54 -129 75
-434 252 -81 47 -153 86 -160 85 -6 0 -35 -16 -64 -35z"/>
<path d="M10910 6460 l0 -380 280 0 280 0 0 380 0 380 -280 0 -280 0 0 -380z"/>
<path d="M1983 6803 c4 -8 132 -269 312 -640 44 -90 82 -163 85 -163 3 0 42
75 87 168 132 272 305 626 310 635 2 4 -176 7 -397 7 -221 0 -399 -3 -397 -7z"/>
<path d="M1190 6590 c-1 -14 -3 -37 -4 -52 -2 -15 1 -33 5 -40 6 -8 9 -2 9 19
0 17 5 35 11 39 15 9 29 -16 24 -43 -2 -13 1 -23 6 -23 6 0 9 17 7 38 -2 29
-7 37 -23 37 -13 0 -22 9 -26 25 l-7 25 -2 -25z"/>
<path d="M920 6590 c0 -5 7 -7 15 -4 12 5 15 -4 15 -45 0 -28 4 -51 8 -51 5 0
8 17 7 38 0 20 2 44 7 53 6 13 1 16 -22 17 -17 0 -30 -3 -30 -8z"/>
<path d="M1581 6545 c1 -30 5 -55 9 -55 4 0 7 10 7 23 1 41 3 47 18 47 10 0
15 -11 15 -35 0 -19 4 -35 8 -35 5 0 8 17 7 38 0 33 -4 37 -29 40 -19 2 -26 8
-22 18 3 8 1 14 -4 14 -6 0 -9 -25 -9 -55z"/>
<path d="M11702 6545 c2 -30 6 -55 11 -55 4 0 7 8 5 17 -4 25 29 28 37 4 3
-12 11 -21 16 -21 6 0 5 9 -2 21 -7 14 -8 24 -1 31 6 6 8 18 4 27 -9 26 -42
42 -42 21 0 -5 7 -10 16 -10 9 0 14 -7 12 -17 -2 -10 -12 -18 -23 -18 -16 0
-20 6 -18 28 1 15 -2 27 -8 27 -5 0 -8 -25 -7 -55z"/>
<path d="M11970 6590 c0 -5 5 -10 10 -10 6 0 10 5 10 10 0 6 -4 10 -10 10 -5
0 -10 -4 -10 -10z"/>
<path d="M12120 6546 c0 -31 4 -55 8 -52 10 6 9 92 -1 102 -4 4 -7 -18 -7 -50z"/>
<path d="M12294 6546 c0 -30 3 -53 8 -50 4 3 8 16 8 29 0 22 16 42 25 33 3 -2
5 -18 7 -36 1 -18 6 -32 10 -32 4 0 6 17 4 38 -2 31 -6 37 -24 36 -15 0 -22 5
-22 18 0 10 -4 18 -8 18 -4 0 -8 -25 -8 -54z"/>
<path d="M12062 6573 c-8 -8 -9 -13 -2 -13 5 0 10 -16 10 -35 0 -26 4 -35 17
-35 13 0 14 3 5 12 -14 14 -16 55 -3 60 5 2 4 8 -3 14 -8 8 -15 7 -24 -3z"/>
<path d="M1020 6550 c-16 -30 -3 -60 26 -60 13 0 24 4 24 9 0 5 -8 7 -19 4
-11 -3 -21 2 -25 12 -3 9 -2 13 3 10 5 -3 12 -1 16 5 3 5 1 10 -5 10 -6 0 -8
5 -5 10 11 18 25 11 25 -12 0 -15 3 -19 10 -12 15 15 1 44 -21 44 -10 0 -23
-9 -29 -20z"/>
<path d="M1112 6561 c-8 -4 -12 -21 -10 -37 2 -23 8 -29 27 -29 13 0 27 7 29
15 4 13 3 13 -11 2 -19 -16 -37 -8 -37 18 0 26 18 34 37 18 14 -11 15 -11 11
2 -6 18 -28 23 -46 11z"/>
<path d="M1277 6563 c-6 -5 2 -65 8 -71 3 -3 5 9 5 26 0 17 5 34 11 38 15 9
29 -16 24 -43 -2 -13 1 -23 6 -23 6 0 9 17 7 38 -3 33 -6 37 -30 38 -15 1 -29
-1 -31 -3z"/>
<path d="M1370 6528 c0 -26 4 -38 8 -30 8 12 4 72 -4 72 -2 0 -4 -19 -4 -42z"/>
<path d="M1416 6555 c-3 -9 4 -20 21 -28 17 -10 22 -16 14 -21 -7 -4 -19 -2
-28 6 -14 11 -15 11 -11 -2 2 -8 15 -15 29 -15 30 0 38 31 10 40 -12 3 -21 11
-21 16 0 6 9 7 21 4 15 -5 19 -4 15 4 -10 16 -43 13 -50 -4z"/>
<path d="M1503 6558 c-11 -18 -11 -30 -1 -50 9 -19 43 -24 53 -8 4 6 -3 9 -17
7 -15 -1 -23 4 -26 17 -5 22 18 48 25 29 3 -7 9 -13 14 -13 4 0 6 7 3 15 -7
18 -40 20 -51 3z"/>
<path d="M1680 6555 c-18 -21 -4 -65 20 -65 10 0 21 4 24 8 3 5 -3 8 -12 8 -9
-1 -18 4 -19 9 -2 6 5 10 15 10 23 -1 33 16 20 32 -14 17 -33 16 -48 -2z m35
-5 c3 -5 -3 -10 -15 -10 -12 0 -18 5 -15 10 3 6 10 10 15 10 5 0 12 -4 15 -10z"/>
<path d="M1760 6525 c0 -27 3 -36 9 -26 5 8 7 20 4 28 -3 8 3 20 13 28 18 13
18 14 -3 12 -20 -1 -23 -7 -23 -42z"/>
<path d="M11804 6556 c-16 -41 20 -86 47 -59 6 6 2 9 -10 9 -11 -1 -19 4 -18
9 1 6 9 10 17 10 8 0 15 9 15 20 0 25 -42 34 -51 11z m41 -6 c3 -5 -3 -10 -15
-10 -12 0 -18 5 -15 10 3 6 10 10 15 10 5 0 12 -4 15 -10z"/>
<path d="M11893 6558 c-11 -18 -11 -30 0 -51 10 -21 48 -19 55 3 5 13 3 13
-11 2 -19 -16 -37 -8 -37 18 0 25 17 35 35 20 9 -7 15 -8 15 -2 0 21 -45 28
-57 10z"/>
<path d="M11972 6534 c1 -19 6 -38 11 -41 5 -3 7 10 5 28 -2 26 1 34 15 37 14
3 17 -4 17 -32 0 -20 4 -36 8 -36 5 0 8 12 6 28 -1 15 -2 33 -3 40 -1 7 -14
12 -31 12 -29 0 -30 -2 -28 -36z"/>
<path d="M12165 6530 c0 -22 3 -40 8 -40 4 0 7 18 7 40 0 22 -4 40 -8 40 -4 0
-8 -18 -7 -40z"/>
<path d="M12212 6553 c-15 -28 3 -65 30 -61 12 2 24 10 26 18 5 13 3 13 -11 2
-19 -16 -37 -8 -37 18 0 26 18 34 37 18 14 -11 16 -11 11 2 -7 22 -45 24 -56
3z"/>
<path d="M12392 6558 c-7 -7 -12 -22 -12 -35 0 -27 44 -43 63 -24 9 10 6 11
-14 6 -19 -5 -28 -2 -33 10 -4 11 -1 16 12 14 33 -3 40 1 35 21 -6 22 -33 26
-51 8z m38 -8 c0 -5 -9 -10 -21 -10 -11 0 -17 5 -14 10 3 6 13 10 21 10 8 0
14 -4 14 -10z"/>
<path d="M12470 6527 c0 -21 4 -36 9 -33 5 4 8 14 6 24 -1 9 4 25 12 34 14 15
13 17 -6 15 -17 -1 -21 -8 -21 -40z"/>
<path d="M1380 6344 c0 -32 4 -53 9 -49 6 3 8 15 6 26 -3 17 0 20 15 16 11 -3
22 -1 25 3 3 5 -5 10 -17 12 -17 2 -22 9 -21 26 2 12 -2 22 -7 22 -6 0 -10
-25 -10 -56z"/>
<path d="M1410 6392 c0 -5 7 -9 15 -9 8 0 15 4 15 9 0 4 -7 8 -15 8 -8 0 -15
-4 -15 -8z"/>
<path d="M1560 6348 c0 -32 4 -58 10 -58 5 0 7 7 4 15 -8 20 5 19 28 -2 10 -9
18 -11 18 -6 0 6 -7 16 -15 23 -14 12 -14 15 1 31 22 24 7 25 -19 2 -19 -17
-20 -17 -15 3 3 12 2 28 -3 35 -5 9 -9 -7 -9 -43z"/>
<path d="M11705 6391 c-8 -15 -3 -101 7 -95 4 3 8 14 8 24 0 11 9 20 23 23 19
4 19 4 -5 6 -23 1 -26 5 -22 26 4 25 0 32 -11 16z"/>
<path d="M11730 6390 c0 -4 7 -7 15 -6 23 3 26 12 5 13 -11 1 -20 -2 -20 -7z"/>
<path d="M11882 6345 c2 -30 6 -55 11 -55 4 0 7 9 7 21 0 21 0 21 20 -2 22
-27 27 -19 8 11 -11 17 -10 22 2 30 8 5 11 13 6 17 -4 4 -13 0 -20 -9 -16 -22
-26 -14 -20 18 2 13 0 24 -6 24 -6 0 -9 -22 -8 -55z"/>
<path d="M1468 6345 c-13 -28 3 -55 32 -55 22 0 41 41 28 63 -14 25 -47 21
-60 -8z m50 -9 c6 -27 -14 -42 -32 -27 -12 10 -13 18 -5 33 12 22 32 19 37 -6z"/>
<path d="M1645 6360 c-4 -6 -3 -24 0 -41 6 -25 11 -30 33 -27 22 3 27 8 28 36
1 18 -3 35 -7 38 -5 3 -9 -11 -9 -30 0 -25 -4 -36 -15 -36 -14 0 -20 24 -16
58 2 15 -5 16 -14 2z"/>
<path d="M1736 6355 c-4 -10 3 -19 19 -27 14 -6 25 -15 25 -20 0 -12 -24 -10
-39 5 -11 10 -13 9 -9 -3 6 -21 42 -24 57 -6 11 13 9 17 -13 26 -14 5 -26 14
-26 20 0 14 13 13 29 -2 11 -11 13 -10 9 2 -6 21 -44 25 -52 5z"/>
<path d="M11791 6348 c-11 -29 4 -58 29 -58 30 0 44 30 28 63 -12 24 -47 21
-57 -5z m44 -18 c0 -13 -6 -25 -12 -27 -16 -6 -27 21 -19 43 9 23 31 11 31
-16z"/>
<path d="M11969 6365 c-3 -5 -4 -16 -3 -22 1 -7 2 -22 3 -33 1 -15 8 -20 31
-20 28 0 30 2 30 40 0 22 -4 40 -9 40 -6 0 -8 -9 -6 -20 5 -28 -4 -50 -20 -50
-9 0 -15 14 -17 38 -2 20 -6 33 -9 27z"/>
<path d="M12060 6351 c0 -10 9 -21 20 -24 22 -6 28 -27 7 -27 -7 0 -19 6 -26
13 -10 10 -11 9 -6 -5 8 -21 51 -24 58 -4 6 16 -11 36 -30 36 -7 0 -13 5 -13
11 0 6 9 9 20 6 11 -3 20 -1 20 4 0 5 -11 9 -25 9 -18 0 -25 -5 -25 -19z"/>
<path d="M6665 3979 c-185 -45 -308 -216 -292 -403 12 -131 95 -250 217 -309
59 -28 74 -31 160 -31 102 0 139 11 215 62 190 130 219 402 59 572 -87 93
-239 139 -359 109z"/>
<path d="M7373 3758 c3 -9 -1 -19 -9 -22 -17 -7 -19 -67 -2 -84 22 -22 55 -14
66 16 10 29 0 72 -17 72 -6 0 -8 8 -5 18 5 14 4 15 -5 2 -10 -13 -12 -13 -22
0 -9 13 -10 13 -6 -2z m47 -58 c0 -31 -11 -50 -30 -50 -22 0 -32 34 -19 66 7
21 12 23 29 14 11 -6 20 -19 20 -30z"/>
<path d="M7460 3695 c0 -30 4 -55 10 -55 5 0 7 7 4 15 -8 20 5 19 30 -2 20
-18 20 -18 3 9 -14 23 -14 28 -1 39 8 6 12 14 9 17 -3 3 -13 -2 -24 -12 -18
-16 -19 -16 -16 14 1 16 -1 30 -6 30 -5 0 -9 -25 -9 -55z"/>
<path d="M7640 3694 c0 -32 2 -55 5 -53 8 9 11 100 3 105 -4 3 -8 -21 -8 -52z"/>
<path d="M8080 3695 c0 -31 4 -54 9 -51 5 3 7 15 4 27 -4 12 0 25 8 29 19 13
29 3 29 -31 0 -16 4 -29 10 -29 5 0 8 10 6 23 -3 12 -5 30 -5 41 -1 14 -7 17
-25 14 -16 -3 -23 -1 -19 8 2 6 0 15 -6 19 -7 4 -11 -13 -11 -50z"/>
<path d="M7550 3700 c-16 -30 -3 -60 25 -60 30 0 46 27 34 58 -11 28 -45 29
-59 2z m45 -21 c0 -15 -7 -25 -17 -27 -13 -3 -18 3 -18 21 0 13 3 27 7 31 13
12 28 -1 28 -25z"/>
<path d="M7692 3711 c-8 -5 -12 -21 -10 -37 2 -23 9 -30 30 -32 22 -3 29 2 34
22 10 41 -21 68 -54 47z m41 -20 c6 -25 -7 -45 -26 -38 -11 4 -17 38 -8 55 5
10 30 -2 34 -17z"/>
<path d="M7780 3699 c-15 -27 -3 -59 21 -59 10 0 19 -5 19 -11 0 -6 -9 -9 -20
-6 -11 3 -20 1 -20 -4 0 -11 31 -12 46 -1 5 4 11 27 13 52 2 42 0 46 -23 48
-17 1 -29 -5 -36 -19z m46 -22 c-2 -12 -10 -23 -18 -25 -18 -4 -30 32 -16 46
16 16 38 2 34 -21z"/>
<path d="M7868 3713 c-2 -5 -1 -24 3 -43 l6 -35 2 43 c1 39 -3 52 -11 35z"/>
<path d="M7917 3714 c-15 -15 -6 -32 19 -38 20 -5 24 -10 16 -18 -8 -8 -16 -7
-28 3 -15 12 -17 12 -12 -1 6 -20 53 -20 53 0 0 8 -11 20 -23 26 -15 8 -20 14
-12 19 6 4 18 1 27 -7 14 -11 16 -11 11 2 -5 16 -39 25 -51 14z"/>
<path d="M8000 3705 c-20 -24 -4 -65 25 -65 13 0 27 5 30 10 4 7 -2 9 -18 5
-19 -5 -25 -2 -30 14 -7 28 18 48 38 31 9 -7 15 -8 15 -2 0 9 -22 22 -40 22
-4 0 -13 -7 -20 -15z"/>
<path d="M8181 3706 c-21 -26 -10 -61 22 -64 15 -2 27 1 27 6 0 6 -8 8 -19 5
-10 -3 -22 0 -25 6 -7 10 12 16 41 12 18 -3 0 43 -19 47 -8 2 -20 -4 -27 -12z
m31 -11 c0 -5 -5 -11 -11 -13 -6 -2 -11 4 -11 13 0 9 5 15 11 13 6 -2 11 -8
11 -13z"/>
<path d="M8261 3675 c0 -30 2 -35 8 -20 5 11 6 24 3 29 -3 5 3 15 13 22 16 12
16 13 -4 11 -18 -1 -21 -7 -20 -42z"/>
<path d="M7357 3543 c-10 -19 -8 -103 3 -103 6 0 10 6 9 13 -3 28 2 39 16 34
8 -4 17 -2 20 3 4 6 -5 10 -18 10 -20 0 -24 4 -20 20 4 15 12 19 30 15 14 -2
22 -1 19 2 -10 11 -54 15 -59 6z"/>
<path d="M7530 3496 c0 -31 5 -56 10 -56 6 0 9 3 9 8 -5 28 3 32 21 11 10 -13
19 -19 20 -13 0 5 -6 16 -12 22 -10 10 -10 17 0 32 7 11 8 20 3 20 -5 0 -12
-8 -15 -17 -6 -14 -9 -15 -16 -4 -4 8 -6 20 -3 27 2 6 0 15 -6 19 -7 4 -11
-13 -11 -49z"/>
<path d="M7441 3498 c-17 -46 29 -79 59 -43 10 12 10 21 2 40 -15 32 -50 33
-61 3z m48 -6 c12 -23 -2 -47 -23 -39 -24 10 -20 57 5 57 5 0 13 -8 18 -18z"/>
<path d="M7619 3515 c-5 -9 -5 -29 0 -65 0 -5 14 -10 29 -10 26 0 29 4 30 35
1 19 -3 37 -8 40 -5 3 -9 -5 -8 -17 2 -39 -2 -48 -16 -48 -10 0 -16 13 -18 38
-2 20 -6 33 -9 27z"/>
<path d="M7711 3506 c-11 -13 -9 -17 13 -27 34 -16 34 -33 0 -25 -17 5 -23 3
-19 -4 10 -16 52 -12 59 5 4 11 -3 19 -21 26 -20 8 -24 12 -14 22 9 9 14 9 22
-3 9 -13 10 -13 6 0 -5 21 -31 24 -46 6z"/>
</g>
</svg>
