<?xml version="1.0" encoding="utf-8"?>
<!-- Generator: Adobe Illustrator 26.0.1, SVG Export Plug-In . SVG Version: 6.00 Build 0)  -->
<svg version="1.1" id="Ebene_1" xmlns="http://www.w3.org/2000/svg" xmlns:xlink="http://www.w3.org/1999/xlink" x="0px" y="0px"
	 viewBox="0 0 170 175" style="enable-background:new 0 0 170 175;" xml:space="preserve">
<style type="text/css">
	.st0{fill:#FFFFFF;}
	.st1{fill:#FFCC00;}
	.st2{fill:#FF0000;}
</style>
<g id="Hintergrund">
	<rect class="st0" width="170" height="175"/>
</g>
<g>
	<path d="M28.5,22.3c-0.2-0.1-0.7-0.3-1.3-0.3c-1.3,0-2.5,0.8-2.5,3c0,2.1,1,3.1,2.4,3.1c0.5,0,0.9-0.1,1.2-0.2v-2.1l-0.6-0.1
		c-0.1,0-0.1-0.1-0.1-0.1c0-0.1,0.1-0.2,0.1-0.3h2.4c0,0,0,0.1,0,0.1c0,0.2-0.1,0.3-0.4,0.4l-0.2,0.1V28c-0.3,0.3-1.1,0.8-2.6,0.8
		c-1.8,0-3.3-1.1-3.3-3.7c0-2.7,2-3.8,3.8-3.8c1.1,0,1.7,0.3,2,0.5c0,0.3,0.1,1,0.1,1c0,0.3-0.1,0.5-0.4,0.5c-0.1,0-0.2,0-0.2,0
		L28.5,22.3z"/>
	<path d="M31.7,26.2c0,1.3,0.6,1.9,1.5,1.9c0.7,0,1-0.3,1.3-0.5c0.1,0.1,0.2,0.3,0.2,0.4c0,0.3-0.7,0.9-1.9,0.9
		c-1.3,0-2.3-0.7-2.3-2.6c0-1.8,1.1-2.8,2.3-2.8c1.2,0,1.8,0.7,1.8,1.8c0,0.3-0.1,0.6-0.1,0.9H31.7z M33.6,25.7
		c0-0.1,0.1-0.3,0.1-0.5c0-0.6-0.2-1.1-0.8-1.1c-0.6,0-1,0.5-1.1,1.5H33.6z"/>
	<path d="M38.6,24.2h-1.3v3.9l0.7,0.1c0.1,0,0.1,0.1,0.1,0.1c0,0.1-0.1,0.3-0.1,0.3h-2.5c0,0,0-0.1,0-0.1c0-0.2,0.1-0.3,0.3-0.3
		l0.4-0.1v-3.9h-0.8c0,0,0-0.1,0-0.1c0-0.2,0.1-0.3,0.3-0.4l0.5-0.1v-0.1c0-1.7,1-2.5,1.9-2.5c0.5,0,0.7,0.2,0.7,0.6
		c0,0.3-0.2,0.4-0.3,0.5c-0.1-0.1-0.4-0.3-0.7-0.3c-0.5,0-0.6,0.3-0.6,0.9c0,0.3,0,1,0,1h1.4L38.6,24.2z"/>
	<path d="M44,26.1c0,1.8-1.3,2.7-2.6,2.7c-1.3,0-2.4-0.8-2.4-2.6c0-1.8,1.3-2.7,2.6-2.7C42.9,23.5,44,24.3,44,26.1z M40.6,22.8
		c-0.3,0-0.6-0.2-0.6-0.6c0-0.4,0.3-0.6,0.6-0.6c0.3,0,0.6,0.2,0.6,0.6C41.1,22.6,40.9,22.8,40.6,22.8z M40.1,26.2
		c0,1.4,0.6,2,1.3,2c0.8,0,1.4-0.6,1.4-2c0-1.4-0.6-2.1-1.4-2.1C40.7,24.2,40.1,24.8,40.1,26.2z M42.5,22.8c-0.3,0-0.6-0.2-0.6-0.6
		c0-0.4,0.2-0.6,0.6-0.6c0.3,0,0.6,0.2,0.6,0.6C43,22.6,42.8,22.8,42.5,22.8z"/>
	<path d="M46.4,24.5L46.4,24.5c0.3-0.4,0.6-1,1.3-1c0.5,0,0.7,0.2,0.7,0.6c0,0.2-0.1,0.4-0.2,0.5c-0.1,0-0.3-0.2-0.7-0.2
		c-0.6,0-0.9,0.2-1.1,0.5v3.2l0.8,0.1c0.1,0,0.1,0.1,0.1,0.1c0,0.1-0.1,0.3-0.1,0.3h-2.5c0,0,0-0.1,0-0.1c0-0.2,0.1-0.3,0.3-0.3
		l0.4-0.1v-3.9l-0.7-0.1c0,0,0-0.1,0-0.1c0-0.2,0.1-0.3,0.4-0.3l1.4-0.1L46.4,24.5z"/>
	<path d="M53.4,28.1l0.8,0.1c0,0,0,0,0,0.1c0,0.2-0.1,0.3-0.4,0.3l-1.4,0.1v-0.7h0c-0.2,0.3-0.7,0.7-1.5,0.7c-1,0-2-0.7-2-2.5
		c0-2,1.4-2.8,2.7-2.8c0.3,0,0.6,0.1,0.7,0.1v-1.8l-0.7-0.1c0,0,0-0.1,0-0.1c0-0.2,0.1-0.3,0.4-0.3l1.4-0.1V28.1z M52.3,24.5
		c-0.2-0.1-0.4-0.3-0.9-0.3c-0.9,0-1.5,0.6-1.5,2c0,1.4,0.6,1.9,1.3,1.9c0.6,0,0.9-0.3,1.1-0.4V24.5z"/>
	<path d="M55.8,26.2c0,1.3,0.6,1.9,1.5,1.9c0.7,0,1-0.3,1.3-0.5c0.1,0.1,0.2,0.3,0.2,0.4c0,0.3-0.7,0.9-1.9,0.9
		c-1.3,0-2.3-0.7-2.3-2.6c0-1.8,1.1-2.8,2.3-2.8c1.2,0,1.8,0.7,1.8,1.8c0,0.3-0.1,0.6-0.1,0.9H55.8z M57.7,25.7
		c0-0.1,0.1-0.3,0.1-0.5c0-0.6-0.2-1.1-0.8-1.1c-0.6,0-1,0.5-1.1,1.5H57.7z"/>
	<path d="M61.3,24.5L61.3,24.5c0.3-0.4,0.6-1,1.3-1c0.5,0,0.7,0.2,0.7,0.6c0,0.2-0.1,0.4-0.2,0.5c-0.1,0-0.3-0.2-0.7-0.2
		c-0.6,0-0.9,0.2-1.1,0.5v3.2l0.8,0.1c0.1,0,0.1,0.1,0.1,0.1c0,0.1-0.1,0.3-0.1,0.3h-2.5c0,0,0-0.1,0-0.1c0-0.2,0.1-0.3,0.3-0.3
		l0.4-0.1v-3.9l-0.7-0.1c0,0,0-0.1,0-0.1c0-0.2,0.1-0.3,0.4-0.3l1.4-0.1L61.3,24.5z"/>
	<path d="M66.9,24.2h-1.4v3.1c0,0.5,0.1,0.9,0.7,0.9c0.4,0,0.7-0.2,0.8-0.3C67,28,67,28.2,67,28.3c0,0.1-0.4,0.6-1.3,0.6
		c-1,0-1.3-0.6-1.3-1.4v-3.3h-0.8c0,0,0-0.1,0-0.1c0-0.2,0.1-0.3,0.3-0.4l0.5-0.1l0.2-1.4h0.8v1.4H67L66.9,24.2z"/>
	<path d="M74.2,28.1l0.8,0.1c0,0,0,0,0,0.1c0,0.2-0.1,0.3-0.4,0.3l-1.4,0.1v-0.7h0c-0.2,0.3-0.7,0.7-1.5,0.7c-1,0-2-0.7-2-2.5
		c0-2,1.4-2.8,2.7-2.8c0.3,0,0.6,0.1,0.7,0.1v-1.8l-0.7-0.1c0,0,0-0.1,0-0.1c0-0.2,0.1-0.3,0.4-0.3l1.4-0.1V28.1z M73.2,24.5
		c-0.2-0.1-0.4-0.3-0.9-0.3c-0.9,0-1.5,0.6-1.5,2c0,1.4,0.6,1.9,1.3,1.9c0.6,0,0.9-0.3,1.1-0.4V24.5z"/>
	<path d="M80.3,28.1l0.8,0.1c0,0,0,0,0,0.1c0,0.2-0.1,0.3-0.4,0.3l-1.4,0.1v-0.7h0c-0.2,0.2-0.6,0.8-1.6,0.8c-1.1,0-1.6-0.7-1.6-1.9
		v-2.7l-0.7-0.1c0,0,0-0.1,0-0.1c0-0.2,0.1-0.3,0.4-0.3l1.4-0.1v3.3c0,1,0.5,1.2,1,1.2c0.5,0,0.9-0.2,1.1-0.5v-3.3l-0.7-0.1
		c0,0,0-0.1,0-0.1c0-0.2,0.1-0.3,0.4-0.3l1.4-0.1V28.1z"/>
	<path d="M83.3,24.5L83.3,24.5c0.3-0.4,0.6-1,1.3-1c0.5,0,0.7,0.2,0.7,0.6c0,0.2-0.1,0.4-0.2,0.5c-0.1,0-0.3-0.2-0.7-0.2
		c-0.6,0-0.9,0.2-1.1,0.5v3.2l0.8,0.1c0.1,0,0.1,0.1,0.1,0.1c0,0.1-0.1,0.3-0.1,0.3h-2.5c0,0,0-0.1,0-0.1c0-0.2,0.1-0.3,0.3-0.3
		l0.4-0.1v-3.9l-0.7-0.1c0,0,0-0.1,0-0.1c0-0.2,0.1-0.3,0.4-0.3l1.4-0.1L83.3,24.5z"/>
	<path d="M88.1,24.2c-0.7,0-1.3,0.5-1.3,1.9c0,1.3,0.5,2.1,1.5,2.1c0.7,0,1-0.3,1.2-0.5c0.1,0.1,0.2,0.3,0.2,0.4
		c0,0.3-0.6,0.9-1.7,0.9c-1.4,0-2.2-0.9-2.2-2.6c0-1.8,1.2-2.7,2.6-2.7c1.2,0,1.4,0.6,1.4,0.9c0,0.3-0.1,0.5-0.5,0.6
		C89.1,24.7,88.8,24.2,88.1,24.2z"/>
	<path d="M92,24.3L92,24.3c0.2-0.3,0.7-0.8,1.6-0.8c1,0,1.6,0.6,1.6,1.8v2.8l0.6,0.1c0.1,0,0.1,0.1,0.1,0.1c0,0.1-0.1,0.3-0.1,0.3
		h-2.4c0,0,0-0.1,0-0.1c0-0.2,0.1-0.3,0.3-0.3l0.3-0.1v-2.7c0-0.9-0.5-1.2-1-1.2c-0.7,0-1,0.3-1.2,0.5v3.3l0.6,0.1
		c0.1,0,0.1,0.1,0.1,0.1c0,0.1-0.1,0.3-0.1,0.3h-2.4c0,0,0-0.1,0-0.1c0-0.2,0.1-0.3,0.3-0.3l0.4-0.1v-6.4l-0.7-0.1c0,0,0-0.1,0-0.1
		c0-0.2,0.1-0.3,0.4-0.3l1.4-0.1V24.3z"/>
	<path d="M97.4,24.8c-0.4,0-0.7-0.3-0.7-0.6c0-0.4,0.3-0.7,0.7-0.7c0.4,0,0.7,0.3,0.7,0.7C98.1,24.6,97.8,24.8,97.4,24.8z
		 M97.4,28.9c-0.4,0-0.7-0.3-0.7-0.6c0-0.4,0.3-0.7,0.7-0.7c0.4,0,0.7,0.3,0.7,0.7C98.1,28.6,97.8,28.9,97.4,28.9z"/>
</g>
<g>
	<path d="M27.2,139.8c0,0.4,0.2,0.5,0.3,0.5c0.2,0,0.4-0.1,0.4-0.2c0.1,0.1,0.1,0.2,0.1,0.3c0,0.1-0.3,0.5-1,0.5
		c-0.5,0-0.8-0.2-0.9-0.7h0c-0.1,0.2-0.5,0.8-1.4,0.8c-0.8,0-1.4-0.5-1.4-1.4c0-1.1,1.2-1.5,2.4-1.5h0.3v-0.5c0-1-0.3-1.3-0.9-1.3
		c-0.2,0-0.5,0.1-0.5,0.1c-0.1,0.2-0.2,0.6-0.2,0.9c0,0-0.2,0-0.2,0c-0.4,0-0.6-0.2-0.6-0.5c0-0.7,0.9-1.1,1.8-1.1
		c1.2,0,1.7,0.6,1.7,1.8V139.8z M25.9,138.6c-0.8,0-1.3,0.3-1.3,0.9c0,0.4,0.3,0.7,0.7,0.7c0.4,0,0.8-0.3,0.9-0.5v-1.2L25.9,138.6z"
		/>
	<path d="M33.2,140.3l0.8,0.1c0,0,0,0,0,0.1c0,0.2-0.1,0.3-0.4,0.3l-1.4,0.1v-0.7h0c-0.2,0.2-0.6,0.8-1.6,0.8
		c-1.1,0-1.6-0.7-1.6-1.9v-2.7l-0.7-0.1c0,0,0-0.1,0-0.1c0-0.2,0.1-0.3,0.4-0.3l1.4-0.1v3.3c0,1,0.5,1.2,1,1.2
		c0.5,0,0.9-0.2,1.1-0.5v-3.3l-0.7-0.1c0,0,0-0.1,0-0.1c0-0.2,0.1-0.3,0.4-0.3l1.4-0.1V140.3z"/>
	<path d="M37.5,136.4h-1.3v3.9l0.7,0.1c0.1,0,0.1,0.1,0.1,0.1c0,0.1-0.1,0.3-0.1,0.3h-2.5c0,0,0-0.1,0-0.1c0-0.2,0.1-0.3,0.3-0.3
		l0.4-0.1v-3.9h-0.8c0,0,0-0.1,0-0.1c0-0.2,0.1-0.3,0.3-0.4l0.5-0.1v-0.1c0-1.7,1-2.5,1.9-2.5c0.5,0,0.7,0.2,0.7,0.6
		c0,0.3-0.2,0.4-0.3,0.5c-0.1-0.1-0.4-0.3-0.7-0.3c-0.5,0-0.6,0.3-0.6,0.9c0,0.3,0,1,0,1h1.4L37.5,136.4z"/>
	<path d="M42.8,136.4h-0.8c0.2,0.3,0.3,0.6,0.3,1c0,1.1-0.9,1.7-2.1,1.7c-0.2,0-0.3,0-0.5-0.1c-0.1,0.1-0.3,0.2-0.3,0.5
		c0,0.3,0.2,0.4,0.5,0.4h1.2c1,0,1.5,0.4,1.5,1.2c0,1-1,2-2.8,2c-1.3,0-1.9-0.5-1.9-1.2c0-0.7,0.6-1.1,1-1.2v0
		c-0.3-0.1-0.4-0.4-0.4-0.7c0-0.6,0.6-0.9,0.8-1v0c-0.6-0.3-1-0.8-1-1.6c0-1.1,0.9-1.7,2-1.7c0.3,0,0.6,0,0.8,0.1h1.8L42.8,136.4z
		 M39.7,140.8c-0.1,0-0.3,0-0.4,0c-0.3,0.2-0.5,0.4-0.5,0.8c0,0.5,0.3,0.9,1.1,0.9c1,0,1.6-0.5,1.6-1c0-0.4-0.2-0.6-0.8-0.6H39.7z
		 M39.3,137.4c0,0.8,0.4,1.2,0.9,1.2c0.6,0,1-0.3,1-1.2c0-0.7-0.4-1.1-1-1.1S39.3,136.6,39.3,137.4z"/>
	<path d="M45,136.7L45,136.7c0.3-0.4,0.6-1,1.3-1c0.5,0,0.7,0.2,0.7,0.6c0,0.2-0.1,0.4-0.2,0.5c-0.1,0-0.3-0.2-0.7-0.2
		c-0.6,0-0.9,0.2-1.1,0.5v3.2l0.8,0.1c0.1,0,0.1,0.1,0.1,0.1c0,0.1-0.1,0.3-0.1,0.3h-2.5c0,0,0-0.1,0-0.1c0-0.2,0.1-0.3,0.3-0.3
		l0.4-0.1v-3.9l-0.7-0.1c0,0,0-0.1,0-0.1c0-0.2,0.1-0.3,0.4-0.3l1.4-0.1L45,136.7z"/>
	<path d="M52.3,140.3l0.8,0.1c0,0,0,0,0,0.1c0,0.2-0.1,0.3-0.4,0.3l-1.4,0.1v-0.7h0c-0.2,0.2-0.6,0.8-1.6,0.8
		c-1.1,0-1.6-0.7-1.6-1.9v-2.7l-0.7-0.1c0,0,0-0.1,0-0.1c0-0.2,0.1-0.3,0.4-0.3l1.4-0.1v3.3c0,1,0.5,1.2,1,1.2
		c0.5,0,0.9-0.2,1.1-0.5v-3.3l-0.7-0.1c0,0,0-0.1,0-0.1c0-0.2,0.1-0.3,0.4-0.3l1.4-0.1V140.3z"/>
	<path d="M58.6,140.3l0.6,0.1c0.1,0,0.1,0.1,0.1,0.1c0,0.1-0.1,0.3-0.1,0.3h-2.4c0,0,0-0.1,0-0.1c0-0.2,0.1-0.3,0.3-0.3l0.3-0.1
		v-2.7c0-0.9-0.5-1.2-1-1.2c-0.6,0-1,0.3-1.2,0.5v3.4l0.6,0.1c0.1,0,0.1,0.1,0.1,0.1c0,0.1-0.1,0.3-0.1,0.3h-2.4c0,0,0-0.1,0-0.1
		c0-0.2,0.1-0.3,0.3-0.3l0.4-0.1v-3.9l-0.7-0.1c0,0,0-0.1,0-0.1c0-0.2,0.1-0.3,0.4-0.3l1.4-0.1l-0.1,0.7h0c0.3-0.3,0.8-0.8,1.7-0.8
		c1,0,1.6,0.7,1.6,1.8V140.3z"/>
	<path d="M64.4,140.3l0.8,0.1c0,0,0,0,0,0.1c0,0.2-0.1,0.3-0.4,0.3l-1.4,0.1v-0.7h0c-0.2,0.3-0.7,0.7-1.5,0.7c-1,0-2-0.7-2-2.5
		c0-2,1.4-2.8,2.7-2.8c0.3,0,0.6,0.1,0.7,0.1v-1.8l-0.7-0.1c0,0,0-0.1,0-0.1c0-0.2,0.1-0.3,0.4-0.3l1.4-0.1V140.3z M63.3,136.6
		c-0.2-0.1-0.4-0.3-0.9-0.3c-0.9,0-1.5,0.6-1.5,2c0,1.4,0.6,1.9,1.3,1.9c0.6,0,0.9-0.3,1.1-0.4V136.6z"/>
	<path d="M69.1,138.4c0,1.3,0.6,1.9,1.5,1.9c0.7,0,1-0.3,1.3-0.5c0.1,0.1,0.2,0.3,0.2,0.4c0,0.3-0.7,0.9-1.9,0.9
		c-1.3,0-2.3-0.7-2.3-2.6c0-1.8,1.1-2.8,2.3-2.8c1.2,0,1.8,0.7,1.8,1.8c0,0.3-0.1,0.6-0.1,0.9H69.1z M70.9,137.8
		c0-0.1,0.1-0.3,0.1-0.5c0-0.6-0.2-1.1-0.8-1.1c-0.6,0-1,0.5-1.1,1.5H70.9z"/>
	<path d="M74.6,140.3l0.6,0.1c0.1,0,0.1,0.1,0.1,0.1c0,0.1-0.1,0.3-0.1,0.3h-2.4c0,0,0-0.1,0-0.1c0-0.2,0.1-0.3,0.3-0.3l0.4-0.1
		v-3.9l-0.7-0.1c0,0,0-0.1,0-0.1c0-0.2,0.1-0.3,0.4-0.3l1.4-0.1V140.3z M74,134.7c-0.4,0-0.7-0.3-0.7-0.7c0-0.4,0.3-0.7,0.7-0.7
		c0.4,0,0.7,0.3,0.7,0.7C74.7,134.5,74.4,134.7,74,134.7z"/>
	<path d="M80.9,140.3l0.6,0.1c0.1,0,0.1,0.1,0.1,0.1c0,0.1-0.1,0.3-0.1,0.3h-2.4c0,0,0-0.1,0-0.1c0-0.2,0.1-0.3,0.3-0.3l0.3-0.1
		v-2.7c0-0.9-0.5-1.2-1-1.2c-0.6,0-1,0.3-1.2,0.5v3.4l0.6,0.1c0.1,0,0.1,0.1,0.1,0.1c0,0.1-0.1,0.3-0.1,0.3h-2.4c0,0,0-0.1,0-0.1
		c0-0.2,0.1-0.3,0.3-0.3l0.4-0.1v-3.9l-0.7-0.1c0,0,0-0.1,0-0.1c0-0.2,0.1-0.3,0.4-0.3l1.4-0.1l-0.1,0.7h0c0.3-0.3,0.8-0.8,1.7-0.8
		c1,0,1.6,0.7,1.6,1.8V140.3z"/>
	<path d="M83.3,138.4c0,1.3,0.6,1.9,1.5,1.9c0.7,0,1-0.3,1.3-0.5c0.1,0.1,0.2,0.3,0.2,0.4c0,0.3-0.7,0.9-1.9,0.9
		c-1.3,0-2.3-0.7-2.3-2.6c0-1.8,1.1-2.8,2.3-2.8c1.2,0,1.8,0.7,1.8,1.8c0,0.3-0.1,0.6-0.1,0.9H83.3z M85.2,137.8
		c0-0.1,0.1-0.3,0.1-0.5c0-0.6-0.2-1.1-0.8-1.1c-0.6,0-1,0.5-1.1,1.5H85.2z"/>
	<path d="M89.6,136.5c-0.1-0.1-0.4-0.2-0.7-0.2c-0.3,0-0.7,0.1-0.7,0.6c0,0.5,0.5,0.7,1,1c0.6,0.4,1.3,0.8,1.3,1.6
		c0,0.9-0.7,1.5-1.9,1.5c-0.6,0-1.1-0.2-1.3-0.3c0-0.3-0.1-0.5-0.1-0.8c0-0.4,0.1-0.6,0.4-0.6c0.1,0,0.1,0,0.1,0l0.2,0.9
		c0.1,0.1,0.4,0.2,0.7,0.2c0.5,0,0.8-0.2,0.8-0.6c0-0.5-0.5-0.7-1-1c-0.6-0.4-1.3-0.8-1.3-1.7c0-0.8,0.7-1.4,1.7-1.4
		c0.6,0,1,0.2,1.2,0.4c0,0.1,0,0.4,0,0.6c0,0.4-0.1,0.6-0.5,0.6c-0.1,0-0.1,0-0.1,0L89.6,136.5z"/>
	<path d="M97.4,137.1L97.4,137.1c1,0.2,1.7,0.8,1.7,1.7c0,1.2-1,2-2.9,2h-2.7c0,0,0-0.1,0-0.1c0-0.2,0.1-0.3,0.4-0.4l0.4-0.1v-6.1
		l-0.6-0.1c-0.1,0-0.1-0.1-0.1-0.1c0-0.1,0.1-0.2,0.1-0.3h2.5c1.9,0,2.8,0.7,2.8,1.8C98.9,136.5,98.3,136.9,97.4,137.1z M96,134.3
		h-0.6v2.6H96c1.2,0,1.7-0.6,1.7-1.3C97.7,134.7,97.2,134.3,96,134.3z M96.1,137.5h-0.7v2.7h0.6c1.2,0,1.8-0.6,1.8-1.4
		C97.8,138.1,97.3,137.5,96.1,137.5z"/>
	<path d="M101.1,138.4c0,1.3,0.6,1.9,1.5,1.9c0.7,0,1-0.3,1.3-0.5c0.1,0.1,0.2,0.3,0.2,0.4c0,0.3-0.7,0.9-1.9,0.9
		c-1.3,0-2.3-0.7-2.3-2.6c0-1.8,1.1-2.8,2.3-2.8c1.2,0,1.8,0.7,1.8,1.8c0,0.3-0.1,0.6-0.1,0.9H101.1z M103,137.8
		c0-0.1,0.1-0.3,0.1-0.5c0-0.6-0.2-1.1-0.8-1.1c-0.6,0-1,0.5-1.1,1.5H103z"/>
	<path d="M107.4,136.5c-0.1-0.1-0.4-0.2-0.7-0.2c-0.3,0-0.7,0.1-0.7,0.6c0,0.5,0.5,0.7,1,1c0.6,0.4,1.3,0.8,1.3,1.6
		c0,0.9-0.7,1.5-1.9,1.5c-0.6,0-1.1-0.2-1.3-0.3c0-0.3-0.1-0.5-0.1-0.8c0-0.4,0.1-0.6,0.4-0.6c0.1,0,0.1,0,0.1,0l0.2,0.9
		c0.1,0.1,0.4,0.2,0.7,0.2c0.5,0,0.8-0.2,0.8-0.6c0-0.5-0.5-0.7-1-1c-0.6-0.4-1.3-0.8-1.3-1.7c0-0.8,0.7-1.4,1.7-1.4
		c0.6,0,1,0.2,1.2,0.4c0,0.1,0,0.4,0,0.6c0,0.4-0.1,0.6-0.5,0.6c-0.1,0-0.1,0-0.1,0L107.4,136.5z"/>
	<path d="M111.5,136.3c-0.7,0-1.3,0.5-1.3,1.9c0,1.3,0.5,2.1,1.5,2.1c0.7,0,1-0.3,1.2-0.5c0.1,0.1,0.2,0.3,0.2,0.4
		c0,0.3-0.6,0.9-1.7,0.9c-1.4,0-2.2-0.9-2.2-2.6c0-1.8,1.2-2.7,2.6-2.7c1.2,0,1.4,0.6,1.4,0.9c0,0.3-0.1,0.5-0.5,0.6
		C112.5,136.8,112.2,136.3,111.5,136.3z"/>
	<path d="M115.4,136.4L115.4,136.4c0.2-0.3,0.7-0.8,1.6-0.8c1,0,1.6,0.6,1.6,1.8v2.8l0.6,0.1c0.1,0,0.1,0.1,0.1,0.1
		c0,0.1-0.1,0.3-0.1,0.3H117c0,0,0-0.1,0-0.1c0-0.2,0.1-0.3,0.3-0.3l0.3-0.1v-2.7c0-0.9-0.5-1.2-1-1.2c-0.7,0-1,0.3-1.2,0.5v3.3
		l0.6,0.1c0.1,0,0.1,0.1,0.1,0.1c0,0.1-0.1,0.3-0.1,0.3h-2.4c0,0,0-0.1,0-0.1c0-0.2,0.1-0.3,0.3-0.3l0.4-0.1v-6.4l-0.7-0.1
		c0,0,0-0.1,0-0.1c0-0.2,0.1-0.3,0.4-0.3l1.4-0.1V136.4z"/>
	<path d="M121.6,140.3l0.6,0.1c0.1,0,0.1,0.1,0.1,0.1c0,0.1-0.1,0.3-0.1,0.3h-2.4c0,0,0-0.1,0-0.1c0-0.2,0.1-0.3,0.3-0.3l0.4-0.1
		v-6.4l-0.7-0.1c0,0,0-0.1,0-0.1c0-0.2,0.1-0.3,0.4-0.3l1.4-0.1V140.3z"/>
	<path d="M127.7,140.3l0.8,0.1c0,0,0,0,0,0.1c0,0.2-0.1,0.3-0.4,0.3l-1.4,0.1v-0.7h0c-0.2,0.2-0.6,0.8-1.6,0.8
		c-1.1,0-1.6-0.7-1.6-1.9v-2.7l-0.7-0.1c0,0,0-0.1,0-0.1c0-0.2,0.1-0.3,0.4-0.3l1.4-0.1v3.3c0,1,0.5,1.2,1,1.2
		c0.5,0,0.9-0.2,1.1-0.5v-3.3l-0.7-0.1c0,0,0-0.1,0-0.1c0-0.2,0.1-0.3,0.4-0.3l1.4-0.1V140.3z"/>
	<path d="M131.5,136.5c-0.1-0.1-0.4-0.2-0.7-0.2c-0.3,0-0.7,0.1-0.7,0.6c0,0.5,0.5,0.7,1,1c0.6,0.4,1.3,0.8,1.3,1.6
		c0,0.9-0.7,1.5-1.9,1.5c-0.6,0-1.1-0.2-1.3-0.3c0-0.3-0.1-0.5-0.1-0.8c0-0.4,0.1-0.6,0.4-0.6c0.1,0,0.1,0,0.1,0l0.2,0.9
		c0.1,0.1,0.4,0.2,0.7,0.2c0.5,0,0.8-0.2,0.8-0.6c0-0.5-0.5-0.7-1-1c-0.6-0.4-1.3-0.8-1.3-1.7c0-0.8,0.7-1.4,1.7-1.4
		c0.6,0,1,0.2,1.2,0.4c0,0.1,0,0.4,0,0.6c0,0.4-0.1,0.6-0.5,0.6c-0.1,0-0.1,0-0.1,0L131.5,136.5z"/>
	<path d="M135.6,136.5c-0.1-0.1-0.4-0.2-0.7-0.2c-0.3,0-0.7,0.1-0.7,0.6c0,0.5,0.5,0.7,1,1c0.6,0.4,1.3,0.8,1.3,1.6
		c0,0.9-0.7,1.5-1.9,1.5c-0.6,0-1.1-0.2-1.3-0.3c0-0.3-0.1-0.5-0.1-0.8c0-0.4,0.1-0.6,0.4-0.6c0.1,0,0.1,0,0.1,0l0.2,0.9
		c0.1,0.1,0.4,0.2,0.7,0.2c0.5,0,0.8-0.2,0.8-0.6c0-0.5-0.5-0.7-1-1c-0.6-0.4-1.3-0.8-1.3-1.7c0-0.8,0.7-1.4,1.7-1.4
		c0.6,0,1,0.2,1.2,0.4c0,0.1,0,0.4,0,0.6c0,0.4-0.1,0.6-0.5,0.6c-0.1,0-0.1,0-0.1,0L135.6,136.5z"/>
	<path d="M138.5,138.4c0,1.3,0.6,1.9,1.5,1.9c0.7,0,1-0.3,1.3-0.5c0.1,0.1,0.2,0.3,0.2,0.4c0,0.3-0.7,0.9-1.9,0.9
		c-1.3,0-2.3-0.7-2.3-2.6c0-1.8,1.1-2.8,2.3-2.8c1.2,0,1.8,0.7,1.8,1.8c0,0.3-0.1,0.6-0.1,0.9H138.5z M140.3,137.8
		c0-0.1,0.1-0.3,0.1-0.5c0-0.6-0.2-1.1-0.8-1.1c-0.6,0-1,0.5-1.1,1.5H140.3z"/>
	<path d="M144.7,136.5c-0.1-0.1-0.4-0.2-0.7-0.2c-0.3,0-0.7,0.1-0.7,0.6c0,0.5,0.5,0.7,1,1c0.6,0.4,1.3,0.8,1.3,1.6
		c0,0.9-0.7,1.5-1.9,1.5c-0.6,0-1.1-0.2-1.3-0.3c0-0.3-0.1-0.5-0.1-0.8c0-0.4,0.1-0.6,0.4-0.6c0.1,0,0.1,0,0.1,0l0.2,0.9
		c0.1,0.1,0.4,0.2,0.7,0.2c0.5,0,0.8-0.2,0.8-0.6c0-0.5-0.5-0.7-1-1c-0.6-0.4-1.3-0.8-1.3-1.7c0-0.8,0.7-1.4,1.7-1.4
		c0.6,0,1,0.2,1.2,0.4c0,0.1,0,0.4,0,0.6c0,0.4-0.1,0.6-0.5,0.6c-0.1,0-0.1,0-0.1,0L144.7,136.5z"/>
	<path d="M28,152.3l0.8,0.1c0,0,0,0,0,0.1c0,0.2-0.1,0.3-0.4,0.3l-1.4,0.1v-0.7h0c-0.2,0.3-0.7,0.7-1.5,0.7c-1,0-2-0.7-2-2.5
		c0-2,1.4-2.8,2.7-2.8c0.3,0,0.6,0.1,0.7,0.1v-1.8l-0.7-0.1c0,0,0-0.1,0-0.1c0-0.2,0.1-0.3,0.4-0.3l1.4-0.1V152.3z M27,148.6
		c-0.2-0.1-0.4-0.3-0.9-0.3c-0.9,0-1.5,0.6-1.5,2c0,1.4,0.6,1.9,1.3,1.9c0.6,0,0.9-0.3,1.1-0.4V148.6z"/>
	<path d="M30.5,150.4c0,1.3,0.6,1.9,1.5,1.9c0.7,0,1-0.3,1.3-0.5c0.1,0.1,0.2,0.3,0.2,0.4c0,0.3-0.7,0.9-1.9,0.9
		c-1.3,0-2.3-0.7-2.3-2.6s1.1-2.8,2.3-2.8c1.2,0,1.8,0.7,1.8,1.8c0,0.3-0.1,0.6-0.1,0.9H30.5z M32.4,149.8c0-0.1,0.1-0.3,0.1-0.5
		c0-0.6-0.2-1.1-0.8-1.1c-0.6,0-1,0.5-1.1,1.5H32.4z"/>
	<path d="M36.8,148.5c-0.1-0.1-0.4-0.2-0.7-0.2c-0.3,0-0.7,0.1-0.7,0.6c0,0.5,0.5,0.7,1,1c0.6,0.4,1.3,0.8,1.3,1.6
		c0,0.9-0.7,1.5-1.9,1.5c-0.6,0-1.1-0.2-1.3-0.3c0-0.3-0.1-0.5-0.1-0.8c0-0.4,0.1-0.6,0.4-0.6c0.1,0,0.1,0,0.1,0l0.2,0.9
		c0.1,0.1,0.4,0.2,0.7,0.2c0.5,0,0.8-0.2,0.8-0.6c0-0.5-0.5-0.7-1-1c-0.6-0.4-1.3-0.8-1.3-1.7c0-0.8,0.7-1.4,1.7-1.4
		c0.6,0,1,0.2,1.2,0.4c0,0.1,0,0.4,0,0.6c0,0.4-0.1,0.6-0.5,0.6c-0.1,0-0.1,0-0.1,0L36.8,148.5z"/>
	<path d="M43.1,152.9h-2.4c0,0,0-0.1,0-0.1c0-0.2,0.1-0.3,0.4-0.4l0.4-0.1v-6.1l-0.6-0.1c-0.1,0-0.1-0.1-0.1-0.1
		c0-0.1,0.1-0.2,0.1-0.3h2.3c2.6,0,4.2,1,4.2,3.5C47.3,151.7,45.8,152.9,43.1,152.9z M43.1,146.3h-0.4v6h0.4c1.9,0,3.1-1,3.1-3.1
		C46.1,147.2,45,146.3,43.1,146.3z"/>
	<path d="M49.4,150.4c0,1.3,0.6,1.9,1.5,1.9c0.7,0,1-0.3,1.3-0.5c0.1,0.1,0.2,0.3,0.2,0.4c0,0.3-0.7,0.9-1.9,0.9
		c-1.3,0-2.3-0.7-2.3-2.6s1.1-2.8,2.3-2.8c1.2,0,1.8,0.7,1.8,1.8c0,0.3-0.1,0.6-0.1,0.9H49.4z M51.2,149.8c0-0.1,0.1-0.3,0.1-0.5
		c0-0.6-0.2-1.1-0.8-1.1c-0.6,0-1,0.5-1.1,1.5H51.2z"/>
	<path d="M57.9,152.3l0.8,0.1c0,0,0,0,0,0.1c0,0.2-0.1,0.3-0.4,0.3l-1.4,0.1v-0.7h0c-0.2,0.2-0.6,0.8-1.6,0.8
		c-1.1,0-1.6-0.7-1.6-1.9v-2.7l-0.7-0.1c0,0,0-0.1,0-0.1c0-0.2,0.1-0.3,0.4-0.3l1.4-0.1v3.3c0,1,0.5,1.2,1,1.2
		c0.5,0,0.9-0.2,1.1-0.5v-3.3l-0.7-0.1c0,0,0-0.1,0-0.1c0-0.2,0.1-0.3,0.4-0.3l1.4-0.1V152.3z"/>
	<path d="M62.3,148.4h-1.4v3.1c0,0.5,0.1,0.9,0.7,0.9c0.4,0,0.7-0.2,0.8-0.3c0.1,0.1,0.1,0.2,0.1,0.3c0,0.1-0.4,0.6-1.3,0.6
		s-1.3-0.6-1.3-1.4v-3.3H59c0,0,0-0.1,0-0.1c0-0.2,0.1-0.3,0.3-0.4l0.5-0.1l0.2-1.4h0.8v1.4h1.6L62.3,148.4z"/>
	<path d="M65.4,148.5c-0.1-0.1-0.4-0.2-0.7-0.2c-0.3,0-0.7,0.1-0.7,0.6c0,0.5,0.5,0.7,1,1c0.6,0.4,1.3,0.8,1.3,1.6
		c0,0.9-0.7,1.5-1.9,1.5c-0.6,0-1.1-0.2-1.3-0.3c0-0.3-0.1-0.5-0.1-0.8c0-0.4,0.1-0.6,0.4-0.6c0.1,0,0.1,0,0.1,0l0.2,0.9
		c0.1,0.1,0.4,0.2,0.7,0.2c0.5,0,0.8-0.2,0.8-0.6c0-0.5-0.5-0.7-1-1c-0.6-0.4-1.3-0.8-1.3-1.7c0-0.8,0.7-1.4,1.7-1.4
		c0.6,0,1,0.2,1.2,0.4c0,0.1,0,0.4,0,0.6c0,0.4-0.1,0.6-0.5,0.6c-0.1,0-0.1,0-0.1,0L65.4,148.5z"/>
	<path d="M69.5,148.3c-0.7,0-1.3,0.5-1.3,1.9c0,1.3,0.5,2.1,1.5,2.1c0.7,0,1-0.3,1.2-0.5c0.1,0.1,0.2,0.3,0.2,0.4
		c0,0.3-0.6,0.9-1.7,0.9c-1.4,0-2.2-0.9-2.2-2.6c0-1.8,1.2-2.7,2.6-2.7c1.2,0,1.4,0.6,1.4,0.9c0,0.3-0.1,0.5-0.5,0.6
		C70.5,148.8,70.2,148.3,69.5,148.3z"/>
	<path d="M73.4,148.4L73.4,148.4c0.2-0.3,0.7-0.8,1.6-0.8c1,0,1.6,0.6,1.6,1.8v2.8l0.6,0.1c0.1,0,0.1,0.1,0.1,0.1
		c0,0.1-0.1,0.3-0.1,0.3H75c0,0,0-0.1,0-0.1c0-0.2,0.1-0.3,0.3-0.3l0.3-0.1v-2.7c0-0.9-0.5-1.2-1-1.2c-0.7,0-1,0.3-1.2,0.5v3.3
		l0.6,0.1c0.1,0,0.1,0.1,0.1,0.1c0,0.1-0.1,0.3-0.1,0.3h-2.4c0,0,0-0.1,0-0.1c0-0.2,0.1-0.3,0.3-0.3l0.4-0.1v-6.4l-0.7-0.1
		c0,0,0-0.1,0-0.1c0-0.2,0.1-0.3,0.4-0.3l1.4-0.1V148.4z"/>
	<path d="M79.1,150.4c0,1.3,0.6,1.9,1.5,1.9c0.7,0,1-0.3,1.3-0.5c0.1,0.1,0.2,0.3,0.2,0.4c0,0.3-0.7,0.9-1.9,0.9
		c-1.3,0-2.3-0.7-2.3-2.6s1.1-2.8,2.3-2.8c1.2,0,1.8,0.7,1.8,1.8c0,0.3-0.1,0.6-0.1,0.9H79.1z M81,149.8c0-0.1,0.1-0.3,0.1-0.5
		c0-0.6-0.2-1.1-0.8-1.1c-0.6,0-1,0.5-1.1,1.5H81z"/>
	<path d="M87.9,152.3l0.6,0.1c0.1,0,0.1,0.1,0.1,0.1c0,0.1-0.1,0.3-0.1,0.3h-2.4c0,0,0-0.1,0-0.1c0-0.2,0.1-0.3,0.3-0.3l0.3-0.1
		v-2.7c0-0.9-0.5-1.2-1-1.2c-0.6,0-1,0.3-1.2,0.5v3.4l0.6,0.1c0.1,0,0.1,0.1,0.1,0.1c0,0.1-0.1,0.3-0.1,0.3h-2.4c0,0,0-0.1,0-0.1
		c0-0.2,0.1-0.3,0.3-0.3l0.4-0.1v-3.9l-0.7-0.1c0,0,0-0.1,0-0.1c0-0.2,0.1-0.3,0.4-0.3l1.4-0.1l-0.1,0.7h0c0.3-0.3,0.8-0.8,1.7-0.8
		c1,0,1.6,0.7,1.6,1.8V152.3z"/>
	<path d="M95.3,149.1L95.3,149.1c1,0.2,1.7,0.8,1.7,1.7c0,1.2-1,2-2.9,2h-2.7c0,0,0-0.1,0-0.1c0-0.2,0.1-0.3,0.4-0.4l0.4-0.1v-6.1
		l-0.6-0.1c-0.1,0-0.1-0.1-0.1-0.1c0-0.1,0.1-0.2,0.1-0.3H94c1.9,0,2.8,0.7,2.8,1.8C96.8,148.5,96.2,148.9,95.3,149.1z M93.9,146.3
		h-0.6v2.6h0.6c1.2,0,1.7-0.6,1.7-1.3C95.6,146.7,95.1,146.3,93.9,146.3z M94,149.5h-0.7v2.7H94c1.2,0,1.8-0.6,1.8-1.4
		C95.8,150.1,95.2,149.5,94,149.5z"/>
	<path d="M102.6,152.3l0.8,0.1c0,0,0,0,0,0.1c0,0.2-0.1,0.3-0.4,0.3l-1.4,0.1v-0.7h0c-0.2,0.2-0.6,0.8-1.6,0.8
		c-1.1,0-1.6-0.7-1.6-1.9v-2.7l-0.7-0.1c0,0,0-0.1,0-0.1c0-0.2,0.1-0.3,0.4-0.3l1.4-0.1v3.3c0,1,0.5,1.2,1,1.2
		c0.5,0,0.9-0.2,1.1-0.5v-3.3l-0.7-0.1c0,0,0-0.1,0-0.1c0-0.2,0.1-0.3,0.4-0.3l1.4-0.1V152.3z"/>
	<path d="M108.9,152.3l0.6,0.1c0.1,0,0.1,0.1,0.1,0.1c0,0.1-0.1,0.3-0.1,0.3h-2.4c0,0,0-0.1,0-0.1c0-0.2,0.1-0.3,0.3-0.3l0.3-0.1
		v-2.7c0-0.9-0.5-1.2-1-1.2c-0.6,0-1,0.3-1.2,0.5v3.4l0.6,0.1c0.1,0,0.1,0.1,0.1,0.1c0,0.1-0.1,0.3-0.1,0.3h-2.4c0,0,0-0.1,0-0.1
		c0-0.2,0.1-0.3,0.3-0.3l0.4-0.1v-3.9l-0.7-0.1c0,0,0-0.1,0-0.1c0-0.2,0.1-0.3,0.4-0.3l1.4-0.1l-0.1,0.7h0c0.3-0.3,0.8-0.8,1.7-0.8
		c1,0,1.6,0.7,1.6,1.8V152.3z"/>
	<path d="M114.7,152.3l0.8,0.1c0,0,0,0,0,0.1c0,0.2-0.1,0.3-0.4,0.3l-1.4,0.1v-0.7h0c-0.2,0.3-0.7,0.7-1.5,0.7c-1,0-2-0.7-2-2.5
		c0-2,1.4-2.8,2.7-2.8c0.3,0,0.6,0.1,0.7,0.1v-1.8l-0.7-0.1c0,0,0-0.1,0-0.1c0-0.2,0.1-0.3,0.4-0.3l1.4-0.1V152.3z M113.7,148.6
		c-0.2-0.1-0.4-0.3-0.9-0.3c-0.9,0-1.5,0.6-1.5,2c0,1.4,0.6,1.9,1.3,1.9c0.6,0,0.9-0.3,1.1-0.4V148.6z"/>
	<path d="M117.2,150.4c0,1.3,0.6,1.9,1.5,1.9c0.7,0,1-0.3,1.3-0.5c0.1,0.1,0.2,0.3,0.2,0.4c0,0.3-0.7,0.9-1.9,0.9
		c-1.3,0-2.3-0.7-2.3-2.6s1.1-2.8,2.3-2.8c1.2,0,1.8,0.7,1.8,1.8c0,0.3-0.1,0.6-0.1,0.9H117.2z M119.1,149.8c0-0.1,0.1-0.3,0.1-0.5
		c0-0.6-0.2-1.1-0.8-1.1c-0.6,0-1,0.5-1.1,1.5H119.1z"/>
	<path d="M123.5,148.5c-0.1-0.1-0.4-0.2-0.7-0.2c-0.3,0-0.7,0.1-0.7,0.6c0,0.5,0.5,0.7,1,1c0.6,0.4,1.3,0.8,1.3,1.6
		c0,0.9-0.7,1.5-1.9,1.5c-0.6,0-1.1-0.2-1.3-0.3c0-0.3-0.1-0.5-0.1-0.8c0-0.4,0.1-0.6,0.4-0.6c0.1,0,0.1,0,0.1,0l0.2,0.9
		c0.1,0.1,0.4,0.2,0.7,0.2c0.5,0,0.8-0.2,0.8-0.6c0-0.5-0.5-0.7-1-1c-0.6-0.4-1.3-0.8-1.3-1.7c0-0.8,0.7-1.4,1.7-1.4
		c0.6,0,1,0.2,1.2,0.4c0,0.1,0,0.4,0,0.6c0,0.4-0.1,0.6-0.5,0.6c-0.1,0-0.1,0-0.1,0L123.5,148.5z"/>
	<path d="M128.2,148.4h-1.4v3.1c0,0.5,0.1,0.9,0.7,0.9c0.4,0,0.7-0.2,0.8-0.3c0.1,0.1,0.1,0.2,0.1,0.3c0,0.1-0.4,0.6-1.3,0.6
		c-1,0-1.3-0.6-1.3-1.4v-3.3h-0.8c0,0,0-0.1,0-0.1c0-0.2,0.1-0.3,0.3-0.4l0.5-0.1l0.2-1.4h0.8v1.4h1.6L128.2,148.4z"/>
	<path d="M132.6,151.8c0,0.4,0.2,0.5,0.3,0.5c0.2,0,0.4-0.1,0.4-0.2c0.1,0.1,0.1,0.2,0.1,0.3c0,0.1-0.3,0.5-1,0.5
		c-0.5,0-0.8-0.2-0.9-0.7h0c-0.1,0.2-0.5,0.8-1.4,0.8c-0.8,0-1.4-0.5-1.4-1.4c0-1.1,1.2-1.5,2.4-1.5h0.3v-0.5c0-1-0.3-1.3-0.9-1.3
		c-0.2,0-0.5,0.1-0.5,0.1c-0.1,0.2-0.2,0.6-0.2,0.9c0,0-0.2,0-0.2,0c-0.4,0-0.6-0.2-0.6-0.5c0-0.7,0.9-1.1,1.8-1.1
		c1.2,0,1.7,0.6,1.7,1.8V151.8z M131.3,150.6c-0.8,0-1.3,0.3-1.3,0.9c0,0.4,0.3,0.7,0.7,0.7c0.4,0,0.8-0.3,0.9-0.5v-1.2L131.3,150.6
		z"/>
	<path d="M138.5,148.4h-0.9c0.2,0.3,0.3,0.6,0.3,1c0,1.1-0.9,1.7-2.1,1.7c-0.2,0-0.3,0-0.5-0.1c-0.1,0.1-0.3,0.2-0.3,0.5
		c0,0.3,0.2,0.4,0.5,0.4h1.2c1,0,1.5,0.4,1.5,1.2c0,1-1,2-2.8,2c-1.3,0-1.9-0.5-1.9-1.2c0-0.7,0.6-1.1,1-1.2v0
		c-0.3-0.1-0.4-0.4-0.4-0.7c0-0.6,0.6-0.9,0.8-1v0c-0.6-0.3-1-0.8-1-1.6c0-1.1,0.9-1.7,2-1.7c0.3,0,0.6,0,0.8,0.1h1.8L138.5,148.4z
		 M135.5,152.8c-0.1,0-0.3,0-0.4,0c-0.3,0.2-0.5,0.4-0.5,0.8c0,0.5,0.3,0.9,1.1,0.9c1,0,1.6-0.5,1.6-1c0-0.4-0.2-0.6-0.8-0.6H135.5z
		 M135,149.4c0,0.8,0.4,1.2,0.9,1.2c0.6,0,1-0.3,1-1.2c0-0.7-0.4-1.1-1-1.1S135,148.6,135,149.4z"/>
	<path d="M140.3,150.4c0,1.3,0.6,1.9,1.5,1.9c0.7,0,1-0.3,1.3-0.5c0.1,0.1,0.2,0.3,0.2,0.4c0,0.3-0.7,0.9-1.9,0.9
		c-1.3,0-2.3-0.7-2.3-2.6s1.1-2.8,2.3-2.8c1.2,0,1.8,0.7,1.8,1.8c0,0.3-0.1,0.6-0.1,0.9H140.3z M142.1,149.8c0-0.1,0.1-0.3,0.1-0.5
		c0-0.6-0.2-1.1-0.8-1.1c-0.6,0-1,0.5-1.1,1.5H142.1z"/>
	<path d="M146.5,148.5c-0.1-0.1-0.4-0.2-0.7-0.2c-0.3,0-0.7,0.1-0.7,0.6c0,0.5,0.5,0.7,1,1c0.6,0.4,1.3,0.8,1.3,1.6
		c0,0.9-0.7,1.5-1.9,1.5c-0.6,0-1.1-0.2-1.3-0.3c0-0.3-0.1-0.5-0.1-0.8c0-0.4,0.1-0.6,0.4-0.6c0.1,0,0.1,0,0.1,0l0.2,0.9
		c0.1,0.1,0.4,0.2,0.7,0.2c0.5,0,0.8-0.2,0.8-0.6c0-0.5-0.5-0.7-1-1c-0.6-0.4-1.3-0.8-1.3-1.7c0-0.8,0.7-1.4,1.7-1.4
		c0.6,0,1,0.2,1.2,0.4c0,0.1,0,0.4,0,0.6c0,0.4-0.1,0.6-0.5,0.6c-0.1,0-0.1,0-0.1,0L146.5,148.5z"/>
</g>
<polygon class="st1" points="54.4,91.5 55.9,91.5 55.9,111.5 52.4,111.5 52.4,91.5 "/>
<polygon class="st2" points="54.4,71.5 55.9,71.5 55.9,91.5 52.4,91.5 52.4,71.5 "/>
<g>
	<path d="M43.3,58.5c1,1.6,1.8,1.6,3,1.6c-1-0.8-1.7-1.8-2-2.3l-1.9-3c-0.2-0.9-0.7-1.8-1.4-2.4c0.2-0.1,0.4-0.2,0.6-0.3
		c-1.2,0-2.4-0.6-3.1-0.6c-0.4,0-0.7,0.3-0.7,0.6c0,0.4,0.4,0.8,1.1,0.8c0.2,0,0.4,0,0.6-0.1c0.4,0.5,0.7,1,0.7,1.7
		c0,1.3-1.6,2.3-3.1,2.3c-0.1,0-0.2,0-0.3,0c-0.1-0.3-0.6-0.9-0.6-1.5c0-1,0.7-1.9,0.7-2.9c0-0.6-0.3-1-0.4-1.2
		c0.2-0.2,0.4-0.4,0.5-0.6c-0.1,0-0.2,0.1-0.4,0.1c-0.8,0-1.4-0.2-2-0.2c-0.3,0-0.4,0.1-0.4,0.2c0,0,0,0.1,0,0.1
		c-0.1-0.1-0.2-0.1-0.4-0.1c-0.2,0-0.4-0.1-0.6-0.1c-0.7,0-1,0.3-1,0.6c0,0.2,0.2,0.6,0.4,0.9c0.3-0.1,0.6-0.2,0.8-0.2
		c0.4,0,0.7,0.4,0.9,0.8c-0.3,0-0.3,0-0.6,0c-0.7,0-1.2-0.3-1.3-0.3c0,0,0,0,0,0c0,0.1,0.2,0.4,0.6,0.5c0.5,0.2,1.3,0.3,1.4,0.3
		c0,0-0.1,0.3-0.3,0.3c0,0-0.1,0-0.1,0c-0.5-0.1-0.7-0.2-1.4-0.4c0,0,0,0,0,0c0,0.3,0.7,0.9,1.3,1.1c-0.5,0.7-1.2,1.4-1.5,2.4
		c-0.1,0-0.2,0-0.3,0c-1.6,0-3.1-1-3.1-2.3c0-0.7,0.3-1.2,0.7-1.7c0.2,0,0.4,0.1,0.6,0.1c0.7,0,1.1-0.4,1.1-0.8
		c0-0.3-0.3-0.6-0.7-0.6c-0.7,0-1.9,0.6-3.1,0.6c0.1,0.1,0.3,0.2,0.6,0.3c-0.7,0.6-1.2,1.5-1.4,2.4l-1.9,3c-0.3,0.5-1,1.5-2,2.3
		c1.2,0,2,0,3-1.6l1-1.5c0.1,0.2,0.2,0.4,0.3,0.6l-1.9,3.1c-0.3,0.5-1,1.5-2,2.3c1.2,0,2,0,3-1.6l1.6-2.6c0.1,0.1,0.3,0.3,0.4,0.4
		l-2.3,3.7c-0.3,0.5-1,1.5-2,2.3c1.2,0,2,0,3-1.6l2.3-3.6c0.1,0.1,0.3,0.2,0.5,0.3l-2.8,4.4c-0.3,0.5-1,1.5-2,2.2c1.2,0,2,0,3-1.6
		l2.8-4.5c0.2,0.1,0.3,0.1,0.5,0.2l-3.2,5.1c-0.3,0.5-1,1.5-2,2.2c1.2,0,2,0,3-1.6l3.4-5.5c0,0,0.1,0,0.1,0c0.1,0.3,0.2,0.6,0.2,0.8
		c0,1.7-1.1,3.2-2.5,4.4c0.1,0,0.2,0.1,0.4,0.1c0.3,0,0.5,0,0.6,0c-0.3,0.7-1,1.6-1.3,2.1c-0.4-0.1-1.1-0.1-1.5-0.1
		c-0.4,0-0.5,0.3-0.5,0.5c0,0.4,0.2,0.7,0.4,0.9c0.1-0.2,0.2-0.5,1.1-0.5c0,0,0,0,0.1,0c-0.2,0.3-1,0.9-1,1.4c0,0.3,0.4,0.8,0.8,0.8
		c0-0.1,0-0.2,0-0.3c0-0.4,0.3-0.9,0.6-1.2c0,0.1,0,0.1,0,0.2c0,0.9,0.1,1.4,0.7,1.4c0.3,0,0.5-0.2,0.6-0.2C31,70.9,31,70.6,31,70.1
		c0-0.1,0-0.3,0-0.5c0-0.1,0-0.3,0-0.4c0.2,0,0.3,0,0.5,0c0,0,0.8-0.1,1,0.4c0.2-0.2,0.6-0.5,0.6-0.8c0-0.2-0.1-0.5-0.5-0.5
		c-0.2,0-0.7,0.1-1.1,0.1c0.1-0.3,0.6-1,1.1-1.6c0.1,0.2,0.2,0.4,0.4,0.6c0-0.4,0.2-1.5,0.8-2.1c0.1,0.4,0.2,0.9,0.2,1.8
		c0,2.3-0.6,4-1.7,4.3c0.2,0.3,0.5,0.5,0.8,0.5c0.4,0,0.7-0.5,0.9-0.9c0.1,0.3,0.5,1.2,0.8,1.2c0.3,0,0.7-0.8,0.8-1.2
		c0.2,0.5,0.5,0.9,0.9,0.9c0.3,0,0.7-0.2,0.8-0.5c-1.2-0.3-1.7-2-1.7-4.3c0-1,0.1-1.4,0.1-1.8c0.6,0.7,0.8,1.8,0.8,2.1
		c0.2-0.2,0.3-0.4,0.4-0.6c0.4,0.5,1,1.3,1.1,1.6c-0.4,0-0.9-0.1-1.1-0.1c-0.4,0-0.5,0.2-0.5,0.5c0,0.3,0.3,0.6,0.6,0.8
		c0.2-0.4,1-0.4,1-0.4c0.2,0,0.2,0,0.5,0c0,0.1,0,0.3,0,0.4c0,0.2,0,0.3,0,0.5c0,0.5,0,0.8-0.4,1.2c0.1,0,0.3,0.2,0.6,0.2
		c0.6,0,0.7-0.4,0.7-1.4c0-0.1,0-0.1,0-0.2c0.3,0.3,0.6,0.8,0.6,1.2c0,0.1,0,0.2,0,0.3c0.5,0,0.8-0.5,0.8-0.8c0-0.5-0.7-1.1-1-1.4
		c0,0,0.1,0,0.1,0c0.8,0,1,0.3,1.1,0.5c0.2-0.2,0.4-0.5,0.4-0.9c0-0.2,0-0.5-0.5-0.5c-0.4,0-1.1,0.1-1.5,0.1c-0.3-0.5-1-1.4-1.3-2.1
		c0.1,0,0.3,0,0.6,0c0.1,0,0.3,0,0.4-0.1c-1.4-1.2-2.5-2.7-2.5-4.4c0-0.3,0.1-0.6,0.2-0.8c0,0,0.1,0,0.1,0l3.4,5.5
		c1,1.6,1.8,1.6,3,1.6c-1-0.8-1.7-1.8-2-2.2l-3.2-5.1c0.2-0.1,0.3-0.1,0.5-0.2l2.8,4.5c1,1.6,1.8,1.6,3,1.6c-1-0.8-1.7-1.7-2-2.2
		L39.4,60c0.2-0.1,0.3-0.2,0.5-0.3l2.3,3.6c1,1.6,1.8,1.6,3,1.6c-1-0.8-1.7-1.7-2-2.3L40.9,59c0.1-0.1,0.3-0.2,0.4-0.4l1.6,2.6
		c1,1.6,1.8,1.6,3,1.6c-1-0.8-1.7-1.7-2-2.3l-1.9-3.1c0.1-0.2,0.2-0.4,0.3-0.6L43.3,58.5z M28,54.9c0-1.1,0.8-2,1.1-2.3
		c0.1,0,0.1,0,0.2,0c-0.3,0.4-0.9,1-0.9,1.9c0,1.7,1.8,3.1,3.8,3.1c0,0.1,0,0.3,0,0.4c0,0.2,0,0.5,0,0.7C30,58.8,28,56.9,28,54.9z
		 M31.1,68.6L31.1,68.6L31.1,68.6c0.7,0,1,0,1.2,0c0.1,0,0.2,0,0.3,0c0.2,0,0.3,0,0.3,0.2c0,0.1-0.2,0.4-0.3,0.5
		c-0.2-0.2-0.6-0.3-1-0.3c-0.2,0-0.5,0-0.7,0.1l0,0l0,0l0,0.1c0,0.1,0,0.3,0,0.5l0,0.2l0,0.3c0,0.5,0.1,0.9,0.3,1.1c0,0-0.1,0-0.2,0
		c-0.3,0-0.4-0.1-0.4-1.1c0-0.2,0-0.4,0-0.5l0-0.2l0,0c-0.5,0.4-1,1.1-1.1,1.6c-0.2-0.1-0.3-0.3-0.3-0.5c0-0.3,0.4-0.7,0.9-1.2
		l0.3-0.3l0,0l-0.1,0C30,69,29.8,69,29.6,69c-0.5,0-0.9,0.1-1.1,0.3c-0.1-0.1-0.1-0.4-0.1-0.5c0-0.1,0-0.2,0.1-0.2c0,0,0.1,0,0.2,0
		h0c0.6,0,1.3,0.1,1.6,0.2l0,0l0,0c0-0.1,1.2-1.6,1.5-2.4c0.1,0,0.1,0,0.2,0c0.2,0,0.3,0.2,0.4,0.4C31.7,67.5,31.2,68.2,31.1,68.6z
		 M37.2,66.2c0.1,0,0.2,0,0.2,0c0.3,0.8,1.4,2.3,1.5,2.4l0,0l0,0c0.3,0,1-0.2,1.6-0.2h0c0.1,0,0.1,0,0.2,0c0,0,0.1,0.1,0.1,0.2
		c0,0.1-0.1,0.4-0.1,0.5c-0.2-0.2-0.6-0.3-1.1-0.3c-0.2,0-0.4,0-0.5,0.1l0,0l0,0l0.3,0.3c0.5,0.5,0.9,0.9,0.9,1.2
		c0,0.2-0.2,0.4-0.3,0.5c0-0.5-0.5-1.2-1.1-1.6l0,0l0,0.2c0,0.1,0,0.3,0,0.5c0,1-0.1,1.1-0.4,1.1c-0.1,0-0.1,0-0.2,0
		c0.2-0.2,0.3-0.5,0.3-1.1l0-0.3l0-0.2c0-0.2,0-0.4,0-0.5l0-0.1l-0.1,0C38.3,69,38,69,37.8,69c-0.5,0-0.8,0-1,0.3
		c-0.2-0.1-0.3-0.3-0.3-0.5c0-0.2,0.1-0.2,0.3-0.2c0.1,0,0.2,0,0.3,0c0.2,0,0.5,0.1,1.2,0.1h0l0,0c-0.2-0.5-0.6-1.1-1.3-2
		C36.9,66.4,37,66.2,37.2,66.2z M34.6,52.9c-0.1-0.3-0.2-0.6-0.4-0.8c-0.2-0.2-0.5-0.5-0.9-0.5c-0.2,0-0.5,0.1-0.7,0.2
		c-0.1-0.1-0.2-0.4-0.2-0.6c0-0.1,0.2-0.3,0.7-0.3c1,0,1.6,0.5,1.6,1.2C34.8,52.5,34.7,52.7,34.6,52.9z M35,51.9
		c0-0.2-0.1-0.4-0.2-0.6c0-0.2,0.1-0.4,0.4-0.2c-0.2,0.2,0,0.5,0,0.5s0.4-0.2,0.3-0.4C36,51.3,35.6,52,35,51.9z M37.1,58.8
		c0-0.2,0-0.5,0-0.7c0-0.1,0-0.3,0-0.4c2,0,3.7-1.5,3.7-3.1c0-0.8-0.5-1.5-0.9-1.9c0.1,0,0.1,0,0.2,0c0.3,0.3,1.1,1.2,1.1,2.3
		C41.3,56.9,39.3,58.8,37.1,58.8z"/>
</g>
<polygon points="55.9,51.5 55.9,71.5 54.4,71.5 52.4,71.5 52.4,51.5 "/>
<path d="M67.6,53.4c0,0.3,0,0.5-0.1,0.7c-0.1,0.2-0.2,0.4-0.3,0.6c-0.1,0.2-0.3,0.3-0.4,0.4c-0.2,0.1-0.3,0.2-0.5,0.2v0
	c0.2,0,0.4,0.1,0.6,0.2c0.2,0.1,0.3,0.2,0.5,0.4c0.1,0.2,0.2,0.4,0.3,0.6c0.1,0.2,0.1,0.5,0.1,0.7c0,0.3-0.1,0.6-0.2,0.9
	c-0.1,0.3-0.3,0.5-0.5,0.7c-0.2,0.2-0.5,0.4-0.9,0.5s-0.8,0.2-1.3,0.2h-1.7v-8.2h1.6c0.5,0,0.9,0,1.2,0.1c0.3,0.1,0.6,0.2,0.9,0.4
	c0.2,0.2,0.4,0.4,0.5,0.7C67.6,52.8,67.6,53.1,67.6,53.4z M66.6,53.5c0-0.4-0.1-0.7-0.4-0.9s-0.7-0.4-1.3-0.4h-0.5V55h0.5
	c0.6,0,1-0.1,1.3-0.4S66.6,53.9,66.6,53.5z M66.7,57.2c0-0.4-0.1-0.8-0.4-1.1c-0.3-0.3-0.7-0.4-1.2-0.4h-0.7v2.9H65
	c0.6,0,1.1-0.1,1.3-0.4C66.6,58.1,66.7,57.7,66.7,57.2z M73.1,59.5h-0.9v-0.6h0c0,0-0.1,0.1-0.2,0.2c-0.1,0.1-0.2,0.2-0.3,0.3
	c-0.1,0.1-0.3,0.2-0.4,0.2s-0.4,0.1-0.6,0.1c-0.3,0-0.5,0-0.7-0.1c-0.2-0.1-0.4-0.2-0.5-0.4c-0.1-0.2-0.3-0.4-0.3-0.6
	c-0.1-0.3-0.1-0.6-0.1-1v-3.7h1v3.7c0,0.5,0.1,0.8,0.2,1c0.2,0.2,0.4,0.3,0.7,0.3c0.3,0,0.5-0.1,0.7-0.2c0.2-0.1,0.3-0.3,0.5-0.4
	v-4.4h1V59.5z M77.7,59.5v-3.7c0-0.5-0.1-0.8-0.2-1c-0.2-0.2-0.4-0.3-0.7-0.3c-0.3,0-0.5,0.1-0.7,0.2s-0.3,0.3-0.5,0.4v4.4h-1v-5.7
	h0.9v0.6h0c0,0,0.1-0.1,0.2-0.2c0.1-0.1,0.2-0.2,0.3-0.3c0.1-0.1,0.3-0.2,0.5-0.2c0.2-0.1,0.4-0.1,0.6-0.1c0.3,0,0.5,0,0.7,0.1
	c0.2,0.1,0.4,0.2,0.5,0.4s0.3,0.4,0.3,0.6c0.1,0.3,0.1,0.6,0.1,1v3.7H77.7z M79.8,56.8c0-0.6,0.1-1.1,0.2-1.5
	c0.2-0.4,0.3-0.7,0.6-0.9s0.5-0.4,0.8-0.5c0.3-0.1,0.6-0.1,0.9-0.1c0.2,0,0.3,0,0.5,0c0.1,0,0.2,0.1,0.3,0.1v-2.7l1-0.1v8.5h-0.9
	v-0.6h0c0,0-0.1,0.1-0.1,0.2c-0.1,0.1-0.2,0.2-0.3,0.2c-0.1,0.1-0.2,0.2-0.4,0.2c-0.2,0.1-0.4,0.1-0.6,0.1c-0.3,0-0.5-0.1-0.8-0.2
	c-0.2-0.1-0.5-0.3-0.6-0.5c-0.2-0.2-0.3-0.5-0.4-0.9C79.9,57.7,79.8,57.3,79.8,56.8z M82.1,58.8c0.2,0,0.3,0,0.4-0.1
	c0.1,0,0.2-0.1,0.3-0.1c0.1-0.1,0.2-0.1,0.2-0.2c0.1-0.1,0.1-0.1,0.1-0.2v-3.5c-0.1-0.1-0.2-0.1-0.3-0.1c-0.1,0-0.3-0.1-0.4-0.1
	c-0.2,0-0.4,0-0.6,0.1c-0.2,0.1-0.4,0.2-0.5,0.4c-0.1,0.2-0.3,0.4-0.3,0.7c-0.1,0.3-0.1,0.6-0.1,1c0,0.4,0,0.7,0.1,1
	c0.1,0.3,0.2,0.5,0.3,0.6c0.1,0.2,0.3,0.3,0.4,0.4C81.8,58.8,81.9,58.8,82.1,58.8z M89.3,55.7c0,0.2,0,0.5,0,0.6c0,0.2,0,0.3,0,0.5
	h-2.9c0,0.7,0.2,1.2,0.4,1.5c0.3,0.3,0.6,0.5,1.1,0.5c0.2,0,0.3,0,0.5-0.1c0.1,0,0.3-0.1,0.4-0.1c0.1-0.1,0.2-0.1,0.2-0.2
	c0.1-0.1,0.1-0.1,0.1-0.1l0.4,0.7c0,0-0.1,0.1-0.2,0.2c-0.1,0.1-0.2,0.2-0.3,0.2c-0.1,0.1-0.3,0.1-0.5,0.2c-0.2,0.1-0.4,0.1-0.7,0.1
	c-0.4,0-0.7-0.1-1-0.2c-0.3-0.1-0.5-0.3-0.7-0.6s-0.4-0.6-0.5-1c-0.1-0.4-0.2-0.8-0.2-1.4c0-0.5,0.1-0.9,0.2-1.3
	c0.1-0.4,0.3-0.7,0.5-0.9c0.2-0.2,0.4-0.4,0.7-0.5c0.3-0.1,0.5-0.2,0.8-0.2c0.5,0,1,0.2,1.3,0.5S89.3,55.1,89.3,55.7z M87.5,54.5
	c-0.3,0-0.6,0.1-0.8,0.4c-0.2,0.3-0.3,0.7-0.4,1.2h2.1c0,0,0-0.1,0-0.2c0-0.1,0-0.2,0-0.2c0-0.4-0.1-0.7-0.2-0.9
	C88,54.6,87.8,54.5,87.5,54.5z M93,55c-0.1-0.1-0.2-0.2-0.3-0.3c-0.2-0.1-0.4-0.2-0.7-0.2c-0.3,0-0.4,0.1-0.6,0.2
	c-0.1,0.1-0.2,0.3-0.2,0.4c0,0.2,0.1,0.4,0.2,0.5c0.1,0.1,0.3,0.3,0.6,0.4l0.4,0.2c0.4,0.2,0.7,0.5,0.9,0.7c0.2,0.3,0.3,0.6,0.3,1
	c0,0.5-0.2,0.8-0.5,1.1c-0.3,0.3-0.8,0.5-1.4,0.5c-0.2,0-0.4,0-0.6-0.1s-0.3-0.1-0.5-0.2c-0.1-0.1-0.2-0.1-0.3-0.2
	c-0.1-0.1-0.2-0.1-0.2-0.2l0.5-0.8c0,0,0.1,0.1,0.2,0.2c0.1,0.1,0.1,0.1,0.2,0.2c0.1,0.1,0.2,0.1,0.3,0.1c0.1,0,0.3,0.1,0.4,0.1
	c0.3,0,0.5-0.1,0.7-0.2c0.2-0.1,0.2-0.3,0.2-0.5c0-0.1,0-0.3-0.1-0.4c0-0.1-0.1-0.2-0.2-0.3c-0.1-0.1-0.2-0.2-0.3-0.2
	c-0.1-0.1-0.2-0.2-0.4-0.2l-0.4-0.2c-0.4-0.2-0.6-0.5-0.8-0.7c-0.2-0.3-0.3-0.6-0.3-1c0-0.2,0-0.4,0.1-0.6c0.1-0.2,0.2-0.3,0.4-0.5
	c0.2-0.1,0.3-0.2,0.5-0.3c0.2-0.1,0.4-0.1,0.6-0.1c0.2,0,0.4,0,0.6,0.1c0.2,0,0.3,0.1,0.4,0.2c0.1,0.1,0.2,0.1,0.3,0.2
	c0.1,0.1,0.1,0.1,0.2,0.2L93,55z M97.7,59.5v-3.7c0-0.5-0.1-0.8-0.2-1c-0.1-0.2-0.4-0.3-0.7-0.3c-0.2,0-0.3,0-0.4,0.1
	c-0.1,0-0.2,0.1-0.3,0.1c-0.1,0.1-0.2,0.1-0.2,0.2c-0.1,0.1-0.1,0.1-0.2,0.2v4.4h-1v-5.7h0.9v0.6h0c0-0.1,0.1-0.1,0.2-0.2
	c0.1-0.1,0.2-0.2,0.3-0.3c0.1-0.1,0.3-0.2,0.4-0.2c0.2-0.1,0.3-0.1,0.5-0.1c0.7,0,1.1,0.3,1.4,0.8c0.1-0.1,0.1-0.2,0.2-0.3
	c0.1-0.1,0.2-0.2,0.3-0.2c0.1-0.1,0.3-0.1,0.4-0.2s0.3-0.1,0.5-0.1c1.2,0,1.7,0.7,1.7,2v3.8h-1v-3.7c0-0.5-0.1-0.8-0.2-1
	c-0.2-0.2-0.4-0.3-0.7-0.3c-0.3,0-0.5,0.1-0.7,0.2c-0.2,0.1-0.3,0.3-0.4,0.4c0,0.1,0,0.2,0,0.3c0,0.1,0,0.2,0,0.3v3.8H97.7z
	 M104.1,59.5h-1v-5.7h1V59.5z M103.6,52.4c-0.2,0-0.4-0.1-0.5-0.2c-0.1-0.1-0.2-0.3-0.2-0.5c0-0.2,0.1-0.4,0.2-0.5
	c0.1-0.1,0.3-0.2,0.5-0.2c0.2,0,0.3,0.1,0.5,0.2c0.1,0.1,0.2,0.3,0.2,0.5c0,0.2-0.1,0.4-0.2,0.5C104,52.4,103.8,52.4,103.6,52.4z
	 M108.7,59.5v-3.7c0-0.5-0.1-0.8-0.2-1c-0.2-0.2-0.4-0.3-0.7-0.3c-0.3,0-0.5,0.1-0.7,0.2s-0.3,0.3-0.5,0.4v4.4h-1v-5.7h0.9v0.6h0
	c0,0,0.1-0.1,0.2-0.2c0.1-0.1,0.2-0.2,0.3-0.3c0.1-0.1,0.3-0.2,0.5-0.2c0.2-0.1,0.4-0.1,0.6-0.1c0.3,0,0.5,0,0.7,0.1
	c0.2,0.1,0.4,0.2,0.5,0.4s0.3,0.4,0.3,0.6c0.1,0.3,0.1,0.6,0.1,1v3.7H108.7z M112.1,59.5h-1v-5.7h1V59.5z M111.6,52.4
	c-0.2,0-0.4-0.1-0.5-0.2c-0.1-0.1-0.2-0.3-0.2-0.5c0-0.2,0.1-0.4,0.2-0.5c0.1-0.1,0.3-0.2,0.5-0.2c0.2,0,0.3,0.1,0.5,0.2
	c0.1,0.1,0.2,0.3,0.2,0.5c0,0.2-0.1,0.4-0.2,0.5C111.9,52.4,111.8,52.4,111.6,52.4z M116,55c-0.1-0.1-0.2-0.2-0.3-0.3
	c-0.2-0.1-0.4-0.2-0.7-0.2c-0.3,0-0.4,0.1-0.6,0.2c-0.1,0.1-0.2,0.3-0.2,0.4c0,0.2,0.1,0.4,0.2,0.5c0.1,0.1,0.3,0.3,0.6,0.4l0.4,0.2
	c0.4,0.2,0.7,0.5,0.9,0.7c0.2,0.3,0.3,0.6,0.3,1c0,0.5-0.2,0.8-0.5,1.1c-0.3,0.3-0.8,0.5-1.4,0.5c-0.2,0-0.4,0-0.6-0.1
	s-0.3-0.1-0.5-0.2c-0.1-0.1-0.2-0.1-0.3-0.2c-0.1-0.1-0.2-0.1-0.2-0.2l0.5-0.8c0,0,0.1,0.1,0.2,0.2c0.1,0.1,0.1,0.1,0.2,0.2
	c0.1,0.1,0.2,0.1,0.3,0.1c0.1,0,0.3,0.1,0.4,0.1c0.3,0,0.5-0.1,0.7-0.2s0.2-0.3,0.2-0.5c0-0.1,0-0.3-0.1-0.4c0-0.1-0.1-0.2-0.2-0.3
	c-0.1-0.1-0.2-0.2-0.3-0.2c-0.1-0.1-0.2-0.2-0.4-0.2l-0.4-0.2c-0.4-0.2-0.6-0.5-0.8-0.7c-0.2-0.3-0.3-0.6-0.3-1c0-0.2,0-0.4,0.1-0.6
	c0.1-0.2,0.2-0.3,0.4-0.5c0.2-0.1,0.3-0.2,0.5-0.3c0.2-0.1,0.4-0.1,0.6-0.1c0.2,0,0.4,0,0.6,0.1c0.2,0,0.3,0.1,0.4,0.2
	c0.1,0.1,0.2,0.1,0.3,0.2c0.1,0.1,0.1,0.1,0.2,0.2L116,55z M120.1,54.6h-1.2v3.2c0,0.4,0.1,0.7,0.2,0.8c0.1,0.1,0.3,0.2,0.5,0.2
	c0.1,0,0.3,0,0.4-0.1c0.1,0,0.2-0.1,0.2-0.1l0.1,0.8c0,0-0.1,0.1-0.3,0.1c-0.2,0.1-0.4,0.1-0.6,0.1c-0.5,0-0.9-0.1-1.1-0.4
	c-0.2-0.3-0.4-0.7-0.4-1.4v-3.3h-0.7V54l0.7-0.1l0.1-1.6h0.9v1.6h1.4L120.1,54.6z M124.8,55.7c0,0.2,0,0.5,0,0.6c0,0.2,0,0.3,0,0.5
	h-2.9c0,0.7,0.2,1.2,0.4,1.5c0.3,0.3,0.6,0.5,1.1,0.5c0.2,0,0.3,0,0.5-0.1s0.3-0.1,0.4-0.1c0.1-0.1,0.2-0.1,0.2-0.2
	c0.1-0.1,0.1-0.1,0.1-0.1l0.4,0.7c0,0-0.1,0.1-0.2,0.2c-0.1,0.1-0.2,0.2-0.3,0.2c-0.1,0.1-0.3,0.1-0.5,0.2s-0.4,0.1-0.7,0.1
	c-0.4,0-0.7-0.1-1-0.2c-0.3-0.1-0.5-0.3-0.7-0.6s-0.4-0.6-0.5-1c-0.1-0.4-0.2-0.8-0.2-1.4c0-0.5,0.1-0.9,0.2-1.3
	c0.1-0.4,0.3-0.7,0.5-0.9c0.2-0.2,0.4-0.4,0.7-0.5c0.3-0.1,0.5-0.2,0.8-0.2c0.5,0,1,0.2,1.3,0.5C124.7,54.5,124.8,55.1,124.8,55.7z
	 M123,54.5c-0.3,0-0.6,0.1-0.8,0.4c-0.2,0.3-0.3,0.7-0.4,1.2h2.1c0,0,0-0.1,0-0.2c0-0.1,0-0.2,0-0.2c0-0.4-0.1-0.7-0.2-0.9
	C123.5,54.6,123.3,54.5,123,54.5z M128.6,54.7c0,0-0.1,0-0.2-0.1s-0.2,0-0.3,0c-0.3,0-0.5,0.1-0.7,0.2c-0.2,0.2-0.3,0.3-0.4,0.5v4.2
	h-1v-5.7h0.9v0.8h0c0-0.1,0.1-0.2,0.2-0.3c0.1-0.1,0.1-0.2,0.2-0.3c0.1-0.1,0.2-0.1,0.3-0.2c0.1,0,0.3-0.1,0.5-0.1
	c0.1,0,0.2,0,0.3,0s0.1,0,0.2,0.1L128.6,54.7z M130.5,59.5h-1v-5.7h1V59.5z M130.1,52.4c-0.2,0-0.4-0.1-0.5-0.2s-0.2-0.3-0.2-0.5
	c0-0.2,0.1-0.4,0.2-0.5s0.3-0.2,0.5-0.2c0.2,0,0.3,0.1,0.5,0.2s0.2,0.3,0.2,0.5c0,0.2-0.1,0.4-0.2,0.5S130.2,52.4,130.1,52.4z
	 M136,59.5h-0.9v-0.6h0c0,0-0.1,0.1-0.2,0.2c-0.1,0.1-0.2,0.2-0.3,0.3c-0.1,0.1-0.3,0.2-0.4,0.2s-0.4,0.1-0.6,0.1
	c-0.3,0-0.5,0-0.7-0.1c-0.2-0.1-0.4-0.2-0.5-0.4c-0.1-0.2-0.3-0.4-0.3-0.6c-0.1-0.3-0.1-0.6-0.1-1v-3.7h1v3.7c0,0.5,0.1,0.8,0.2,1
	c0.2,0.2,0.4,0.3,0.7,0.3c0.3,0,0.5-0.1,0.7-0.2c0.2-0.1,0.3-0.3,0.5-0.4v-4.4h1V59.5z M140.5,59.5v-3.7c0-0.5-0.1-0.8-0.2-1
	c-0.1-0.2-0.4-0.3-0.7-0.3c-0.2,0-0.3,0-0.4,0.1c-0.1,0-0.2,0.1-0.3,0.1c-0.1,0.1-0.2,0.1-0.2,0.2c-0.1,0.1-0.1,0.1-0.2,0.2v4.4h-1
	v-5.7h0.9v0.6h0c0-0.1,0.1-0.1,0.2-0.2c0.1-0.1,0.2-0.2,0.3-0.3c0.1-0.1,0.3-0.2,0.4-0.2c0.2-0.1,0.3-0.1,0.5-0.1
	c0.7,0,1.1,0.3,1.4,0.8c0.1-0.1,0.1-0.2,0.2-0.3c0.1-0.1,0.2-0.2,0.3-0.2c0.1-0.1,0.3-0.1,0.4-0.2s0.3-0.1,0.5-0.1
	c1.2,0,1.7,0.7,1.7,2v3.8h-1v-3.7c0-0.5-0.1-0.8-0.2-1c-0.2-0.2-0.4-0.3-0.7-0.3c-0.3,0-0.5,0.1-0.7,0.2c-0.2,0.1-0.3,0.3-0.4,0.4
	c0,0.1,0,0.2,0,0.3c0,0.1,0,0.2,0,0.3v3.8H140.5z M65.5,66.6h-1.2v4.9h-1v-4.9h-0.7V66l0.7-0.1v-1.1c0-0.3,0-0.6,0.1-0.8
	c0.1-0.2,0.2-0.4,0.3-0.5s0.3-0.2,0.5-0.3s0.4-0.1,0.6-0.1c0.2,0,0.4,0,0.5,0.1s0.2,0.1,0.3,0.1L65.6,64c0,0-0.1-0.1-0.2-0.1
	c-0.1,0-0.2-0.1-0.3-0.1c-0.2,0-0.4,0.1-0.5,0.2c-0.1,0.1-0.2,0.4-0.2,0.8v1h1.3L65.5,66.6z M70.5,71.5h-0.9v-0.6h0
	c0,0-0.1,0.1-0.2,0.2c-0.1,0.1-0.2,0.2-0.3,0.3c-0.1,0.1-0.3,0.2-0.4,0.2c-0.2,0.1-0.4,0.1-0.6,0.1c-0.3,0-0.5,0-0.7-0.1
	c-0.2-0.1-0.4-0.2-0.5-0.4c-0.1-0.2-0.3-0.4-0.3-0.6c-0.1-0.3-0.1-0.6-0.1-1v-3.7h1v3.7c0,0.5,0.1,0.8,0.2,1
	c0.2,0.2,0.4,0.3,0.7,0.3c0.3,0,0.5-0.1,0.7-0.2c0.2-0.1,0.3-0.3,0.5-0.4v-4.4h1V71.5z M68.1,64.2c0,0.2-0.1,0.3-0.2,0.4
	s-0.2,0.2-0.4,0.2s-0.3-0.1-0.4-0.2S67,64.4,67,64.2c0-0.2,0.1-0.3,0.2-0.4c0.1-0.1,0.2-0.2,0.4-0.2s0.3,0.1,0.4,0.2
	C68,63.8,68.1,64,68.1,64.2z M69.9,64.2c0,0.2-0.1,0.3-0.2,0.4s-0.2,0.2-0.4,0.2c-0.2,0-0.3-0.1-0.4-0.2s-0.2-0.3-0.2-0.4
	c0-0.2,0.1-0.3,0.2-0.4c0.1-0.1,0.2-0.2,0.4-0.2c0.2,0,0.3,0.1,0.4,0.2C69.9,63.8,69.9,64,69.9,64.2z M74.5,66.7c0,0-0.1,0-0.2-0.1
	c-0.1,0-0.2,0-0.3,0c-0.3,0-0.5,0.1-0.7,0.2c-0.2,0.2-0.3,0.3-0.4,0.5v4.2h-1v-5.7h0.9v0.8h0c0-0.1,0.1-0.2,0.2-0.3
	c0.1-0.1,0.1-0.2,0.2-0.3c0.1-0.1,0.2-0.1,0.3-0.2c0.1,0,0.3-0.1,0.5-0.1c0.1,0,0.2,0,0.3,0c0.1,0,0.1,0,0.2,0.1L74.5,66.7z
	 M85.9,63.3l-2,8.2H83l-1.2-5.2c-0.1-0.4-0.2-0.7-0.2-1c-0.1-0.3-0.1-0.6-0.1-0.7h0c0,0.2,0,0.4-0.1,0.7s-0.1,0.6-0.2,1l-1.3,5.2
	h-0.9l-2-8.2H78l1,5c0.1,0.4,0.1,0.7,0.2,1.1c0.1,0.3,0.1,0.6,0.1,0.8h0c0-0.2,0-0.4,0.1-0.8c0.1-0.3,0.2-0.7,0.2-1.1l1.2-5h1l1.2,5
	c0.1,0.4,0.2,0.7,0.2,1.1c0.1,0.3,0.1,0.6,0.1,0.8h0c0-0.2,0-0.5,0.1-0.8c0.1-0.4,0.1-0.7,0.2-1.1l1-5H85.9z M87.7,71.5h-1v-5.7h1
	V71.5z M87.3,64.4c-0.2,0-0.4-0.1-0.5-0.2c-0.1-0.1-0.2-0.3-0.2-0.5c0-0.2,0.1-0.4,0.2-0.5c0.1-0.1,0.3-0.2,0.5-0.2
	c0.2,0,0.3,0.1,0.5,0.2c0.1,0.1,0.2,0.3,0.2,0.5c0,0.2-0.1,0.4-0.2,0.5C87.6,64.4,87.4,64.4,87.3,64.4z M91.7,66.7
	c0,0-0.1,0-0.2-0.1c-0.1,0-0.2,0-0.3,0c-0.3,0-0.5,0.1-0.7,0.2c-0.2,0.2-0.3,0.3-0.4,0.5v4.2h-1v-5.7h0.9v0.8h0
	c0-0.1,0.1-0.2,0.2-0.3c0.1-0.1,0.1-0.2,0.2-0.3c0.1-0.1,0.2-0.1,0.3-0.2c0.1,0,0.3-0.1,0.5-0.1c0.1,0,0.2,0,0.3,0
	c0.1,0,0.1,0,0.2,0.1L91.7,66.7z M95.1,66.6h-1.2v3.2c0,0.4,0.1,0.7,0.2,0.8c0.1,0.1,0.3,0.2,0.5,0.2c0.1,0,0.3,0,0.4-0.1
	c0.1,0,0.2-0.1,0.2-0.1l0.1,0.8c0,0-0.1,0.1-0.3,0.1c-0.2,0.1-0.4,0.1-0.6,0.1c-0.5,0-0.9-0.1-1.1-0.4c-0.2-0.3-0.4-0.7-0.4-1.4
	v-3.3h-0.7V66l0.7-0.1l0.1-1.6h0.9v1.6h1.4L95.1,66.6z M98.7,67c-0.1-0.1-0.2-0.2-0.3-0.3c-0.2-0.1-0.4-0.2-0.7-0.2
	c-0.3,0-0.4,0.1-0.6,0.2c-0.1,0.1-0.2,0.3-0.2,0.4c0,0.2,0.1,0.4,0.2,0.5c0.1,0.1,0.3,0.3,0.6,0.4l0.4,0.2c0.4,0.2,0.7,0.5,0.9,0.7
	c0.2,0.3,0.3,0.6,0.3,1c0,0.5-0.2,0.8-0.5,1.1c-0.3,0.3-0.8,0.5-1.4,0.5c-0.2,0-0.4,0-0.6-0.1c-0.2,0-0.3-0.1-0.5-0.2
	c-0.1-0.1-0.2-0.1-0.3-0.2c-0.1-0.1-0.2-0.1-0.2-0.2l0.5-0.8c0,0,0.1,0.1,0.2,0.2c0.1,0.1,0.1,0.1,0.2,0.2s0.2,0.1,0.3,0.1
	c0.1,0,0.3,0.1,0.4,0.1c0.3,0,0.5-0.1,0.7-0.2c0.2-0.1,0.2-0.3,0.2-0.5c0-0.1,0-0.3-0.1-0.4c0-0.1-0.1-0.2-0.2-0.3
	c-0.1-0.1-0.2-0.2-0.3-0.2c-0.1-0.1-0.2-0.2-0.4-0.2l-0.4-0.2c-0.4-0.2-0.6-0.5-0.8-0.7c-0.2-0.3-0.3-0.6-0.3-1c0-0.2,0-0.4,0.1-0.6
	c0.1-0.2,0.2-0.3,0.4-0.5c0.2-0.1,0.3-0.2,0.5-0.3c0.2-0.1,0.4-0.1,0.6-0.1c0.2,0,0.4,0,0.6,0.1c0.2,0,0.3,0.1,0.4,0.2
	c0.1,0.1,0.2,0.1,0.3,0.2c0.1,0.1,0.1,0.1,0.2,0.2L98.7,67z M103.5,66.9c0,0-0.1-0.1-0.1-0.1c-0.1,0-0.1-0.1-0.2-0.1
	s-0.2-0.1-0.3-0.1c-0.1,0-0.2-0.1-0.4-0.1c-0.2,0-0.4,0-0.6,0.1c-0.2,0.1-0.3,0.2-0.5,0.4c-0.1,0.2-0.2,0.4-0.3,0.6
	c-0.1,0.3-0.1,0.6-0.1,1c0,0.4,0,0.8,0.1,1.1c0.1,0.3,0.2,0.5,0.3,0.7c0.1,0.2,0.3,0.3,0.4,0.4c0.2,0.1,0.4,0.1,0.6,0.1
	c0.3,0,0.5-0.1,0.7-0.2c0.2-0.1,0.3-0.2,0.3-0.2l0.4,0.7c0,0-0.1,0.1-0.2,0.2c-0.1,0.1-0.2,0.1-0.3,0.2c-0.1,0.1-0.3,0.1-0.4,0.2
	c-0.2,0-0.4,0.1-0.6,0.1c-0.3,0-0.6-0.1-0.9-0.2c-0.3-0.1-0.5-0.3-0.7-0.5s-0.4-0.5-0.5-0.9c-0.1-0.4-0.2-0.9-0.2-1.4
	c0-0.5,0.1-1,0.2-1.4c0.1-0.4,0.3-0.7,0.6-0.9c0.2-0.2,0.5-0.4,0.8-0.5c0.3-0.1,0.6-0.2,0.9-0.2c0.2,0,0.4,0,0.6,0.1
	c0.2,0,0.3,0.1,0.4,0.1c0.1,0.1,0.2,0.1,0.3,0.2c0.1,0.1,0.1,0.1,0.2,0.2L103.5,66.9z M108.1,71.5v-3.7c0-0.5-0.1-0.8-0.2-1
	c-0.2-0.2-0.4-0.3-0.7-0.3c-0.3,0-0.5,0.1-0.7,0.2s-0.3,0.3-0.5,0.4v4.4h-1v-8.4l1-0.1v3.4h0c0,0,0.1-0.1,0.1-0.2
	c0.1-0.1,0.2-0.2,0.3-0.2c0.1-0.1,0.3-0.1,0.4-0.2c0.2-0.1,0.4-0.1,0.6-0.1c0.5,0,0.9,0.2,1.2,0.5c0.3,0.3,0.4,0.9,0.4,1.6v3.7
	H108.1z M110.2,70.1c0-0.3,0.1-0.6,0.2-0.8s0.3-0.4,0.5-0.5c0.2-0.1,0.5-0.2,0.8-0.3c0.3-0.1,0.6-0.1,0.9-0.1h0.3v-0.5
	c0-0.5-0.1-0.8-0.3-1c-0.2-0.2-0.4-0.3-0.7-0.3c-0.3,0-0.5,0.1-0.7,0.2c-0.2,0.1-0.3,0.2-0.5,0.3l-0.4-0.6c0.1-0.1,0.1-0.1,0.2-0.2
	c0.1-0.1,0.2-0.2,0.4-0.2c0.1-0.1,0.3-0.1,0.5-0.2c0.2,0,0.4-0.1,0.6-0.1c0.6,0,1,0.2,1.3,0.5c0.3,0.3,0.5,0.8,0.5,1.6v2.6
	c0,0.2,0,0.5,0,0.7c0,0.2,0,0.4,0,0.5h-0.9l0-0.6h0c0,0.1-0.1,0.2-0.1,0.2c-0.1,0.1-0.1,0.2-0.2,0.2c-0.1,0.1-0.2,0.1-0.3,0.2
	c-0.1,0.1-0.3,0.1-0.5,0.1c-0.2,0-0.4,0-0.6-0.1c-0.2-0.1-0.3-0.2-0.5-0.3c-0.1-0.1-0.2-0.3-0.3-0.5
	C110.2,70.5,110.2,70.3,110.2,70.1z M111.9,70.9c0.1,0,0.3,0,0.4-0.1c0.1,0,0.2-0.1,0.3-0.1c0.1-0.1,0.1-0.1,0.2-0.2
	c0.1-0.1,0.1-0.1,0.1-0.2V69l-0.3,0c-0.5,0-0.8,0.1-1,0.2c-0.2,0.1-0.4,0.4-0.4,0.7c0,0.3,0.1,0.5,0.2,0.7
	C111.5,70.8,111.6,70.9,111.9,70.9z M117.6,66.6h-1.2v4.9h-1v-4.9h-0.7V66l0.7-0.1v-1.1c0-0.3,0-0.6,0.1-0.8
	c0.1-0.2,0.2-0.4,0.3-0.5s0.3-0.2,0.5-0.3s0.4-0.1,0.6-0.1c0.2,0,0.4,0,0.5,0.1s0.2,0.1,0.3,0.1l-0.2,0.8c0,0-0.1-0.1-0.2-0.1
	c-0.1,0-0.2-0.1-0.3-0.1c-0.2,0-0.4,0.1-0.5,0.2c-0.1,0.1-0.2,0.4-0.2,0.8v1h1.3L117.6,66.6z M121,66.6h-1.2v3.2
	c0,0.4,0.1,0.7,0.2,0.8c0.1,0.1,0.3,0.2,0.5,0.2c0.1,0,0.3,0,0.4-0.1c0.1,0,0.2-0.1,0.2-0.1l0.1,0.8c0,0-0.1,0.1-0.3,0.1
	c-0.2,0.1-0.4,0.1-0.6,0.1c-0.5,0-0.9-0.1-1.1-0.4c-0.2-0.3-0.4-0.7-0.4-1.4v-3.3h-0.7V66l0.7-0.1l0.1-1.6h0.9v1.6h1.4L121,66.6z
	 M67.1,83.5h-0.9v-0.6h0c0,0-0.1,0.1-0.2,0.2c-0.1,0.1-0.2,0.2-0.3,0.3c-0.1,0.1-0.3,0.2-0.4,0.2c-0.2,0.1-0.4,0.1-0.6,0.1
	c-0.3,0-0.5,0-0.7-0.1c-0.2-0.1-0.4-0.2-0.5-0.4c-0.1-0.2-0.3-0.4-0.3-0.6c-0.1-0.3-0.1-0.6-0.1-1v-3.7h1v3.7c0,0.5,0.1,0.8,0.2,1
	c0.2,0.2,0.4,0.3,0.7,0.3c0.3,0,0.5-0.1,0.7-0.2c0.2-0.1,0.3-0.3,0.5-0.4v-4.4h1V83.5z M71.7,83.5v-3.7c0-0.5-0.1-0.8-0.2-1
	c-0.2-0.2-0.4-0.3-0.7-0.3c-0.3,0-0.5,0.1-0.7,0.2c-0.2,0.1-0.3,0.3-0.5,0.4v4.4h-1v-5.7h0.9v0.6h0c0,0,0.1-0.1,0.2-0.2
	c0.1-0.1,0.2-0.2,0.3-0.3s0.3-0.2,0.5-0.2s0.4-0.1,0.6-0.1c0.3,0,0.5,0,0.7,0.1c0.2,0.1,0.4,0.2,0.5,0.4c0.1,0.2,0.3,0.4,0.3,0.6
	c0.1,0.3,0.1,0.6,0.1,1v3.7H71.7z M73.8,80.8c0-0.6,0.1-1.1,0.2-1.5c0.2-0.4,0.3-0.7,0.6-0.9c0.2-0.2,0.5-0.4,0.8-0.5
	c0.3-0.1,0.6-0.1,0.9-0.1c0.2,0,0.3,0,0.5,0c0.1,0,0.2,0.1,0.3,0.1v-2.7l1-0.1v8.5h-0.9v-0.6h0c0,0-0.1,0.1-0.1,0.2
	c-0.1,0.1-0.2,0.2-0.3,0.2c-0.1,0.1-0.2,0.2-0.4,0.2c-0.2,0.1-0.4,0.1-0.6,0.1c-0.3,0-0.5-0.1-0.8-0.2c-0.2-0.1-0.5-0.3-0.6-0.5
	c-0.2-0.2-0.3-0.5-0.4-0.9C73.9,81.7,73.8,81.3,73.8,80.8z M76.1,82.8c0.2,0,0.3,0,0.4-0.1c0.1,0,0.2-0.1,0.3-0.1
	c0.1-0.1,0.2-0.1,0.2-0.2s0.1-0.1,0.1-0.2v-3.5c-0.1-0.1-0.2-0.1-0.3-0.1c-0.1,0-0.3-0.1-0.4-0.1c-0.2,0-0.4,0-0.6,0.1
	c-0.2,0.1-0.4,0.2-0.5,0.4s-0.3,0.4-0.3,0.7c-0.1,0.3-0.1,0.6-0.1,1c0,0.4,0,0.7,0.1,1c0.1,0.3,0.2,0.5,0.3,0.6
	c0.1,0.2,0.3,0.3,0.4,0.4C75.8,82.8,75.9,82.8,76.1,82.8z M84.9,79.3l2.8,4.2h-1.3L84,79.8h-0.6v3.7h-1v-8.2h1V79H84l2.3-3.7h1.2
	L84.9,79.3z M89.4,82.2c0,0.2,0,0.4,0.1,0.5c0.1,0.1,0.2,0.1,0.4,0.1c0.1,0,0.2,0,0.2,0s0.1,0,0.1,0l0.1,0.7c0,0-0.1,0.1-0.3,0.1
	c-0.1,0-0.3,0.1-0.5,0.1c-0.3,0-0.6-0.1-0.8-0.3c-0.2-0.2-0.3-0.6-0.3-1.1v-7.2l1-0.1V82.2z M92.1,83.5h-1v-5.7h1V83.5z M91.6,76.4
	c-0.2,0-0.4-0.1-0.5-0.2c-0.1-0.1-0.2-0.3-0.2-0.5c0-0.2,0.1-0.4,0.2-0.5c0.1-0.1,0.3-0.2,0.5-0.2c0.2,0,0.3,0.1,0.5,0.2
	c0.1,0.1,0.2,0.3,0.2,0.5c0,0.2-0.1,0.4-0.2,0.5C91.9,76.4,91.8,76.4,91.6,76.4z M96.6,83.5v-3.7c0-0.5-0.1-0.8-0.2-1
	s-0.4-0.3-0.7-0.3c-0.2,0-0.3,0-0.4,0.1c-0.1,0-0.2,0.1-0.3,0.1s-0.2,0.1-0.2,0.2c-0.1,0.1-0.1,0.1-0.2,0.2v4.4h-1v-5.7h0.9v0.6h0
	c0-0.1,0.1-0.1,0.2-0.2c0.1-0.1,0.2-0.2,0.3-0.3c0.1-0.1,0.3-0.2,0.4-0.2c0.2-0.1,0.3-0.1,0.5-0.1c0.7,0,1.1,0.3,1.4,0.8
	c0.1-0.1,0.1-0.2,0.2-0.3c0.1-0.1,0.2-0.2,0.3-0.2c0.1-0.1,0.3-0.1,0.4-0.2s0.3-0.1,0.5-0.1c1.2,0,1.7,0.7,1.7,2v3.8h-1v-3.7
	c0-0.5-0.1-0.8-0.2-1c-0.2-0.2-0.4-0.3-0.7-0.3c-0.3,0-0.5,0.1-0.7,0.2c-0.2,0.1-0.3,0.3-0.4,0.4c0,0.1,0,0.2,0,0.3
	c0,0.1,0,0.2,0,0.3v3.8H96.6z M101.6,82.1c0-0.3,0.1-0.6,0.2-0.8s0.3-0.4,0.5-0.5c0.2-0.1,0.5-0.2,0.8-0.3c0.3-0.1,0.6-0.1,0.9-0.1
	h0.3v-0.5c0-0.5-0.1-0.8-0.3-1c-0.2-0.2-0.4-0.3-0.7-0.3c-0.3,0-0.5,0.1-0.7,0.2c-0.2,0.1-0.3,0.2-0.5,0.3l-0.4-0.6
	c0.1-0.1,0.1-0.1,0.2-0.2c0.1-0.1,0.2-0.2,0.4-0.2c0.1-0.1,0.3-0.1,0.5-0.2s0.4-0.1,0.6-0.1c0.6,0,1,0.2,1.3,0.5
	c0.3,0.3,0.5,0.8,0.5,1.6v2.6c0,0.2,0,0.5,0,0.7c0,0.2,0,0.4,0,0.5h-0.9l0-0.6h0c0,0.1-0.1,0.2-0.1,0.2c-0.1,0.1-0.1,0.2-0.2,0.2
	c-0.1,0.1-0.2,0.1-0.3,0.2c-0.1,0.1-0.3,0.1-0.5,0.1c-0.2,0-0.4,0-0.6-0.1c-0.2-0.1-0.3-0.2-0.5-0.3c-0.1-0.1-0.2-0.3-0.3-0.5
	C101.7,82.5,101.6,82.3,101.6,82.1z M103.3,82.9c0.1,0,0.3,0,0.4-0.1c0.1,0,0.2-0.1,0.3-0.1c0.1-0.1,0.1-0.1,0.2-0.2
	c0.1-0.1,0.1-0.1,0.1-0.2V81l-0.3,0c-0.5,0-0.8,0.1-1,0.2c-0.2,0.1-0.4,0.4-0.4,0.7c0,0.3,0.1,0.5,0.2,0.7
	C102.9,82.8,103.1,82.9,103.3,82.9z M109.2,79c-0.1-0.1-0.2-0.2-0.3-0.3c-0.2-0.1-0.4-0.2-0.7-0.2c-0.3,0-0.4,0.1-0.6,0.2
	c-0.1,0.1-0.2,0.3-0.2,0.4c0,0.2,0.1,0.4,0.2,0.5c0.1,0.1,0.3,0.3,0.6,0.4l0.4,0.2c0.4,0.2,0.7,0.5,0.9,0.7c0.2,0.3,0.3,0.6,0.3,1
	c0,0.5-0.2,0.8-0.5,1.1c-0.3,0.3-0.8,0.5-1.4,0.5c-0.2,0-0.4,0-0.6-0.1s-0.3-0.1-0.5-0.2c-0.1-0.1-0.2-0.1-0.3-0.2
	c-0.1-0.1-0.2-0.1-0.2-0.2l0.5-0.8c0,0,0.1,0.1,0.2,0.2c0.1,0.1,0.1,0.1,0.2,0.2s0.2,0.1,0.3,0.1c0.1,0,0.3,0.1,0.4,0.1
	c0.3,0,0.5-0.1,0.7-0.2c0.2-0.1,0.2-0.3,0.2-0.5c0-0.1,0-0.3-0.1-0.4c0-0.1-0.1-0.2-0.2-0.3c-0.1-0.1-0.2-0.2-0.3-0.2
	c-0.1-0.1-0.2-0.2-0.4-0.2l-0.4-0.2c-0.4-0.2-0.6-0.5-0.8-0.7c-0.2-0.3-0.3-0.6-0.3-1c0-0.2,0-0.4,0.1-0.6c0.1-0.2,0.2-0.3,0.4-0.5
	c0.2-0.1,0.3-0.2,0.5-0.3c0.2-0.1,0.4-0.1,0.6-0.1c0.2,0,0.4,0,0.6,0.1c0.2,0,0.3,0.1,0.4,0.2c0.1,0.1,0.2,0.1,0.3,0.2
	c0.1,0.1,0.1,0.1,0.2,0.2L109.2,79z M114,78.9c0,0-0.1-0.1-0.1-0.1c-0.1,0-0.1-0.1-0.2-0.1s-0.2-0.1-0.3-0.1c-0.1,0-0.2-0.1-0.4-0.1
	c-0.2,0-0.4,0-0.6,0.1c-0.2,0.1-0.3,0.2-0.5,0.4c-0.1,0.2-0.2,0.4-0.3,0.6c-0.1,0.3-0.1,0.6-0.1,1c0,0.4,0,0.8,0.1,1.1
	c0.1,0.3,0.2,0.5,0.3,0.7c0.1,0.2,0.3,0.3,0.4,0.4c0.2,0.1,0.4,0.1,0.6,0.1c0.3,0,0.5-0.1,0.7-0.2c0.2-0.1,0.3-0.2,0.3-0.2l0.4,0.7
	c0,0-0.1,0.1-0.2,0.2c-0.1,0.1-0.2,0.1-0.3,0.2c-0.1,0.1-0.3,0.1-0.4,0.2c-0.2,0-0.4,0.1-0.6,0.1c-0.3,0-0.6-0.1-0.9-0.2
	c-0.3-0.1-0.5-0.3-0.7-0.5s-0.4-0.5-0.5-0.9c-0.1-0.4-0.2-0.9-0.2-1.4c0-0.5,0.1-1,0.2-1.4c0.1-0.4,0.3-0.7,0.6-0.9
	c0.2-0.2,0.5-0.4,0.8-0.5c0.3-0.1,0.6-0.2,0.9-0.2c0.2,0,0.4,0,0.6,0.1c0.2,0,0.3,0.1,0.4,0.1c0.1,0.1,0.2,0.1,0.3,0.2
	c0.1,0.1,0.1,0.1,0.2,0.2L114,78.9z M118.6,83.5v-3.7c0-0.5-0.1-0.8-0.2-1c-0.2-0.2-0.4-0.3-0.7-0.3c-0.3,0-0.5,0.1-0.7,0.2
	c-0.2,0.1-0.3,0.3-0.5,0.4v4.4h-1v-8.4l1-0.1v3.4h0c0,0,0.1-0.1,0.1-0.2c0.1-0.1,0.2-0.2,0.3-0.2c0.1-0.1,0.3-0.1,0.4-0.2
	c0.2-0.1,0.4-0.1,0.6-0.1c0.5,0,0.9,0.2,1.2,0.5c0.3,0.3,0.4,0.9,0.4,1.6v3.7H118.6z M125,83.5h-0.9v-0.6h0c0,0-0.1,0.1-0.2,0.2
	c-0.1,0.1-0.2,0.2-0.3,0.3c-0.1,0.1-0.3,0.2-0.4,0.2c-0.2,0.1-0.4,0.1-0.6,0.1c-0.3,0-0.5,0-0.7-0.1c-0.2-0.1-0.4-0.2-0.5-0.4
	c-0.1-0.2-0.3-0.4-0.3-0.6c-0.1-0.3-0.1-0.6-0.1-1v-3.7h1v3.7c0,0.5,0.1,0.8,0.2,1c0.2,0.2,0.4,0.3,0.7,0.3c0.3,0,0.5-0.1,0.7-0.2
	c0.2-0.1,0.3-0.3,0.5-0.4v-4.4h1V83.5z M128.9,78.6h-1.2v3.2c0,0.4,0.1,0.7,0.2,0.8c0.1,0.1,0.3,0.2,0.5,0.2c0.1,0,0.3,0,0.4-0.1
	c0.1,0,0.2-0.1,0.2-0.1l0.1,0.8c0,0-0.1,0.1-0.3,0.1c-0.2,0.1-0.4,0.1-0.6,0.1c-0.5,0-0.9-0.1-1.1-0.4c-0.2-0.3-0.4-0.7-0.4-1.4
	v-3.3H126V78l0.7-0.1l0.1-1.6h0.9v1.6h1.4L128.9,78.6z M133.2,78.4l-2.3,4.2v0h2.5l-0.1,0.8h-3.6v-0.6l2.4-4.3v0h-2.2v-0.8h3.4V78.4
	z"/>
</svg>
