<?xml version="1.0" encoding="UTF-8"?>
<svg id="icons" xmlns="http://www.w3.org/2000/svg" width="20" height="20" viewBox="0 0 20 20">
  <polygon points="18.03753 18 9.96242 18 9.96246 11.10385 14.0546 8 18.03756 11.10385 18.03753 18" style="fill: none; fill-rule: evenodd; stroke: #1d1d1b; stroke-linejoin: round; stroke-width: 1.1px;"/>
  <g>
    <rect x="1.96244" y="2" width="8" height="16" style="fill: none; stroke: #1d1d1b; stroke-linejoin: round; stroke-width: 1.1px;"/>
    <g>
      <g>
        <rect x="3.71455" y="4.1" width="1.6" height="1.6" rx=".38893" ry=".38893" style="fill: #1d1d1b;"/>
        <rect x="6.61033" y="4.1" width="1.6" height="1.6" rx=".38893" ry=".38893" style="fill: #1d1d1b;"/>
      </g>
      <g>
        <rect x="3.71455" y="7.5" width="1.6" height="1.6" rx=".38893" ry=".38893" style="fill: #1d1d1b;"/>
        <rect x="6.61033" y="7.5" width="1.6" height="1.6" rx=".38893" ry=".38893" style="fill: #1d1d1b;"/>
      </g>
      <g>
        <rect x="3.71455" y="10.9" width="1.6" height="1.6" rx=".38893" ry=".38893" style="fill: #1d1d1b;"/>
        <rect x="6.61033" y="10.9" width="1.6" height="1.6" rx=".38893" ry=".38893" style="fill: #1d1d1b;"/>
      </g>
      <g>
        <rect x="3.71455" y="14.3" width="1.6" height="1.6" rx=".38893" ry=".38893" style="fill: #1d1d1b;"/>
        <rect x="6.61033" y="14.3" width="1.6" height="1.6" rx=".38893" ry=".38893" style="fill: #1d1d1b;"/>
      </g>
    </g>
  </g>
  <rect x="12.73756" y="14" width="2.6" height="4" style="fill: none; stroke: #1d1d1b; stroke-linejoin: round; stroke-width: 1.1px;"/>
</svg>