<svg width="30" height="30" viewBox="0 0 30 30" fill="none" xmlns="http://www.w3.org/2000/svg">
<path d="M16.185 16.74L13.665 11.07C13.305 10.245 12.345 9.87002 11.52 10.23C10.695 10.59 10.335 11.55 10.71 12.375L15.015 22.065L11.715 20.775C10.875 20.445 9.94498 20.865 9.62998 21.705C9.31498 22.545 9.73498 23.49 10.575 23.82C10.575 23.82 16.65 26.13 17.385 26.37C18.885 26.865 20.205 27.705 24.18 25.935C26.76 24.795 27.525 22.485 26.685 20.61C26.145 19.395 26.055 19.215 25.05 16.935C23.715 13.95 16.185 16.725 16.185 16.725V16.74Z" stroke="black" stroke-width="1.1" stroke-linecap="round" stroke-linejoin="round"/>
<path d="M8.21997 7.45502L5.96997 5.20502" stroke="black" stroke-linecap="round" stroke-linejoin="round"/>
<path d="M16.995 7.45502L19.245 5.20502" stroke="black" stroke-linecap="round" stroke-linejoin="round"/>
<path d="M12.585 6V3" stroke="black" stroke-linecap="round" stroke-linejoin="round"/>
<path d="M6 11.28H3" stroke="black" stroke-linecap="round" stroke-linejoin="round"/>
</svg>
