<?xml version="1.0" encoding="UTF-8"?>
<svg id="icons" xmlns="http://www.w3.org/2000/svg" width="20" height="20" viewBox="0 0 20 20">
  <g>
    <g>
      <line x1="5.21212" y1="2" x2="5.21212" y2="3.3125" style="fill: none; stroke: #1d1d1b; stroke-linecap: round; stroke-linejoin: round; stroke-width: 1.1px;"/>
      <line x1="9.22588" y1="2" x2="9.22588" y2="3.3125" style="fill: none; stroke: #1d1d1b; stroke-linecap: round; stroke-linejoin: round; stroke-width: 1.1px;"/>
    </g>
    <path d="M2.02382,6.03734l10.41417-.00002v-1.50071c0-.67605-.54805-1.2241-1.2241-1.2241H3.2241c-.67605,0-1.2241,.54805-1.2241,1.2241v6.7393c0,.67605,.54805,1.2241,1.2241,1.2241h3.46729" style="fill: none; stroke: #1d1d1b; stroke-linecap: round; stroke-linejoin: round; stroke-width: 1.1px;"/>
  </g>
  <g>
    <polygon points="14.00005 8 17.99996 11.10385 18 18 14 18 10 18 10.00004 11.10385 14.00005 8" style="fill: none; fill-rule: evenodd; stroke: #1d1d1b; stroke-linecap: round; stroke-linejoin: round; stroke-width: 1.1px;"/>
    <polyline points="15.24876 18 15.24876 14 12.75124 14 12.75124 18" style="fill: none; fill-rule: evenodd; stroke: #1d1d1b; stroke-linecap: round; stroke-linejoin: round; stroke-width: 1.1px;"/>
  </g>
  <g>
    <g>
      <rect x="3.59653" y="7.63155" width="1.1" height="1.1" rx=".33064" ry=".33064" style="fill: #1d1d1b;"/>
      <rect x="5.79653" y="7.63155" width="1.1" height="1.1" rx=".33064" ry=".33064" style="fill: #1d1d1b;"/>
      <rect x="7.99653" y="7.63155" width="1.1" height="1.1" rx=".33064" ry=".33064" style="fill: #1d1d1b;"/>
    </g>
    <g>
      <rect x="3.59653" y="9.83155" width="1.1" height="1.1" rx=".33064" ry=".33064" style="fill: #1d1d1b;"/>
      <rect x="5.79653" y="9.83155" width="1.1" height="1.1" rx=".33064" ry=".33064" style="fill: #1d1d1b;"/>
    </g>
  </g>
</svg>