<svg width="22" height="22" viewBox="0 0 22 22" fill="none" xmlns="http://www.w3.org/2000/svg">
<path d="M18 16C17.3966 17.1364 14.8575 18 12 18C9.14246 18 6.59497 17.1439 6 16" stroke="black" stroke-width="1.1" stroke-linecap="round" stroke-linejoin="round"/>
<path d="M12 15C15.3137 15 18 13.8807 18 12.5C18 11.1193 15.3137 10 12 10C8.68629 10 6 11.1193 6 12.5C6 13.8807 8.68629 15 12 15Z" stroke="black" stroke-width="1.1" stroke-linecap="round" stroke-linejoin="round"/>
<path d="M6 13V19.3278C6.587 20.2842 9.20335 21 12.0713 21C14.9392 21 17.3962 20.2779 18 19.3278V13" stroke="black" stroke-width="1.1" stroke-linecap="round" stroke-linejoin="round"/>
<path d="M1.00025 5.67871L3.99025 8.897L6.96875 5.67871" stroke="black" stroke-width="1.1" stroke-linecap="round" stroke-linejoin="round"/>
<path d="M4 9L4 1" stroke="black" stroke-width="1.1" stroke-linecap="round" stroke-linejoin="round"/>
</svg>
