<svg width="22" height="22" viewBox="0 0 22 22" fill="none" xmlns="http://www.w3.org/2000/svg">
<path d="M9.53559 16.5221C8.98559 16.6101 8.41359 16.6541 7.80859 16.6541C5.17959 16.6541 2.84759 15.7851 2.30859 14.6191" stroke="black" stroke-width="1.1" stroke-linecap="round" stroke-linejoin="round"/>
<path d="M7.82031 13.1446C4.78431 13.1446 2.32031 11.9896 2.32031 10.5596C2.32031 9.12961 4.78431 7.97461 7.82031 7.97461C8.42531 7.97461 8.99731 8.01861 9.54731 8.10661" stroke="black" stroke-width="1.1" stroke-linecap="round" stroke-linejoin="round"/>
<path d="M2.32031 10.5488V18.2268C2.85931 19.3928 5.25731 20.2618 7.88631 20.2618C10.5153 20.2618 12.7703 19.3818 13.3203 18.2268V16.8848" stroke="black" stroke-width="1.1" stroke-linecap="round" stroke-linejoin="round"/>
<path d="M16.8633 7.44728L19.6793 4.58728L16.8633 1.73828" stroke="black" stroke-width="1.1" stroke-linecap="round" stroke-linejoin="round"/>
<path d="M19.5685 4.60938H11.7695" stroke="black" stroke-width="1.1" stroke-linecap="round" stroke-linejoin="round"/>
<path d="M14.5855 14.1465L11.7695 11.2865L14.5855 8.4375" stroke="black" stroke-width="1.1" stroke-linecap="round" stroke-linejoin="round"/>
<path d="M11.8789 11.3086H19.6779" stroke="black" stroke-width="1.1" stroke-linecap="round" stroke-linejoin="round"/>
</svg>
