<svg width="48" height="46" viewBox="0 0 48 46" fill="none" xmlns="http://www.w3.org/2000/svg">
<rect x="0.75" y="0.75" width="45.861" height="44.5" rx="22.25" stroke="#FFAE9D" stroke-width="1.5"/>
<path d="M23.5156 14.2508L32.0791 9.30078L34.9336 14.2508" stroke="#FFAE9D" stroke-width="1.1" stroke-linecap="round" stroke-linejoin="round"/>
<path d="M26.0274 30.75L17.4639 35.7L14.6094 30.75" stroke="#FFAE9D" stroke-width="1.6" stroke-linecap="round" stroke-linejoin="round"/>
<path d="M15.6392 22.5653C15.6392 22.6611 15.5615 22.7388 15.4657 22.7388C15.3699 22.7388 15.2922 22.6611 15.2922 22.5653C15.2922 22.4695 15.3699 22.3918 15.4657 22.3918C15.5615 22.3918 15.6392 22.4695 15.6392 22.5653Z" fill="#FFAE9D" stroke="#FFAE9D" stroke-width="1.6"/>
<path d="M36.6969 14.25H10.2969V30.75H36.6969V14.25Z" stroke="#FFAE9D" stroke-width="1.6" stroke-linecap="round" stroke-linejoin="round"/>
<path d="M36.6966 19.431C33.8256 19.431 31.5156 17.1045 31.5156 14.25" stroke="#FFAE9D" stroke-width="1.6" stroke-linecap="round" stroke-linejoin="round"/>
<path d="M31.5156 30.7494C31.5156 27.8784 33.8421 25.5684 36.6966 25.5684" stroke="#FFAE9D" stroke-width="1.6" stroke-linecap="round" stroke-linejoin="round"/>
<path d="M10.2969 19.431C13.1679 19.431 15.4779 17.1045 15.4779 14.25" stroke="#FFAE9D" stroke-width="1.6" stroke-linecap="round" stroke-linejoin="round"/>
<path d="M15.4779 30.7494C15.4779 27.8784 13.1514 25.5684 10.2969 25.5684" stroke="#FFAE9D" stroke-width="1.6" stroke-linecap="round" stroke-linejoin="round"/>
<path d="M23.5 27.4508C25.7782 27.4508 27.625 25.2346 27.625 22.5008C27.625 19.767 25.7782 17.5508 23.5 17.5508C21.2218 17.5508 19.375 19.767 19.375 22.5008C19.375 25.2346 21.2218 27.4508 23.5 27.4508Z" stroke="#FFAE9D" stroke-width="1.6" stroke-miterlimit="10" stroke-linecap="round"/>
<path d="M31.536 23.5388C32.0736 23.5388 32.5095 23.1029 32.5095 22.5653C32.5095 22.0276 32.0736 21.5918 31.536 21.5918C30.9984 21.5918 30.5625 22.0276 30.5625 22.5653C30.5625 23.1029 30.9984 23.5388 31.536 23.5388Z" fill="#FFAE9D"/>
</svg>
