<svg width="600" height="233" viewBox="0 0 600 233" fill="none" xmlns="http://www.w3.org/2000/svg">
<g clip-path="url(#clip0_1510_32094)">
<path d="M119.541 116.238L200.59 89.8432C189.278 55.8097 157.276 31.2162 119.5 31L119.551 116.238H119.541Z" fill="#FFA28F" fill-opacity="0.2"/>
<path d="M119.031 116.949H118.958L118.938 117.012L119 117.053L119.052 117.012L119.031 116.949Z" fill="#FFA28F"/>
<path d="M118.447 116.238L118.396 31C80.6194 31.2677 48.6486 55.8817 37.3672 89.9461L118.447 116.238Z" fill="#FFA28F"/>
<path d="M200.958 90.8945L119.898 117.29L170.037 186.221C191.241 170.553 205.003 145.393 205.003 117.001C205.003 107.901 203.582 99.1301 200.958 90.8945Z" fill="#FFA28F" fill-opacity="0.4"/>
<path d="M118.104 117.287L37.0144 90.9844C34.4102 99.1891 33 107.929 33 116.988C33 145.411 46.7929 170.612 68.0485 186.27L118.104 117.287Z" fill="#FFA28F" fill-opacity="0.8"/>
<path d="M118.999 117.938L68.9531 186.921C83.0549 197.03 100.327 203.011 118.999 203.011C137.671 203.011 155.015 197.02 169.127 186.869L118.999 117.948V117.938Z" fill="#FFA28F" fill-opacity="0.6"/>
<path d="M114.944 180.396C115.91 180.396 116.693 179.613 116.693 178.647C116.693 177.681 115.91 176.898 114.944 176.898C113.978 176.898 113.195 177.681 113.195 178.647C113.195 179.613 113.978 180.396 114.944 180.396Z" stroke="black" stroke-width="1.1" stroke-linecap="round" stroke-linejoin="round"/>
<path d="M114.944 167.435C115.91 167.435 116.693 166.652 116.693 165.686C116.693 164.72 115.91 163.938 114.944 163.938C113.978 163.938 113.195 164.72 113.195 165.686C113.195 166.652 113.978 167.435 114.944 167.435Z" stroke="black" stroke-width="1.1" stroke-linecap="round" stroke-linejoin="round"/>
<path d="M129.636 172.105H116.828" stroke="black" stroke-width="1.1" stroke-linecap="round" stroke-linejoin="round"/>
<path d="M116.716 170.355H113.219V173.853H116.716V170.355Z" stroke="black" stroke-width="1.1" stroke-linecap="round" stroke-linejoin="round"/>
<path d="M116.758 178.617H120.317L123.856 172.105" stroke="black" stroke-width="1.1" stroke-linecap="round" stroke-linejoin="round"/>
<path d="M127.195 175.993L129.654 172.167L127.195 168.34" stroke="black" stroke-width="1.1" stroke-linecap="round" stroke-linejoin="round"/>
<path d="M116.758 165.594H120.317L123.856 172.105" stroke="black" stroke-width="1.1" stroke-linecap="round" stroke-linejoin="round"/>
<path d="M181.081 135.922C180.385 137.373 177.453 138.476 174.154 138.476C170.855 138.476 167.913 137.383 167.227 135.922" stroke="black" stroke-width="1.1" stroke-linecap="round" stroke-linejoin="round"/>
<path d="M174.154 134.052C177.98 134.052 181.081 132.592 181.081 130.792C181.081 128.991 177.98 127.531 174.154 127.531C170.328 127.531 167.227 128.991 167.227 130.792C167.227 132.592 170.328 134.052 174.154 134.052Z" stroke="black" stroke-width="1.1" stroke-linecap="round" stroke-linejoin="round"/>
<path d="M167.227 130.793V140.458C167.904 141.919 170.922 143.012 174.231 143.012C177.54 143.012 180.375 141.91 181.071 140.458V130.793" stroke="black" stroke-width="1.1" stroke-linecap="round" stroke-linejoin="round"/>
<path d="M66.5859 130.434L71.6073 127.531L73.281 130.434" stroke="black" stroke-width="0.9" stroke-linecap="round" stroke-linejoin="round"/>
<path d="M68.0545 140.109L63.0331 143.012L61.3594 140.109" stroke="black" stroke-width="0.9" stroke-linecap="round" stroke-linejoin="round"/>
<path d="M61.6307 135.313C61.6307 135.186 61.7333 135.084 61.8599 135.084C61.9865 135.084 62.0891 135.186 62.0891 135.313C62.0891 135.44 61.9865 135.542 61.8599 135.542C61.7333 135.542 61.6307 135.44 61.6307 135.313Z" fill="black" stroke="black" stroke-width="1.6"/>
<path d="M74.3159 130.434H58.8359V140.109H74.3159V130.434Z" stroke="black" stroke-width="1.1" stroke-linecap="round" stroke-linejoin="round"/>
<path d="M74.3192 133.472C72.6358 133.472 71.2812 132.107 71.2812 130.434" stroke="black" stroke-width="0.9" stroke-linecap="round" stroke-linejoin="round"/>
<path d="M71.2812 140.108C71.2812 138.425 72.6454 137.07 74.3192 137.07" stroke="black" stroke-width="0.9" stroke-linecap="round" stroke-linejoin="round"/>
<path d="M58.8359 133.472C60.5194 133.472 61.8739 132.107 61.8739 130.434" stroke="black" stroke-width="0.9" stroke-linecap="round" stroke-linejoin="round"/>
<path d="M61.8739 140.108C61.8739 138.425 60.5097 137.07 58.8359 137.07" stroke="black" stroke-width="0.9" stroke-linecap="round" stroke-linejoin="round"/>
<path d="M66.575 138.172C67.9108 138.172 68.9937 136.873 68.9937 135.27C68.9937 133.667 67.9108 132.367 66.575 132.367C65.2392 132.367 64.1562 133.667 64.1562 135.27C64.1562 136.873 65.2392 138.172 66.575 138.172Z" stroke="black" stroke-width="1.1" stroke-miterlimit="10" stroke-linecap="round"/>
<path d="M71.2896 135.88C71.6048 135.88 71.8604 135.624 71.8604 135.309C71.8604 134.994 71.6048 134.738 71.2896 134.738C70.9743 134.738 70.7188 134.994 70.7188 135.309C70.7188 135.624 70.9743 135.88 71.2896 135.88Z" fill="black"/>
<path fill-rule="evenodd" clip-rule="evenodd" d="M93.4289 81.9654C93.9803 81.7622 94.5608 81.172 94.3964 80.4561C93.8255 77.8825 91.7164 75.9766 89.1912 75.9766H86.5886C84.0635 75.9766 81.9543 77.8825 81.3835 80.4561C81.219 81.1817 81.7124 81.7622 82.351 81.9654C82.9895 82.1686 84.6343 82.8361 87.7787 82.8361C90.923 82.8361 92.8774 82.1686 93.4289 81.9654Z" stroke="black" stroke-width="1.1" stroke-linecap="round" stroke-linejoin="round"/>
<path d="M87.8661 73.4314C89.5439 73.4314 90.904 72.0712 90.904 70.3934C90.904 68.7156 89.5439 67.3555 87.8661 67.3555C86.1883 67.3555 84.8281 68.7156 84.8281 70.3934C84.8281 72.0712 86.1883 73.4314 87.8661 73.4314Z" stroke="black" stroke-width="1.1" stroke-linecap="round" stroke-linejoin="round"/>
<path d="M150.74 81.5737C155.015 81.5737 158.48 78.1084 158.48 73.8337C158.48 69.5591 155.015 66.0938 150.74 66.0938C146.465 66.0938 143 69.5591 143 73.8337C143 78.1084 146.465 81.5737 150.74 81.5737Z" stroke="black" stroke-width="1.1" stroke-linecap="round" stroke-linejoin="round"/>
<path d="M150.737 78.3912C153.253 78.3912 155.294 76.351 155.294 73.8343C155.294 71.3175 153.253 69.2773 150.737 69.2773C148.22 69.2773 146.18 71.3175 146.18 73.8343C146.18 76.351 148.22 78.3912 150.737 78.3912Z" stroke="black" stroke-width="1.1" stroke-linecap="round" stroke-linejoin="round"/>
<path d="M150.741 75.2086C151.5 75.2086 152.115 74.5935 152.115 73.8348C152.115 73.076 151.5 72.4609 150.741 72.4609C149.982 72.4609 149.367 73.076 149.367 73.8348C149.367 74.5935 149.982 75.2086 150.741 75.2086Z" stroke="black" stroke-width="1.1" stroke-linecap="round" stroke-linejoin="round"/>
</g>
<path d="M261.497 71.7008C268.787 71.7008 274.697 65.7909 274.697 58.5008C274.697 51.2106 268.787 45.3008 261.497 45.3008C254.207 45.3008 248.297 51.2106 248.297 58.5008C248.297 65.7909 254.207 71.7008 261.497 71.7008Z" stroke="black" stroke-width="1.6" stroke-linecap="round" stroke-linejoin="round"/>
<path d="M261.498 66.2696C265.79 66.2696 269.27 62.7901 269.27 58.4981C269.27 54.206 265.79 50.7266 261.498 50.7266C257.206 50.7266 253.727 54.206 253.727 58.4981C253.727 62.7901 257.206 66.2696 261.498 66.2696Z" stroke="black" stroke-width="1.6" stroke-linecap="round" stroke-linejoin="round"/>
<path d="M261.499 60.8423C262.793 60.8423 263.842 59.7933 263.842 58.4993C263.842 57.2052 262.793 56.1562 261.499 56.1562C260.205 56.1562 259.156 57.2052 259.156 58.4993C259.156 59.7933 260.205 60.8423 261.499 60.8423Z" stroke="black" stroke-width="1.6" stroke-linecap="round" stroke-linejoin="round"/>
<path d="M291.141 61.0703C291.141 60.8359 291.104 60.6276 291.031 60.4453C290.964 60.263 290.841 60.0964 290.664 59.9453C290.487 59.7943 290.237 59.6484 289.914 59.5078C289.596 59.362 289.19 59.2135 288.695 59.0625C288.154 58.8958 287.654 58.7109 287.195 58.5078C286.742 58.2995 286.346 58.0599 286.008 57.7891C285.669 57.513 285.406 57.1979 285.219 56.8438C285.031 56.4844 284.938 56.0703 284.938 55.6016C284.938 55.138 285.034 54.7161 285.227 54.3359C285.424 53.9557 285.703 53.6276 286.062 53.3516C286.427 53.0703 286.857 52.8542 287.352 52.7031C287.846 52.5469 288.393 52.4688 288.992 52.4688C289.836 52.4688 290.562 52.625 291.172 52.9375C291.786 53.25 292.258 53.6693 292.586 54.1953C292.919 54.7214 293.086 55.3021 293.086 55.9375H291.141C291.141 55.5625 291.06 55.2318 290.898 54.9453C290.742 54.6536 290.503 54.4245 290.18 54.2578C289.862 54.0911 289.458 54.0078 288.969 54.0078C288.505 54.0078 288.12 54.0781 287.812 54.2188C287.505 54.3594 287.276 54.5495 287.125 54.7891C286.974 55.0286 286.898 55.2995 286.898 55.6016C286.898 55.8151 286.948 56.0104 287.047 56.1875C287.146 56.3594 287.297 56.5208 287.5 56.6719C287.703 56.8177 287.958 56.9557 288.266 57.0859C288.573 57.2161 288.935 57.3411 289.352 57.4609C289.982 57.6484 290.531 57.8568 291 58.0859C291.469 58.3099 291.859 58.5651 292.172 58.8516C292.484 59.138 292.719 59.4635 292.875 59.8281C293.031 60.1875 293.109 60.5964 293.109 61.0547C293.109 61.5339 293.013 61.9661 292.82 62.3516C292.628 62.7318 292.352 63.0573 291.992 63.3281C291.638 63.5938 291.211 63.7995 290.711 63.9453C290.216 64.0859 289.664 64.1562 289.055 64.1562C288.508 64.1562 287.969 64.0833 287.438 63.9375C286.911 63.7917 286.432 63.5703 286 63.2734C285.568 62.9714 285.224 62.5964 284.969 62.1484C284.714 61.6953 284.586 61.1667 284.586 60.5625H286.547C286.547 60.9323 286.609 61.2474 286.734 61.5078C286.865 61.7682 287.044 61.9818 287.273 62.1484C287.503 62.3099 287.768 62.4297 288.07 62.5078C288.378 62.5859 288.706 62.625 289.055 62.625C289.513 62.625 289.896 62.5599 290.203 62.4297C290.516 62.2995 290.75 62.1172 290.906 61.8828C291.062 61.6484 291.141 61.3776 291.141 61.0703ZM299.011 55.5469V56.9219H294.246V55.5469H299.011ZM295.621 53.4766H297.503V61.6641C297.503 61.9245 297.54 62.125 297.613 62.2656C297.691 62.401 297.798 62.4922 297.933 62.5391C298.069 62.5859 298.227 62.6094 298.41 62.6094C298.54 62.6094 298.665 62.6016 298.785 62.5859C298.904 62.5703 299.001 62.5547 299.074 62.5391L299.082 63.9766C298.925 64.0234 298.743 64.0651 298.535 64.1016C298.332 64.138 298.097 64.1562 297.832 64.1562C297.399 64.1562 297.016 64.0807 296.683 63.9297C296.35 63.7734 296.089 63.5208 295.902 63.1719C295.714 62.8229 295.621 62.3594 295.621 61.7812V53.4766ZM302.835 57.1562V64H300.952V55.5469H302.749L302.835 57.1562ZM305.421 55.4922L305.405 57.2422C305.291 57.2214 305.166 57.2057 305.03 57.1953C304.9 57.1849 304.77 57.1797 304.64 57.1797C304.317 57.1797 304.033 57.2266 303.788 57.3203C303.543 57.4089 303.338 57.5391 303.171 57.7109C303.009 57.8776 302.884 58.0807 302.796 58.3203C302.707 58.5599 302.655 58.8281 302.64 59.125L302.21 59.1562C302.21 58.625 302.262 58.1328 302.366 57.6797C302.47 57.2266 302.627 56.8281 302.835 56.4844C303.049 56.1406 303.314 55.8724 303.632 55.6797C303.955 55.487 304.327 55.3906 304.749 55.3906C304.864 55.3906 304.986 55.401 305.116 55.4219C305.252 55.4427 305.353 55.4661 305.421 55.4922ZM312.167 62.0078V55.5469H314.057V64H312.276L312.167 62.0078ZM312.432 60.25L313.065 60.2344C313.065 60.8021 313.003 61.3255 312.878 61.8047C312.753 62.2786 312.56 62.6927 312.299 63.0469C312.039 63.3958 311.706 63.6693 311.299 63.8672C310.893 64.0599 310.406 64.1562 309.838 64.1562C309.427 64.1562 309.049 64.0964 308.706 63.9766C308.362 63.8568 308.065 63.6719 307.815 63.4219C307.57 63.1719 307.38 62.8464 307.245 62.4453C307.109 62.0443 307.042 61.5651 307.042 61.0078V55.5469H308.924V61.0234C308.924 61.3307 308.961 61.5885 309.034 61.7969C309.107 62 309.206 62.1641 309.331 62.2891C309.456 62.4141 309.601 62.5026 309.768 62.5547C309.935 62.6068 310.112 62.6328 310.299 62.6328C310.836 62.6328 311.258 62.5286 311.565 62.3203C311.878 62.1068 312.099 61.8203 312.229 61.4609C312.364 61.1016 312.432 60.6979 312.432 60.25ZM319.92 62.6562C320.227 62.6562 320.503 62.5964 320.748 62.4766C320.998 62.3516 321.199 62.1797 321.35 61.9609C321.506 61.7422 321.592 61.4896 321.608 61.2031H323.381C323.371 61.75 323.209 62.2474 322.897 62.6953C322.584 63.1432 322.17 63.5 321.654 63.7656C321.139 64.026 320.568 64.1562 319.943 64.1562C319.298 64.1562 318.735 64.0469 318.256 63.8281C317.777 63.6042 317.378 63.2969 317.061 62.9062C316.743 62.5156 316.503 62.0651 316.342 61.5547C316.186 61.0443 316.108 60.4974 316.108 59.9141V59.6406C316.108 59.0573 316.186 58.5104 316.342 58C316.503 57.4844 316.743 57.0312 317.061 56.6406C317.378 56.25 317.777 55.9453 318.256 55.7266C318.735 55.5026 319.295 55.3906 319.936 55.3906C320.613 55.3906 321.206 55.526 321.717 55.7969C322.227 56.0625 322.628 56.4349 322.92 56.9141C323.217 57.388 323.371 57.9401 323.381 58.5703H321.608C321.592 58.2578 321.514 57.9766 321.373 57.7266C321.238 57.4714 321.045 57.2682 320.795 57.1172C320.55 56.9661 320.256 56.8906 319.912 56.8906C319.532 56.8906 319.217 56.9688 318.967 57.125C318.717 57.276 318.522 57.4844 318.381 57.75C318.24 58.0104 318.139 58.3047 318.076 58.6328C318.019 58.9557 317.99 59.2917 317.99 59.6406V59.9141C317.99 60.263 318.019 60.6016 318.076 60.9297C318.134 61.2578 318.233 61.5521 318.373 61.8125C318.519 62.0677 318.717 62.2734 318.967 62.4297C319.217 62.5807 319.535 62.6562 319.92 62.6562ZM329.181 55.5469V56.9219H324.416V55.5469H329.181ZM325.791 53.4766H327.673V61.6641C327.673 61.9245 327.71 62.125 327.783 62.2656C327.861 62.401 327.968 62.4922 328.103 62.5391C328.239 62.5859 328.397 62.6094 328.58 62.6094C328.71 62.6094 328.835 62.6016 328.955 62.5859C329.074 62.5703 329.171 62.5547 329.244 62.5391L329.252 63.9766C329.095 64.0234 328.913 64.0651 328.705 64.1016C328.502 64.138 328.267 64.1562 328.002 64.1562C327.569 64.1562 327.186 64.0807 326.853 63.9297C326.52 63.7734 326.259 63.5208 326.072 63.1719C325.884 62.8229 325.791 62.3594 325.791 61.7812V53.4766ZM336.2 62.0078V55.5469H338.091V64H336.31L336.2 62.0078ZM336.466 60.25L337.099 60.2344C337.099 60.8021 337.036 61.3255 336.911 61.8047C336.786 62.2786 336.594 62.6927 336.333 63.0469C336.073 63.3958 335.739 63.6693 335.333 63.8672C334.927 64.0599 334.44 64.1562 333.872 64.1562C333.461 64.1562 333.083 64.0964 332.739 63.9766C332.396 63.8568 332.099 63.6719 331.849 63.4219C331.604 63.1719 331.414 62.8464 331.278 62.4453C331.143 62.0443 331.075 61.5651 331.075 61.0078V55.5469H332.958V61.0234C332.958 61.3307 332.995 61.5885 333.068 61.7969C333.14 62 333.239 62.1641 333.364 62.2891C333.489 62.4141 333.635 62.5026 333.802 62.5547C333.969 62.6068 334.146 62.6328 334.333 62.6328C334.87 62.6328 335.291 62.5286 335.599 62.3203C335.911 62.1068 336.133 61.8203 336.263 61.4609C336.398 61.1016 336.466 60.6979 336.466 60.25ZM342.391 57.1562V64H340.508V55.5469H342.305L342.391 57.1562ZM344.977 55.4922L344.962 57.2422C344.847 57.2214 344.722 57.2057 344.587 57.1953C344.456 57.1849 344.326 57.1797 344.196 57.1797C343.873 57.1797 343.589 57.2266 343.344 57.3203C343.1 57.4089 342.894 57.5391 342.727 57.7109C342.566 57.8776 342.441 58.0807 342.352 58.3203C342.264 58.5599 342.212 58.8281 342.196 59.125L341.766 59.1562C341.766 58.625 341.818 58.1328 341.923 57.6797C342.027 57.2266 342.183 56.8281 342.391 56.4844C342.605 56.1406 342.87 55.8724 343.188 55.6797C343.511 55.487 343.883 55.3906 344.305 55.3906C344.42 55.3906 344.542 55.401 344.673 55.4219C344.808 55.4427 344.909 55.4661 344.977 55.4922ZM351.121 62.3047V58.2734C351.121 57.9714 351.067 57.7109 350.957 57.4922C350.848 57.2734 350.681 57.1042 350.457 56.9844C350.238 56.8646 349.962 56.8047 349.629 56.8047C349.322 56.8047 349.056 56.8568 348.832 56.9609C348.608 57.0651 348.434 57.2057 348.309 57.3828C348.184 57.5599 348.121 57.7604 348.121 57.9844H346.246C346.246 57.651 346.327 57.3281 346.488 57.0156C346.65 56.7031 346.884 56.4245 347.192 56.1797C347.499 55.9349 347.866 55.7422 348.293 55.6016C348.72 55.4609 349.199 55.3906 349.731 55.3906C350.366 55.3906 350.929 55.4974 351.418 55.7109C351.913 55.9245 352.301 56.2474 352.582 56.6797C352.869 57.1068 353.012 57.6432 353.012 58.2891V62.0469C353.012 62.4323 353.038 62.7786 353.09 63.0859C353.147 63.388 353.228 63.651 353.332 63.875V64H351.403C351.314 63.7969 351.244 63.5391 351.192 63.2266C351.145 62.9089 351.121 62.6016 351.121 62.3047ZM351.395 58.8594L351.41 60.0234H350.059C349.71 60.0234 349.403 60.0573 349.137 60.125C348.871 60.1875 348.65 60.2812 348.473 60.4062C348.296 60.5312 348.163 60.6823 348.074 60.8594C347.986 61.0365 347.942 61.237 347.942 61.4609C347.942 61.6849 347.994 61.8906 348.098 62.0781C348.202 62.2604 348.353 62.4036 348.551 62.5078C348.754 62.612 348.999 62.6641 349.285 62.6641C349.671 62.6641 350.007 62.5859 350.293 62.4297C350.585 62.2682 350.814 62.0729 350.981 61.8438C351.147 61.6094 351.236 61.388 351.246 61.1797L351.856 62.0156C351.793 62.2292 351.686 62.4583 351.535 62.7031C351.384 62.9479 351.186 63.1823 350.942 63.4062C350.702 63.625 350.413 63.8047 350.074 63.9453C349.741 64.0859 349.356 64.1562 348.918 64.1562C348.366 64.1562 347.874 64.0469 347.442 63.8281C347.009 63.6042 346.671 63.3047 346.426 62.9297C346.181 62.5495 346.059 62.1198 346.059 61.6406C346.059 61.1927 346.142 60.7969 346.309 60.4531C346.481 60.1042 346.731 59.8125 347.059 59.5781C347.392 59.3438 347.798 59.1667 348.278 59.0469C348.757 58.9219 349.304 58.8594 349.918 58.8594H351.395ZM357.476 52V64H355.586V52H357.476Z" fill="black"/>
<path d="M273.316 116.605C272.128 119.08 267.128 120.961 261.502 120.961C255.875 120.961 250.859 119.097 249.688 116.605" stroke="black" stroke-width="1.6" stroke-linecap="round" stroke-linejoin="round"/>
<path d="M261.502 113.422C268.026 113.422 273.316 110.932 273.316 107.861C273.316 104.79 268.026 102.301 261.502 102.301C254.977 102.301 249.688 104.79 249.688 107.861C249.688 110.932 254.977 113.422 261.502 113.422Z" stroke="black" stroke-width="1.6" stroke-linecap="round" stroke-linejoin="round"/>
<path d="M249.688 107.859V124.343C250.843 126.834 255.99 128.699 261.634 128.699C267.277 128.699 272.111 126.818 273.299 124.343V107.859" stroke="black" stroke-width="1.6" stroke-linecap="round" stroke-linejoin="round"/>
<path d="M289.836 109.625V121H287.891V109.625H289.836ZM293.406 109.625V111.188H284.352V109.625H293.406ZM298.175 121.156C297.55 121.156 296.985 121.055 296.48 120.852C295.98 120.643 295.553 120.354 295.199 119.984C294.85 119.615 294.582 119.18 294.394 118.68C294.207 118.18 294.113 117.641 294.113 117.062V116.75C294.113 116.089 294.209 115.49 294.402 114.953C294.595 114.417 294.863 113.958 295.207 113.578C295.55 113.193 295.957 112.898 296.425 112.695C296.894 112.492 297.402 112.391 297.949 112.391C298.553 112.391 299.082 112.492 299.535 112.695C299.988 112.898 300.363 113.185 300.66 113.555C300.962 113.919 301.186 114.354 301.332 114.859C301.483 115.365 301.558 115.922 301.558 116.531V117.336H295.027V115.984H299.699V115.836C299.688 115.497 299.621 115.18 299.496 114.883C299.376 114.586 299.191 114.346 298.941 114.164C298.691 113.982 298.358 113.891 297.941 113.891C297.628 113.891 297.35 113.958 297.105 114.094C296.865 114.224 296.665 114.414 296.503 114.664C296.342 114.914 296.217 115.216 296.128 115.57C296.045 115.919 296.003 116.312 296.003 116.75V117.062C296.003 117.432 296.053 117.776 296.152 118.094C296.256 118.406 296.407 118.68 296.605 118.914C296.803 119.148 297.042 119.333 297.324 119.469C297.605 119.599 297.925 119.664 298.285 119.664C298.738 119.664 299.141 119.573 299.496 119.391C299.85 119.208 300.157 118.951 300.417 118.617L301.41 119.578C301.227 119.844 300.99 120.099 300.699 120.344C300.407 120.583 300.05 120.779 299.628 120.93C299.212 121.081 298.727 121.156 298.175 121.156ZM306.96 119.656C307.267 119.656 307.543 119.596 307.788 119.477C308.038 119.352 308.239 119.18 308.39 118.961C308.546 118.742 308.632 118.49 308.647 118.203H310.421C310.411 118.75 310.249 119.247 309.937 119.695C309.624 120.143 309.21 120.5 308.694 120.766C308.179 121.026 307.608 121.156 306.983 121.156C306.338 121.156 305.775 121.047 305.296 120.828C304.817 120.604 304.418 120.297 304.101 119.906C303.783 119.516 303.543 119.065 303.382 118.555C303.226 118.044 303.147 117.497 303.147 116.914V116.641C303.147 116.057 303.226 115.51 303.382 115C303.543 114.484 303.783 114.031 304.101 113.641C304.418 113.25 304.817 112.945 305.296 112.727C305.775 112.503 306.335 112.391 306.976 112.391C307.653 112.391 308.246 112.526 308.757 112.797C309.267 113.062 309.668 113.435 309.96 113.914C310.257 114.388 310.411 114.94 310.421 115.57H308.647C308.632 115.258 308.554 114.977 308.413 114.727C308.278 114.471 308.085 114.268 307.835 114.117C307.59 113.966 307.296 113.891 306.952 113.891C306.572 113.891 306.257 113.969 306.007 114.125C305.757 114.276 305.562 114.484 305.421 114.75C305.28 115.01 305.179 115.305 305.116 115.633C305.059 115.956 305.03 116.292 305.03 116.641V116.914C305.03 117.263 305.059 117.602 305.116 117.93C305.174 118.258 305.272 118.552 305.413 118.812C305.559 119.068 305.757 119.273 306.007 119.43C306.257 119.581 306.575 119.656 306.96 119.656ZM314.206 109V121H312.331V109H314.206ZM313.878 116.461L313.268 116.453C313.273 115.87 313.354 115.331 313.51 114.836C313.672 114.341 313.896 113.911 314.182 113.547C314.474 113.177 314.823 112.893 315.229 112.695C315.635 112.492 316.086 112.391 316.581 112.391C316.997 112.391 317.372 112.448 317.706 112.562C318.044 112.677 318.336 112.862 318.581 113.117C318.825 113.367 319.01 113.695 319.135 114.102C319.266 114.503 319.331 114.992 319.331 115.57V121H317.44V115.555C317.44 115.148 317.38 114.826 317.26 114.586C317.146 114.346 316.976 114.174 316.753 114.07C316.529 113.961 316.255 113.906 315.932 113.906C315.594 113.906 315.294 113.974 315.034 114.109C314.779 114.245 314.565 114.43 314.393 114.664C314.221 114.898 314.091 115.169 314.003 115.477C313.919 115.784 313.878 116.112 313.878 116.461ZM323.584 114.352V121H321.701V112.547H323.475L323.584 114.352ZM323.248 116.461L322.639 116.453C322.644 115.854 322.727 115.305 322.889 114.805C323.055 114.305 323.285 113.875 323.576 113.516C323.873 113.156 324.227 112.88 324.639 112.688C325.05 112.49 325.509 112.391 326.014 112.391C326.42 112.391 326.787 112.448 327.115 112.562C327.449 112.672 327.732 112.852 327.967 113.102C328.206 113.352 328.389 113.677 328.514 114.078C328.639 114.474 328.701 114.961 328.701 115.539V121H326.811V115.531C326.811 115.125 326.751 114.805 326.631 114.57C326.516 114.331 326.347 114.161 326.123 114.062C325.904 113.958 325.631 113.906 325.303 113.906C324.98 113.906 324.691 113.974 324.436 114.109C324.18 114.245 323.964 114.43 323.787 114.664C323.615 114.898 323.482 115.169 323.389 115.477C323.295 115.784 323.248 116.112 323.248 116.461ZM333.119 112.547V121H331.228V112.547H333.119ZM331.103 110.328C331.103 110.042 331.197 109.805 331.384 109.617C331.577 109.424 331.843 109.328 332.181 109.328C332.515 109.328 332.778 109.424 332.97 109.617C333.163 109.805 333.259 110.042 333.259 110.328C333.259 110.609 333.163 110.844 332.97 111.031C332.778 111.219 332.515 111.312 332.181 111.312C331.843 111.312 331.577 111.219 331.384 111.031C331.197 110.844 331.103 110.609 331.103 110.328ZM339.114 119.656C339.422 119.656 339.698 119.596 339.943 119.477C340.193 119.352 340.393 119.18 340.544 118.961C340.7 118.742 340.786 118.49 340.802 118.203H342.575C342.565 118.75 342.403 119.247 342.091 119.695C341.778 120.143 341.364 120.5 340.849 120.766C340.333 121.026 339.763 121.156 339.138 121.156C338.492 121.156 337.929 121.047 337.45 120.828C336.971 120.604 336.573 120.297 336.255 119.906C335.937 119.516 335.698 119.065 335.536 118.555C335.38 118.044 335.302 117.497 335.302 116.914V116.641C335.302 116.057 335.38 115.51 335.536 115C335.698 114.484 335.937 114.031 336.255 113.641C336.573 113.25 336.971 112.945 337.45 112.727C337.929 112.503 338.489 112.391 339.13 112.391C339.807 112.391 340.401 112.526 340.911 112.797C341.422 113.062 341.823 113.435 342.114 113.914C342.411 114.388 342.565 114.94 342.575 115.57H340.802C340.786 115.258 340.708 114.977 340.568 114.727C340.432 114.471 340.239 114.268 339.989 114.117C339.745 113.966 339.45 113.891 339.107 113.891C338.726 113.891 338.411 113.969 338.161 114.125C337.911 114.276 337.716 114.484 337.575 114.75C337.435 115.01 337.333 115.305 337.271 115.633C337.213 115.956 337.185 116.292 337.185 116.641V116.914C337.185 117.263 337.213 117.602 337.271 117.93C337.328 118.258 337.427 118.552 337.568 118.812C337.713 119.068 337.911 119.273 338.161 119.43C338.411 119.581 338.729 119.656 339.114 119.656ZM349.266 119.305V115.273C349.266 114.971 349.212 114.711 349.102 114.492C348.993 114.273 348.826 114.104 348.602 113.984C348.383 113.865 348.107 113.805 347.774 113.805C347.467 113.805 347.201 113.857 346.977 113.961C346.753 114.065 346.579 114.206 346.454 114.383C346.329 114.56 346.266 114.76 346.266 114.984H344.391C344.391 114.651 344.472 114.328 344.633 114.016C344.795 113.703 345.029 113.424 345.337 113.18C345.644 112.935 346.011 112.742 346.438 112.602C346.865 112.461 347.344 112.391 347.876 112.391C348.511 112.391 349.074 112.497 349.563 112.711C350.058 112.924 350.446 113.247 350.727 113.68C351.014 114.107 351.157 114.643 351.157 115.289V119.047C351.157 119.432 351.183 119.779 351.235 120.086C351.292 120.388 351.373 120.651 351.477 120.875V121H349.548C349.459 120.797 349.389 120.539 349.337 120.227C349.29 119.909 349.266 119.602 349.266 119.305ZM349.54 115.859L349.555 117.023H348.204C347.855 117.023 347.548 117.057 347.282 117.125C347.016 117.188 346.795 117.281 346.618 117.406C346.441 117.531 346.308 117.682 346.219 117.859C346.131 118.036 346.087 118.237 346.087 118.461C346.087 118.685 346.139 118.891 346.243 119.078C346.347 119.26 346.498 119.404 346.696 119.508C346.899 119.612 347.144 119.664 347.43 119.664C347.816 119.664 348.152 119.586 348.438 119.43C348.73 119.268 348.959 119.073 349.126 118.844C349.292 118.609 349.381 118.388 349.391 118.18L350.001 119.016C349.938 119.229 349.831 119.458 349.68 119.703C349.529 119.948 349.331 120.182 349.087 120.406C348.847 120.625 348.558 120.805 348.219 120.945C347.886 121.086 347.501 121.156 347.063 121.156C346.511 121.156 346.019 121.047 345.587 120.828C345.154 120.604 344.816 120.305 344.571 119.93C344.326 119.549 344.204 119.12 344.204 118.641C344.204 118.193 344.287 117.797 344.454 117.453C344.626 117.104 344.876 116.812 345.204 116.578C345.537 116.344 345.943 116.167 346.423 116.047C346.902 115.922 347.449 115.859 348.063 115.859H349.54ZM355.621 109V121H353.731V109H355.621Z" fill="black"/>
<path d="M249.92 183.574C251.407 183.574 252.613 182.368 252.613 180.881C252.613 179.393 251.407 178.188 249.92 178.188C248.432 178.188 247.227 179.393 247.227 180.881C247.227 182.368 248.432 183.574 249.92 183.574Z" stroke="black" stroke-width="1.6" stroke-linecap="round" stroke-linejoin="round"/>
<path d="M249.92 163.613C251.407 163.613 252.613 162.407 252.613 160.92C252.613 159.432 251.407 158.227 249.92 158.227C248.432 158.227 247.227 159.432 247.227 160.92C247.227 162.407 248.432 163.613 249.92 163.613Z" stroke="black" stroke-width="1.6" stroke-linecap="round" stroke-linejoin="round"/>
<path d="M272.546 170.809H252.82" stroke="black" stroke-width="1.6" stroke-linecap="round" stroke-linejoin="round"/>
<path d="M252.645 168.113H247.258V173.5H252.645V168.113Z" stroke="black" stroke-width="1.6" stroke-linecap="round" stroke-linejoin="round"/>
<path d="M252.711 180.834H258.193L263.643 170.805" stroke="black" stroke-width="1.6" stroke-linecap="round" stroke-linejoin="round"/>
<path d="M268.789 176.795L272.576 170.902L268.789 165.008" stroke="black" stroke-width="1.6" stroke-linecap="round" stroke-linejoin="round"/>
<path d="M252.711 160.777H258.193L263.643 170.806" stroke="black" stroke-width="1.6" stroke-linecap="round" stroke-linejoin="round"/>
<path d="M294.227 170V170.625C294.227 171.484 294.115 172.255 293.891 172.938C293.667 173.62 293.346 174.201 292.93 174.68C292.518 175.159 292.023 175.526 291.445 175.781C290.867 176.031 290.227 176.156 289.523 176.156C288.826 176.156 288.188 176.031 287.609 175.781C287.036 175.526 286.539 175.159 286.117 174.68C285.695 174.201 285.367 173.62 285.133 172.938C284.904 172.255 284.789 171.484 284.789 170.625V170C284.789 169.141 284.904 168.372 285.133 167.695C285.362 167.013 285.685 166.432 286.102 165.953C286.523 165.469 287.021 165.102 287.594 164.852C288.172 164.596 288.81 164.469 289.508 164.469C290.211 164.469 290.852 164.596 291.43 164.852C292.008 165.102 292.505 165.469 292.922 165.953C293.339 166.432 293.659 167.013 293.883 167.695C294.112 168.372 294.227 169.141 294.227 170ZM292.266 170.625V169.984C292.266 169.349 292.203 168.789 292.078 168.305C291.958 167.815 291.779 167.406 291.539 167.078C291.305 166.745 291.016 166.495 290.672 166.328C290.328 166.156 289.94 166.07 289.508 166.07C289.076 166.07 288.69 166.156 288.352 166.328C288.013 166.495 287.724 166.745 287.484 167.078C287.25 167.406 287.07 167.815 286.945 168.305C286.82 168.789 286.758 169.349 286.758 169.984V170.625C286.758 171.26 286.82 171.823 286.945 172.312C287.07 172.802 287.253 173.216 287.492 173.555C287.737 173.888 288.029 174.141 288.367 174.312C288.706 174.479 289.091 174.562 289.523 174.562C289.961 174.562 290.349 174.479 290.688 174.312C291.026 174.141 291.312 173.888 291.547 173.555C291.781 173.216 291.958 172.802 292.078 172.312C292.203 171.823 292.266 171.26 292.266 170.625ZM298.371 169.156V176H296.488V167.547H298.285L298.371 169.156ZM300.957 167.492L300.941 169.242C300.826 169.221 300.701 169.206 300.566 169.195C300.436 169.185 300.306 169.18 300.175 169.18C299.852 169.18 299.569 169.227 299.324 169.32C299.079 169.409 298.873 169.539 298.707 169.711C298.545 169.878 298.42 170.081 298.332 170.32C298.243 170.56 298.191 170.828 298.175 171.125L297.746 171.156C297.746 170.625 297.798 170.133 297.902 169.68C298.006 169.227 298.162 168.828 298.371 168.484C298.584 168.141 298.85 167.872 299.167 167.68C299.49 167.487 299.863 167.391 300.285 167.391C300.399 167.391 300.522 167.401 300.652 167.422C300.787 167.443 300.889 167.466 300.957 167.492ZM307.874 167.547H309.585V175.766C309.585 176.526 309.424 177.172 309.101 177.703C308.778 178.234 308.327 178.638 307.749 178.914C307.171 179.195 306.502 179.336 305.741 179.336C305.418 179.336 305.059 179.289 304.663 179.195C304.272 179.102 303.892 178.951 303.522 178.742C303.158 178.539 302.853 178.271 302.608 177.938L303.491 176.828C303.793 177.188 304.127 177.451 304.491 177.617C304.856 177.784 305.239 177.867 305.64 177.867C306.072 177.867 306.439 177.786 306.741 177.625C307.049 177.469 307.286 177.237 307.452 176.93C307.619 176.622 307.702 176.247 307.702 175.805V169.461L307.874 167.547ZM302.132 171.867V171.703C302.132 171.062 302.21 170.479 302.366 169.953C302.522 169.422 302.746 168.966 303.038 168.586C303.33 168.201 303.684 167.906 304.101 167.703C304.517 167.495 304.989 167.391 305.515 167.391C306.062 167.391 306.528 167.49 306.913 167.688C307.304 167.885 307.629 168.169 307.89 168.539C308.15 168.904 308.353 169.341 308.499 169.852C308.65 170.357 308.762 170.919 308.835 171.539V172.062C308.767 172.667 308.653 173.219 308.491 173.719C308.33 174.219 308.116 174.651 307.851 175.016C307.585 175.38 307.257 175.661 306.866 175.859C306.481 176.057 306.025 176.156 305.499 176.156C304.983 176.156 304.517 176.049 304.101 175.836C303.689 175.622 303.335 175.323 303.038 174.938C302.746 174.552 302.522 174.099 302.366 173.578C302.21 173.052 302.132 172.482 302.132 171.867ZM304.015 171.703V171.867C304.015 172.253 304.051 172.612 304.124 172.945C304.202 173.279 304.319 173.573 304.476 173.828C304.637 174.078 304.84 174.276 305.085 174.422C305.335 174.562 305.629 174.633 305.968 174.633C306.411 174.633 306.772 174.539 307.054 174.352C307.34 174.164 307.559 173.911 307.71 173.594C307.866 173.271 307.976 172.911 308.038 172.516V171.102C308.007 170.794 307.942 170.508 307.843 170.242C307.749 169.977 307.621 169.745 307.46 169.547C307.299 169.344 307.095 169.188 306.851 169.078C306.606 168.964 306.317 168.906 305.983 168.906C305.645 168.906 305.351 168.979 305.101 169.125C304.851 169.271 304.645 169.471 304.483 169.727C304.327 169.982 304.21 170.279 304.132 170.617C304.054 170.956 304.015 171.318 304.015 171.703ZM316.784 174.305V170.273C316.784 169.971 316.729 169.711 316.62 169.492C316.51 169.273 316.344 169.104 316.12 168.984C315.901 168.865 315.625 168.805 315.292 168.805C314.984 168.805 314.719 168.857 314.495 168.961C314.271 169.065 314.096 169.206 313.971 169.383C313.846 169.56 313.784 169.76 313.784 169.984H311.909C311.909 169.651 311.989 169.328 312.151 169.016C312.312 168.703 312.547 168.424 312.854 168.18C313.161 167.935 313.529 167.742 313.956 167.602C314.383 167.461 314.862 167.391 315.393 167.391C316.029 167.391 316.591 167.497 317.081 167.711C317.575 167.924 317.963 168.247 318.245 168.68C318.531 169.107 318.674 169.643 318.674 170.289V174.047C318.674 174.432 318.7 174.779 318.753 175.086C318.81 175.388 318.891 175.651 318.995 175.875V176H317.065C316.976 175.797 316.906 175.539 316.854 175.227C316.807 174.909 316.784 174.602 316.784 174.305ZM317.057 170.859L317.073 172.023H315.721C315.372 172.023 315.065 172.057 314.799 172.125C314.534 172.188 314.312 172.281 314.135 172.406C313.958 172.531 313.825 172.682 313.737 172.859C313.648 173.036 313.604 173.237 313.604 173.461C313.604 173.685 313.656 173.891 313.76 174.078C313.864 174.26 314.016 174.404 314.213 174.508C314.417 174.612 314.661 174.664 314.948 174.664C315.333 174.664 315.669 174.586 315.956 174.43C316.247 174.268 316.476 174.073 316.643 173.844C316.81 173.609 316.898 173.388 316.909 173.18L317.518 174.016C317.456 174.229 317.349 174.458 317.198 174.703C317.047 174.948 316.849 175.182 316.604 175.406C316.364 175.625 316.075 175.805 315.737 175.945C315.404 176.086 315.018 176.156 314.581 176.156C314.029 176.156 313.536 176.047 313.104 175.828C312.672 175.604 312.333 175.305 312.088 174.93C311.844 174.549 311.721 174.12 311.721 173.641C311.721 173.193 311.805 172.797 311.971 172.453C312.143 172.104 312.393 171.812 312.721 171.578C313.055 171.344 313.461 171.167 313.94 171.047C314.419 170.922 314.966 170.859 315.581 170.859H317.057ZM322.99 169.352V176H321.107V167.547H322.881L322.99 169.352ZM322.654 171.461L322.045 171.453C322.05 170.854 322.134 170.305 322.295 169.805C322.462 169.305 322.691 168.875 322.982 168.516C323.279 168.156 323.634 167.88 324.045 167.688C324.456 167.49 324.915 167.391 325.42 167.391C325.826 167.391 326.193 167.448 326.522 167.562C326.855 167.672 327.139 167.852 327.373 168.102C327.613 168.352 327.795 168.677 327.92 169.078C328.045 169.474 328.107 169.961 328.107 170.539V176H326.217V170.531C326.217 170.125 326.157 169.805 326.037 169.57C325.923 169.331 325.753 169.161 325.529 169.062C325.311 168.958 325.037 168.906 324.709 168.906C324.386 168.906 324.097 168.974 323.842 169.109C323.587 169.245 323.371 169.43 323.193 169.664C323.022 169.898 322.889 170.169 322.795 170.477C322.701 170.784 322.654 171.112 322.654 171.461ZM332.525 167.547V176H330.634V167.547H332.525ZM330.509 165.328C330.509 165.042 330.603 164.805 330.791 164.617C330.983 164.424 331.249 164.328 331.588 164.328C331.921 164.328 332.184 164.424 332.377 164.617C332.569 164.805 332.666 165.042 332.666 165.328C332.666 165.609 332.569 165.844 332.377 166.031C332.184 166.219 331.921 166.312 331.588 166.312C331.249 166.312 330.983 166.219 330.791 166.031C330.603 165.844 330.509 165.609 330.509 165.328ZM341.607 174.5V176H335.31V174.5H341.607ZM341.435 168.719L335.95 176H334.732V174.789L340.185 167.547H341.435V168.719ZM340.708 167.547V169.047H334.825V167.547H340.708ZM348.36 174.305V170.273C348.36 169.971 348.305 169.711 348.196 169.492C348.087 169.273 347.92 169.104 347.696 168.984C347.477 168.865 347.201 168.805 346.868 168.805C346.561 168.805 346.295 168.857 346.071 168.961C345.847 169.065 345.673 169.206 345.548 169.383C345.423 169.56 345.36 169.76 345.36 169.984H343.485C343.485 169.651 343.566 169.328 343.727 169.016C343.889 168.703 344.123 168.424 344.43 168.18C344.738 167.935 345.105 167.742 345.532 167.602C345.959 167.461 346.438 167.391 346.969 167.391C347.605 167.391 348.167 167.497 348.657 167.711C349.152 167.924 349.54 168.247 349.821 168.68C350.107 169.107 350.251 169.643 350.251 170.289V174.047C350.251 174.432 350.277 174.779 350.329 175.086C350.386 175.388 350.467 175.651 350.571 175.875V176H348.641C348.553 175.797 348.482 175.539 348.43 175.227C348.383 174.909 348.36 174.602 348.36 174.305ZM348.633 170.859L348.649 172.023H347.298C346.949 172.023 346.641 172.057 346.376 172.125C346.11 172.188 345.889 172.281 345.712 172.406C345.534 172.531 345.402 172.682 345.313 172.859C345.225 173.036 345.18 173.237 345.18 173.461C345.18 173.685 345.232 173.891 345.337 174.078C345.441 174.26 345.592 174.404 345.79 174.508C345.993 174.612 346.238 174.664 346.524 174.664C346.909 174.664 347.245 174.586 347.532 174.43C347.824 174.268 348.053 174.073 348.219 173.844C348.386 173.609 348.475 173.388 348.485 173.18L349.094 174.016C349.032 174.229 348.925 174.458 348.774 174.703C348.623 174.948 348.425 175.182 348.18 175.406C347.941 175.625 347.652 175.805 347.313 175.945C346.98 176.086 346.594 176.156 346.157 176.156C345.605 176.156 345.113 176.047 344.68 175.828C344.248 175.604 343.909 175.305 343.665 174.93C343.42 174.549 343.298 174.12 343.298 173.641C343.298 173.193 343.381 172.797 343.548 172.453C343.719 172.104 343.969 171.812 344.298 171.578C344.631 171.344 345.037 171.167 345.516 171.047C345.995 170.922 346.542 170.859 347.157 170.859H348.633ZM356.574 167.547V168.922H351.809V167.547H356.574ZM353.184 165.477H355.067V173.664C355.067 173.924 355.103 174.125 355.176 174.266C355.254 174.401 355.361 174.492 355.496 174.539C355.632 174.586 355.791 174.609 355.973 174.609C356.103 174.609 356.228 174.602 356.348 174.586C356.468 174.57 356.564 174.555 356.637 174.539L356.645 175.977C356.488 176.023 356.306 176.065 356.098 176.102C355.895 176.138 355.66 176.156 355.395 176.156C354.962 176.156 354.58 176.081 354.246 175.93C353.913 175.773 353.652 175.521 353.465 175.172C353.277 174.823 353.184 174.359 353.184 173.781V165.477ZM360.523 167.547V176H358.632V167.547H360.523ZM358.507 165.328C358.507 165.042 358.601 164.805 358.789 164.617C358.981 164.424 359.247 164.328 359.586 164.328C359.919 164.328 360.182 164.424 360.375 164.617C360.567 164.805 360.664 165.042 360.664 165.328C360.664 165.609 360.567 165.844 360.375 166.031C360.182 166.219 359.919 166.312 359.586 166.312C359.247 166.312 358.981 166.219 358.789 166.031C358.601 165.844 358.507 165.609 358.507 165.328ZM362.706 171.867V171.688C362.706 171.078 362.795 170.513 362.972 169.992C363.149 169.466 363.404 169.01 363.738 168.625C364.076 168.234 364.488 167.932 364.972 167.719C365.461 167.5 366.014 167.391 366.628 167.391C367.248 167.391 367.8 167.5 368.284 167.719C368.774 167.932 369.188 168.234 369.527 168.625C369.865 169.01 370.123 169.466 370.3 169.992C370.477 170.513 370.566 171.078 370.566 171.688V171.867C370.566 172.477 370.477 173.042 370.3 173.562C370.123 174.083 369.865 174.539 369.527 174.93C369.188 175.315 368.777 175.617 368.292 175.836C367.808 176.049 367.258 176.156 366.644 176.156C366.024 176.156 365.469 176.049 364.98 175.836C364.495 175.617 364.084 175.315 363.745 174.93C363.407 174.539 363.149 174.083 362.972 173.562C362.795 173.042 362.706 172.477 362.706 171.867ZM364.589 171.688V171.867C364.589 172.247 364.628 172.607 364.706 172.945C364.784 173.284 364.907 173.581 365.073 173.836C365.24 174.091 365.454 174.292 365.714 174.438C365.974 174.583 366.284 174.656 366.644 174.656C366.993 174.656 367.295 174.583 367.55 174.438C367.81 174.292 368.024 174.091 368.191 173.836C368.357 173.581 368.48 173.284 368.558 172.945C368.641 172.607 368.683 172.247 368.683 171.867V171.688C368.683 171.312 368.641 170.958 368.558 170.625C368.48 170.286 368.355 169.987 368.183 169.727C368.016 169.466 367.803 169.263 367.542 169.117C367.287 168.966 366.982 168.891 366.628 168.891C366.274 168.891 365.967 168.966 365.706 169.117C365.451 169.263 365.24 169.466 365.073 169.727C364.907 169.987 364.784 170.286 364.706 170.625C364.628 170.958 364.589 171.312 364.589 171.688ZM374.491 169.352V176H372.608V167.547H374.382L374.491 169.352ZM374.155 171.461L373.546 171.453C373.551 170.854 373.634 170.305 373.796 169.805C373.962 169.305 374.191 168.875 374.483 168.516C374.78 168.156 375.134 167.88 375.546 167.688C375.957 167.49 376.415 167.391 376.921 167.391C377.327 167.391 377.694 167.448 378.022 167.562C378.356 167.672 378.639 167.852 378.874 168.102C379.113 168.352 379.296 168.677 379.421 169.078C379.546 169.474 379.608 169.961 379.608 170.539V176H377.717V170.531C377.717 170.125 377.658 169.805 377.538 169.57C377.423 169.331 377.254 169.161 377.03 169.062C376.811 168.958 376.538 168.906 376.21 168.906C375.887 168.906 375.598 168.974 375.342 169.109C375.087 169.245 374.871 169.43 374.694 169.664C374.522 169.898 374.389 170.169 374.296 170.477C374.202 170.784 374.155 171.112 374.155 171.461ZM386.776 174.305V170.273C386.776 169.971 386.721 169.711 386.612 169.492C386.502 169.273 386.336 169.104 386.112 168.984C385.893 168.865 385.617 168.805 385.283 168.805C384.976 168.805 384.711 168.857 384.487 168.961C384.263 169.065 384.088 169.206 383.963 169.383C383.838 169.56 383.776 169.76 383.776 169.984H381.901C381.901 169.651 381.981 169.328 382.143 169.016C382.304 168.703 382.539 168.424 382.846 168.18C383.153 167.935 383.52 167.742 383.948 167.602C384.375 167.461 384.854 167.391 385.385 167.391C386.02 167.391 386.583 167.497 387.073 167.711C387.567 167.924 387.955 168.247 388.237 168.68C388.523 169.107 388.666 169.643 388.666 170.289V174.047C388.666 174.432 388.692 174.779 388.744 175.086C388.802 175.388 388.882 175.651 388.987 175.875V176H387.057C386.968 175.797 386.898 175.539 386.846 175.227C386.799 174.909 386.776 174.602 386.776 174.305ZM387.049 170.859L387.065 172.023H385.713C385.364 172.023 385.057 172.057 384.791 172.125C384.526 172.188 384.304 172.281 384.127 172.406C383.95 172.531 383.817 172.682 383.729 172.859C383.64 173.036 383.596 173.237 383.596 173.461C383.596 173.685 383.648 173.891 383.752 174.078C383.856 174.26 384.007 174.404 384.205 174.508C384.408 174.612 384.653 174.664 384.94 174.664C385.325 174.664 385.661 174.586 385.948 174.43C386.239 174.268 386.468 174.073 386.635 173.844C386.802 173.609 386.89 173.388 386.901 173.18L387.51 174.016C387.448 174.229 387.341 174.458 387.19 174.703C387.039 174.948 386.841 175.182 386.596 175.406C386.356 175.625 386.067 175.805 385.729 175.945C385.395 176.086 385.01 176.156 384.573 176.156C384.02 176.156 383.528 176.047 383.096 175.828C382.664 175.604 382.325 175.305 382.08 174.93C381.836 174.549 381.713 174.12 381.713 173.641C381.713 173.193 381.796 172.797 381.963 172.453C382.135 172.104 382.385 171.812 382.713 171.578C383.046 171.344 383.453 171.167 383.932 171.047C384.411 170.922 384.958 170.859 385.573 170.859H387.049ZM393.131 164V176H391.24V164H393.131Z" fill="black"/>
<path d="M481.602 62.4453V64H475.562V62.4453H481.602ZM476.117 52.625V64H474.156V52.625H476.117ZM480.812 57.375V58.9062H475.562V57.375H480.812ZM481.562 52.625V54.1875H475.562V52.625H481.562ZM486.792 62.6562C487.1 62.6562 487.376 62.5964 487.621 62.4766C487.871 62.3516 488.071 62.1797 488.222 61.9609C488.378 61.7422 488.464 61.4896 488.48 61.2031H490.253C490.243 61.75 490.082 62.2474 489.769 62.6953C489.457 63.1432 489.042 63.5 488.527 63.7656C488.011 64.026 487.441 64.1562 486.816 64.1562C486.17 64.1562 485.608 64.0469 485.128 63.8281C484.649 63.6042 484.251 63.2969 483.933 62.9062C483.615 62.5156 483.376 62.0651 483.214 61.5547C483.058 61.0443 482.98 60.4974 482.98 59.9141V59.6406C482.98 59.0573 483.058 58.5104 483.214 58C483.376 57.4844 483.615 57.0312 483.933 56.6406C484.251 56.25 484.649 55.9453 485.128 55.7266C485.608 55.5026 486.167 55.3906 486.808 55.3906C487.485 55.3906 488.079 55.526 488.589 55.7969C489.1 56.0625 489.501 56.4349 489.792 56.9141C490.089 57.388 490.243 57.9401 490.253 58.5703H488.48C488.464 58.2578 488.386 57.9766 488.246 57.7266C488.11 57.4714 487.917 57.2682 487.667 57.1172C487.423 56.9661 487.128 56.8906 486.785 56.8906C486.404 56.8906 486.089 56.9688 485.839 57.125C485.589 57.276 485.394 57.4844 485.253 57.75C485.113 58.0104 485.011 58.3047 484.949 58.6328C484.891 58.9557 484.863 59.2917 484.863 59.6406V59.9141C484.863 60.263 484.891 60.6016 484.949 60.9297C485.006 61.2578 485.105 61.5521 485.246 61.8125C485.391 62.0677 485.589 62.2734 485.839 62.4297C486.089 62.5807 486.407 62.6562 486.792 62.6562ZM491.819 59.8672V59.6875C491.819 59.0781 491.908 58.513 492.085 57.9922C492.262 57.4661 492.517 57.0104 492.851 56.625C493.189 56.2344 493.601 55.9323 494.085 55.7188C494.575 55.5 495.127 55.3906 495.741 55.3906C496.361 55.3906 496.913 55.5 497.397 55.7188C497.887 55.9323 498.301 56.2344 498.64 56.625C498.978 57.0104 499.236 57.4661 499.413 57.9922C499.59 58.513 499.679 59.0781 499.679 59.6875V59.8672C499.679 60.4766 499.59 61.0417 499.413 61.5625C499.236 62.0833 498.978 62.5391 498.64 62.9297C498.301 63.3151 497.89 63.6172 497.405 63.8359C496.921 64.0495 496.371 64.1562 495.757 64.1562C495.137 64.1562 494.582 64.0495 494.093 63.8359C493.608 63.6172 493.197 63.3151 492.858 62.9297C492.52 62.5391 492.262 62.0833 492.085 61.5625C491.908 61.0417 491.819 60.4766 491.819 59.8672ZM493.702 59.6875V59.8672C493.702 60.2474 493.741 60.6068 493.819 60.9453C493.897 61.2839 494.02 61.5807 494.187 61.8359C494.353 62.0911 494.567 62.2917 494.827 62.4375C495.088 62.5833 495.397 62.6562 495.757 62.6562C496.106 62.6562 496.408 62.5833 496.663 62.4375C496.924 62.2917 497.137 62.0911 497.304 61.8359C497.47 61.5807 497.593 61.2839 497.671 60.9453C497.754 60.6068 497.796 60.2474 497.796 59.8672V59.6875C497.796 59.3125 497.754 58.9583 497.671 58.625C497.593 58.2865 497.468 57.987 497.296 57.7266C497.129 57.4661 496.916 57.263 496.655 57.1172C496.4 56.9661 496.095 56.8906 495.741 56.8906C495.387 56.8906 495.08 56.9661 494.819 57.1172C494.564 57.263 494.353 57.4661 494.187 57.7266C494.02 57.987 493.897 58.2865 493.819 58.625C493.741 58.9583 493.702 59.3125 493.702 59.6875ZM503.604 57.3516V64H501.721V55.5469H503.495L503.604 57.3516ZM503.268 59.4609L502.659 59.4531C502.664 58.8542 502.747 58.3047 502.909 57.8047C503.075 57.3047 503.305 56.875 503.596 56.5156C503.893 56.1562 504.247 55.8802 504.659 55.6875C505.07 55.4896 505.529 55.3906 506.034 55.3906C506.44 55.3906 506.807 55.4479 507.135 55.5625C507.469 55.6719 507.753 55.8516 507.987 56.1016C508.226 56.3516 508.409 56.6771 508.534 57.0781C508.659 57.474 508.721 57.9609 508.721 58.5391V64H506.831V58.5312C506.831 58.125 506.771 57.8047 506.651 57.5703C506.536 57.3307 506.367 57.1615 506.143 57.0625C505.924 56.9583 505.651 56.9062 505.323 56.9062C505 56.9062 504.711 56.974 504.456 57.1094C504.2 57.2448 503.984 57.4297 503.807 57.6641C503.635 57.8984 503.503 58.1693 503.409 58.4766C503.315 58.7839 503.268 59.112 503.268 59.4609ZM510.764 59.8672V59.6875C510.764 59.0781 510.852 58.513 511.029 57.9922C511.206 57.4661 511.462 57.0104 511.795 56.625C512.134 56.2344 512.545 55.9323 513.029 55.7188C513.519 55.5 514.071 55.3906 514.686 55.3906C515.305 55.3906 515.857 55.5 516.342 55.7188C516.831 55.9323 517.246 56.2344 517.584 56.625C517.923 57.0104 518.18 57.4661 518.357 57.9922C518.535 58.513 518.623 59.0781 518.623 59.6875V59.8672C518.623 60.4766 518.535 61.0417 518.357 61.5625C518.18 62.0833 517.923 62.5391 517.584 62.9297C517.246 63.3151 516.834 63.6172 516.35 63.8359C515.865 64.0495 515.316 64.1562 514.701 64.1562C514.081 64.1562 513.527 64.0495 513.037 63.8359C512.553 63.6172 512.141 63.3151 511.803 62.9297C511.464 62.5391 511.206 62.0833 511.029 61.5625C510.852 61.0417 510.764 60.4766 510.764 59.8672ZM512.647 59.6875V59.8672C512.647 60.2474 512.686 60.6068 512.764 60.9453C512.842 61.2839 512.964 61.5807 513.131 61.8359C513.298 62.0911 513.511 62.2917 513.772 62.4375C514.032 62.5833 514.342 62.6562 514.701 62.6562C515.05 62.6562 515.352 62.5833 515.607 62.4375C515.868 62.2917 516.081 62.0911 516.248 61.8359C516.415 61.5807 516.537 61.2839 516.615 60.9453C516.699 60.6068 516.74 60.2474 516.74 59.8672V59.6875C516.74 59.3125 516.699 58.9583 516.615 58.625C516.537 58.2865 516.412 57.987 516.24 57.7266C516.074 57.4661 515.86 57.263 515.6 57.1172C515.344 56.9661 515.04 56.8906 514.686 56.8906C514.331 56.8906 514.024 56.9661 513.764 57.1172C513.509 57.263 513.298 57.4661 513.131 57.7266C512.964 57.987 512.842 58.2865 512.764 58.625C512.686 58.9583 512.647 59.3125 512.647 59.6875ZM522.564 57.2656V64H520.681V55.5469H522.455L522.564 57.2656ZM522.259 59.4609L521.619 59.4531C521.619 58.8698 521.692 58.3307 521.838 57.8359C521.983 57.3411 522.197 56.9115 522.478 56.5469C522.759 56.1771 523.108 55.8932 523.525 55.6953C523.947 55.4922 524.434 55.3906 524.986 55.3906C525.371 55.3906 525.723 55.4479 526.041 55.5625C526.364 55.6719 526.642 55.8464 526.877 56.0859C527.116 56.3255 527.298 56.6328 527.423 57.0078C527.554 57.3828 527.619 57.8359 527.619 58.3672V64H525.736V58.5312C525.736 58.1198 525.673 57.7969 525.548 57.5625C525.429 57.3281 525.254 57.1615 525.025 57.0625C524.801 56.9583 524.533 56.9062 524.22 56.9062C523.866 56.9062 523.564 56.974 523.314 57.1094C523.069 57.2448 522.869 57.4297 522.713 57.6641C522.556 57.8984 522.442 58.1693 522.369 58.4766C522.296 58.7839 522.259 59.112 522.259 59.4609ZM527.502 58.9609L526.619 59.1562C526.619 58.6458 526.689 58.1641 526.83 57.7109C526.976 57.2526 527.186 56.8516 527.463 56.5078C527.744 56.1589 528.09 55.8854 528.502 55.6875C528.913 55.4896 529.384 55.3906 529.916 55.3906C530.348 55.3906 530.733 55.4505 531.072 55.5703C531.416 55.6849 531.707 55.8672 531.947 56.1172C532.186 56.3672 532.369 56.6927 532.494 57.0938C532.619 57.4896 532.681 57.9688 532.681 58.5312V64H530.791V58.5234C530.791 58.0964 530.728 57.7656 530.603 57.5312C530.483 57.2969 530.311 57.1354 530.088 57.0469C529.864 56.9531 529.595 56.9062 529.283 56.9062C528.991 56.9062 528.733 56.9609 528.509 57.0703C528.291 57.1745 528.106 57.3229 527.955 57.5156C527.804 57.7031 527.689 57.9193 527.611 58.1641C527.538 58.4089 527.502 58.6745 527.502 58.9609ZM537.114 55.5469V64H535.224V55.5469H537.114ZM535.099 53.3281C535.099 53.0417 535.193 52.8047 535.38 52.6172C535.573 52.4245 535.838 52.3281 536.177 52.3281C536.51 52.3281 536.773 52.4245 536.966 52.6172C537.159 52.8047 537.255 53.0417 537.255 53.3281C537.255 53.6094 537.159 53.8438 536.966 54.0312C536.773 54.2188 536.51 54.3125 536.177 54.3125C535.838 54.3125 535.573 54.2188 535.38 54.0312C535.193 53.8438 535.099 53.6094 535.099 53.3281ZM543.11 62.6562C543.417 62.6562 543.693 62.5964 543.938 62.4766C544.188 62.3516 544.389 62.1797 544.54 61.9609C544.696 61.7422 544.782 61.4896 544.798 61.2031H546.571C546.561 61.75 546.399 62.2474 546.087 62.6953C545.774 63.1432 545.36 63.5 544.844 63.7656C544.329 64.026 543.758 64.1562 543.133 64.1562C542.488 64.1562 541.925 64.0469 541.446 63.8281C540.967 63.6042 540.568 63.2969 540.251 62.9062C539.933 62.5156 539.693 62.0651 539.532 61.5547C539.376 61.0443 539.298 60.4974 539.298 59.9141V59.6406C539.298 59.0573 539.376 58.5104 539.532 58C539.693 57.4844 539.933 57.0312 540.251 56.6406C540.568 56.25 540.967 55.9453 541.446 55.7266C541.925 55.5026 542.485 55.3906 543.126 55.3906C543.803 55.3906 544.396 55.526 544.907 55.7969C545.417 56.0625 545.818 56.4349 546.11 56.9141C546.407 57.388 546.561 57.9401 546.571 58.5703H544.798C544.782 58.2578 544.704 57.9766 544.563 57.7266C544.428 57.4714 544.235 57.2682 543.985 57.1172C543.74 56.9661 543.446 56.8906 543.102 56.8906C542.722 56.8906 542.407 56.9688 542.157 57.125C541.907 57.276 541.712 57.4844 541.571 57.75C541.43 58.0104 541.329 58.3047 541.266 58.6328C541.209 58.9557 541.18 59.2917 541.18 59.6406V59.9141C541.18 60.263 541.209 60.6016 541.266 60.9297C541.324 61.2578 541.423 61.5521 541.563 61.8125C541.709 62.0677 541.907 62.2734 542.157 62.4297C542.407 62.5807 542.725 62.6562 543.11 62.6562Z" fill="black"/>
<path d="M450.516 50.2508L459.079 45.3008L461.934 50.2508" stroke="black" stroke-width="1.1" stroke-linecap="round" stroke-linejoin="round"/>
<path d="M453.027 66.75L444.464 71.7L441.609 66.75" stroke="black" stroke-width="1.6" stroke-linecap="round" stroke-linejoin="round"/>
<path d="M442.639 58.5672C442.639 58.6631 442.562 58.7407 442.466 58.7407C442.37 58.7407 442.292 58.6631 442.292 58.5672C442.292 58.4714 442.37 58.3938 442.466 58.3938C442.562 58.3938 442.639 58.4714 442.639 58.5672Z" fill="black" stroke="black" stroke-width="1.6"/>
<path d="M463.697 50.25H437.297V66.75H463.697V50.25Z" stroke="black" stroke-width="1.6" stroke-linecap="round" stroke-linejoin="round"/>
<path d="M463.697 55.431C460.826 55.431 458.516 53.1045 458.516 50.25" stroke="black" stroke-width="1.6" stroke-linecap="round" stroke-linejoin="round"/>
<path d="M458.516 66.7513C458.516 63.8803 460.842 61.5703 463.697 61.5703" stroke="black" stroke-width="1.6" stroke-linecap="round" stroke-linejoin="round"/>
<path d="M437.297 55.431C440.168 55.431 442.478 53.1045 442.478 50.25" stroke="black" stroke-width="1.6" stroke-linecap="round" stroke-linejoin="round"/>
<path d="M442.478 66.7513C442.478 63.8803 440.151 61.5703 437.297 61.5703" stroke="black" stroke-width="1.6" stroke-linecap="round" stroke-linejoin="round"/>
<path d="M450.5 63.4508C452.778 63.4508 454.625 61.2346 454.625 58.5008C454.625 55.767 452.778 53.5508 450.5 53.5508C448.222 53.5508 446.375 55.767 446.375 58.5008C446.375 61.2346 448.222 63.4508 450.5 63.4508Z" stroke="black" stroke-width="1.6" stroke-miterlimit="10" stroke-linecap="round"/>
<path d="M458.536 59.5407C459.074 59.5407 459.51 59.1049 459.51 58.5672C459.51 58.0296 459.074 57.5938 458.536 57.5938C457.998 57.5938 457.562 58.0296 457.562 58.5672C457.562 59.1049 457.998 59.5407 458.536 59.5407Z" fill="black"/>
<path d="M480.141 118.07C480.141 117.836 480.104 117.628 480.031 117.445C479.964 117.263 479.841 117.096 479.664 116.945C479.487 116.794 479.237 116.648 478.914 116.508C478.596 116.362 478.19 116.214 477.695 116.062C477.154 115.896 476.654 115.711 476.195 115.508C475.742 115.299 475.346 115.06 475.008 114.789C474.669 114.513 474.406 114.198 474.219 113.844C474.031 113.484 473.938 113.07 473.938 112.602C473.938 112.138 474.034 111.716 474.227 111.336C474.424 110.956 474.703 110.628 475.062 110.352C475.427 110.07 475.857 109.854 476.352 109.703C476.846 109.547 477.393 109.469 477.992 109.469C478.836 109.469 479.562 109.625 480.172 109.938C480.786 110.25 481.258 110.669 481.586 111.195C481.919 111.721 482.086 112.302 482.086 112.938H480.141C480.141 112.562 480.06 112.232 479.898 111.945C479.742 111.654 479.503 111.424 479.18 111.258C478.862 111.091 478.458 111.008 477.969 111.008C477.505 111.008 477.12 111.078 476.812 111.219C476.505 111.359 476.276 111.549 476.125 111.789C475.974 112.029 475.898 112.299 475.898 112.602C475.898 112.815 475.948 113.01 476.047 113.188C476.146 113.359 476.297 113.521 476.5 113.672C476.703 113.818 476.958 113.956 477.266 114.086C477.573 114.216 477.935 114.341 478.352 114.461C478.982 114.648 479.531 114.857 480 115.086C480.469 115.31 480.859 115.565 481.172 115.852C481.484 116.138 481.719 116.464 481.875 116.828C482.031 117.188 482.109 117.596 482.109 118.055C482.109 118.534 482.013 118.966 481.82 119.352C481.628 119.732 481.352 120.057 480.992 120.328C480.638 120.594 480.211 120.799 479.711 120.945C479.216 121.086 478.664 121.156 478.055 121.156C477.508 121.156 476.969 121.083 476.438 120.938C475.911 120.792 475.432 120.57 475 120.273C474.568 119.971 474.224 119.596 473.969 119.148C473.714 118.695 473.586 118.167 473.586 117.562H475.547C475.547 117.932 475.609 118.247 475.734 118.508C475.865 118.768 476.044 118.982 476.273 119.148C476.503 119.31 476.768 119.43 477.07 119.508C477.378 119.586 477.706 119.625 478.055 119.625C478.513 119.625 478.896 119.56 479.203 119.43C479.516 119.299 479.75 119.117 479.906 118.883C480.062 118.648 480.141 118.378 480.141 118.07ZM483.777 116.867V116.688C483.777 116.078 483.865 115.513 484.042 114.992C484.22 114.466 484.475 114.01 484.808 113.625C485.147 113.234 485.558 112.932 486.042 112.719C486.532 112.5 487.084 112.391 487.699 112.391C488.319 112.391 488.871 112.5 489.355 112.719C489.845 112.932 490.259 113.234 490.597 113.625C490.936 114.01 491.194 114.466 491.371 114.992C491.548 115.513 491.636 116.078 491.636 116.688V116.867C491.636 117.477 491.548 118.042 491.371 118.562C491.194 119.083 490.936 119.539 490.597 119.93C490.259 120.315 489.847 120.617 489.363 120.836C488.878 121.049 488.329 121.156 487.714 121.156C487.095 121.156 486.54 121.049 486.05 120.836C485.566 120.617 485.154 120.315 484.816 119.93C484.477 119.539 484.22 119.083 484.042 118.562C483.865 118.042 483.777 117.477 483.777 116.867ZM485.66 116.688V116.867C485.66 117.247 485.699 117.607 485.777 117.945C485.855 118.284 485.977 118.581 486.144 118.836C486.311 119.091 486.524 119.292 486.785 119.438C487.045 119.583 487.355 119.656 487.714 119.656C488.063 119.656 488.365 119.583 488.621 119.438C488.881 119.292 489.095 119.091 489.261 118.836C489.428 118.581 489.55 118.284 489.628 117.945C489.712 117.607 489.753 117.247 489.753 116.867V116.688C489.753 116.312 489.712 115.958 489.628 115.625C489.55 115.286 489.425 114.987 489.253 114.727C489.087 114.466 488.873 114.263 488.613 114.117C488.358 113.966 488.053 113.891 487.699 113.891C487.345 113.891 487.037 113.966 486.777 114.117C486.522 114.263 486.311 114.466 486.144 114.727C485.977 114.987 485.855 115.286 485.777 115.625C485.699 115.958 485.66 116.312 485.66 116.688ZM497.147 119.656C497.455 119.656 497.731 119.596 497.976 119.477C498.226 119.352 498.426 119.18 498.577 118.961C498.733 118.742 498.819 118.49 498.835 118.203H500.608C500.598 118.75 500.437 119.247 500.124 119.695C499.812 120.143 499.397 120.5 498.882 120.766C498.366 121.026 497.796 121.156 497.171 121.156C496.525 121.156 495.963 121.047 495.483 120.828C495.004 120.604 494.606 120.297 494.288 119.906C493.97 119.516 493.731 119.065 493.569 118.555C493.413 118.044 493.335 117.497 493.335 116.914V116.641C493.335 116.057 493.413 115.51 493.569 115C493.731 114.484 493.97 114.031 494.288 113.641C494.606 113.25 495.004 112.945 495.483 112.727C495.963 112.503 496.522 112.391 497.163 112.391C497.84 112.391 498.434 112.526 498.944 112.797C499.455 113.062 499.856 113.435 500.147 113.914C500.444 114.388 500.598 114.94 500.608 115.57H498.835C498.819 115.258 498.741 114.977 498.601 114.727C498.465 114.471 498.272 114.268 498.022 114.117C497.778 113.966 497.483 113.891 497.14 113.891C496.759 113.891 496.444 113.969 496.194 114.125C495.944 114.276 495.749 114.484 495.608 114.75C495.468 115.01 495.366 115.305 495.304 115.633C495.246 115.956 495.218 116.292 495.218 116.641V116.914C495.218 117.263 495.246 117.602 495.304 117.93C495.361 118.258 495.46 118.552 495.601 118.812C495.746 119.068 495.944 119.273 496.194 119.43C496.444 119.581 496.762 119.656 497.147 119.656ZM504.549 112.547V121H502.659V112.547H504.549ZM502.534 110.328C502.534 110.042 502.628 109.805 502.815 109.617C503.008 109.424 503.273 109.328 503.612 109.328C503.945 109.328 504.208 109.424 504.401 109.617C504.594 109.805 504.69 110.042 504.69 110.328C504.69 110.609 504.594 110.844 504.401 111.031C504.208 111.219 503.945 111.312 503.612 111.312C503.273 111.312 503.008 111.219 502.815 111.031C502.628 110.844 502.534 110.609 502.534 110.328ZM511.857 119.305V115.273C511.857 114.971 511.803 114.711 511.693 114.492C511.584 114.273 511.417 114.104 511.193 113.984C510.975 113.865 510.699 113.805 510.365 113.805C510.058 113.805 509.792 113.857 509.568 113.961C509.344 114.065 509.17 114.206 509.045 114.383C508.92 114.56 508.857 114.76 508.857 114.984H506.982C506.982 114.651 507.063 114.328 507.225 114.016C507.386 113.703 507.621 113.424 507.928 113.18C508.235 112.935 508.602 112.742 509.029 112.602C509.456 112.461 509.936 112.391 510.467 112.391C511.102 112.391 511.665 112.497 512.154 112.711C512.649 112.924 513.037 113.247 513.318 113.68C513.605 114.107 513.748 114.643 513.748 115.289V119.047C513.748 119.432 513.774 119.779 513.826 120.086C513.884 120.388 513.964 120.651 514.068 120.875V121H512.139C512.05 120.797 511.98 120.539 511.928 120.227C511.881 119.909 511.857 119.602 511.857 119.305ZM512.131 115.859L512.147 117.023H510.795C510.446 117.023 510.139 117.057 509.873 117.125C509.607 117.188 509.386 117.281 509.209 117.406C509.032 117.531 508.899 117.682 508.811 117.859C508.722 118.036 508.678 118.237 508.678 118.461C508.678 118.685 508.73 118.891 508.834 119.078C508.938 119.26 509.089 119.404 509.287 119.508C509.49 119.612 509.735 119.664 510.022 119.664C510.407 119.664 510.743 119.586 511.029 119.43C511.321 119.268 511.55 119.073 511.717 118.844C511.884 118.609 511.972 118.388 511.982 118.18L512.592 119.016C512.529 119.229 512.423 119.458 512.272 119.703C512.121 119.948 511.923 120.182 511.678 120.406C511.438 120.625 511.149 120.805 510.811 120.945C510.477 121.086 510.092 121.156 509.654 121.156C509.102 121.156 508.61 121.047 508.178 120.828C507.746 120.604 507.407 120.305 507.162 119.93C506.917 119.549 506.795 119.12 506.795 118.641C506.795 118.193 506.878 117.797 507.045 117.453C507.217 117.104 507.467 116.812 507.795 116.578C508.128 116.344 508.535 116.167 509.014 116.047C509.493 115.922 510.04 115.859 510.654 115.859H512.131ZM518.213 109V121H516.322V109H518.213Z" fill="black"/>
<path fill-rule="evenodd" clip-rule="evenodd" d="M459.956 127.214C460.897 126.867 461.887 125.861 461.606 124.64C460.633 120.251 457.036 117 452.729 117H448.291C443.984 117 440.387 120.251 439.414 124.64C439.133 125.877 439.975 126.867 441.064 127.214C442.153 127.56 444.958 128.699 450.32 128.699C455.683 128.699 459.016 127.56 459.956 127.214Z" stroke="black" stroke-width="1.6" stroke-linecap="round" stroke-linejoin="round"/>
<path d="M450.47 112.663C453.331 112.663 455.651 110.343 455.651 107.482C455.651 104.62 453.331 102.301 450.47 102.301C447.609 102.301 445.289 104.62 445.289 107.482C445.289 110.343 447.609 112.663 450.47 112.663Z" stroke="black" stroke-width="1.6" stroke-linecap="round" stroke-linejoin="round"/>
<defs>
<clipPath id="clip0_1510_32094">
<rect width="172" height="172" fill="white" transform="translate(33 31)"/>
</clipPath>
</defs>
</svg>
