<svg width="20" height="20" viewBox="0 0 20 20" fill="none" xmlns="http://www.w3.org/2000/svg">
<rect x="0.4" y="0.4" width="19.2" height="19.2" rx="9.6" stroke="#787575" stroke-width="0.8"/>
<path d="M9.27832 15V7.37882H10.767V15H9.27832ZM9.93851 6.02866C9.68824 6.02866 9.46818 5.94413 9.27832 5.77508C9.09277 5.60602 9 5.37529 9 5.08287C9 4.88183 9.05178 4.70135 9.15534 4.54143C9.26321 4.37695 9.39914 4.24673 9.56311 4.15078C9.72708 4.05026 9.89752 4 10.0744 4C10.3808 4 10.6117 4.09138 10.767 4.27414C10.9223 4.45691 11 4.68079 11 4.94579C11 5.26106 10.8921 5.52149 10.6764 5.7271C10.4649 5.92814 10.219 6.02866 9.93851 6.02866Z" fill="#787575"/>
</svg>
