<svg width="22" height="22" viewBox="0 0 22 22" fill="none" xmlns="http://www.w3.org/2000/svg">
<path d="M13.1445 13.9365V19.3815" stroke="black" stroke-width="1.1" stroke-linecap="round" stroke-linejoin="round"/>
<path d="M17.6875 13.9365V19.3815" stroke="black" stroke-width="1.1" stroke-linecap="round" stroke-linejoin="round"/>
<path d="M19.7982 13.9365H15.5742" stroke="black" stroke-width="1.1" stroke-linecap="round" stroke-linejoin="round"/>
<path d="M14.9157 8.11816L8.86569 9.10816L2.80469 8.11816" stroke="black" stroke-width="0.95" stroke-miterlimit="10" stroke-linecap="round"/>
<path d="M14.6617 9.98823C15.1457 7.98623 15.3987 5.72023 15.5197 4.35623C15.5747 3.66323 15.1457 3.02523 14.4637 2.81623C13.0887 2.38723 10.8337 1.78223 8.86466 1.78223C6.89566 1.78223 4.64066 2.37623 3.26566 2.81623C2.58366 3.03623 2.14366 3.67423 2.20966 4.35623C2.36366 6.12723 2.74866 9.44923 3.57366 11.7042C4.56366 14.3882 6.79666 15.9832 8.06166 16.6982" stroke="black" stroke-width="1.1" stroke-miterlimit="10" stroke-linecap="round"/>
<path d="M8.86328 1.78223V12.4082" stroke="black" stroke-width="0.95" stroke-miterlimit="10" stroke-linecap="round"/>
</svg>
