<svg width="178" height="62" viewBox="0 0 178 62" fill="none" xmlns="http://www.w3.org/2000/svg">
<path d="M15.7593 13.9663L18.4497 3.49219H19.8599L19.7021 6.19189L16.8262 17H15.3604L15.7593 13.9663ZM13.7461 3.49219L15.9263 13.8828L16.1211 17H14.5625L11.436 3.49219H13.7461ZM22.9121 13.855L25.0645 3.49219H27.3838L24.2573 17H22.6987L22.9121 13.855ZM20.4072 3.49219L23.0698 13.9941L23.4595 17H21.9937L19.1641 6.19189L19.0156 3.49219H20.4072ZM31.6603 6.96191V17H29.4152V6.96191H31.6603ZM29.2667 4.32715C29.2667 3.98698 29.378 3.70557 29.6007 3.48291C29.8295 3.25407 30.145 3.13965 30.547 3.13965C30.9428 3.13965 31.2552 3.25407 31.484 3.48291C31.7128 3.70557 31.8273 3.98698 31.8273 4.32715C31.8273 4.66113 31.7128 4.93945 31.484 5.16211C31.2552 5.38477 30.9428 5.49609 30.547 5.49609C30.145 5.49609 29.8295 5.38477 29.6007 5.16211C29.378 4.93945 29.2667 4.66113 29.2667 4.32715ZM40.1208 14.2817C40.1208 14.0591 40.0652 13.8581 39.9538 13.6787C39.8425 13.4932 39.6291 13.3262 39.3137 13.1777C39.0045 13.0293 38.5468 12.8932 37.9407 12.7695C37.4088 12.652 36.9202 12.5129 36.4748 12.3521C36.0357 12.1851 35.6584 11.984 35.343 11.749C35.0276 11.514 34.7833 11.2357 34.6101 10.9141C34.4369 10.5924 34.3503 10.2214 34.3503 9.80078C34.3503 9.39258 34.44 9.00602 34.6194 8.64111C34.7987 8.2762 35.0554 7.95459 35.3894 7.67627C35.7234 7.39795 36.1285 7.17839 36.6047 7.01758C37.0871 6.85677 37.6252 6.77637 38.219 6.77637C39.0601 6.77637 39.7807 6.91862 40.3806 7.20312C40.9867 7.48145 41.4506 7.86182 41.7722 8.34424C42.0938 8.82048 42.2546 9.35856 42.2546 9.9585H40.0188C40.0188 9.69255 39.9508 9.44515 39.8147 9.21631C39.6848 8.98128 39.4869 8.79264 39.2209 8.65039C38.955 8.50195 38.621 8.42773 38.219 8.42773C37.8355 8.42773 37.517 8.48958 37.2634 8.61328C37.016 8.73079 36.8305 8.88542 36.7068 9.07715C36.5893 9.26888 36.5305 9.47917 36.5305 9.70801C36.5305 9.875 36.5614 10.0265 36.6233 10.1626C36.6913 10.2925 36.8026 10.4131 36.9573 10.5244C37.1119 10.6296 37.3222 10.7285 37.5881 10.8213C37.8603 10.9141 38.2004 11.0037 38.6086 11.0903C39.3756 11.2511 40.0343 11.4583 40.5847 11.7119C41.1413 11.9593 41.5681 12.2809 41.865 12.6768C42.1619 13.0664 42.3103 13.5612 42.3103 14.1611C42.3103 14.6064 42.2144 15.0146 42.0227 15.3857C41.8371 15.7507 41.565 16.0692 41.2063 16.3413C40.8476 16.6073 40.4177 16.8145 39.9167 16.9629C39.4219 17.1113 38.8653 17.1855 38.2468 17.1855C37.3376 17.1855 36.5676 17.0247 35.9368 16.7031C35.3059 16.3753 34.8266 15.9578 34.4988 15.4507C34.1772 14.9373 34.0163 14.4054 34.0163 13.855H36.178C36.2027 14.2694 36.3171 14.6003 36.5212 14.8477C36.7315 15.0889 36.9913 15.2651 37.3005 15.3765C37.616 15.4816 37.9407 15.5342 38.2746 15.5342C38.6767 15.5342 39.0137 15.4816 39.2859 15.3765C39.558 15.2651 39.7652 15.1167 39.9075 14.9312C40.0497 14.7394 40.1208 14.5229 40.1208 14.2817ZM50.2792 14.2817C50.2792 14.0591 50.2235 13.8581 50.1122 13.6787C50.0008 13.4932 49.7875 13.3262 49.472 13.1777C49.1628 13.0293 48.7051 12.8932 48.099 12.7695C47.5671 12.652 47.0785 12.5129 46.6332 12.3521C46.194 12.1851 45.8168 11.984 45.5013 11.749C45.1859 11.514 44.9416 11.2357 44.7684 10.9141C44.5952 10.5924 44.5087 10.2214 44.5087 9.80078C44.5087 9.39258 44.5983 9.00602 44.7777 8.64111C44.9571 8.2762 45.2137 7.95459 45.5477 7.67627C45.8817 7.39795 46.2868 7.17839 46.763 7.01758C47.2455 6.85677 47.7836 6.77637 48.3773 6.77637C49.2184 6.77637 49.939 6.91862 50.5389 7.20312C51.145 7.48145 51.6089 7.86182 51.9305 8.34424C52.2521 8.82048 52.4129 9.35856 52.4129 9.9585H50.1771C50.1771 9.69255 50.1091 9.44515 49.973 9.21631C49.8431 8.98128 49.6452 8.79264 49.3793 8.65039C49.1133 8.50195 48.7793 8.42773 48.3773 8.42773C47.9938 8.42773 47.6753 8.48958 47.4217 8.61328C47.1743 8.73079 46.9888 8.88542 46.8651 9.07715C46.7476 9.26888 46.6888 9.47917 46.6888 9.70801C46.6888 9.875 46.7198 10.0265 46.7816 10.1626C46.8496 10.2925 46.961 10.4131 47.1156 10.5244C47.2702 10.6296 47.4805 10.7285 47.7464 10.8213C48.0186 10.9141 48.3587 11.0037 48.767 11.0903C49.5339 11.2511 50.1926 11.4583 50.743 11.7119C51.2997 11.9593 51.7264 12.2809 52.0233 12.6768C52.3202 13.0664 52.4686 13.5612 52.4686 14.1611C52.4686 14.6064 52.3727 15.0146 52.181 15.3857C51.9955 15.7507 51.7233 16.0692 51.3646 16.3413C51.0059 16.6073 50.576 16.8145 50.0751 16.9629C49.5803 17.1113 49.0236 17.1855 48.4051 17.1855C47.496 17.1855 46.7259 17.0247 46.0951 16.7031C45.4642 16.3753 44.9849 15.9578 44.6571 15.4507C44.3355 14.9373 44.1747 14.4054 44.1747 13.855H46.3363C46.361 14.2694 46.4754 14.6003 46.6796 14.8477C46.8898 15.0889 47.1496 15.2651 47.4588 15.3765C47.7743 15.4816 48.099 15.5342 48.433 15.5342C48.835 15.5342 49.1721 15.4816 49.4442 15.3765C49.7163 15.2651 49.9235 15.1167 50.0658 14.9312C50.208 14.7394 50.2792 14.5229 50.2792 14.2817ZM59.2314 17.1855C58.4892 17.1855 57.8182 17.0649 57.2182 16.8237C56.6245 16.5763 56.1173 16.2331 55.6968 15.7939C55.2824 15.3548 54.9638 14.8384 54.7412 14.2446C54.5185 13.6509 54.4072 13.0107 54.4072 12.3242V11.9531C54.4072 11.1676 54.5216 10.4564 54.7505 9.81934C54.9793 9.18229 55.2978 8.63802 55.706 8.18652C56.1142 7.72884 56.5967 7.37939 57.1533 7.13818C57.7099 6.89697 58.313 6.77637 58.9624 6.77637C59.6798 6.77637 60.3076 6.89697 60.8457 7.13818C61.3838 7.37939 61.8291 7.71956 62.1816 8.15869C62.5403 8.59163 62.8063 9.10807 62.9795 9.70801C63.1588 10.3079 63.2485 10.9697 63.2485 11.6934V12.6489H55.4927V11.0439H61.0405V10.8677C61.0281 10.4657 60.9477 10.0884 60.7993 9.73584C60.657 9.3833 60.4375 9.0988 60.1406 8.88232C59.8437 8.66585 59.4479 8.55762 58.9531 8.55762C58.582 8.55762 58.2511 8.63802 57.9604 8.79883C57.6759 8.95345 57.4378 9.1792 57.2461 9.47607C57.0543 9.77295 56.9059 10.1317 56.8008 10.5522C56.7018 10.9666 56.6523 11.4336 56.6523 11.9531V12.3242C56.6523 12.7633 56.7111 13.1715 56.8286 13.5488C56.9523 13.9199 57.1317 14.2446 57.3667 14.5229C57.6017 14.8013 57.8862 15.0208 58.2202 15.1816C58.5542 15.3363 58.9346 15.4136 59.3613 15.4136C59.8994 15.4136 60.3787 15.3053 60.7993 15.0889C61.2199 14.8724 61.5848 14.5662 61.894 14.1704L63.0722 15.3115C62.8558 15.627 62.5744 15.93 62.228 16.2207C61.8817 16.5052 61.458 16.7371 60.957 16.9165C60.4622 17.0959 59.887 17.1855 59.2314 17.1855ZM67.5899 9.10498V17H65.3541V6.96191H67.4601L67.5899 9.10498ZM67.191 11.6099L66.4674 11.6006C66.4736 10.8893 66.5725 10.2368 66.7643 9.64307C66.9622 9.04932 67.2343 8.53906 67.5807 8.1123C67.9332 7.68555 68.3538 7.35775 68.8424 7.12891C69.331 6.89388 69.8753 6.77637 70.4752 6.77637C70.9576 6.77637 71.3937 6.8444 71.7833 6.98047C72.1791 7.11035 72.5162 7.32373 72.7945 7.62061C73.079 7.91748 73.2955 8.30404 73.4439 8.78027C73.5924 9.25033 73.6666 9.82861 73.6666 10.5151V17H71.4215V10.5059C71.4215 10.0234 71.3504 9.64307 71.2081 9.36475C71.072 9.08024 70.871 8.87923 70.6051 8.76172C70.3453 8.63802 70.0206 8.57617 69.631 8.57617C69.2475 8.57617 68.9042 8.65658 68.6012 8.81738C68.2981 8.97819 68.0414 9.19775 67.8312 9.47607C67.6271 9.75439 67.4693 10.076 67.358 10.4409C67.2467 10.8058 67.191 11.1955 67.191 11.6099ZM81.9602 14.2817C81.9602 14.0591 81.9045 13.8581 81.7932 13.6787C81.6819 13.4932 81.4685 13.3262 81.153 13.1777C80.8438 13.0293 80.3861 12.8932 79.78 12.7695C79.2481 12.652 78.7595 12.5129 78.3142 12.3521C77.8751 12.1851 77.4978 11.984 77.1823 11.749C76.8669 11.514 76.6226 11.2357 76.4494 10.9141C76.2763 10.5924 76.1897 10.2214 76.1897 9.80078C76.1897 9.39258 76.2793 9.00602 76.4587 8.64111C76.6381 8.2762 76.8947 7.95459 77.2287 7.67627C77.5627 7.39795 77.9678 7.17839 78.4441 7.01758C78.9265 6.85677 79.4646 6.77637 80.0583 6.77637C80.8995 6.77637 81.62 6.91862 82.2199 7.20312C82.8261 7.48145 83.2899 7.86182 83.6115 8.34424C83.9332 8.82048 84.094 9.35856 84.094 9.9585H81.8581C81.8581 9.69255 81.7901 9.44515 81.654 9.21631C81.5241 8.98128 81.3262 8.79264 81.0603 8.65039C80.7943 8.50195 80.4603 8.42773 80.0583 8.42773C79.6749 8.42773 79.3563 8.48958 79.1028 8.61328C78.8554 8.73079 78.6698 8.88542 78.5461 9.07715C78.4286 9.26888 78.3698 9.47917 78.3698 9.70801C78.3698 9.875 78.4008 10.0265 78.4626 10.1626C78.5306 10.2925 78.642 10.4131 78.7966 10.5244C78.9512 10.6296 79.1615 10.7285 79.4275 10.8213C79.6996 10.9141 80.0398 11.0037 80.448 11.0903C81.2149 11.2511 81.8736 11.4583 82.424 11.7119C82.9807 11.9593 83.4074 12.2809 83.7043 12.6768C84.0012 13.0664 84.1496 13.5612 84.1496 14.1611C84.1496 14.6064 84.0538 15.0146 83.862 15.3857C83.6765 15.7507 83.4043 16.0692 83.0456 16.3413C82.6869 16.6073 82.257 16.8145 81.7561 16.9629C81.2613 17.1113 80.7046 17.1855 80.0862 17.1855C79.177 17.1855 78.407 17.0247 77.7761 16.7031C77.1452 16.3753 76.6659 15.9578 76.3381 15.4507C76.0165 14.9373 75.8557 14.4054 75.8557 13.855H78.0173C78.042 14.2694 78.1565 14.6003 78.3606 14.8477C78.5709 15.0889 78.8306 15.2651 79.1399 15.3765C79.4553 15.4816 79.78 15.5342 80.114 15.5342C80.516 15.5342 80.8531 15.4816 81.1252 15.3765C81.3973 15.2651 81.6045 15.1167 81.7468 14.9312C81.889 14.7394 81.9602 14.5229 81.9602 14.2817ZM88.7323 8.8916V20.8594H86.4964V6.96191H88.556L88.7323 8.8916ZM95.2728 11.8882V12.083C95.2728 12.8128 95.1862 13.4901 95.013 14.1147C94.846 14.7332 94.5956 15.2744 94.2616 15.7383C93.9338 16.196 93.5287 16.5516 93.0462 16.8052C92.5638 17.0588 92.0072 17.1855 91.3763 17.1855C90.7516 17.1855 90.2043 17.0711 89.7342 16.8423C89.2704 16.6073 88.8776 16.2764 88.556 15.8496C88.2344 15.4229 87.9746 14.9219 87.7767 14.3467C87.585 13.7653 87.4489 13.1283 87.3685 12.4355V11.6841C87.4489 10.9481 87.585 10.2801 87.7767 9.68018C87.9746 9.08024 88.2344 8.5638 88.556 8.13086C88.8776 7.69792 89.2704 7.36393 89.7342 7.12891C90.1981 6.89388 90.7393 6.77637 91.3578 6.77637C91.9886 6.77637 92.5484 6.90007 93.037 7.14746C93.5256 7.38867 93.9369 7.73503 94.2708 8.18652C94.6048 8.63184 94.8553 9.16992 95.0223 9.80078C95.1893 10.4255 95.2728 11.1213 95.2728 11.8882ZM93.037 12.083V11.8882C93.037 11.4243 92.9937 10.9945 92.9071 10.5986C92.8205 10.1966 92.6844 9.84408 92.4989 9.54102C92.3133 9.23796 92.0752 9.00293 91.7845 8.83594C91.5 8.66276 91.1567 8.57617 90.7547 8.57617C90.3589 8.57617 90.0187 8.64421 89.7342 8.78027C89.4497 8.91016 89.2116 9.09261 89.0199 9.32764C88.8281 9.56266 88.6797 9.83789 88.5746 10.1533C88.4694 10.4626 88.3952 10.7996 88.3519 11.1646V12.9644C88.4261 13.4097 88.5529 13.8179 88.7323 14.189C88.9116 14.5601 89.1652 14.8569 89.493 15.0796C89.827 15.2961 90.2538 15.4043 90.7733 15.4043C91.1753 15.4043 91.5186 15.3177 91.8031 15.1445C92.0876 14.9714 92.3195 14.7332 92.4989 14.4302C92.6844 14.1209 92.8205 13.7653 92.9071 13.3633C92.9937 12.9613 93.037 12.5345 93.037 12.083ZM99.9482 2.75V17H97.7031V2.75H99.9482ZM108.437 14.9868V10.1997C108.437 9.84098 108.372 9.53174 108.242 9.27197C108.112 9.01221 107.914 8.8112 107.648 8.66895C107.388 8.52669 107.06 8.45557 106.665 8.45557C106.3 8.45557 105.984 8.51742 105.718 8.64111C105.452 8.76481 105.245 8.9318 105.097 9.14209C104.948 9.35238 104.874 9.59049 104.874 9.85645H102.648C102.648 9.46061 102.743 9.07715 102.935 8.70605C103.127 8.33496 103.405 8.00407 103.77 7.71338C104.135 7.42269 104.571 7.19385 105.078 7.02686C105.585 6.85986 106.154 6.77637 106.785 6.77637C107.54 6.77637 108.208 6.90316 108.789 7.15674C109.377 7.41032 109.837 7.79378 110.171 8.30713C110.512 8.81429 110.682 9.45133 110.682 10.2183V14.6807C110.682 15.1383 110.713 15.5496 110.774 15.9146C110.843 16.2733 110.938 16.5856 111.062 16.8516V17H108.771C108.665 16.7588 108.582 16.4526 108.52 16.0815C108.464 15.7043 108.437 15.3394 108.437 14.9868ZM108.761 10.8955L108.78 12.2778H107.175C106.76 12.2778 106.396 12.318 106.08 12.3984C105.765 12.4727 105.502 12.584 105.292 12.7324C105.081 12.8809 104.924 13.0602 104.818 13.2705C104.713 13.4808 104.661 13.7189 104.661 13.9849C104.661 14.2508 104.723 14.4951 104.846 14.7178C104.97 14.9342 105.149 15.1043 105.384 15.228C105.626 15.3517 105.916 15.4136 106.256 15.4136C106.714 15.4136 107.113 15.3208 107.453 15.1353C107.8 14.9435 108.072 14.7116 108.27 14.4395C108.468 14.1611 108.573 13.8983 108.585 13.6509L109.309 14.6436C109.234 14.8971 109.108 15.1693 108.928 15.46C108.749 15.7507 108.514 16.029 108.223 16.2949C107.939 16.5547 107.595 16.7681 107.193 16.9351C106.798 17.1021 106.34 17.1855 105.82 17.1855C105.165 17.1855 104.58 17.0557 104.067 16.7959C103.554 16.5299 103.152 16.1743 102.861 15.729C102.57 15.2775 102.425 14.7673 102.425 14.1982C102.425 13.6663 102.524 13.1963 102.722 12.7881C102.926 12.3737 103.223 12.0273 103.612 11.749C104.008 11.4707 104.491 11.2604 105.06 11.1182C105.629 10.9697 106.278 10.8955 107.008 10.8955H108.761ZM118.001 6.96191V8.59473H112.342V6.96191H118.001ZM113.975 4.50342H116.211V14.2261C116.211 14.5353 116.254 14.7734 116.341 14.9404C116.433 15.1012 116.56 15.2095 116.721 15.2651C116.882 15.3208 117.07 15.3486 117.287 15.3486C117.441 15.3486 117.59 15.3394 117.732 15.3208C117.874 15.3022 117.989 15.2837 118.075 15.2651L118.085 16.9722C117.899 17.0278 117.683 17.0773 117.435 17.1206C117.194 17.1639 116.916 17.1855 116.6 17.1855C116.087 17.1855 115.632 17.0959 115.237 16.9165C114.841 16.731 114.531 16.431 114.309 16.0166C114.086 15.6022 113.975 15.0518 113.975 14.3652V4.50342ZM124.708 6.96191V8.59473H119.049V6.96191H124.708ZM120.682 4.50342H122.918V14.2261C122.918 14.5353 122.961 14.7734 123.048 14.9404C123.14 15.1012 123.267 15.2095 123.428 15.2651C123.589 15.3208 123.777 15.3486 123.994 15.3486C124.149 15.3486 124.297 15.3394 124.439 15.3208C124.582 15.3022 124.696 15.2837 124.783 15.2651L124.792 16.9722C124.606 17.0278 124.39 17.0773 124.142 17.1206C123.901 17.1639 123.623 17.1855 123.307 17.1855C122.794 17.1855 122.34 17.0959 121.944 16.9165C121.548 16.731 121.239 16.431 121.016 16.0166C120.793 15.6022 120.682 15.0518 120.682 14.3652V4.50342ZM129.838 17H127.602V5.99707C127.602 5.2487 127.742 4.62093 128.02 4.11377C128.304 3.60042 128.71 3.21387 129.235 2.9541C129.761 2.68815 130.383 2.55518 131.1 2.55518C131.323 2.55518 131.542 2.57064 131.759 2.60156C131.975 2.6263 132.185 2.6665 132.39 2.72217L132.334 4.44775C132.21 4.41683 132.074 4.39518 131.926 4.38281C131.783 4.37044 131.629 4.36426 131.462 4.36426C131.122 4.36426 130.828 4.4292 130.581 4.55908C130.339 4.68278 130.154 4.86523 130.024 5.10645C129.9 5.34766 129.838 5.64453 129.838 5.99707V17ZM131.907 6.96191V8.59473H126.062V6.96191H131.907ZM133.484 12.0923V11.8789C133.484 11.1553 133.589 10.4842 133.799 9.86572C134.01 9.24105 134.313 8.69987 134.709 8.24219C135.111 7.77832 135.599 7.4196 136.174 7.16602C136.756 6.90625 137.411 6.77637 138.141 6.77637C138.877 6.77637 139.533 6.90625 140.108 7.16602C140.689 7.4196 141.181 7.77832 141.583 8.24219C141.985 8.69987 142.291 9.24105 142.502 9.86572C142.712 10.4842 142.817 11.1553 142.817 11.8789V12.0923C142.817 12.8159 142.712 13.487 142.502 14.1055C142.291 14.724 141.985 15.2651 141.583 15.729C141.181 16.1867 140.692 16.5454 140.117 16.8052C139.542 17.0588 138.89 17.1855 138.16 17.1855C137.424 17.1855 136.765 17.0588 136.184 16.8052C135.608 16.5454 135.12 16.1867 134.718 15.729C134.316 15.2651 134.01 14.724 133.799 14.1055C133.589 13.487 133.484 12.8159 133.484 12.0923ZM135.72 11.8789V12.0923C135.72 12.5438 135.766 12.9705 135.859 13.3726C135.952 13.7746 136.097 14.1271 136.295 14.4302C136.493 14.7332 136.746 14.9714 137.056 15.1445C137.365 15.3177 137.733 15.4043 138.16 15.4043C138.574 15.4043 138.933 15.3177 139.236 15.1445C139.545 14.9714 139.799 14.7332 139.997 14.4302C140.195 14.1271 140.34 13.7746 140.433 13.3726C140.532 12.9705 140.581 12.5438 140.581 12.0923V11.8789C140.581 11.4336 140.532 11.013 140.433 10.6172C140.34 10.2152 140.191 9.85954 139.987 9.55029C139.789 9.24105 139.536 8.99984 139.227 8.82666C138.924 8.6473 138.562 8.55762 138.141 8.55762C137.721 8.55762 137.356 8.6473 137.046 8.82666C136.743 8.99984 136.493 9.24105 136.295 9.55029C136.097 9.85954 135.952 10.2152 135.859 10.6172C135.766 11.013 135.72 11.4336 135.72 11.8789ZM147.316 8.87305V17H145.08V6.96191H147.214L147.316 8.87305ZM150.387 6.89697L150.368 8.9751C150.232 8.95036 150.084 8.9318 149.923 8.91943C149.768 8.90706 149.614 8.90088 149.459 8.90088C149.076 8.90088 148.739 8.95654 148.448 9.06787C148.157 9.17301 147.913 9.32764 147.715 9.53174C147.523 9.72965 147.375 9.97087 147.27 10.2554C147.165 10.5399 147.103 10.8584 147.084 11.2109L146.574 11.248C146.574 10.6172 146.636 10.0327 146.759 9.49463C146.883 8.95654 147.069 8.4834 147.316 8.0752C147.57 7.66699 147.885 7.34847 148.262 7.11963C148.646 6.89079 149.088 6.77637 149.589 6.77637C149.725 6.77637 149.87 6.78874 150.025 6.81348C150.186 6.83822 150.306 6.86605 150.387 6.89697ZM154.404 9.00293V17H152.168V6.96191H154.274L154.404 9.00293ZM154.042 11.6099L153.281 11.6006C153.281 10.9079 153.368 10.2677 153.541 9.68018C153.714 9.09261 153.968 8.58236 154.302 8.14941C154.636 7.71029 155.05 7.37321 155.545 7.13818C156.046 6.89697 156.624 6.77637 157.28 6.77637C157.737 6.77637 158.155 6.8444 158.532 6.98047C158.915 7.11035 159.246 7.31755 159.525 7.60205C159.809 7.88656 160.026 8.25146 160.174 8.69678C160.329 9.14209 160.406 9.68018 160.406 10.311V17H158.17V10.5059C158.17 10.0173 158.096 9.63379 157.948 9.35547C157.805 9.07715 157.598 8.87923 157.326 8.76172C157.06 8.63802 156.742 8.57617 156.37 8.57617C155.95 8.57617 155.591 8.65658 155.294 8.81738C155.004 8.97819 154.765 9.19775 154.58 9.47607C154.394 9.75439 154.258 10.076 154.172 10.4409C154.085 10.8058 154.042 11.1955 154.042 11.6099ZM160.267 11.0161L159.219 11.248C159.219 10.6419 159.302 10.0698 159.469 9.53174C159.642 8.98747 159.893 8.51123 160.221 8.10303C160.554 7.68864 160.966 7.36393 161.454 7.12891C161.943 6.89388 162.503 6.77637 163.134 6.77637C163.647 6.77637 164.105 6.84749 164.507 6.98975C164.915 7.12581 165.261 7.34229 165.546 7.63916C165.83 7.93604 166.047 8.32259 166.195 8.79883C166.344 9.26888 166.418 9.83789 166.418 10.5059V17H164.173V10.4966C164.173 9.98942 164.098 9.59668 163.95 9.31836C163.808 9.04004 163.604 8.84831 163.338 8.74316C163.072 8.63184 162.753 8.57617 162.382 8.57617C162.036 8.57617 161.73 8.64111 161.464 8.771C161.204 8.89469 160.984 9.07096 160.805 9.2998C160.626 9.52246 160.49 9.77913 160.397 10.0698C160.31 10.3605 160.267 10.6759 160.267 11.0161Z" fill="black"/>
<path d="M30.2974 37H27.4121L27.4307 35.1538H30.2974C31.1323 35.1538 31.8312 34.9714 32.394 34.6064C32.9631 34.2415 33.3898 33.7189 33.6743 33.0386C33.965 32.3582 34.1104 31.548 34.1104 30.6079V29.875C34.1104 29.1452 34.0269 28.4989 33.8599 27.936C33.6991 27.3732 33.4578 26.9001 33.1362 26.5166C32.8208 26.1331 32.4312 25.8424 31.9673 25.6445C31.5096 25.4466 30.9808 25.3477 30.3809 25.3477H27.3564V23.4922H30.3809C31.2777 23.4922 32.0972 23.6437 32.8394 23.9468C33.5815 24.2437 34.2217 24.6735 34.7598 25.2363C35.304 25.7992 35.7215 26.4733 36.0122 27.2588C36.3029 28.0443 36.4482 28.9225 36.4482 29.8936V30.6079C36.4482 31.5789 36.3029 32.4572 36.0122 33.2427C35.7215 34.0282 35.304 34.7023 34.7598 35.2651C34.2155 35.8218 33.5661 36.2516 32.8115 36.5547C32.0632 36.8516 31.2251 37 30.2974 37ZM28.7017 23.4922V37H26.373V23.4922H28.7017ZM41.337 26.9619V37H39.0919V26.9619H41.337ZM38.9435 24.3271C38.9435 23.987 39.0548 23.7056 39.2775 23.4829C39.5063 23.2541 39.8217 23.1396 40.2238 23.1396C40.6196 23.1396 40.9319 23.2541 41.1608 23.4829C41.3896 23.7056 41.504 23.987 41.504 24.3271C41.504 24.6611 41.3896 24.9395 41.1608 25.1621C40.9319 25.3848 40.6196 25.4961 40.2238 25.4961C39.8217 25.4961 39.5063 25.3848 39.2775 25.1621C39.0548 24.9395 38.9435 24.6611 38.9435 24.3271ZM50.5954 26.9619H52.6272V36.7217C52.6272 37.6247 52.4355 38.3916 52.052 39.0225C51.6685 39.6533 51.1335 40.1326 50.447 40.4604C49.7605 40.7944 48.9657 40.9614 48.0627 40.9614C47.6793 40.9614 47.2525 40.9058 46.7825 40.7944C46.3186 40.6831 45.8671 40.5037 45.428 40.2563C44.995 40.0151 44.6332 39.6966 44.3425 39.3008L45.3909 37.9834C45.7496 38.4102 46.1454 38.7225 46.5784 38.9204C47.0113 39.1183 47.4659 39.2173 47.9421 39.2173C48.4555 39.2173 48.8915 39.1214 49.2502 38.9297C49.6151 38.7441 49.8966 38.4689 50.0945 38.104C50.2924 37.7391 50.3913 37.2938 50.3913 36.7681V29.2349L50.5954 26.9619ZM43.7766 32.0923V31.8975C43.7766 31.1367 43.8694 30.444 44.0549 29.8193C44.2405 29.1885 44.5064 28.6473 44.8528 28.1958C45.1991 27.7381 45.6197 27.3887 46.1145 27.1475C46.6093 26.9001 47.169 26.7764 47.7937 26.7764C48.4431 26.7764 48.9967 26.8939 49.4543 27.1289C49.9182 27.3639 50.3048 27.701 50.614 28.1401C50.9232 28.5731 51.1645 29.0926 51.3376 29.6987C51.517 30.2987 51.65 30.9666 51.7366 31.7026V32.3242C51.6562 33.0417 51.5201 33.6973 51.3284 34.291C51.1366 34.8848 50.883 35.3981 50.5676 35.8311C50.2522 36.264 49.8625 36.598 49.3987 36.833C48.941 37.068 48.3998 37.1855 47.7751 37.1855C47.1628 37.1855 46.6093 37.0588 46.1145 36.8052C45.6259 36.5516 45.2053 36.196 44.8528 35.7383C44.5064 35.2806 44.2405 34.7425 44.0549 34.124C43.8694 33.4993 43.7766 32.8221 43.7766 32.0923ZM46.0124 31.8975V32.0923C46.0124 32.55 46.0557 32.9767 46.1423 33.3726C46.2351 33.7684 46.3743 34.1178 46.5598 34.4209C46.7515 34.7178 46.9927 34.9528 47.2834 35.126C47.5803 35.293 47.9298 35.3765 48.3318 35.3765C48.8575 35.3765 49.2873 35.2651 49.6213 35.0425C49.9615 34.8198 50.2213 34.5199 50.4006 34.1426C50.5862 33.7591 50.7161 33.3324 50.7903 32.8623V31.1831C50.7532 30.8182 50.6759 30.478 50.5583 30.1626C50.447 29.8472 50.2955 29.5719 50.1038 29.3369C49.912 29.0957 49.6708 28.9102 49.3801 28.7803C49.0894 28.6442 48.7462 28.5762 48.3503 28.5762C47.9483 28.5762 47.5989 28.6628 47.302 28.8359C47.0051 29.0091 46.7608 29.2472 46.5691 29.5503C46.3835 29.8534 46.2444 30.2059 46.1516 30.6079C46.0588 31.0099 46.0124 31.4398 46.0124 31.8975ZM57.7201 26.9619V37H55.475V26.9619H57.7201ZM55.3265 24.3271C55.3265 23.987 55.4379 23.7056 55.6605 23.4829C55.8893 23.2541 56.2048 23.1396 56.6068 23.1396C57.0026 23.1396 57.315 23.2541 57.5438 23.4829C57.7726 23.7056 57.8871 23.987 57.8871 24.3271C57.8871 24.6611 57.7726 24.9395 57.5438 25.1621C57.315 25.3848 57.0026 25.4961 56.6068 25.4961C56.2048 25.4961 55.8893 25.3848 55.6605 25.1621C55.4379 24.9395 55.3265 24.6611 55.3265 24.3271ZM65.1509 26.9619V28.5947H59.4917V26.9619H65.1509ZM61.1245 24.5034H63.3603V34.2261C63.3603 34.5353 63.4036 34.7734 63.4902 34.9404C63.583 35.1012 63.7098 35.2095 63.8706 35.2651C64.0314 35.3208 64.22 35.3486 64.4365 35.3486C64.5911 35.3486 64.7396 35.3394 64.8818 35.3208C65.0241 35.3022 65.1385 35.2837 65.2251 35.2651L65.2344 36.9722C65.0488 37.0278 64.8323 37.0773 64.5849 37.1206C64.3437 37.1639 64.0654 37.1855 63.75 37.1855C63.2366 37.1855 62.782 37.0959 62.3862 36.9165C61.9904 36.731 61.6811 36.431 61.4585 36.0166C61.2358 35.6022 61.1245 35.0518 61.1245 34.3652V24.5034ZM72.9156 34.9868V30.1997C72.9156 29.841 72.8507 29.5317 72.7208 29.272C72.5909 29.0122 72.393 28.8112 72.1271 28.6689C71.8673 28.5267 71.5395 28.4556 71.1437 28.4556C70.7787 28.4556 70.4633 28.5174 70.1974 28.6411C69.9314 28.7648 69.7242 28.9318 69.5758 29.1421C69.4273 29.3524 69.3531 29.5905 69.3531 29.8564H67.1266C67.1266 29.4606 67.2224 29.0771 67.4142 28.7061C67.6059 28.335 67.8842 28.0041 68.2491 27.7134C68.614 27.4227 69.0501 27.1938 69.5572 27.0269C70.0644 26.8599 70.6334 26.7764 71.2643 26.7764C72.0188 26.7764 72.6868 26.9032 73.2682 27.1567C73.8557 27.4103 74.3165 27.7938 74.6505 28.3071C74.9907 28.8143 75.1607 29.4513 75.1607 30.2183V34.6807C75.1607 35.1383 75.1917 35.5496 75.2535 35.9146C75.3216 36.2733 75.4174 36.5856 75.5411 36.8516V37H73.2496C73.1445 36.7588 73.061 36.4526 72.9991 36.0815C72.9435 35.7043 72.9156 35.3394 72.9156 34.9868ZM73.2403 30.8955L73.2589 32.2778H71.6539C71.2395 32.2778 70.8746 32.318 70.5592 32.3984C70.2438 32.4727 69.9809 32.584 69.7706 32.7324C69.5603 32.8809 69.4026 33.0602 69.2975 33.2705C69.1923 33.4808 69.1397 33.7189 69.1397 33.9849C69.1397 34.2508 69.2016 34.4951 69.3253 34.7178C69.449 34.9342 69.6284 35.1043 69.8634 35.228C70.1046 35.3517 70.3953 35.4136 70.7355 35.4136C71.1931 35.4136 71.5921 35.3208 71.9322 35.1353C72.2786 34.9435 72.5507 34.7116 72.7486 34.4395C72.9466 34.1611 73.0517 33.8983 73.0641 33.6509L73.7877 34.6436C73.7135 34.8971 73.5867 35.1693 73.4073 35.46C73.228 35.7507 72.9929 36.029 72.7022 36.2949C72.4177 36.5547 72.0745 36.7681 71.6725 36.9351C71.2766 37.1021 70.8189 37.1855 70.2994 37.1855C69.6438 37.1855 69.0593 37.0557 68.546 36.7959C68.0327 36.5299 67.6306 36.1743 67.3399 35.729C67.0493 35.2775 66.9039 34.7673 66.9039 34.1982C66.9039 33.6663 67.0029 33.1963 67.2008 32.7881C67.4049 32.3737 67.7018 32.0273 68.0914 31.749C68.4872 31.4707 68.9697 31.2604 69.5387 31.1182C70.1077 30.9697 70.7571 30.8955 71.4869 30.8955H73.2403ZM80.2722 22.75V37H78.0271V22.75H80.2722ZM85.495 26.9619V37H83.2498V26.9619H85.495ZM83.1014 24.3271C83.1014 23.987 83.2127 23.7056 83.4354 23.4829C83.6642 23.2541 83.9797 23.1396 84.3817 23.1396C84.7775 23.1396 85.0899 23.2541 85.3187 23.4829C85.5475 23.7056 85.662 23.987 85.662 24.3271C85.662 24.6611 85.5475 24.9395 85.3187 25.1621C85.0899 25.3848 84.7775 25.4961 84.3817 25.4961C83.9797 25.4961 83.6642 25.3848 83.4354 25.1621C83.2127 24.9395 83.1014 24.6611 83.1014 24.3271ZM93.9555 34.2817C93.9555 34.0591 93.8999 33.8581 93.7885 33.6787C93.6772 33.4932 93.4638 33.3262 93.1484 33.1777C92.8392 33.0293 92.3815 32.8932 91.7754 32.7695C91.2435 32.652 90.7548 32.5129 90.3095 32.3521C89.8704 32.1851 89.4931 31.984 89.1777 31.749C88.8623 31.514 88.618 31.2357 88.4448 30.9141C88.2716 30.5924 88.185 30.2214 88.185 29.8008C88.185 29.3926 88.2747 29.006 88.4541 28.6411C88.6334 28.2762 88.8901 27.9546 89.2241 27.6763C89.5581 27.3979 89.9632 27.1784 90.4394 27.0176C90.9218 26.8568 91.4599 26.7764 92.0537 26.7764C92.8948 26.7764 93.6154 26.9186 94.2153 27.2031C94.8214 27.4814 95.2853 27.8618 95.6069 28.3442C95.9285 28.8205 96.0893 29.3586 96.0893 29.9585H93.8535C93.8535 29.6925 93.7854 29.4451 93.6494 29.2163C93.5195 28.9813 93.3216 28.7926 93.0556 28.6504C92.7897 28.502 92.4557 28.4277 92.0537 28.4277C91.6702 28.4277 91.3517 28.4896 91.0981 28.6133C90.8507 28.7308 90.6652 28.8854 90.5415 29.0771C90.424 29.2689 90.3652 29.4792 90.3652 29.708C90.3652 29.875 90.3961 30.0265 90.458 30.1626C90.526 30.2925 90.6373 30.4131 90.792 30.5244C90.9466 30.6296 91.1569 30.7285 91.4228 30.8213C91.6949 30.9141 92.0351 31.0037 92.4433 31.0903C93.2102 31.2511 93.8689 31.4583 94.4194 31.7119C94.976 31.9593 95.4028 32.2809 95.6997 32.6768C95.9965 33.0664 96.145 33.5612 96.145 34.1611C96.145 34.6064 96.0491 35.0146 95.8574 35.3857C95.6718 35.7507 95.3997 36.0692 95.041 36.3413C94.6823 36.6073 94.2524 36.8145 93.7514 36.9629C93.2566 37.1113 92.7 37.1855 92.0815 37.1855C91.1723 37.1855 90.4023 37.0247 89.7714 36.7031C89.1406 36.3753 88.6613 35.9578 88.3335 35.4507C88.0118 34.9373 87.851 34.4054 87.851 33.855H90.0127C90.0374 34.2694 90.1518 34.6003 90.3559 34.8477C90.5662 35.0889 90.826 35.2651 91.1352 35.3765C91.4506 35.4816 91.7754 35.5342 92.1093 35.5342C92.5114 35.5342 92.8484 35.4816 93.1206 35.3765C93.3927 35.2651 93.5999 35.1167 93.7421 34.9312C93.8844 34.7394 93.9555 34.5229 93.9555 34.2817ZM100.876 26.9619V37H98.6309V26.9619H100.876ZM98.4825 24.3271C98.4825 23.987 98.5938 23.7056 98.8165 23.4829C99.0453 23.2541 99.3608 23.1396 99.7628 23.1396C100.159 23.1396 100.471 23.2541 100.7 23.4829C100.929 23.7056 101.043 23.987 101.043 24.3271C101.043 24.6611 100.929 24.9395 100.7 25.1621C100.471 25.3848 100.159 25.4961 99.7628 25.4961C99.3608 25.4961 99.0453 25.3848 98.8165 25.1621C98.5938 24.9395 98.4825 24.6611 98.4825 24.3271ZM108.131 37.1855C107.388 37.1855 106.717 37.0649 106.117 36.8237C105.524 36.5763 105.016 36.2331 104.596 35.7939C104.182 35.3548 103.863 34.8384 103.64 34.2446C103.418 33.6509 103.306 33.0107 103.306 32.3242V31.9531C103.306 31.1676 103.421 30.4564 103.65 29.8193C103.878 29.1823 104.197 28.638 104.605 28.1865C105.013 27.7288 105.496 27.3794 106.052 27.1382C106.609 26.897 107.212 26.7764 107.862 26.7764C108.579 26.7764 109.207 26.897 109.745 27.1382C110.283 27.3794 110.728 27.7196 111.081 28.1587C111.439 28.5916 111.705 29.1081 111.879 29.708C112.058 30.3079 112.148 30.9697 112.148 31.6934V32.6489H104.392V31.0439H109.94V30.8677C109.927 30.4657 109.847 30.0884 109.698 29.7358C109.556 29.3833 109.337 29.0988 109.04 28.8823C108.743 28.6659 108.347 28.5576 107.852 28.5576C107.481 28.5576 107.15 28.638 106.86 28.7988C106.575 28.9535 106.337 29.1792 106.145 29.4761C105.953 29.7729 105.805 30.1317 105.7 30.5522C105.601 30.9666 105.551 31.4336 105.551 31.9531V32.3242C105.551 32.7633 105.61 33.1715 105.728 33.5488C105.851 33.9199 106.031 34.2446 106.266 34.5229C106.501 34.8013 106.785 35.0208 107.119 35.1816C107.453 35.3363 107.834 35.4136 108.26 35.4136C108.799 35.4136 109.278 35.3053 109.698 35.0889C110.119 34.8724 110.484 34.5662 110.793 34.1704L111.971 35.3115C111.755 35.627 111.474 35.93 111.127 36.2207C110.781 36.5052 110.357 36.7371 109.856 36.9165C109.361 37.0959 108.786 37.1855 108.131 37.1855ZM116.517 28.873V37H114.281V26.9619H116.415L116.517 28.873ZM119.588 26.897L119.569 28.9751C119.433 28.9504 119.285 28.9318 119.124 28.9194C118.969 28.9071 118.815 28.9009 118.66 28.9009C118.277 28.9009 117.939 28.9565 117.649 29.0679C117.358 29.173 117.114 29.3276 116.916 29.5317C116.724 29.7297 116.576 29.9709 116.471 30.2554C116.365 30.5399 116.304 30.8584 116.285 31.2109L115.775 31.248C115.775 30.6172 115.837 30.0327 115.96 29.4946C116.084 28.9565 116.27 28.4834 116.517 28.0752C116.77 27.667 117.086 27.3485 117.463 27.1196C117.847 26.8908 118.289 26.7764 118.79 26.7764C118.926 26.7764 119.071 26.7887 119.226 26.8135C119.387 26.8382 119.507 26.866 119.588 26.897ZM127.408 34.6343V26.9619H129.653V37H127.538L127.408 34.6343ZM127.724 32.5469L128.475 32.5283C128.475 33.2025 128.401 33.8241 128.252 34.3931C128.104 34.9559 127.875 35.4476 127.566 35.8682C127.257 36.2826 126.861 36.6073 126.378 36.8423C125.896 37.0711 125.318 37.1855 124.643 37.1855C124.155 37.1855 123.706 37.1144 123.298 36.9722C122.89 36.8299 122.538 36.6104 122.241 36.3135C121.95 36.0166 121.724 35.63 121.563 35.1538C121.403 34.6776 121.322 34.1086 121.322 33.4468V26.9619H123.558V33.4653C123.558 33.8302 123.601 34.1364 123.688 34.3838C123.775 34.625 123.892 34.8198 124.04 34.9683C124.189 35.1167 124.362 35.2218 124.56 35.2837C124.758 35.3455 124.968 35.3765 125.191 35.3765C125.828 35.3765 126.329 35.2528 126.694 35.0054C127.065 34.7518 127.328 34.4116 127.482 33.9849C127.643 33.5581 127.724 33.0788 127.724 32.5469ZM134.542 29.105V37H132.306V26.9619H134.412L134.542 29.105ZM134.143 31.6099L133.419 31.6006C133.426 30.8893 133.525 30.2368 133.716 29.6431C133.914 29.0493 134.186 28.5391 134.533 28.1123C134.885 27.6855 135.306 27.3577 135.794 27.1289C136.283 26.8939 136.827 26.7764 137.427 26.7764C137.91 26.7764 138.346 26.8444 138.735 26.9805C139.131 27.1104 139.468 27.3237 139.747 27.6206C140.031 27.9175 140.248 28.304 140.396 28.7803C140.544 29.2503 140.619 29.8286 140.619 30.5151V37H138.374V30.5059C138.374 30.0234 138.302 29.6431 138.16 29.3647C138.024 29.0802 137.823 28.8792 137.557 28.7617C137.297 28.638 136.973 28.5762 136.583 28.5762C136.2 28.5762 135.856 28.6566 135.553 28.8174C135.25 28.9782 134.994 29.1978 134.783 29.4761C134.579 29.7544 134.421 30.076 134.31 30.4409C134.199 30.8058 134.143 31.1955 134.143 31.6099ZM149.71 26.9619H151.742V36.7217C151.742 37.6247 151.55 38.3916 151.167 39.0225C150.783 39.6533 150.248 40.1326 149.562 40.4604C148.875 40.7944 148.08 40.9614 147.177 40.9614C146.794 40.9614 146.367 40.9058 145.897 40.7944C145.433 40.6831 144.982 40.5037 144.543 40.2563C144.11 40.0151 143.748 39.6966 143.457 39.3008L144.506 37.9834C144.864 38.4102 145.26 38.7225 145.693 38.9204C146.126 39.1183 146.581 39.2173 147.057 39.2173C147.57 39.2173 148.006 39.1214 148.365 38.9297C148.73 38.7441 149.011 38.4689 149.209 38.104C149.407 37.7391 149.506 37.2938 149.506 36.7681V29.2349L149.71 26.9619ZM142.891 32.0923V31.8975C142.891 31.1367 142.984 30.444 143.17 29.8193C143.355 29.1885 143.621 28.6473 143.967 28.1958C144.314 27.7381 144.734 27.3887 145.229 27.1475C145.724 26.9001 146.284 26.7764 146.908 26.7764C147.558 26.7764 148.111 26.8939 148.569 27.1289C149.033 27.3639 149.419 27.701 149.729 28.1401C150.038 28.5731 150.279 29.0926 150.452 29.6987C150.632 30.2987 150.765 30.9666 150.851 31.7026V32.3242C150.771 33.0417 150.635 33.6973 150.443 34.291C150.251 34.8848 149.998 35.3981 149.682 35.8311C149.367 36.264 148.977 36.598 148.513 36.833C148.056 37.068 147.514 37.1855 146.89 37.1855C146.278 37.1855 145.724 37.0588 145.229 36.8052C144.741 36.5516 144.32 36.196 143.967 35.7383C143.621 35.2806 143.355 34.7425 143.17 34.124C142.984 33.4993 142.891 32.8221 142.891 32.0923ZM145.127 31.8975V32.0923C145.127 32.55 145.17 32.9767 145.257 33.3726C145.35 33.7684 145.489 34.1178 145.674 34.4209C145.866 34.7178 146.107 34.9528 146.398 35.126C146.695 35.293 147.044 35.3765 147.446 35.3765C147.972 35.3765 148.402 35.2651 148.736 35.0425C149.076 34.8198 149.336 34.5199 149.515 34.1426C149.701 33.7591 149.831 33.3324 149.905 32.8623V31.1831C149.868 30.8182 149.791 30.478 149.673 30.1626C149.562 29.8472 149.41 29.5719 149.218 29.3369C149.027 29.0957 148.785 28.9102 148.495 28.7803C148.204 28.6442 147.861 28.5762 147.465 28.5762C147.063 28.5762 146.714 28.6628 146.417 28.8359C146.12 29.0091 145.876 29.2472 145.684 29.5503C145.498 29.8534 145.359 30.2059 145.266 30.6079C145.174 31.0099 145.127 31.4398 145.127 31.8975Z" fill="black"/>
<path d="M10.2144 55.1538V57H3.04297V55.1538H10.2144ZM3.70166 43.4922V57H1.37305V43.4922H3.70166ZM9.27734 49.1328V50.9512H3.04297V49.1328H9.27734ZM10.168 43.4922V45.3477H3.04297V43.4922H10.168ZM14.4908 49.105V57H12.255V46.9619H14.361L14.4908 49.105ZM14.0919 51.6099L13.3683 51.6006C13.3745 50.8893 13.4734 50.2368 13.6652 49.6431C13.8631 49.0493 14.1352 48.5391 14.4816 48.1123C14.8341 47.6855 15.2547 47.3577 15.7433 47.1289C16.2319 46.8939 16.7762 46.7764 17.3761 46.7764C17.8585 46.7764 18.2946 46.8444 18.6842 46.9805C19.08 47.1104 19.4171 47.3237 19.6954 47.6206C19.9799 47.9175 20.1964 48.304 20.3448 48.7803C20.4933 49.2503 20.5675 49.8286 20.5675 50.5151V57H18.3224V50.5059C18.3224 50.0234 18.2513 49.6431 18.109 49.3647C17.9729 49.0802 17.7719 48.8792 17.506 48.7617C17.2462 48.638 16.9215 48.5762 16.5319 48.5762C16.1484 48.5762 15.8051 48.6566 15.5021 48.8174C15.199 48.9782 14.9423 49.1978 14.7321 49.4761C14.5279 49.7544 14.3702 50.076 14.2589 50.4409C14.1476 50.8058 14.0919 51.1955 14.0919 51.6099ZM27.655 57.1855C26.9128 57.1855 26.2418 57.0649 25.6418 56.8237C25.0481 56.5763 24.5409 56.2331 24.1204 55.7939C23.706 55.3548 23.3874 54.8384 23.1648 54.2446C22.9421 53.6509 22.8308 53.0107 22.8308 52.3242V51.9531C22.8308 51.1676 22.9452 50.4564 23.1741 49.8193C23.4029 49.1823 23.7214 48.638 24.1296 48.1865C24.5378 47.7288 25.0203 47.3794 25.5769 47.1382C26.1335 46.897 26.7366 46.7764 27.386 46.7764C28.1034 46.7764 28.7312 46.897 29.2693 47.1382C29.8074 47.3794 30.2527 47.7196 30.6052 48.1587C30.9639 48.5916 31.2299 49.1081 31.4031 49.708C31.5824 50.3079 31.6721 50.9697 31.6721 51.6934V52.6489H23.9163V51.0439H29.4641V50.8677C29.4517 50.4657 29.3713 50.0884 29.2229 49.7358C29.0806 49.3833 28.8611 49.0988 28.5642 48.8823C28.2673 48.6659 27.8715 48.5576 27.3767 48.5576C27.0056 48.5576 26.6747 48.638 26.384 48.7988C26.0995 48.9535 25.8614 49.1792 25.6697 49.4761C25.4779 49.7729 25.3295 50.1317 25.2244 50.5522C25.1254 50.9666 25.0759 51.4336 25.0759 51.9531V52.3242C25.0759 52.7633 25.1347 53.1715 25.2522 53.5488C25.3759 53.9199 25.5552 54.2446 25.7903 54.5229C26.0253 54.8013 26.3098 55.0208 26.6438 55.1816C26.9778 55.3363 27.3581 55.4136 27.7849 55.4136C28.323 55.4136 28.8023 55.3053 29.2229 55.0889C29.6435 54.8724 30.0084 54.5662 30.3176 54.1704L31.4958 55.3115C31.2794 55.627 30.998 55.93 30.6516 56.2207C30.3052 56.5052 29.8816 56.7371 29.3806 56.9165C28.8858 57.0959 28.3106 57.1855 27.655 57.1855ZM36.0414 48.873V57H33.8055V46.9619H35.9393L36.0414 48.873ZM39.1122 46.897L39.0936 48.9751C38.9575 48.9504 38.8091 48.9318 38.6483 48.9194C38.4937 48.9071 38.3391 48.9009 38.1844 48.9009C37.801 48.9009 37.4639 48.9565 37.1732 49.0679C36.8825 49.173 36.6382 49.3276 36.4403 49.5317C36.2486 49.7297 36.1001 49.9709 35.995 50.2554C35.8898 50.5399 35.828 50.8584 35.8094 51.2109L35.2992 51.248C35.2992 50.6172 35.361 50.0327 35.4847 49.4946C35.6084 48.9565 35.794 48.4834 36.0414 48.0752C36.2949 47.667 36.6104 47.3485 36.9877 47.1196C37.3711 46.8908 37.8133 46.7764 38.3143 46.7764C38.4504 46.7764 38.5957 46.7887 38.7504 46.8135C38.9112 46.8382 39.0318 46.866 39.1122 46.897ZM47.1367 46.9619H49.1684V56.7217C49.1684 57.6247 48.9767 58.3916 48.5932 59.0225C48.2098 59.6533 47.6748 60.1326 46.9883 60.4604C46.3017 60.7944 45.507 60.9614 44.604 60.9614C44.2205 60.9614 43.7938 60.9058 43.3237 60.7944C42.8598 60.6831 42.4083 60.5037 41.9692 60.2563C41.5363 60.0151 41.1745 59.6966 40.8838 59.3008L41.9321 57.9834C42.2908 58.4102 42.6867 58.7225 43.1196 58.9204C43.5526 59.1183 44.0071 59.2173 44.4834 59.2173C44.9967 59.2173 45.4328 59.1214 45.7915 58.9297C46.1564 58.7441 46.4378 58.4689 46.6357 58.104C46.8336 57.7391 46.9326 57.2938 46.9326 56.7681V49.2349L47.1367 46.9619ZM40.3179 52.0923V51.8975C40.3179 51.1367 40.4106 50.444 40.5962 49.8193C40.7817 49.1885 41.0477 48.6473 41.394 48.1958C41.7404 47.7381 42.161 47.3887 42.6557 47.1475C43.1505 46.9001 43.7103 46.7764 44.3349 46.7764C44.9844 46.7764 45.5379 46.8939 45.9956 47.1289C46.4595 47.3639 46.846 47.701 47.1553 48.1401C47.4645 48.5731 47.7057 49.0926 47.8789 49.6987C48.0582 50.2987 48.1912 50.9666 48.2778 51.7026V52.3242C48.1974 53.0417 48.0613 53.6973 47.8696 54.291C47.6779 54.8848 47.4243 55.3981 47.1089 55.8311C46.7934 56.264 46.4038 56.598 45.9399 56.833C45.4822 57.068 44.9411 57.1855 44.3164 57.1855C43.7041 57.1855 43.1505 57.0588 42.6557 56.8052C42.1671 56.5516 41.7466 56.196 41.394 55.7383C41.0477 55.2806 40.7817 54.7425 40.5962 54.124C40.4106 53.4993 40.3179 52.8221 40.3179 52.0923ZM42.5537 51.8975V52.0923C42.5537 52.55 42.597 52.9767 42.6836 53.3726C42.7763 53.7684 42.9155 54.1178 43.1011 54.4209C43.2928 54.7178 43.534 54.9528 43.8247 55.126C44.1216 55.293 44.471 55.3765 44.873 55.3765C45.3987 55.3765 45.8286 55.2651 46.1626 55.0425C46.5027 54.8198 46.7625 54.5199 46.9419 54.1426C47.1274 53.7591 47.2573 53.3324 47.3315 52.8623V51.1831C47.2944 50.8182 47.2171 50.478 47.0996 50.1626C46.9883 49.8472 46.8367 49.5719 46.645 49.3369C46.4533 49.0957 46.2121 48.9102 45.9214 48.7803C45.6307 48.6442 45.2874 48.5762 44.8916 48.5762C44.4896 48.5762 44.1401 48.6628 43.8432 48.8359C43.5464 49.0091 43.3021 49.2472 43.1103 49.5503C42.9248 49.8534 42.7856 50.2059 42.6929 50.6079C42.6001 51.0099 42.5537 51.4398 42.5537 51.8975ZM54.2613 46.9619V57H52.0162V46.9619H54.2613ZM51.8678 44.3271C51.8678 43.987 51.9791 43.7056 52.2018 43.4829C52.4306 43.2541 52.746 43.1396 53.148 43.1396C53.5439 43.1396 53.8562 43.2541 54.0851 43.4829C54.3139 43.7056 54.4283 43.987 54.4283 44.3271C54.4283 44.6611 54.3139 44.9395 54.0851 45.1621C53.8562 45.3848 53.5439 45.4961 53.148 45.4961C52.746 45.4961 52.4306 45.3848 52.2018 45.1621C51.9791 44.9395 51.8678 44.6611 51.8678 44.3271ZM61.5158 57.1855C60.7737 57.1855 60.1026 57.0649 59.5027 56.8237C58.9089 56.5763 58.4017 56.2331 57.9812 55.7939C57.5668 55.3548 57.2483 54.8384 57.0256 54.2446C56.8029 53.6509 56.6916 53.0107 56.6916 52.3242V51.9531C56.6916 51.1676 56.806 50.4564 57.0349 49.8193C57.2637 49.1823 57.5822 48.638 57.9904 48.1865C58.3987 47.7288 58.8811 47.3794 59.4377 47.1382C59.9944 46.897 60.5974 46.7764 61.2468 46.7764C61.9642 46.7764 62.592 46.897 63.1301 47.1382C63.6682 47.3794 64.1135 47.7196 64.466 48.1587C64.8248 48.5916 65.0907 49.1081 65.2639 49.708C65.4432 50.3079 65.5329 50.9697 65.5329 51.6934V52.6489H57.7771V51.0439H63.3249V50.8677C63.3126 50.4657 63.2321 50.0884 63.0837 49.7358C62.9415 49.3833 62.7219 49.0988 62.425 48.8823C62.1281 48.6659 61.7323 48.5576 61.2375 48.5576C60.8664 48.5576 60.5355 48.638 60.2448 48.7988C59.9603 48.9535 59.7222 49.1792 59.5305 49.4761C59.3388 49.7729 59.1903 50.1317 59.0852 50.5522C58.9862 50.9666 58.9367 51.4336 58.9367 51.9531V52.3242C58.9367 52.7633 58.9955 53.1715 59.113 53.5488C59.2367 53.9199 59.4161 54.2446 59.6511 54.5229C59.8861 54.8013 60.1706 55.0208 60.5046 55.1816C60.8386 55.3363 61.219 55.4136 61.6457 55.4136C62.1838 55.4136 62.6631 55.3053 63.0837 55.0889C63.5043 54.8724 63.8692 54.5662 64.1784 54.1704L65.3567 55.3115C65.1402 55.627 64.8588 55.93 64.5124 56.2207C64.1661 56.5052 63.7424 56.7371 63.2414 56.9165C62.7466 57.0959 62.1714 57.1855 61.5158 57.1855ZM70.3846 54.7734L72.7039 46.9619H74.1327L73.743 49.2998L71.4051 57H70.1248L70.3846 54.7734ZM69.0208 46.9619L70.8299 54.8105L70.9784 57H69.5497L66.8314 46.9619H69.0208ZM76.3036 54.7178L78.057 46.9619H80.2372L77.5282 57H76.0995L76.3036 54.7178ZM74.3739 46.9619L76.6654 54.6807L76.953 57H75.6727L73.307 49.2905L72.9173 46.9619H74.3739ZM86.5639 57.1855C85.8217 57.1855 85.1507 57.0649 84.5507 56.8237C83.957 56.5763 83.4498 56.2331 83.0293 55.7939C82.6149 55.3548 82.2963 54.8384 82.0737 54.2446C81.851 53.6509 81.7397 53.0107 81.7397 52.3242V51.9531C81.7397 51.1676 81.8541 50.4564 82.083 49.8193C82.3118 49.1823 82.6303 48.638 83.0385 48.1865C83.4467 47.7288 83.9292 47.3794 84.4858 47.1382C85.0424 46.897 85.6455 46.7764 86.2949 46.7764C87.0123 46.7764 87.6401 46.897 88.1782 47.1382C88.7163 47.3794 89.1616 47.7196 89.5141 48.1587C89.8728 48.5916 90.1388 49.1081 90.312 49.708C90.4913 50.3079 90.581 50.9697 90.581 51.6934V52.6489H82.8252V51.0439H88.373V50.8677C88.3606 50.4657 88.2802 50.0884 88.1318 49.7358C87.9895 49.3833 87.77 49.0988 87.4731 48.8823C87.1762 48.6659 86.7804 48.5576 86.2856 48.5576C85.9145 48.5576 85.5836 48.638 85.2929 48.7988C85.0084 48.9535 84.7703 49.1792 84.5786 49.4761C84.3868 49.7729 84.2384 50.1317 84.1333 50.5522C84.0343 50.9666 83.9848 51.4336 83.9848 51.9531V52.3242C83.9848 52.7633 84.0436 53.1715 84.1611 53.5488C84.2848 53.9199 84.4642 54.2446 84.6992 54.5229C84.9342 54.8013 85.2187 55.0208 85.5527 55.1816C85.8867 55.3363 86.2671 55.4136 86.6938 55.4136C87.2319 55.4136 87.7112 55.3053 88.1318 55.0889C88.5524 54.8724 88.9173 54.5662 89.2265 54.1704L90.4047 55.3115C90.1883 55.627 89.9069 55.93 89.5605 56.2207C89.2142 56.5052 88.7905 56.7371 88.2895 56.9165C87.7947 57.0959 87.2195 57.1855 86.5639 57.1855ZM94.9224 49.105V57H92.6866V46.9619H94.7926L94.9224 49.105ZM94.5235 51.6099L93.7999 51.6006C93.8061 50.8893 93.905 50.2368 94.0968 49.6431C94.2947 49.0493 94.5668 48.5391 94.9132 48.1123C95.2657 47.6855 95.6863 47.3577 96.1749 47.1289C96.6635 46.8939 97.2078 46.7764 97.8077 46.7764C98.2901 46.7764 98.7262 46.8444 99.1158 46.9805C99.5116 47.1104 99.8487 47.3237 100.127 47.6206C100.412 47.9175 100.628 48.304 100.776 48.7803C100.925 49.2503 100.999 49.8286 100.999 50.5151V57H98.754V50.5059C98.754 50.0234 98.6829 49.6431 98.5406 49.3647C98.4045 49.0802 98.2035 48.8792 97.9376 48.7617C97.6778 48.638 97.3531 48.5762 96.9635 48.5762C96.58 48.5762 96.2367 48.6566 95.9337 48.8174C95.6306 48.9782 95.3739 49.1978 95.1637 49.4761C94.9595 49.7544 94.8018 50.076 94.6905 50.4409C94.5792 50.8058 94.5235 51.1955 94.5235 51.6099ZM109.784 54.9219V42.75H112.029V57H109.998L109.784 54.9219ZM103.253 52.0923V51.8975C103.253 51.1367 103.343 50.444 103.522 49.8193C103.702 49.1885 103.961 48.6473 104.301 48.1958C104.642 47.7381 105.056 47.3887 105.545 47.1475C106.033 46.9001 106.584 46.7764 107.196 46.7764C107.802 46.7764 108.334 46.8939 108.792 47.1289C109.249 47.3639 109.639 47.701 109.961 48.1401C110.282 48.5731 110.539 49.0926 110.731 49.6987C110.922 50.2987 111.058 50.9666 111.139 51.7026V52.3242C111.058 53.0417 110.922 53.6973 110.731 54.291C110.539 54.8848 110.282 55.3981 109.961 55.8311C109.639 56.264 109.246 56.598 108.782 56.833C108.325 57.068 107.79 57.1855 107.177 57.1855C106.571 57.1855 106.024 57.0588 105.535 56.8052C105.053 56.5516 104.642 56.196 104.301 55.7383C103.961 55.2806 103.702 54.7425 103.522 54.124C103.343 53.4993 103.253 52.8221 103.253 52.0923ZM105.489 51.8975V52.0923C105.489 52.55 105.529 52.9767 105.61 53.3726C105.696 53.7684 105.829 54.1178 106.008 54.4209C106.188 54.7178 106.42 54.9528 106.704 55.126C106.995 55.293 107.341 55.3765 107.743 55.3765C108.251 55.3765 108.668 55.2651 108.996 55.0425C109.324 54.8198 109.58 54.5199 109.766 54.1426C109.958 53.7591 110.087 53.3324 110.155 52.8623V51.1831C110.118 50.8182 110.041 50.478 109.924 50.1626C109.812 49.8472 109.661 49.5719 109.469 49.3369C109.277 49.0957 109.039 48.9102 108.755 48.7803C108.476 48.6442 108.145 48.5762 107.762 48.5762C107.354 48.5762 107.007 48.6628 106.723 48.8359C106.438 49.0091 106.203 49.2472 106.018 49.5503C105.838 49.8534 105.705 50.2059 105.619 50.6079C105.532 51.0099 105.489 51.4398 105.489 51.8975ZM119.173 57.1855C118.43 57.1855 117.759 57.0649 117.159 56.8237C116.566 56.5763 116.059 56.2331 115.638 55.7939C115.224 55.3548 114.905 54.8384 114.682 54.2446C114.46 53.6509 114.348 53.0107 114.348 52.3242V51.9531C114.348 51.1676 114.463 50.4564 114.692 49.8193C114.921 49.1823 115.239 48.638 115.647 48.1865C116.055 47.7288 116.538 47.3794 117.095 47.1382C117.651 46.897 118.254 46.7764 118.904 46.7764C119.621 46.7764 120.249 46.897 120.787 47.1382C121.325 47.3794 121.77 47.7196 122.123 48.1587C122.482 48.5916 122.748 49.1081 122.921 49.708C123.1 50.3079 123.19 50.9697 123.19 51.6934V52.6489H115.434V51.0439H120.982V50.8677C120.969 50.4657 120.889 50.0884 120.741 49.7358C120.598 49.3833 120.379 49.0988 120.082 48.8823C119.785 48.6659 119.389 48.5576 118.894 48.5576C118.523 48.5576 118.192 48.638 117.902 48.7988C117.617 48.9535 117.379 49.1792 117.187 49.4761C116.996 49.7729 116.847 50.1317 116.742 50.5522C116.643 50.9666 116.594 51.4336 116.594 51.9531V52.3242C116.594 52.7633 116.652 53.1715 116.77 53.5488C116.894 53.9199 117.073 54.2446 117.308 54.5229C117.543 54.8013 117.827 55.0208 118.161 55.1816C118.495 55.3363 118.876 55.4136 119.303 55.4136C119.841 55.4136 120.32 55.3053 120.741 55.0889C121.161 54.8724 121.526 54.5662 121.835 54.1704L123.013 55.3115C122.797 55.627 122.516 55.93 122.169 56.2207C121.823 56.5052 121.399 56.7371 120.898 56.9165C120.403 57.0959 119.828 57.1855 119.173 57.1855ZM125.323 42.75H127.559V54.8569L127.346 57H125.323V42.75ZM134.109 51.8882V52.083C134.109 52.8252 134.025 53.5086 133.858 54.1333C133.698 54.7518 133.45 55.2899 133.116 55.7476C132.788 56.2052 132.38 56.5609 131.892 56.8145C131.409 57.0618 130.849 57.1855 130.212 57.1855C129.588 57.1855 129.043 57.068 128.58 56.833C128.116 56.598 127.726 56.264 127.411 55.8311C127.101 55.3981 126.851 54.8817 126.659 54.2817C126.467 53.6818 126.331 53.02 126.251 52.2964V51.6748C126.331 50.945 126.467 50.2832 126.659 49.6895C126.851 49.0895 127.101 48.5731 127.411 48.1401C127.726 47.701 128.113 47.3639 128.57 47.1289C129.034 46.8939 129.575 46.7764 130.194 46.7764C130.837 46.7764 131.403 46.9001 131.892 47.1475C132.386 47.3949 132.798 47.7474 133.125 48.2051C133.453 48.6566 133.698 49.1947 133.858 49.8193C134.025 50.444 134.109 51.1336 134.109 51.8882ZM131.873 52.083V51.8882C131.873 51.4367 131.836 51.013 131.762 50.6172C131.687 50.2152 131.564 49.8626 131.391 49.5596C131.224 49.2565 130.995 49.0184 130.704 48.8452C130.42 48.6659 130.064 48.5762 129.637 48.5762C129.241 48.5762 128.901 48.6442 128.617 48.7803C128.332 48.9163 128.094 49.1019 127.902 49.3369C127.711 49.5719 127.559 49.8441 127.448 50.1533C127.343 50.4626 127.271 50.7965 127.234 51.1553V52.8345C127.29 53.2983 127.407 53.7251 127.587 54.1147C127.772 54.4982 128.032 54.8075 128.366 55.0425C128.7 55.2713 129.13 55.3857 129.656 55.3857C130.07 55.3857 130.42 55.3022 130.704 55.1353C130.989 54.9683 131.214 54.7363 131.381 54.4395C131.554 54.1364 131.678 53.7839 131.752 53.3818C131.833 52.9798 131.873 52.5469 131.873 52.083ZM142.041 54.9868V50.1997C142.041 49.841 141.976 49.5317 141.846 49.272C141.716 49.0122 141.518 48.8112 141.252 48.6689C140.992 48.5267 140.664 48.4556 140.269 48.4556C139.904 48.4556 139.588 48.5174 139.322 48.6411C139.056 48.7648 138.849 48.9318 138.701 49.1421C138.552 49.3524 138.478 49.5905 138.478 49.8564H136.252C136.252 49.4606 136.347 49.0771 136.539 48.7061C136.731 48.335 137.009 48.0041 137.374 47.7134C137.739 47.4227 138.175 47.1938 138.682 47.0269C139.189 46.8599 139.758 46.7764 140.389 46.7764C141.144 46.7764 141.812 46.9032 142.393 47.1567C142.981 47.4103 143.441 47.7938 143.775 48.3071C144.116 48.8143 144.286 49.4513 144.286 50.2183V54.6807C144.286 55.1383 144.317 55.5496 144.378 55.9146C144.447 56.2733 144.542 56.5856 144.666 56.8516V57H142.375C142.269 56.7588 142.186 56.4526 142.124 56.0815C142.068 55.7043 142.041 55.3394 142.041 54.9868ZM142.365 50.8955L142.384 52.2778H140.779C140.364 52.2778 140 52.318 139.684 52.3984C139.369 52.4727 139.106 52.584 138.896 52.7324C138.685 52.8809 138.528 53.0602 138.422 53.2705C138.317 53.4808 138.265 53.7189 138.265 53.9849C138.265 54.2508 138.327 54.4951 138.45 54.7178C138.574 54.9342 138.753 55.1043 138.988 55.228C139.23 55.3517 139.52 55.4136 139.86 55.4136C140.318 55.4136 140.717 55.3208 141.057 55.1353C141.404 54.9435 141.676 54.7116 141.874 54.4395C142.072 54.1611 142.177 53.8983 142.189 53.6509L142.913 54.6436C142.838 54.8971 142.712 55.1693 142.532 55.46C142.353 55.7507 142.118 56.029 141.827 56.2949C141.543 56.5547 141.199 56.7681 140.797 56.9351C140.402 57.1021 139.944 57.1855 139.424 57.1855C138.769 57.1855 138.184 57.0557 137.671 56.7959C137.158 56.5299 136.756 56.1743 136.465 55.729C136.174 55.2775 136.029 54.7673 136.029 54.1982C136.029 53.6663 136.128 53.1963 136.326 52.7881C136.53 52.3737 136.827 52.0273 137.216 51.749C137.612 51.4707 138.095 51.2604 138.664 51.1182C139.233 50.9697 139.882 50.8955 140.612 50.8955H142.365ZM153.043 54.6343V46.9619H155.288V57H153.173L153.043 54.6343ZM153.359 52.5469L154.11 52.5283C154.11 53.2025 154.036 53.8241 153.887 54.3931C153.739 54.9559 153.51 55.4476 153.201 55.8682C152.892 56.2826 152.496 56.6073 152.013 56.8423C151.531 57.0711 150.953 57.1855 150.279 57.1855C149.79 57.1855 149.341 57.1144 148.933 56.9722C148.525 56.8299 148.173 56.6104 147.876 56.3135C147.585 56.0166 147.359 55.63 147.198 55.1538C147.038 54.6776 146.957 54.1086 146.957 53.4468V46.9619H149.193V53.4653C149.193 53.8302 149.236 54.1364 149.323 54.3838C149.41 54.625 149.527 54.8198 149.675 54.9683C149.824 55.1167 149.997 55.2218 150.195 55.2837C150.393 55.3455 150.603 55.3765 150.826 55.3765C151.463 55.3765 151.964 55.2528 152.329 55.0054C152.7 54.7518 152.963 54.4116 153.117 53.9849C153.278 53.5581 153.359 53.0788 153.359 52.5469ZM162.385 57.1855C161.643 57.1855 160.972 57.0649 160.372 56.8237C159.778 56.5763 159.271 56.2331 158.85 55.7939C158.436 55.3548 158.117 54.8384 157.895 54.2446C157.672 53.6509 157.561 53.0107 157.561 52.3242V51.9531C157.561 51.1676 157.675 50.4564 157.904 49.8193C158.133 49.1823 158.451 48.638 158.86 48.1865C159.268 47.7288 159.75 47.3794 160.307 47.1382C160.864 46.897 161.467 46.7764 162.116 46.7764C162.833 46.7764 163.461 46.897 163.999 47.1382C164.537 47.3794 164.983 47.7196 165.335 48.1587C165.694 48.5916 165.96 49.1081 166.133 49.708C166.312 50.3079 166.402 50.9697 166.402 51.6934V52.6489H158.646V51.0439H164.194V50.8677C164.182 50.4657 164.101 50.0884 163.953 49.7358C163.811 49.3833 163.591 49.0988 163.294 48.8823C162.997 48.6659 162.602 48.5576 162.107 48.5576C161.736 48.5576 161.405 48.638 161.114 48.7988C160.83 48.9535 160.591 49.1792 160.4 49.4761C160.208 49.7729 160.06 50.1317 159.954 50.5522C159.855 50.9666 159.806 51.4336 159.806 51.9531V52.3242C159.806 52.7633 159.865 53.1715 159.982 53.5488C160.106 53.9199 160.285 54.2446 160.52 54.5229C160.755 54.8013 161.04 55.0208 161.374 55.1816C161.708 55.3363 162.088 55.4136 162.515 55.4136C163.053 55.4136 163.532 55.3053 163.953 55.0889C164.373 54.8724 164.738 54.5662 165.048 54.1704L166.226 55.3115C166.009 55.627 165.728 55.93 165.382 56.2207C165.035 56.5052 164.612 56.7371 164.111 56.9165C163.616 57.0959 163.041 57.1855 162.385 57.1855ZM170.744 49.105V57H168.508V46.9619H170.614L170.744 49.105ZM170.345 51.6099L169.621 51.6006C169.627 50.8893 169.726 50.2368 169.918 49.6431C170.116 49.0493 170.388 48.5391 170.734 48.1123C171.087 47.6855 171.507 47.3577 171.996 47.1289C172.485 46.8939 173.029 46.7764 173.629 46.7764C174.111 46.7764 174.547 46.8444 174.937 46.9805C175.333 47.1104 175.67 47.3237 175.948 47.6206C176.233 47.9175 176.449 48.304 176.598 48.7803C176.746 49.2503 176.82 49.8286 176.82 50.5151V57H174.575V50.5059C174.575 50.0234 174.504 49.6431 174.362 49.3647C174.226 49.0802 174.025 48.8792 173.759 48.7617C173.499 48.638 173.174 48.5762 172.785 48.5762C172.401 48.5762 172.058 48.6566 171.755 48.8174C171.452 48.9782 171.195 49.1978 170.985 49.4761C170.781 49.7544 170.623 50.076 170.512 50.4409C170.4 50.8058 170.345 51.1955 170.345 51.6099Z" fill="black"/>
</svg>
