<svg width="48" height="46" viewBox="0 0 48 46" fill="none" xmlns="http://www.w3.org/2000/svg">
<rect x="0.75" y="0.75" width="45.861" height="44.5" rx="22.25" fill="#FFAE9D" stroke="#FFAE9D" stroke-width="1.5"/>
<path d="M13.4512 36.5352C15.0984 36.5352 16.4337 35.1999 16.4337 33.5528C16.4337 31.9056 15.0984 30.5703 13.4512 30.5703C11.804 30.5703 10.4688 31.9056 10.4688 33.5528C10.4688 35.1999 11.804 36.5352 13.4512 36.5352Z" stroke="white" stroke-width="1.6" stroke-linecap="round" stroke-linejoin="round"/>
<path d="M13.4512 14.4298C15.0984 14.4298 16.4337 13.0945 16.4337 11.4473C16.4337 9.80014 15.0984 8.46484 13.4512 8.46484C11.804 8.46484 10.4688 9.80014 10.4688 11.4473C10.4688 13.0945 11.804 14.4298 13.4512 14.4298Z" stroke="white" stroke-width="1.6" stroke-linecap="round" stroke-linejoin="round"/>
<path d="M38.4984 22.3945H16.6562" stroke="white" stroke-width="1.6" stroke-linecap="round" stroke-linejoin="round"/>
<path d="M16.4649 19.4121H10.5V25.377H16.4649V19.4121Z" stroke="white" stroke-width="1.6" stroke-linecap="round" stroke-linejoin="round"/>
<path d="M16.5312 33.4998H22.6014L28.6365 22.3945" stroke="white" stroke-width="1.6" stroke-linecap="round" stroke-linejoin="round"/>
<path d="M34.3438 29.0272L38.5367 22.5009L34.3438 15.9746" stroke="white" stroke-width="1.6" stroke-linecap="round" stroke-linejoin="round"/>
<path d="M16.5312 11.2891H22.6014L28.6365 22.3943" stroke="white" stroke-width="1.6" stroke-linecap="round" stroke-linejoin="round"/>
</svg>
