<svg width="48" height="46" viewBox="0 0 48 46" fill="none" xmlns="http://www.w3.org/2000/svg">
<rect x="0.75" y="0.75" width="45.861" height="44.5" rx="22.25" fill="#F5E86A" stroke="#F5E86A" stroke-width="1.5"/>
<path d="M27.7909 28.0608L23.4844 23.8203L19.2109 28.0443" stroke="white" stroke-width="1.8" stroke-linecap="round" stroke-linejoin="round"/>
<path d="M23.5156 23.9844V35.6994" stroke="white" stroke-width="1.8" stroke-linecap="round" stroke-linejoin="round"/>
<path d="M14.2749 25.5038C13.3179 23.9033 12.7734 22.0223 12.7734 20.0258C12.7734 14.1023 17.5749 9.30078 23.4984 9.30078" stroke="white" stroke-width="1.8" stroke-linecap="round" stroke-linejoin="round"/>
<path d="M23.4958 9.30078C20.7733 9.30078 18.5128 14.6633 18.1828 19.9433H12.8203" stroke="white" stroke-width="1.8" stroke-linecap="round" stroke-linejoin="round"/>
<path d="M23.5 9.30078V19.9433" stroke="white" stroke-width="1.8" stroke-linecap="round" stroke-linejoin="round"/>
<path d="M15.1797 14.7285C17.0772 15.9825 20.0472 16.8075 23.3967 16.857" stroke="white" stroke-width="1.8" stroke-linecap="round" stroke-linejoin="round"/>
<path d="M32.7235 25.5038C33.6805 23.9033 34.225 22.0223 34.225 20.0258C34.225 14.1023 29.4235 9.30078 23.5 9.30078" stroke="white" stroke-width="1.8" stroke-linecap="round" stroke-linejoin="round"/>
<path d="M23.5 9.30078C26.2225 9.30078 28.483 14.6633 28.813 19.9433H34.1755" stroke="white" stroke-width="1.8" stroke-linecap="round" stroke-linejoin="round"/>
<path d="M31.8186 14.7285C29.9211 15.9825 26.9511 16.8075 23.6016 16.857" stroke="white" stroke-width="1.8" stroke-linecap="round" stroke-linejoin="round"/>
</svg>
