<svg width="48" height="46" viewBox="0 0 48 46" fill="none" xmlns="http://www.w3.org/2000/svg">
<rect x="0.75" y="0.75" width="45.861" height="44.5" rx="22.25" stroke="#F5E86A" stroke-width="1.5"/>
<path d="M35.7884 9.30078H31.9934C31.4922 9.30078 31.0859 9.70708 31.0859 10.2083V34.7933C31.0859 35.2945 31.4922 35.7008 31.9934 35.7008H35.7884C36.2896 35.7008 36.6959 35.2945 36.6959 34.7933V10.2083C36.6959 9.70708 36.2896 9.30078 35.7884 9.30078Z" stroke="#F5E86A" stroke-width="1.7" stroke-linecap="round" stroke-linejoin="round"/>
<path d="M25.3978 22.5H21.6028C21.1016 22.5 20.6953 22.9063 20.6953 23.4075V34.7925C20.6953 35.2937 21.1016 35.7 21.6028 35.7H25.3978C25.899 35.7 26.3053 35.2937 26.3053 34.7925V23.4075C26.3053 22.9063 25.899 22.5 25.3978 22.5Z" stroke="#F5E86A" stroke-width="1.7" stroke-linecap="round" stroke-linejoin="round"/>
<path d="M14.9994 29.1016H11.2044C10.7032 29.1016 10.2969 29.5079 10.2969 30.0091V34.7941C10.2969 35.2953 10.7032 35.7016 11.2044 35.7016H14.9994C15.5006 35.7016 15.9069 35.2953 15.9069 34.7941V30.0091C15.9069 29.5079 15.5006 29.1016 14.9994 29.1016Z" stroke="#F5E86A" stroke-width="1.7" stroke-linecap="round" stroke-linejoin="round"/>
<path d="M17.4375 9.30078L23.46 9.33378L23.493 15.3563" stroke="#F5E86A" stroke-width="1.6" stroke-linecap="round" stroke-linejoin="round"/>
<path d="M23.3319 9.43359L10.2969 22.4686" stroke="#F5E86A" stroke-width="1.6" stroke-linecap="round" stroke-linejoin="round"/>
</svg>
