<svg width="22" height="22" viewBox="0 0 22 22" fill="none" xmlns="http://www.w3.org/2000/svg">
<g clip-path="url(#clip0_2978_26814)">
<path d="M21.3559 16.6191C20.8914 17.5869 18.943 18.3224 16.7365 18.3224C14.5301 18.3224 12.5688 17.5869 12.1172 16.6191" stroke="black" stroke-linecap="round" stroke-linejoin="round"/>
<path d="M16.7365 15.3687C19.2877 15.3687 21.3559 14.3982 21.3559 13.2009C21.3559 12.0037 19.2877 11.0332 16.7365 11.0332C14.1853 11.0332 12.1172 12.0037 12.1172 13.2009C12.1172 14.3982 14.1853 15.3687 16.7365 15.3687Z" stroke="black" stroke-linecap="round" stroke-linejoin="round"/>
<path d="M12.1172 13.1992V19.6379C12.5688 20.6186 14.5817 21.3412 16.7882 21.3412C18.9946 21.3412 20.8914 20.6057 21.3559 19.6379V13.1992" stroke="black" stroke-linecap="round" stroke-linejoin="round"/>
<path d="M13.0712 11.7295C12.1293 11.1101 11.0325 10.7617 9.8583 10.7617H6.82604C3.8841 10.7617 1.41959 12.994 0.74862 15.9875C0.567975 16.8262 1.13572 17.5101 1.8841 17.7553C2.63249 18.0004 4.54217 18.7746 8.21959 18.7746" stroke="black" stroke-width="1.1" stroke-linecap="round" stroke-linejoin="round"/>
<path d="M8.32182 7.80576C10.2815 7.80576 11.8702 6.21709 11.8702 4.25737C11.8702 2.29765 10.2815 0.708984 8.32182 0.708984C6.3621 0.708984 4.77344 2.29765 4.77344 4.25737C4.77344 6.21709 6.3621 7.80576 8.32182 7.80576Z" stroke="black" stroke-width="1.1" stroke-linecap="round" stroke-linejoin="round"/>
</g>
<defs>
<clipPath id="clip0_2978_26814">
<rect width="22" height="22" fill="white"/>
</clipPath>
</defs>
</svg>
