<svg width="22" height="22" viewBox="0 0 22 22" fill="none" xmlns="http://www.w3.org/2000/svg">
<path fill-rule="evenodd" clip-rule="evenodd" d="M13.0859 19.3583C13.5921 19.1883 14.1249 18.6945 13.974 18.0955C13.45 15.9423 11.514 14.3477 9.19609 14.3477H6.80716C4.48928 14.3477 2.55327 15.9423 2.0293 18.0955C1.87833 18.7026 2.33125 19.1883 2.91738 19.3583C3.50351 19.5283 5.01324 20.0868 7.8995 20.0868C10.7858 20.0868 12.5797 19.5283 13.0859 19.3583Z" stroke="black" stroke-width="1.1" stroke-linecap="round" stroke-linejoin="round"/>
<path d="M8.5 11.4779C9.88071 11.4779 11 10.4073 11 9.08662C11 7.76594 9.88071 6.69531 8.5 6.69531C7.11929 6.69531 6 7.76594 6 9.08662C6 10.4073 7.11929 11.4779 8.5 11.4779Z" stroke="black" stroke-width="1.1" stroke-linecap="round" stroke-linejoin="round"/>
<path d="M18.7154 3.46506C18.4704 2.57822 17.5154 1.91309 16.3915 1.91309C15.3521 1.91309 14.4647 2.4718 14.1352 3.25222C13.4844 5.18553 15.7999 5.62008 17.8788 7.08337C19.2394 8.04116 19.6873 9.7439 17.8535 10.7017" stroke="#010101" stroke-width="1.1" stroke-linecap="round" stroke-linejoin="round"/>
<path d="M14.3538 12.7776C14.5989 13.6644 15.5538 14.3295 16.6777 14.3295C17.7172 14.3295 18.6045 13.7708 18.9341 12.9904C19.5848 11.0571 17.2608 10.6225 15.1904 9.16812C13.8298 8.21033 13.382 6.50759 15.2158 5.5498" stroke="#010101" stroke-width="1.1" stroke-linecap="round" stroke-linejoin="round"/>
</svg>
