<svg width="48" height="46" viewBox="0 0 48 46" fill="none" xmlns="http://www.w3.org/2000/svg">
<rect x="0.75" y="0.75" width="45.861" height="44.5" rx="22.25" stroke="#FFAE9D" stroke-width="1.5"/>
<path d="M23.4969 35.7008C30.787 35.7008 36.6969 29.7909 36.6969 22.5008C36.6969 15.2106 30.787 9.30078 23.4969 9.30078C16.2067 9.30078 10.2969 15.2106 10.2969 22.5008C10.2969 29.7909 16.2067 35.7008 23.4969 35.7008Z" stroke="#FFAE9D" stroke-width="1.6" stroke-linecap="round" stroke-linejoin="round"/>
<path d="M23.4981 30.2715C27.7901 30.2715 31.2696 26.7921 31.2696 22.5C31.2696 18.2079 27.7901 14.7285 23.4981 14.7285C19.206 14.7285 15.7266 18.2079 15.7266 22.5C15.7266 26.7921 19.206 30.2715 23.4981 30.2715Z" stroke="#FFAE9D" stroke-width="1.6" stroke-linecap="round" stroke-linejoin="round"/>
<path d="M23.4993 24.8423C24.7933 24.8423 25.8423 23.7933 25.8423 22.4993C25.8423 21.2052 24.7933 20.1562 23.4993 20.1562C22.2052 20.1562 21.1562 21.2052 21.1562 22.4993C21.1562 23.7933 22.2052 24.8423 23.4993 24.8423Z" stroke="#FFAE9D" stroke-width="1.6" stroke-linecap="round" stroke-linejoin="round"/>
</svg>
