<svg width="22" height="22" viewBox="0 0 22 22" fill="none" xmlns="http://www.w3.org/2000/svg">
<path d="M17.9301 3.93722L18.7441 3.68422C18.9201 3.62922 19.1071 3.69522 19.2061 3.84922L19.7341 4.69622C19.8331 4.86122 19.8001 5.07022 19.6461 5.20222L19.0631 5.68622C18.9531 5.77422 18.9091 5.90622 18.9311 6.03822C18.9531 6.25822 18.9531 6.48922 18.9311 6.70922C18.9201 6.84122 18.9641 6.97322 19.0631 7.06122L19.6571 7.56722C19.8001 7.68822 19.8331 7.90822 19.7341 8.06222L19.2061 8.90922C19.1071 9.06322 18.9201 9.12922 18.7331 9.07422L17.9631 8.83222C17.8421 8.78822 17.7101 8.82122 17.6001 8.88722C17.4021 9.03022 17.1931 9.14022 16.9621 9.23922C16.8411 9.29422 16.7421 9.39322 16.7201 9.52522L16.5661 10.2512C16.5331 10.4382 16.3571 10.5592 16.1701 10.5592H15.0701C14.8831 10.5592 14.7181 10.4272 14.6741 10.2512L14.5201 9.53622C14.4981 9.40422 14.3991 9.30522 14.2781 9.25022C14.0471 9.15122 13.8381 9.04122 13.6401 8.89822C13.5301 8.82122 13.4091 8.79922 13.2771 8.84322L12.4961 9.08522C12.3861 9.11822 12.2541 9.10722 12.1661 9.04122C12.1111 9.00822 12.0671 8.96422 12.0341 8.90922L11.5061 8.06222C11.4071 7.89722 11.4401 7.68822 11.5941 7.55622L12.1771 7.07222C12.2871 6.98422 12.3311 6.85222 12.3091 6.72022C12.2871 6.50022 12.2871 6.26922 12.3091 6.04922C12.3201 5.91722 12.2761 5.78522 12.1771 5.69722L11.5831 5.19122C11.4401 5.07022 11.4071 4.85022 11.5061 4.69622L12.0341 3.84922C12.1331 3.69522 12.3201 3.62922 12.5071 3.68422L13.2771 3.92622C13.3981 3.97022 13.5301 3.93722 13.6401 3.87122C13.8381 3.72822 14.0471 3.61822 14.2781 3.51922C14.3991 3.46422 14.4981 3.36522 14.5201 3.23322L14.6741 2.50722C14.7071 2.32022 14.8831 2.19922 15.0701 2.19922H16.1701C16.3571 2.19922 16.5221 2.33122 16.5661 2.50722L16.7311 3.25522C16.7531 3.36522 16.8301 3.46422 16.9291 3.51922L17.6221 3.89322C17.7211 3.94822 17.8311 3.95922 17.9411 3.92622L17.9301 3.93722Z" stroke="black" stroke-linecap="round" stroke-linejoin="round"/>
<path d="M15.6184 7.52237C16.2684 7.52237 16.7954 7.01019 16.7954 6.37837C16.7954 5.74656 16.2684 5.23438 15.6184 5.23438C14.9684 5.23438 14.4414 5.74656 14.4414 6.37837C14.4414 7.01019 14.9684 7.52237 15.6184 7.52237Z" stroke="black" stroke-linecap="round" stroke-linejoin="round"/>
<path d="M10.3933 11.4285L11.4163 11.1205C11.6363 11.0545 11.8783 11.1425 11.9993 11.3295L12.6703 12.3965C12.8023 12.6055 12.7583 12.8695 12.5713 13.0345L11.8343 13.6395C11.7023 13.7495 11.6473 13.9145 11.6583 14.0795C11.6913 14.3655 11.6913 14.6405 11.6583 14.9265C11.6363 15.0915 11.6913 15.2565 11.8233 15.3665L12.5713 16.0045C12.7583 16.1585 12.8023 16.4335 12.6703 16.6315L11.9993 17.6985C11.8783 17.8965 11.6363 17.9845 11.4053 17.9075L10.4263 17.5995C10.2723 17.5445 10.0963 17.5775 9.96431 17.6765C9.71131 17.8525 9.44731 17.9955 9.16131 18.1165C9.00731 18.1825 8.88631 18.3145 8.85331 18.4795L8.65531 19.4035C8.61131 19.6345 8.40231 19.7995 8.16031 19.7995H6.77431C6.53231 19.7995 6.32331 19.6345 6.27931 19.4035L6.08131 18.4905C6.04831 18.3255 5.92731 18.2045 5.77331 18.1385C5.48731 18.0175 5.21231 17.8745 4.97031 17.6985C4.83831 17.6105 4.67331 17.5775 4.51931 17.6215L3.52931 17.9185C3.38631 17.9625 3.23231 17.9405 3.11131 17.8635C3.04531 17.8195 2.99031 17.7645 2.94631 17.6985L2.27531 16.6315C2.14331 16.4225 2.18731 16.1585 2.37431 15.9935L3.11131 15.3885C3.24331 15.2785 3.29831 15.1135 3.28731 14.9485C3.25431 14.6625 3.25431 14.3875 3.28731 14.1015C3.30931 13.9365 3.25431 13.7715 3.12231 13.6615L2.37431 13.0235C2.18731 12.8695 2.14331 12.5945 2.27531 12.3965L2.94631 11.3295C3.06731 11.1315 3.30931 11.0435 3.54031 11.1205L4.51931 11.4285C4.67331 11.4835 4.84931 11.4505 4.98131 11.3515C5.23431 11.1755 5.49831 11.0325 5.78431 10.9115C5.93831 10.8455 6.05931 10.7135 6.09231 10.5485L6.29031 9.62452C6.33431 9.39352 6.54331 9.22852 6.78531 9.22852H8.17131C8.41331 9.22852 8.62231 9.39352 8.66631 9.62452L8.86431 10.5705C8.89731 10.7135 8.98531 10.8345 9.11731 10.9005L9.98631 11.3735C10.1073 11.4395 10.2503 11.4505 10.3933 11.4175V11.4285Z" stroke="black" stroke-width="1.1" stroke-linecap="round" stroke-linejoin="round"/>
<path d="M7.47763 16.3126C8.49217 16.3126 9.31463 15.5098 9.31463 14.5196C9.31463 13.5293 8.49217 12.7266 7.47763 12.7266C6.46308 12.7266 5.64062 13.5293 5.64062 14.5196C5.64062 15.5098 6.46308 16.3126 7.47763 16.3126Z" stroke="black" stroke-width="1.1" stroke-linecap="round" stroke-linejoin="round"/>
</svg>
