<svg width="48" height="46" viewBox="0 0 48 46" fill="none" xmlns="http://www.w3.org/2000/svg">
<rect x="0.75" y="0.75" width="45.861" height="44.5" rx="22.25" stroke="#FFAE9D" stroke-width="1.5"/>
<path d="M35.3155 23.6055C34.1275 26.0805 29.128 27.9615 23.5015 27.9615C17.875 27.9615 12.859 26.097 11.6875 23.6055" stroke="#FFAE9D" stroke-width="1.6" stroke-linecap="round" stroke-linejoin="round"/>
<path d="M23.5015 20.4218C30.0262 20.4218 35.3155 17.9323 35.3155 14.8613C35.3155 11.7903 30.0262 9.30078 23.5015 9.30078C16.9768 9.30078 11.6875 11.7903 11.6875 14.8613C11.6875 17.9323 16.9768 20.4218 23.5015 20.4218Z" stroke="#FFAE9D" stroke-width="1.6" stroke-linecap="round" stroke-linejoin="round"/>
<path d="M11.6875 14.8613V31.3448C12.8425 33.8363 17.9905 35.7008 23.6335 35.7008C29.2765 35.7008 34.111 33.8198 35.299 31.3448V14.8613" stroke="#FFAE9D" stroke-width="1.6" stroke-linecap="round" stroke-linejoin="round"/>
</svg>
