<svg width="22" height="23" viewBox="0 0 22 23" fill="none" xmlns="http://www.w3.org/2000/svg">
<path d="M9.53706 17.2708C8.98706 17.3628 8.41506 17.4088 7.81006 17.4088C5.18106 17.4088 2.84906 16.5003 2.31006 15.2812" stroke="black" stroke-width="1.1" stroke-linecap="round" stroke-linejoin="round"/>
<path d="M7.82129 13.7409C4.78529 13.7409 2.32129 12.5334 2.32129 11.0384C2.32129 9.54344 4.78529 8.33594 7.82129 8.33594C8.42629 8.33594 8.99829 8.38194 9.54829 8.47394" stroke="black" stroke-width="1.1" stroke-linecap="round" stroke-linejoin="round"/>
<path d="M2.32129 11.0273V19.0543C2.86029 20.2733 5.25829 21.1818 7.88729 21.1818C10.5163 21.1818 12.7713 20.2618 13.3213 19.0543V17.6513" stroke="black" stroke-width="1.1" stroke-linecap="round" stroke-linejoin="round"/>
<path d="M16.8628 7.78491L19.6788 4.79491L16.8628 1.81641" stroke="black" stroke-width="1.1" stroke-linecap="round" stroke-linejoin="round"/>
<path d="M19.569 4.81641H11.77" stroke="black" stroke-width="1.1" stroke-linecap="round" stroke-linejoin="round"/>
<path d="M14.586 14.7888L11.77 11.7988L14.586 8.82031" stroke="black" stroke-width="1.1" stroke-linecap="round" stroke-linejoin="round"/>
<path d="M11.8799 11.8203H19.6789" stroke="black" stroke-width="1.1" stroke-linecap="round" stroke-linejoin="round"/>
</svg>
