<svg width="22" height="23" viewBox="0 0 22 23" fill="none" xmlns="http://www.w3.org/2000/svg">
<path fill-rule="evenodd" clip-rule="evenodd" d="M13.0859 20.2384C13.5921 20.0606 14.1249 19.5444 13.974 18.9182C13.45 16.6671 11.514 15 9.19609 15H6.80716C4.48928 15 2.55327 16.6671 2.0293 18.9182C1.87833 19.5529 2.33125 20.0606 2.91738 20.2384C3.50351 20.4161 5.01324 21 7.8995 21C10.7858 21 12.5797 20.4161 13.0859 20.2384Z" stroke="black" stroke-width="1.1" stroke-linecap="round" stroke-linejoin="round"/>
<path d="M8.5 12C9.88071 12 11 10.8807 11 9.5C11 8.11929 9.88071 7 8.5 7C7.11929 7 6 8.11929 6 9.5C6 10.8807 7.11929 12 8.5 12Z" stroke="black" stroke-width="1.1" stroke-linecap="round" stroke-linejoin="round"/>
<path d="M18.7154 3.62252C18.4704 2.69536 17.5154 2 16.3915 2C15.3521 2 14.4647 2.58411 14.1352 3.4C13.4844 5.42119 15.7999 5.8755 17.8788 7.4053C19.2394 8.40662 19.6873 10.1868 17.8535 11.1881" stroke="#010101" stroke-width="1.1" stroke-linecap="round" stroke-linejoin="round"/>
<path d="M14.3538 13.3571C14.5989 14.2842 15.5538 14.9796 16.6777 14.9796C17.7172 14.9796 18.6045 14.3955 18.9341 13.5796C19.5848 11.5584 17.2608 11.1041 15.1904 9.58356C13.8298 8.58224 13.382 6.80211 15.2158 5.80078" stroke="#010101" stroke-width="1.1" stroke-linecap="round" stroke-linejoin="round"/>
</svg>
