<svg width="22" height="23" viewBox="0 0 22 23" fill="none" xmlns="http://www.w3.org/2000/svg">
<path d="M10.3948 11.9484L11.4178 11.6264C11.6378 11.5574 11.8798 11.6494 12.0008 11.8449L12.6718 12.9604C12.8038 13.1789 12.7598 13.4549 12.5728 13.6274L11.8358 14.2599C11.7038 14.3749 11.6488 14.5474 11.6598 14.7199C11.6928 15.0189 11.6928 15.3064 11.6598 15.6054C11.6378 15.7779 11.6928 15.9504 11.8248 16.0654L12.5728 16.7324C12.7598 16.8934 12.8038 17.1809 12.6718 17.3879L12.0008 18.5034C11.8798 18.7104 11.6378 18.8024 11.4068 18.7219L10.4278 18.3999C10.2738 18.3424 10.0978 18.3769 9.96577 18.4804C9.71277 18.6644 9.44877 18.8139 9.16277 18.9404C9.00877 19.0094 8.88777 19.1474 8.85477 19.3199L8.65677 20.2859C8.61277 20.5274 8.40377 20.6999 8.16177 20.6999H6.77577C6.53377 20.6999 6.32477 20.5274 6.28077 20.2859L6.08277 19.3314C6.04977 19.1589 5.92877 19.0324 5.77477 18.9634C5.48877 18.8369 5.21377 18.6874 4.97177 18.5034C4.83977 18.4114 4.67477 18.3769 4.52077 18.4229L3.53077 18.7334C3.38777 18.7794 3.23377 18.7564 3.11277 18.6759C3.04677 18.6299 2.99177 18.5724 2.94777 18.5034L2.27677 17.3879C2.14477 17.1694 2.18877 16.8934 2.37577 16.7209L3.11277 16.0884C3.24477 15.9734 3.29977 15.8009 3.28877 15.6284C3.25577 15.3294 3.25577 15.0419 3.28877 14.7429C3.31077 14.5704 3.25577 14.3979 3.12377 14.2829L2.37577 13.6159C2.18877 13.4549 2.14477 13.1674 2.27677 12.9604L2.94777 11.8449C3.06877 11.6379 3.31077 11.5459 3.54177 11.6264L4.52077 11.9484C4.67477 12.0059 4.85077 11.9714 4.98277 11.8679C5.23577 11.6839 5.49977 11.5344 5.78577 11.4079C5.93977 11.3389 6.06077 11.2009 6.09377 11.0284L6.29177 10.0624C6.33577 9.82094 6.54477 9.64844 6.78677 9.64844H8.17277C8.41477 9.64844 8.62377 9.82094 8.66777 10.0624L8.86577 11.0514C8.89877 11.2009 8.98677 11.3274 9.11877 11.3964L9.98777 11.8909C10.1088 11.9599 10.2518 11.9714 10.3948 11.9369V11.9484Z" stroke="black" stroke-width="1.1" stroke-linecap="round" stroke-linejoin="round"/>
<path d="M7.47958 17.0537C8.49413 17.0537 9.31658 16.2144 9.31658 15.1792C9.31658 14.1439 8.49413 13.3047 7.47958 13.3047C6.46503 13.3047 5.64258 14.1439 5.64258 15.1792C5.64258 16.2144 6.46503 17.0537 7.47958 17.0537Z" stroke="black" stroke-width="1.1" stroke-linecap="round" stroke-linejoin="round"/>
<path d="M14.0859 6.05953L17.6259 2.51953L19.4659 4.35953L15.9259 7.89953" stroke="black" stroke-width="1.1" stroke-linecap="round" stroke-linejoin="round"/>
<path d="M19.6073 1.46669L20.5195 2.37886C20.774 2.63342 20.774 3.04354 20.5195 3.2981L19.4659 4.35169L17.6274 2.51321L18.681 1.45962C18.9356 1.20506 19.3457 1.20506 19.6002 1.45962L19.6073 1.46669Z" stroke="black" stroke-width="1.1" stroke-linecap="round" stroke-linejoin="round"/>
<path d="M15.93 7.89859L13 9.00859L14.09 6.05859" stroke="black" stroke-width="1.1" stroke-linecap="round" stroke-linejoin="round"/>
</svg>
