<svg width="22" height="23" viewBox="0 0 22 23" fill="none" xmlns="http://www.w3.org/2000/svg">
<g clip-path="url(#clip0_1597_50614)">
<path d="M21.3549 17.375C20.8904 18.3867 18.942 19.1556 16.7356 19.1556C14.5291 19.1556 12.5678 18.3867 12.1162 17.375" stroke="black" stroke-linecap="round" stroke-linejoin="round"/>
<path d="M16.7356 16.0677C19.2868 16.0677 21.3549 15.0531 21.3549 13.8014C21.3549 12.5498 19.2868 11.5352 16.7356 11.5352C14.1844 11.5352 12.1162 12.5498 12.1162 13.8014C12.1162 15.0531 14.1844 16.0677 16.7356 16.0677Z" stroke="black" stroke-linecap="round" stroke-linejoin="round"/>
<path d="M12.1162 13.8008V20.5322C12.5678 21.5574 14.5807 22.3128 16.7872 22.3128C18.9936 22.3128 20.8904 21.5439 21.3549 20.5322V13.8008" stroke="black" stroke-linecap="round" stroke-linejoin="round"/>
<path d="M13.0712 12.2617C12.1293 11.6142 11.0325 11.25 9.8583 11.25H6.82604C3.8841 11.25 1.41959 13.5837 0.74862 16.7133C0.567975 17.5902 1.13572 18.3051 1.8841 18.5614C2.63249 18.8177 4.54217 19.6271 8.21959 19.6271" stroke="black" stroke-width="1.1" stroke-linecap="round" stroke-linejoin="round"/>
<path d="M8.3228 8.16154C10.2825 8.16154 11.8712 6.50066 11.8712 4.45187C11.8712 2.40307 10.2825 0.742188 8.3228 0.742188C6.36308 0.742188 4.77441 2.40307 4.77441 4.45187C4.77441 6.50066 6.36308 8.16154 8.3228 8.16154Z" stroke="black" stroke-width="1.1" stroke-linecap="round" stroke-linejoin="round"/>
</g>
<defs>
<clipPath id="clip0_1597_50614">
<rect width="22" height="23" fill="white"/>
</clipPath>
</defs>
</svg>
