<svg width="30" height="30" viewBox="0 0 30 30" fill="none" xmlns="http://www.w3.org/2000/svg">
<path fill-rule="evenodd" clip-rule="evenodd" d="M23.025 25.08C23.88 24.765 24.78 23.85 24.525 22.74C23.64 18.75 20.37 15.795 16.455 15.795H12.42C8.50503 15.795 5.23503 18.75 4.35003 22.74C4.09503 23.865 4.86003 24.765 5.85003 25.08C6.84003 25.395 9.39003 26.43 14.265 26.43C19.14 26.43 22.17 25.395 23.025 25.08Z" stroke="black" stroke-width="1.1" stroke-linecap="round" stroke-linejoin="round"/>
<path d="M14.4151 11.85C17.0163 11.85 19.1251 9.74125 19.1251 7.13999C19.1251 4.53873 17.0163 2.42999 14.4151 2.42999C11.8138 2.42999 9.70508 4.53873 9.70508 7.13999C9.70508 9.74125 11.8138 11.85 14.4151 11.85Z" stroke="black" stroke-width="1.1" stroke-linecap="round" stroke-linejoin="round"/>
</svg>
