<svg width="569" height="166" viewBox="0 0 569 166" fill="none" xmlns="http://www.w3.org/2000/svg">
<rect x="344" width="110" height="166" rx="1" fill="#8FDE97" fill-opacity="0.8"/>
<path d="M355.047 11.3359V22H353.208V11.3359H355.047ZM361.8 11.3359V22H359.976V11.3359H361.8ZM365.147 11.3359V12.8008H356.658V11.3359H365.147Z" fill="black"/>
<path d="M432 128L446 142L432 156" stroke="black" stroke-width="2.5"/>
<rect width="109" height="166" rx="1" fill="#8FDE97" fill-opacity="0.13"/>
<path d="M14.6943 19.2534C14.6943 19.0337 14.6602 18.8384 14.5918 18.6675C14.5283 18.4966 14.4136 18.3403 14.2476 18.1987C14.0815 18.0571 13.8472 17.9204 13.5444 17.7886C13.2466 17.6519 12.8657 17.5127 12.4019 17.3711C11.894 17.2148 11.4253 17.0415 10.9956 16.8511C10.5708 16.6558 10.1997 16.4312 9.88232 16.1772C9.56494 15.9185 9.31836 15.623 9.14258 15.291C8.9668 14.9541 8.87891 14.5659 8.87891 14.1265C8.87891 13.6919 8.96924 13.2964 9.1499 12.9399C9.33545 12.5835 9.59668 12.2759 9.93359 12.0171C10.2754 11.7534 10.6782 11.5508 11.1421 11.4092C11.606 11.2627 12.1187 11.1895 12.6802 11.1895C13.4712 11.1895 14.1523 11.3359 14.7236 11.6289C15.2998 11.9219 15.7417 12.3149 16.0493 12.8081C16.3618 13.3013 16.5181 13.8457 16.5181 14.4414H14.6943C14.6943 14.0898 14.6187 13.7798 14.4673 13.5112C14.3208 13.2378 14.0962 13.0229 13.7935 12.8667C13.4956 12.7104 13.1172 12.6323 12.6582 12.6323C12.2236 12.6323 11.8623 12.6982 11.5742 12.8301C11.2861 12.9619 11.0713 13.1401 10.9297 13.3647C10.7881 13.5894 10.7173 13.8433 10.7173 14.1265C10.7173 14.3267 10.7637 14.5098 10.8564 14.6758C10.9492 14.8369 11.0908 14.9883 11.2812 15.1299C11.4717 15.2666 11.7109 15.396 11.999 15.5181C12.2871 15.6401 12.6265 15.7573 13.0171 15.8696C13.6079 16.0454 14.123 16.2407 14.5625 16.4556C15.002 16.6655 15.3682 16.9048 15.6611 17.1733C15.9541 17.4419 16.1738 17.7471 16.3203 18.0889C16.4668 18.4258 16.54 18.8091 16.54 19.2388C16.54 19.688 16.4497 20.0933 16.269 20.4546C16.0884 20.811 15.8296 21.1162 15.4927 21.3701C15.1606 21.6191 14.7603 21.812 14.2915 21.9487C13.8276 22.0806 13.3101 22.1465 12.7388 22.1465C12.2261 22.1465 11.7207 22.0781 11.2227 21.9414C10.7295 21.8047 10.2803 21.5972 9.875 21.3188C9.46973 21.0356 9.14746 20.6841 8.9082 20.2642C8.66895 19.8394 8.54932 19.3438 8.54932 18.7773H10.3877C10.3877 19.124 10.4463 19.4194 10.5635 19.6636C10.6855 19.9077 10.854 20.1079 11.0688 20.2642C11.2837 20.4155 11.5327 20.5278 11.8159 20.6011C12.104 20.6743 12.4116 20.7109 12.7388 20.7109C13.1685 20.7109 13.5273 20.6499 13.8154 20.5278C14.1084 20.4058 14.3281 20.2349 14.4746 20.0151C14.6211 19.7954 14.6943 19.5415 14.6943 19.2534ZM21.7839 22.1465C21.1979 22.1465 20.6682 22.0513 20.1945 21.8608C19.7258 21.6655 19.3254 21.3945 18.9934 21.0479C18.6662 20.7012 18.4147 20.2935 18.239 19.8247C18.0632 19.356 17.9753 18.8506 17.9753 18.3086V18.0156C17.9753 17.3955 18.0656 16.834 18.2463 16.3311C18.427 15.8281 18.6784 15.3984 19.0007 15.042C19.3229 14.6807 19.7038 14.4048 20.1433 14.2144C20.5827 14.0239 21.0588 13.9287 21.5715 13.9287C22.1379 13.9287 22.6335 14.0239 23.0583 14.2144C23.4831 14.4048 23.8347 14.6733 24.113 15.02C24.3962 15.3618 24.6062 15.7695 24.7429 16.2432C24.8845 16.7168 24.9553 17.2393 24.9553 17.8105V18.5649H18.8322V17.2979H23.2121V17.1587C23.2023 16.8413 23.1389 16.5435 23.0217 16.2651C22.9094 15.9868 22.736 15.7622 22.5017 15.5913C22.2673 15.4204 21.9548 15.335 21.5642 15.335C21.2712 15.335 21.01 15.3984 20.7805 15.5254C20.5559 15.6475 20.3679 15.8257 20.2165 16.0601C20.0651 16.2944 19.9479 16.5776 19.8649 16.9097C19.7868 17.2368 19.7478 17.6055 19.7478 18.0156V18.3086C19.7478 18.6553 19.7941 18.9775 19.8869 19.2754C19.9846 19.5684 20.1262 19.8247 20.3117 20.0444C20.4973 20.2642 20.7219 20.4375 20.9855 20.5645C21.2492 20.6865 21.5495 20.7476 21.8864 20.7476C22.3112 20.7476 22.6896 20.6621 23.0217 20.4912C23.3537 20.3203 23.6418 20.0786 23.8859 19.7661L24.8161 20.667C24.6452 20.916 24.423 21.1553 24.1496 21.3848C23.8762 21.6094 23.5417 21.7925 23.1462 21.9341C22.7556 22.0757 22.3015 22.1465 21.7839 22.1465ZM28.3827 15.7671V22H26.6176V14.0752H28.2802L28.3827 15.7671ZM28.0678 17.7446L27.4965 17.7373C27.5014 17.1758 27.5795 16.6606 27.7309 16.1919C27.8871 15.7231 28.102 15.3203 28.3754 14.9834C28.6537 14.6465 28.9857 14.3877 29.3715 14.207C29.7572 14.0215 30.1869 13.9287 30.6605 13.9287C31.0414 13.9287 31.3856 13.9824 31.6933 14.0898C32.0058 14.1924 32.2719 14.3608 32.4916 14.5952C32.7162 14.8296 32.8871 15.1348 33.0043 15.5107C33.1215 15.8818 33.1801 16.3384 33.1801 16.8804V22H31.4076V16.873C31.4076 16.4922 31.3515 16.1919 31.2392 15.9722C31.1317 15.7476 30.973 15.5889 30.7631 15.4961C30.558 15.3984 30.3017 15.3496 29.994 15.3496C29.6913 15.3496 29.4203 15.4131 29.1811 15.54C28.9418 15.667 28.7392 15.8403 28.5731 16.0601C28.412 16.2798 28.2875 16.5337 28.1996 16.8218C28.1117 17.1099 28.0678 17.4175 28.0678 17.7446ZM39.7276 19.854C39.7276 19.6782 39.6837 19.5195 39.5958 19.3779C39.5079 19.2314 39.3395 19.0996 39.0904 18.9824C38.8463 18.8652 38.485 18.7578 38.0064 18.6602C37.5865 18.5674 37.2008 18.4575 36.8492 18.3306C36.5025 18.1987 36.2047 18.04 35.9557 17.8545C35.7066 17.6689 35.5138 17.4492 35.3771 17.1953C35.2403 16.9414 35.172 16.6484 35.172 16.3164C35.172 15.9941 35.2428 15.689 35.3844 15.4009C35.526 15.1128 35.7286 14.8589 35.9923 14.6392C36.256 14.4194 36.5758 14.2461 36.9518 14.1191C37.3326 13.9922 37.7574 13.9287 38.2262 13.9287C38.8902 13.9287 39.4591 14.041 39.9327 14.2656C40.4112 14.4854 40.7774 14.7856 41.0313 15.1665C41.2853 15.5425 41.4122 15.9673 41.4122 16.4409H39.6471C39.6471 16.231 39.5934 16.0356 39.4859 15.855C39.3834 15.6694 39.2271 15.5205 39.0172 15.4082C38.8072 15.291 38.5436 15.2324 38.2262 15.2324C37.9234 15.2324 37.672 15.2812 37.4718 15.3789C37.2765 15.4717 37.13 15.5938 37.0323 15.7451C36.9396 15.8965 36.8932 16.0625 36.8932 16.2432C36.8932 16.375 36.9176 16.4946 36.9664 16.6021C37.0201 16.7046 37.108 16.7998 37.2301 16.8877C37.3521 16.9707 37.5182 17.0488 37.7281 17.1221C37.943 17.1953 38.2115 17.2661 38.5338 17.3345C39.1393 17.4614 39.6593 17.625 40.0938 17.8252C40.5333 18.0205 40.8702 18.2744 41.1046 18.5869C41.339 18.8945 41.4562 19.2852 41.4562 19.7588C41.4562 20.1104 41.3805 20.4326 41.2291 20.7256C41.0826 21.0137 40.8678 21.2651 40.5846 21.48C40.3014 21.6899 39.962 21.8535 39.5665 21.9707C39.1759 22.0879 38.7364 22.1465 38.2481 22.1465C37.5304 22.1465 36.9225 22.0195 36.4244 21.7656C35.9264 21.5068 35.5479 21.1772 35.2892 20.7769C35.0353 20.3716 34.9083 19.9517 34.9083 19.5171H36.6148C36.6344 19.8442 36.7247 20.1055 36.8858 20.3008C37.0519 20.4912 37.2569 20.6304 37.5011 20.7183C37.7501 20.8013 38.0064 20.8428 38.2701 20.8428C38.5875 20.8428 38.8536 20.8013 39.0685 20.7183C39.2833 20.6304 39.4469 20.5132 39.5592 20.3667C39.6715 20.2153 39.7276 20.0444 39.7276 19.854ZM42.9646 18.1255V17.957C42.9646 17.3857 43.0477 16.856 43.2137 16.3677C43.3797 15.8745 43.6189 15.4473 43.9314 15.0859C44.2488 14.7197 44.6346 14.4365 45.0887 14.2363C45.5477 14.0312 46.0652 13.9287 46.6414 13.9287C47.2225 13.9287 47.74 14.0312 48.1941 14.2363C48.6531 14.4365 49.0413 14.7197 49.3587 15.0859C49.6761 15.4473 49.9178 15.8745 50.0838 16.3677C50.2498 16.856 50.3328 17.3857 50.3328 17.957V18.1255C50.3328 18.6968 50.2498 19.2266 50.0838 19.7148C49.9178 20.2031 49.6761 20.6304 49.3587 20.9966C49.0413 21.3579 48.6556 21.6411 48.2015 21.8462C47.7474 22.0464 47.2322 22.1465 46.6561 22.1465C46.075 22.1465 45.555 22.0464 45.096 21.8462C44.6419 21.6411 44.2562 21.3579 43.9388 20.9966C43.6214 20.6304 43.3797 20.2031 43.2137 19.7148C43.0477 19.2266 42.9646 18.6968 42.9646 18.1255ZM44.7298 17.957V18.1255C44.7298 18.4819 44.7664 18.8188 44.8396 19.1362C44.9129 19.4536 45.0276 19.7319 45.1839 19.9712C45.3401 20.2104 45.5403 20.3984 45.7845 20.5352C46.0286 20.6719 46.3191 20.7402 46.6561 20.7402C46.9832 20.7402 47.2664 20.6719 47.5057 20.5352C47.7498 20.3984 47.95 20.2104 48.1063 19.9712C48.2625 19.7319 48.3772 19.4536 48.4505 19.1362C48.5286 18.8188 48.5677 18.4819 48.5677 18.1255V17.957C48.5677 17.6055 48.5286 17.2734 48.4505 16.9609C48.3772 16.6436 48.2601 16.3628 48.0989 16.1187C47.9427 15.8745 47.7425 15.6841 47.4983 15.5474C47.2591 15.4058 46.9734 15.335 46.6414 15.335C46.3094 15.335 46.0213 15.4058 45.7771 15.5474C45.5379 15.6841 45.3401 15.8745 45.1839 16.1187C45.0276 16.3628 44.9129 16.6436 44.8396 16.9609C44.7664 17.2734 44.7298 17.6055 44.7298 17.957ZM53.8848 15.584V22H52.1196V14.0752H53.8042L53.8848 15.584ZM56.3091 14.0239L56.2944 15.6646C56.187 15.645 56.0698 15.6304 55.9429 15.6206C55.8208 15.6108 55.6987 15.606 55.5767 15.606C55.2739 15.606 55.0078 15.6499 54.7783 15.7378C54.5488 15.8208 54.356 15.9429 54.1997 16.104C54.0483 16.2603 53.9312 16.4507 53.8481 16.6753C53.7651 16.8999 53.7163 17.1514 53.7017 17.4297L53.2988 17.459C53.2988 16.9609 53.3477 16.4995 53.4453 16.0747C53.543 15.6499 53.6895 15.2764 53.8848 14.9541C54.085 14.6318 54.334 14.3804 54.6318 14.1997C54.9346 14.019 55.2837 13.9287 55.6792 13.9287C55.7866 13.9287 55.9014 13.9385 56.0234 13.958C56.1504 13.9775 56.2456 13.9995 56.3091 14.0239ZM61.0622 22.1465C60.4763 22.1465 59.9465 22.0513 59.4729 21.8608C59.0041 21.6655 58.6037 21.3945 58.2717 21.0479C57.9445 20.7012 57.6931 20.2935 57.5173 19.8247C57.3415 19.356 57.2536 18.8506 57.2536 18.3086V18.0156C57.2536 17.3955 57.3439 16.834 57.5246 16.3311C57.7053 15.8281 57.9567 15.3984 58.279 15.042C58.6013 14.6807 58.9821 14.4048 59.4216 14.2144C59.861 14.0239 60.3371 13.9287 60.8498 13.9287C61.4162 13.9287 61.9118 14.0239 62.3366 14.2144C62.7614 14.4048 63.113 14.6733 63.3913 15.02C63.6745 15.3618 63.8845 15.7695 64.0212 16.2432C64.1628 16.7168 64.2336 17.2393 64.2336 17.8105V18.5649H58.1105V17.2979H62.4904V17.1587C62.4807 16.8413 62.4172 16.5435 62.3 16.2651C62.1877 15.9868 62.0144 15.7622 61.78 15.5913C61.5456 15.4204 61.2331 15.335 60.8425 15.335C60.5495 15.335 60.2883 15.3984 60.0588 15.5254C59.8342 15.6475 59.6462 15.8257 59.4948 16.0601C59.3435 16.2944 59.2263 16.5776 59.1433 16.9097C59.0651 17.2368 59.0261 17.6055 59.0261 18.0156V18.3086C59.0261 18.6553 59.0725 18.9775 59.1652 19.2754C59.2629 19.5684 59.4045 19.8247 59.59 20.0444C59.7756 20.2642 60.0002 20.4375 60.2639 20.5645C60.5275 20.6865 60.8278 20.7476 61.1647 20.7476C61.5896 20.7476 61.968 20.6621 62.3 20.4912C62.632 20.3203 62.9201 20.0786 63.1643 19.7661L64.0944 20.667C63.9235 20.916 63.7014 21.1553 63.4279 21.3848C63.1545 21.6094 62.82 21.7925 62.4245 21.9341C62.0339 22.0757 61.5798 22.1465 61.0622 22.1465ZM67.661 15.7671V22H65.8959V14.0752H67.5585L67.661 15.7671ZM67.3461 17.7446L66.7748 17.7373C66.7797 17.1758 66.8578 16.6606 67.0092 16.1919C67.1654 15.7231 67.3803 15.3203 67.6537 14.9834C67.932 14.6465 68.2641 14.3877 68.6498 14.207C69.0355 14.0215 69.4652 13.9287 69.9389 13.9287C70.3197 13.9287 70.664 13.9824 70.9716 14.0898C71.2841 14.1924 71.5502 14.3608 71.7699 14.5952C71.9945 14.8296 72.1654 15.1348 72.2826 15.5107C72.3998 15.8818 72.4584 16.3384 72.4584 16.8804V22H70.6859V16.873C70.6859 16.4922 70.6298 16.1919 70.5175 15.9722C70.4101 15.7476 70.2514 15.5889 70.0414 15.4961C69.8363 15.3984 69.58 15.3496 69.2724 15.3496C68.9696 15.3496 68.6986 15.4131 68.4594 15.54C68.2201 15.667 68.0175 15.8403 67.8515 16.0601C67.6903 16.2798 67.5658 16.5337 67.4779 16.8218C67.39 17.1099 67.3461 17.4175 67.3461 17.7446ZM80.4192 16.1992L82.2576 14.9614C82.5652 14.7563 82.785 14.5562 82.9168 14.3608C83.0486 14.1606 83.1145 13.9116 83.1145 13.6138C83.1145 13.3599 83.0169 13.1255 82.8216 12.9106C82.6263 12.6958 82.3504 12.5884 81.9939 12.5884C81.7449 12.5884 81.535 12.647 81.3641 12.7642C81.1932 12.8765 81.0638 13.0278 80.9759 13.2183C80.8929 13.4038 80.8514 13.6113 80.8514 13.8408C80.8514 14.0605 80.9075 14.2876 81.0198 14.522C81.1321 14.7515 81.2859 14.9932 81.4812 15.2471C81.6766 15.4961 81.8963 15.7646 82.1404 16.0527L87.1795 22H85.136L81.0198 17.1587C80.6634 16.729 80.3484 16.3359 80.075 15.9795C79.8016 15.6182 79.5892 15.269 79.4378 14.9321C79.2864 14.5903 79.2107 14.2388 79.2107 13.8774C79.2107 13.3208 79.3255 12.8423 79.555 12.4419C79.7845 12.0415 80.1092 11.7339 80.5291 11.519C80.949 11.2993 81.4397 11.1895 82.0013 11.1895C82.5433 11.1895 83.0096 11.2993 83.4002 11.519C83.7957 11.7339 84.0984 12.0195 84.3084 12.376C84.5232 12.7324 84.6307 13.123 84.6307 13.5479C84.6307 13.8848 84.5696 14.1924 84.4476 14.4707C84.3255 14.749 84.157 15.0029 83.9422 15.2324C83.7273 15.4619 83.4783 15.6792 83.1951 15.8843L80.9612 17.5103C80.7024 17.7202 80.5096 17.9229 80.3826 18.1182C80.2605 18.3086 80.18 18.4844 80.1409 18.6455C80.1019 18.8066 80.0823 18.9482 80.0823 19.0703C80.0823 19.3828 80.1482 19.666 80.2801 19.9199C80.4168 20.1738 80.6145 20.3765 80.8733 20.5278C81.137 20.6743 81.4568 20.7476 81.8328 20.7476C82.2381 20.7476 82.6311 20.6572 83.012 20.4766C83.3929 20.291 83.7347 20.0298 84.0374 19.6929C84.3401 19.356 84.5794 18.9531 84.7552 18.4844C84.9358 18.0156 85.0262 17.4956 85.0262 16.9243H86.5496C86.5496 17.4419 86.4983 17.9326 86.3958 18.3965C86.2981 18.8604 86.1395 19.29 85.9197 19.6855C85.7049 20.0811 85.4217 20.4351 85.0701 20.7476C85.0359 20.7817 84.9969 20.8257 84.9529 20.8794C84.9139 20.9282 84.8748 20.9697 84.8357 21.0039C84.4158 21.3896 83.9446 21.6777 83.4222 21.8682C82.9046 22.0537 82.3528 22.1465 81.7669 22.1465C81.0589 22.1465 80.4461 22.0171 79.9285 21.7583C79.4109 21.4995 79.0105 21.1431 78.7273 20.689C78.449 20.2349 78.3099 19.7148 78.3099 19.1289C78.3099 18.6943 78.4002 18.3135 78.5809 17.9863C78.7615 17.6543 79.0081 17.3467 79.3206 17.0635C79.638 16.7754 80.0042 16.4873 80.4192 16.1992ZM16.54 38.5425V40H9.13525V38.5425H16.54ZM16.3716 30.4712L9.81641 40H8.58594V38.8354L15.1631 29.3359H16.3716V30.4712ZM15.6904 29.3359V30.8008H8.62988V29.3359H15.6904ZM22.7287 38.4106V34.6313C22.7287 34.3481 22.6774 34.104 22.5749 33.8989C22.4724 33.6938 22.3161 33.5352 22.1062 33.4229C21.9011 33.3105 21.6423 33.2544 21.3298 33.2544C21.0417 33.2544 20.7927 33.3032 20.5827 33.4009C20.3728 33.4985 20.2092 33.6304 20.092 33.7964C19.9748 33.9624 19.9162 34.1504 19.9162 34.3604H18.1584C18.1584 34.0479 18.2341 33.7451 18.3854 33.4521C18.5368 33.1592 18.7565 32.8979 19.0446 32.6685C19.3327 32.439 19.677 32.2583 20.0773 32.1265C20.4777 31.9946 20.927 31.9287 21.425 31.9287C22.0207 31.9287 22.548 32.0288 23.007 32.229C23.4709 32.4292 23.8347 32.7319 24.0983 33.1372C24.3669 33.5376 24.5012 34.0405 24.5012 34.646V38.1689C24.5012 38.5303 24.5256 38.855 24.5744 39.1431C24.6281 39.4263 24.7038 39.6729 24.8015 39.8828V40H22.9924C22.9094 39.8096 22.8435 39.5679 22.7946 39.2749C22.7507 38.9771 22.7287 38.689 22.7287 38.4106ZM22.9851 35.1807L22.9997 36.272H21.7326C21.4055 36.272 21.1174 36.3037 20.8684 36.3672C20.6193 36.4258 20.4118 36.5137 20.2458 36.6309C20.0798 36.748 19.9553 36.8896 19.8723 37.0557C19.7893 37.2217 19.7478 37.4097 19.7478 37.6196C19.7478 37.8296 19.7966 38.0225 19.8942 38.1982C19.9919 38.3691 20.1335 38.5034 20.319 38.6011C20.5095 38.6987 20.739 38.7476 21.0075 38.7476C21.3688 38.7476 21.6838 38.6743 21.9523 38.5278C22.2258 38.3765 22.4406 38.1934 22.5969 37.9785C22.7531 37.7588 22.8361 37.5513 22.8459 37.356L23.4172 38.1396C23.3586 38.3398 23.2585 38.5547 23.1169 38.7842C22.9753 39.0137 22.7897 39.2334 22.5603 39.4434C22.3356 39.6484 22.0646 39.8169 21.7473 39.9487C21.4348 40.0806 21.0734 40.1465 20.6633 40.1465C20.1457 40.1465 19.6843 40.0439 19.279 39.8389C18.8737 39.6289 18.5563 39.3481 18.3269 38.9966C18.0974 38.6401 17.9826 38.2373 17.9826 37.7881C17.9826 37.3682 18.0607 36.9971 18.217 36.6748C18.3781 36.3477 18.6125 36.0742 18.9201 35.8545C19.2326 35.6348 19.6135 35.4688 20.0627 35.3564C20.5119 35.2393 21.0246 35.1807 21.6008 35.1807H22.9851ZM18.8908 29.9731C18.8908 29.7339 18.9738 29.5337 19.1398 29.3726C19.3059 29.2065 19.5256 29.1235 19.799 29.1235C20.0773 29.1235 20.2995 29.2065 20.4655 29.3726C20.6315 29.5337 20.7146 29.7339 20.7146 29.9731C20.7146 30.2075 20.6315 30.4077 20.4655 30.5737C20.2995 30.7349 20.0773 30.8154 19.799 30.8154C19.5256 30.8154 19.3059 30.7349 19.1398 30.5737C18.9738 30.4077 18.8908 30.2075 18.8908 29.9731ZM22.2819 29.9805C22.2819 29.7412 22.3649 29.541 22.531 29.3799C22.697 29.2139 22.9191 29.1309 23.1975 29.1309C23.4709 29.1309 23.6906 29.2139 23.8566 29.3799C24.0275 29.541 24.113 29.7412 24.113 29.9805C24.113 30.2148 24.0275 30.415 23.8566 30.5811C23.6906 30.7422 23.4709 30.8228 23.1975 30.8228C22.9191 30.8228 22.697 30.7422 22.531 30.5811C22.3649 30.415 22.2819 30.2148 22.2819 29.9805ZM28.39 28.75V40H26.6322V28.75H28.39ZM28.0824 35.7446L27.5111 35.7373C27.516 35.1904 27.5917 34.6851 27.7382 34.2212C27.8896 33.7573 28.0995 33.3545 28.3681 33.0127C28.6415 32.666 28.9687 32.3999 29.3495 32.2144C29.7304 32.0239 30.1527 31.9287 30.6166 31.9287C31.0072 31.9287 31.3588 31.9824 31.6713 32.0898C31.9887 32.1973 32.2621 32.3706 32.4916 32.6099C32.7211 32.8442 32.8944 33.1519 33.0116 33.5327C33.1337 33.9087 33.1947 34.3677 33.1947 34.9097V40H31.4223V34.895C31.4223 34.5142 31.3661 34.2114 31.2538 33.9868C31.1464 33.7622 30.9877 33.6011 30.7777 33.5034C30.5678 33.4009 30.3114 33.3496 30.0087 33.3496C29.6913 33.3496 29.4105 33.4131 29.1664 33.54C28.9271 33.667 28.727 33.8403 28.5658 34.0601C28.4047 34.2798 28.2826 34.5337 28.1996 34.8218C28.1215 35.1099 28.0824 35.4175 28.0824 35.7446ZM37.1715 28.75V40H35.399V28.75H37.1715ZM42.8987 40.1465C42.3128 40.1465 41.783 40.0513 41.3094 39.8608C40.8406 39.6655 40.4402 39.3945 40.1082 39.0479C39.7811 38.7012 39.5296 38.2935 39.3538 37.8247C39.178 37.356 39.0901 36.8506 39.0901 36.3086V36.0156C39.0901 35.3955 39.1805 34.834 39.3611 34.3311C39.5418 33.8281 39.7933 33.3984 40.1155 33.042C40.4378 32.6807 40.8187 32.4048 41.2581 32.2144C41.6976 32.0239 42.1736 31.9287 42.6863 31.9287C43.2527 31.9287 43.7483 32.0239 44.1731 32.2144C44.5979 32.4048 44.9495 32.6733 45.2278 33.02C45.511 33.3618 45.721 33.7695 45.8577 34.2432C45.9993 34.7168 46.0701 35.2393 46.0701 35.8105V36.5649H39.9471V35.2979H44.327V35.1587C44.3172 34.8413 44.2537 34.5435 44.1365 34.2651C44.0242 33.9868 43.8509 33.7622 43.6165 33.5913C43.3821 33.4204 43.0696 33.335 42.679 33.335C42.386 33.335 42.1248 33.3984 41.8953 33.5254C41.6707 33.6475 41.4827 33.8257 41.3313 34.0601C41.18 34.2944 41.0628 34.5776 40.9798 34.9097C40.9017 35.2368 40.8626 35.6055 40.8626 36.0156V36.3086C40.8626 36.6553 40.909 36.9775 41.0018 37.2754C41.0994 37.5684 41.241 37.8247 41.4266 38.0444C41.6121 38.2642 41.8367 38.4375 42.1004 38.5645C42.3641 38.6865 42.6644 38.7476 43.0013 38.7476C43.4261 38.7476 43.8045 38.6621 44.1365 38.4912C44.4686 38.3203 44.7566 38.0786 45.0008 37.7661L45.931 38.667C45.7601 38.916 45.5379 39.1553 45.2645 39.3848C44.991 39.6094 44.6565 39.7925 44.261 39.9341C43.8704 40.0757 43.4163 40.1465 42.8987 40.1465ZM49.5195 33.584V40H47.7544V32.0752H49.439L49.5195 33.584ZM51.9438 32.0239L51.9292 33.6646C51.8218 33.645 51.7046 33.6304 51.5776 33.6206C51.4556 33.6108 51.3335 33.606 51.2114 33.606C50.9087 33.606 50.6426 33.6499 50.4131 33.7378C50.1836 33.8208 49.9907 33.9429 49.8345 34.104C49.6831 34.2603 49.5659 34.4507 49.4829 34.6753C49.3999 34.8999 49.3511 35.1514 49.3364 35.4297L48.9336 35.459C48.9336 34.9609 48.9824 34.4995 49.0801 34.0747C49.1777 33.6499 49.3242 33.2764 49.5195 32.9541C49.7197 32.6318 49.9688 32.3804 50.2666 32.1997C50.5693 32.019 50.9185 31.9287 51.314 31.9287C51.4214 31.9287 51.5361 31.9385 51.6582 31.958C51.7852 31.9775 51.8804 31.9995 51.9438 32.0239Z" fill="black"/>
<path d="M87 128L101 142L87 156" stroke="black" stroke-width="2.5"/>
<rect x="114" width="110" height="166" rx="1" fill="#8FDE97" fill-opacity="0.4"/>
<path d="M125.047 11.3359V22H123.208V11.3359H125.047ZM129.207 15.7671V22H127.442V14.0752H129.104L129.207 15.7671ZM128.892 17.7446L128.321 17.7373C128.325 17.1758 128.404 16.6606 128.555 16.1919C128.711 15.7231 128.926 15.3203 129.199 14.9834C129.478 14.6465 129.81 14.3877 130.196 14.207C130.581 14.0215 131.011 13.9287 131.485 13.9287C131.865 13.9287 132.21 13.9824 132.517 14.0898C132.83 14.1924 133.096 14.3608 133.316 14.5952C133.54 14.8296 133.711 15.1348 133.828 15.5107C133.946 15.8818 134.004 16.3384 134.004 16.8804V22H132.232V16.873C132.232 16.4922 132.175 16.1919 132.063 15.9722C131.956 15.7476 131.797 15.5889 131.587 15.4961C131.382 15.3984 131.126 15.3496 130.818 15.3496C130.515 15.3496 130.244 15.4131 130.005 15.54C129.766 15.667 129.563 15.8403 129.397 16.0601C129.236 16.2798 129.112 16.5337 129.024 16.8218C128.936 17.1099 128.892 17.4175 128.892 17.7446ZM138.494 22H136.728V13.3135C136.728 12.7227 136.838 12.2271 137.058 11.8267C137.283 11.4214 137.602 11.1162 138.017 10.9111C138.433 10.7012 138.923 10.5962 139.49 10.5962C139.665 10.5962 139.839 10.6084 140.01 10.6328C140.181 10.6523 140.347 10.6841 140.508 10.728L140.464 12.0903C140.366 12.0659 140.259 12.0488 140.142 12.0391C140.029 12.0293 139.907 12.0244 139.775 12.0244C139.507 12.0244 139.275 12.0757 139.079 12.1782C138.889 12.2759 138.743 12.4199 138.64 12.6104C138.542 12.8008 138.494 13.0352 138.494 13.3135V22ZM140.127 14.0752V15.3643H135.513V14.0752H140.127ZM143.481 15.584V22H141.716V14.0752H143.4L143.481 15.584ZM145.905 14.0239L145.891 15.6646C145.783 15.645 145.666 15.6304 145.539 15.6206C145.417 15.6108 145.295 15.606 145.173 15.606C144.87 15.606 144.604 15.6499 144.375 15.7378C144.145 15.8208 143.952 15.9429 143.796 16.104C143.645 16.2603 143.527 16.4507 143.444 16.6753C143.361 16.8999 143.313 17.1514 143.298 17.4297L142.895 17.459C142.895 16.9609 142.944 16.4995 143.042 16.0747C143.139 15.6499 143.286 15.2764 143.481 14.9541C143.681 14.6318 143.93 14.3804 144.228 14.1997C144.531 14.019 144.88 13.9287 145.275 13.9287C145.383 13.9287 145.498 13.9385 145.62 13.958C145.747 13.9775 145.842 13.9995 145.905 14.0239ZM151.515 20.4106V16.6313C151.515 16.3481 151.464 16.104 151.362 15.8989C151.259 15.6938 151.103 15.5352 150.893 15.4229C150.688 15.3105 150.429 15.2544 150.117 15.2544C149.828 15.2544 149.579 15.3032 149.369 15.4009C149.159 15.4985 148.996 15.6304 148.879 15.7964C148.762 15.9624 148.703 16.1504 148.703 16.3604H146.945C146.945 16.0479 147.021 15.7451 147.172 15.4521C147.324 15.1592 147.543 14.8979 147.831 14.6685C148.119 14.439 148.464 14.2583 148.864 14.1265C149.264 13.9946 149.714 13.9287 150.212 13.9287C150.807 13.9287 151.335 14.0288 151.794 14.229C152.258 14.4292 152.621 14.7319 152.885 15.1372C153.154 15.5376 153.288 16.0405 153.288 16.646V20.1689C153.288 20.5303 153.312 20.855 153.361 21.1431C153.415 21.4263 153.491 21.6729 153.588 21.8828V22H151.779C151.696 21.8096 151.63 21.5679 151.581 21.2749C151.537 20.9771 151.515 20.689 151.515 20.4106ZM151.772 17.1807L151.786 18.272H150.519C150.192 18.272 149.904 18.3037 149.655 18.3672C149.406 18.4258 149.199 18.5137 149.033 18.6309C148.867 18.748 148.742 18.8896 148.659 19.0557C148.576 19.2217 148.534 19.4097 148.534 19.6196C148.534 19.8296 148.583 20.0225 148.681 20.1982C148.779 20.3691 148.92 20.5034 149.106 20.6011C149.296 20.6987 149.526 20.7476 149.794 20.7476C150.156 20.7476 150.471 20.6743 150.739 20.5278C151.013 20.3765 151.227 20.1934 151.384 19.9785C151.54 19.7588 151.623 19.5513 151.633 19.356L152.204 20.1396C152.145 20.3398 152.045 20.5547 151.904 20.7842C151.762 21.0137 151.576 21.2334 151.347 21.4434C151.122 21.6484 150.851 21.8169 150.534 21.9487C150.221 22.0806 149.86 22.1465 149.45 22.1465C148.932 22.1465 148.471 22.0439 148.066 21.8389C147.66 21.6289 147.343 21.3481 147.114 20.9966C146.884 20.6401 146.769 20.2373 146.769 19.7881C146.769 19.3682 146.847 18.9971 147.004 18.6748C147.165 18.3477 147.399 18.0742 147.707 17.8545C148.019 17.6348 148.4 17.4688 148.849 17.3564C149.299 17.2393 149.811 17.1807 150.388 17.1807H151.772ZM159.879 19.854C159.879 19.6782 159.835 19.5195 159.748 19.3779C159.66 19.2314 159.491 19.0996 159.242 18.9824C158.998 18.8652 158.637 18.7578 158.158 18.6602C157.738 18.5674 157.353 18.4575 157.001 18.3306C156.654 18.1987 156.356 18.04 156.107 17.8545C155.858 17.6689 155.666 17.4492 155.529 17.1953C155.392 16.9414 155.324 16.6484 155.324 16.3164C155.324 15.9941 155.395 15.689 155.536 15.4009C155.678 15.1128 155.88 14.8589 156.144 14.6392C156.408 14.4194 156.728 14.2461 157.104 14.1191C157.484 13.9922 157.909 13.9287 158.378 13.9287C159.042 13.9287 159.611 14.041 160.084 14.2656C160.563 14.4854 160.929 14.7856 161.183 15.1665C161.437 15.5425 161.564 15.9673 161.564 16.4409H159.799C159.799 16.231 159.745 16.0356 159.638 15.855C159.535 15.6694 159.379 15.5205 159.169 15.4082C158.959 15.291 158.695 15.2324 158.378 15.2324C158.075 15.2324 157.824 15.2812 157.624 15.3789C157.428 15.4717 157.282 15.5938 157.184 15.7451C157.091 15.8965 157.045 16.0625 157.045 16.2432C157.045 16.375 157.069 16.4946 157.118 16.6021C157.172 16.7046 157.26 16.7998 157.382 16.8877C157.504 16.9707 157.67 17.0488 157.88 17.1221C158.095 17.1953 158.363 17.2661 158.686 17.3345C159.291 17.4614 159.811 17.625 160.246 17.8252C160.685 18.0205 161.022 18.2744 161.256 18.5869C161.491 18.8945 161.608 19.2852 161.608 19.7588C161.608 20.1104 161.532 20.4326 161.381 20.7256C161.234 21.0137 161.02 21.2651 160.736 21.48C160.453 21.6899 160.114 21.8535 159.718 21.9707C159.328 22.0879 158.888 22.1465 158.4 22.1465C157.682 22.1465 157.074 22.0195 156.576 21.7656C156.078 21.5068 155.7 21.1772 155.441 20.7769C155.187 20.3716 155.06 19.9517 155.06 19.5171H156.767C156.786 19.8442 156.876 20.1055 157.038 20.3008C157.204 20.4912 157.409 20.6304 157.653 20.7183C157.902 20.8013 158.158 20.8428 158.422 20.8428C158.739 20.8428 159.005 20.8013 159.22 20.7183C159.435 20.6304 159.599 20.5132 159.711 20.3667C159.823 20.2153 159.879 20.0444 159.879 19.854ZM167.086 14.0752V15.3643H162.618V14.0752H167.086ZM163.907 12.1343H165.673V19.8101C165.673 20.0542 165.707 20.2422 165.775 20.374C165.848 20.501 165.948 20.5864 166.075 20.6304C166.202 20.6743 166.351 20.6963 166.522 20.6963C166.644 20.6963 166.761 20.689 166.874 20.6743C166.986 20.6597 167.076 20.645 167.145 20.6304L167.152 21.978C167.006 22.022 166.835 22.061 166.639 22.0952C166.449 22.1294 166.229 22.1465 165.98 22.1465C165.575 22.1465 165.216 22.0757 164.904 21.9341C164.591 21.7876 164.347 21.5508 164.171 21.2236C163.995 20.8965 163.907 20.4619 163.907 19.9199V12.1343ZM170.521 15.584V22H168.756V14.0752H170.44L170.521 15.584ZM172.945 14.0239L172.931 15.6646C172.823 15.645 172.706 15.6304 172.579 15.6206C172.457 15.6108 172.335 15.606 172.213 15.606C171.91 15.606 171.644 15.6499 171.414 15.7378C171.185 15.8208 170.992 15.9429 170.836 16.104C170.684 16.2603 170.567 16.4507 170.484 16.6753C170.401 16.8999 170.352 17.1514 170.338 17.4297L169.935 17.459C169.935 16.9609 169.984 16.4995 170.081 16.0747C170.179 15.6499 170.326 15.2764 170.521 14.9541C170.721 14.6318 170.97 14.3804 171.268 14.1997C171.571 14.019 171.92 13.9287 172.315 13.9287C172.423 13.9287 172.537 13.9385 172.66 13.958C172.787 13.9775 172.882 13.9995 172.945 14.0239ZM179.119 20.1323V14.0752H180.892V22H179.222L179.119 20.1323ZM179.368 18.4844L179.962 18.4697C179.962 19.002 179.903 19.4927 179.786 19.9419C179.669 20.3862 179.488 20.7744 179.244 21.1064C179 21.4336 178.687 21.6899 178.306 21.8755C177.925 22.0562 177.469 22.1465 176.937 22.1465C176.551 22.1465 176.197 22.0903 175.875 21.978C175.552 21.8657 175.274 21.6924 175.04 21.458C174.81 21.2236 174.632 20.9185 174.505 20.5425C174.378 20.1665 174.315 19.7173 174.315 19.1948V14.0752H176.08V19.2095C176.08 19.4976 176.114 19.7393 176.182 19.9346C176.251 20.125 176.343 20.2788 176.461 20.396C176.578 20.5132 176.714 20.5962 176.871 20.645C177.027 20.6938 177.193 20.7183 177.369 20.7183C177.872 20.7183 178.267 20.6206 178.555 20.4253C178.848 20.2251 179.056 19.9565 179.178 19.6196C179.305 19.2827 179.368 18.9043 179.368 18.4844ZM184.781 10.75V22H183.008V10.75H184.781ZM189.702 14.0752L186.253 17.8984L184.363 19.832L183.902 18.3379L185.33 16.5728L187.571 14.0752H189.702ZM187.952 22L185.381 18.2793L186.494 17.0415L189.995 22H187.952ZM194.756 14.0752V15.3643H190.288V14.0752H194.756ZM191.577 12.1343H193.342V19.8101C193.342 20.0542 193.376 20.2422 193.445 20.374C193.518 20.501 193.618 20.5864 193.745 20.6304C193.872 20.6743 194.021 20.6963 194.192 20.6963C194.314 20.6963 194.431 20.689 194.543 20.6743C194.656 20.6597 194.746 20.645 194.814 20.6304L194.822 21.978C194.675 22.022 194.504 22.061 194.309 22.0952C194.119 22.1294 193.899 22.1465 193.65 22.1465C193.245 22.1465 192.886 22.0757 192.573 21.9341C192.261 21.7876 192.017 21.5508 191.841 21.2236C191.665 20.8965 191.577 20.4619 191.577 19.9199V12.1343ZM201.186 20.1323V14.0752H202.959V22H201.289L201.186 20.1323ZM201.435 18.4844L202.029 18.4697C202.029 19.002 201.97 19.4927 201.853 19.9419C201.736 20.3862 201.555 20.7744 201.311 21.1064C201.067 21.4336 200.754 21.6899 200.373 21.8755C199.992 22.0562 199.536 22.1465 199.004 22.1465C198.618 22.1465 198.264 22.0903 197.942 21.978C197.619 21.8657 197.341 21.6924 197.107 21.458C196.877 21.2236 196.699 20.9185 196.572 20.5425C196.445 20.1665 196.382 19.7173 196.382 19.1948V14.0752H198.147V19.2095C198.147 19.4976 198.181 19.7393 198.249 19.9346C198.318 20.125 198.41 20.2788 198.528 20.396C198.645 20.5132 198.781 20.5962 198.938 20.645C199.094 20.6938 199.26 20.7183 199.436 20.7183C199.939 20.7183 200.334 20.6206 200.622 20.4253C200.915 20.2251 201.123 19.9565 201.245 19.6196C201.372 19.2827 201.435 18.9043 201.435 18.4844ZM206.84 15.584V22H205.075V14.0752H206.76L206.84 15.584ZM209.265 14.0239L209.25 15.6646C209.142 15.645 209.025 15.6304 208.898 15.6206C208.776 15.6108 208.654 15.606 208.532 15.606C208.229 15.606 207.963 15.6499 207.734 15.7378C207.504 15.8208 207.311 15.9429 207.155 16.104C207.004 16.2603 206.887 16.4507 206.804 16.6753C206.721 16.8999 206.672 17.1514 206.657 17.4297L206.254 17.459C206.254 16.9609 206.303 16.4995 206.401 16.0747C206.498 15.6499 206.645 15.2764 206.84 14.9541C207.04 14.6318 207.289 14.3804 207.587 14.1997C207.89 14.019 208.239 13.9287 208.635 13.9287C208.742 13.9287 208.857 13.9385 208.979 13.958C209.106 13.9775 209.201 13.9995 209.265 14.0239Z" fill="black"/>
<path d="M202 128L216 142L202 156" stroke="black" stroke-width="2.5"/>
<rect x="229" width="110" height="166" rx="1" fill="#8FDE97" fill-opacity="0.6"/>
<path d="M243.694 19.2534C243.694 19.0337 243.66 18.8384 243.592 18.6675C243.528 18.4966 243.414 18.3403 243.248 18.1987C243.082 18.0571 242.847 17.9204 242.544 17.7886C242.247 17.6519 241.866 17.5127 241.402 17.3711C240.894 17.2148 240.425 17.0415 239.996 16.8511C239.571 16.6558 239.2 16.4312 238.882 16.1772C238.565 15.9185 238.318 15.623 238.143 15.291C237.967 14.9541 237.879 14.5659 237.879 14.1265C237.879 13.6919 237.969 13.2964 238.15 12.9399C238.335 12.5835 238.597 12.2759 238.934 12.0171C239.275 11.7534 239.678 11.5508 240.142 11.4092C240.606 11.2627 241.119 11.1895 241.68 11.1895C242.471 11.1895 243.152 11.3359 243.724 11.6289C244.3 11.9219 244.742 12.3149 245.049 12.8081C245.362 13.3013 245.518 13.8457 245.518 14.4414H243.694C243.694 14.0898 243.619 13.7798 243.467 13.5112C243.321 13.2378 243.096 13.0229 242.793 12.8667C242.496 12.7104 242.117 12.6323 241.658 12.6323C241.224 12.6323 240.862 12.6982 240.574 12.8301C240.286 12.9619 240.071 13.1401 239.93 13.3647C239.788 13.5894 239.717 13.8433 239.717 14.1265C239.717 14.3267 239.764 14.5098 239.856 14.6758C239.949 14.8369 240.091 14.9883 240.281 15.1299C240.472 15.2666 240.711 15.396 240.999 15.5181C241.287 15.6401 241.626 15.7573 242.017 15.8696C242.608 16.0454 243.123 16.2407 243.562 16.4556C244.002 16.6655 244.368 16.9048 244.661 17.1733C244.954 17.4419 245.174 17.7471 245.32 18.0889C245.467 18.4258 245.54 18.8091 245.54 19.2388C245.54 19.688 245.45 20.0933 245.269 20.4546C245.088 20.811 244.83 21.1162 244.493 21.3701C244.161 21.6191 243.76 21.812 243.292 21.9487C242.828 22.0806 242.31 22.1465 241.739 22.1465C241.226 22.1465 240.721 22.0781 240.223 21.9414C239.729 21.8047 239.28 21.5972 238.875 21.3188C238.47 21.0356 238.147 20.6841 237.908 20.2642C237.669 19.8394 237.549 19.3438 237.549 18.7773H239.388C239.388 19.124 239.446 19.4194 239.563 19.6636C239.686 19.9077 239.854 20.1079 240.069 20.2642C240.284 20.4155 240.533 20.5278 240.816 20.6011C241.104 20.6743 241.412 20.7109 241.739 20.7109C242.168 20.7109 242.527 20.6499 242.815 20.5278C243.108 20.4058 243.328 20.2349 243.475 20.0151C243.621 19.7954 243.694 19.5415 243.694 19.2534ZM249.18 14.0752V22H247.407V14.0752H249.18ZM247.29 11.9951C247.29 11.7266 247.378 11.5044 247.554 11.3286C247.735 11.1479 247.984 11.0576 248.301 11.0576C248.613 11.0576 248.86 11.1479 249.041 11.3286C249.221 11.5044 249.312 11.7266 249.312 11.9951C249.312 12.2588 249.221 12.4785 249.041 12.6543C248.86 12.8301 248.613 12.918 248.301 12.918C247.984 12.918 247.735 12.8301 247.554 12.6543C247.378 12.4785 247.29 12.2588 247.29 11.9951ZM256.489 14.0752H258.093V21.7803C258.093 22.4932 257.942 23.0986 257.639 23.5967C257.336 24.0947 256.914 24.4731 256.372 24.7319C255.83 24.9956 255.203 25.1274 254.49 25.1274C254.187 25.1274 253.85 25.0835 253.479 24.9956C253.113 24.9077 252.756 24.7661 252.41 24.5708C252.068 24.3804 251.782 24.1289 251.553 23.8164L252.38 22.7764C252.663 23.1133 252.976 23.3599 253.318 23.5161C253.66 23.6724 254.018 23.7505 254.394 23.7505C254.8 23.7505 255.144 23.6748 255.427 23.5234C255.715 23.377 255.937 23.1597 256.094 22.8716C256.25 22.5835 256.328 22.2319 256.328 21.8169V15.8696L256.489 14.0752ZM251.106 18.1255V17.9717C251.106 17.3711 251.179 16.8242 251.326 16.3311C251.472 15.833 251.682 15.4058 251.955 15.0493C252.229 14.688 252.561 14.4121 252.952 14.2217C253.342 14.0264 253.784 13.9287 254.277 13.9287C254.79 13.9287 255.227 14.0215 255.588 14.207C255.954 14.3926 256.26 14.6587 256.504 15.0054C256.748 15.3472 256.938 15.7573 257.075 16.2358C257.217 16.7095 257.322 17.2368 257.39 17.8179V18.3086C257.327 18.875 257.219 19.3926 257.068 19.8613C256.916 20.3301 256.716 20.7354 256.467 21.0771C256.218 21.4189 255.911 21.6826 255.544 21.8682C255.183 22.0537 254.756 22.1465 254.263 22.1465C253.779 22.1465 253.342 22.0464 252.952 21.8462C252.566 21.646 252.234 21.3652 251.955 21.0039C251.682 20.6426 251.472 20.2178 251.326 19.7295C251.179 19.2363 251.106 18.7017 251.106 18.1255ZM252.871 17.9717V18.1255C252.871 18.4868 252.905 18.8237 252.974 19.1362C253.047 19.4487 253.157 19.7246 253.303 19.9639C253.454 20.1982 253.645 20.3838 253.874 20.5205C254.109 20.6523 254.385 20.7183 254.702 20.7183C255.117 20.7183 255.456 20.6304 255.72 20.4546C255.989 20.2788 256.194 20.042 256.335 19.7441C256.482 19.4414 256.584 19.1045 256.643 18.7334V17.4077C256.614 17.1196 256.553 16.8511 256.46 16.6021C256.372 16.353 256.252 16.1357 256.101 15.9502C255.95 15.7598 255.759 15.6133 255.53 15.5107C255.3 15.4033 255.029 15.3496 254.717 15.3496C254.399 15.3496 254.123 15.418 253.889 15.5547C253.655 15.6914 253.462 15.8794 253.31 16.1187C253.164 16.3579 253.054 16.6362 252.981 16.9536C252.908 17.271 252.871 17.6104 252.871 17.9717ZM261.975 15.7671V22H260.21V14.0752H261.872L261.975 15.7671ZM261.66 17.7446L261.088 17.7373C261.093 17.1758 261.171 16.6606 261.323 16.1919C261.479 15.7231 261.694 15.3203 261.967 14.9834C262.246 14.6465 262.578 14.3877 262.963 14.207C263.349 14.0215 263.779 13.9287 264.253 13.9287C264.633 13.9287 264.978 13.9824 265.285 14.0898C265.598 14.1924 265.864 14.3608 266.084 14.5952C266.308 14.8296 266.479 15.1348 266.596 15.5107C266.713 15.8818 266.772 16.3384 266.772 16.8804V22H265V16.873C265 16.4922 264.943 16.1919 264.831 15.9722C264.724 15.7476 264.565 15.5889 264.355 15.4961C264.15 15.3984 263.894 15.3496 263.586 15.3496C263.283 15.3496 263.012 15.4131 262.773 15.54C262.534 15.667 262.331 15.8403 262.165 16.0601C262.004 16.2798 261.879 16.5337 261.792 16.8218C261.704 17.1099 261.66 17.4175 261.66 17.7446ZM273.342 20.4106V16.6313C273.342 16.3481 273.29 16.104 273.188 15.8989C273.085 15.6938 272.929 15.5352 272.719 15.4229C272.514 15.3105 272.255 15.2544 271.943 15.2544C271.655 15.2544 271.406 15.3032 271.196 15.4009C270.986 15.4985 270.822 15.6304 270.705 15.7964C270.588 15.9624 270.529 16.1504 270.529 16.3604H268.771C268.771 16.0479 268.847 15.7451 268.998 15.4521C269.15 15.1592 269.369 14.8979 269.658 14.6685C269.946 14.439 270.29 14.2583 270.69 14.1265C271.091 13.9946 271.54 13.9287 272.038 13.9287C272.634 13.9287 273.161 14.0288 273.62 14.229C274.084 14.4292 274.448 14.7319 274.711 15.1372C274.98 15.5376 275.114 16.0405 275.114 16.646V20.1689C275.114 20.5303 275.138 20.855 275.187 21.1431C275.241 21.4263 275.317 21.6729 275.414 21.8828V22H273.605C273.522 21.8096 273.456 21.5679 273.408 21.2749C273.364 20.9771 273.342 20.689 273.342 20.4106ZM273.598 17.1807L273.613 18.272H272.346C272.018 18.272 271.73 18.3037 271.481 18.3672C271.232 18.4258 271.025 18.5137 270.859 18.6309C270.693 18.748 270.568 18.8896 270.485 19.0557C270.402 19.2217 270.361 19.4097 270.361 19.6196C270.361 19.8296 270.409 20.0225 270.507 20.1982C270.605 20.3691 270.746 20.5034 270.932 20.6011C271.122 20.6987 271.352 20.7476 271.62 20.7476C271.982 20.7476 272.297 20.6743 272.565 20.5278C272.839 20.3765 273.054 20.1934 273.21 19.9785C273.366 19.7588 273.449 19.5513 273.459 19.356L274.03 20.1396C273.971 20.3398 273.871 20.5547 273.73 20.7842C273.588 21.0137 273.403 21.2334 273.173 21.4434C272.949 21.6484 272.678 21.8169 272.36 21.9487C272.048 22.0806 271.686 22.1465 271.276 22.1465C270.759 22.1465 270.297 22.0439 269.892 21.8389C269.487 21.6289 269.169 21.3481 268.94 20.9966C268.71 20.6401 268.596 20.2373 268.596 19.7881C268.596 19.3682 268.674 18.9971 268.83 18.6748C268.991 18.3477 269.225 18.0742 269.533 17.8545C269.846 17.6348 270.226 17.4688 270.676 17.3564C271.125 17.2393 271.638 17.1807 272.214 17.1807H273.598ZM279.149 10.75V22H277.377V10.75H279.149ZM284.935 16.7412V18.1475H281.061V16.7412H284.935ZM240.486 38.6011L242.427 32.0752H244.258L241.504 40H240.362L240.486 38.6011ZM239 32.0752L240.977 38.6304L241.072 40H239.93L237.161 32.0752H239ZM249.041 40.1465C248.455 40.1465 247.925 40.0513 247.451 39.8608C246.983 39.6655 246.582 39.3945 246.25 39.0479C245.923 38.7012 245.672 38.2935 245.496 37.8247C245.32 37.356 245.232 36.8506 245.232 36.3086V36.0156C245.232 35.3955 245.322 34.834 245.503 34.3311C245.684 33.8281 245.935 33.3984 246.258 33.042C246.58 32.6807 246.961 32.4048 247.4 32.2144C247.84 32.0239 248.316 31.9287 248.828 31.9287C249.395 31.9287 249.89 32.0239 250.315 32.2144C250.74 32.4048 251.092 32.6733 251.37 33.02C251.653 33.3618 251.863 33.7695 252 34.2432C252.141 34.7168 252.212 35.2393 252.212 35.8105V36.5649H246.089V35.2979H250.469V35.1587C250.459 34.8413 250.396 34.5435 250.279 34.2651C250.166 33.9868 249.993 33.7622 249.758 33.5913C249.524 33.4204 249.212 33.335 248.821 33.335C248.528 33.335 248.267 33.3984 248.037 33.5254C247.813 33.6475 247.625 33.8257 247.473 34.0601C247.322 34.2944 247.205 34.5776 247.122 34.9097C247.044 35.2368 247.005 35.6055 247.005 36.0156V36.3086C247.005 36.6553 247.051 36.9775 247.144 37.2754C247.241 37.5684 247.383 37.8247 247.569 38.0444C247.754 38.2642 247.979 38.4375 248.242 38.5645C248.506 38.6865 248.806 38.7476 249.143 38.7476C249.568 38.7476 249.946 38.6621 250.279 38.4912C250.611 38.3203 250.899 38.0786 251.143 37.7661L252.073 38.667C251.902 38.916 251.68 39.1553 251.406 39.3848C251.133 39.6094 250.799 39.7925 250.403 39.9341C250.012 40.0757 249.558 40.1465 249.041 40.1465ZM255.662 33.584V40H253.896V32.0752H255.581L255.662 33.584ZM258.086 32.0239L258.071 33.6646C257.964 33.645 257.847 33.6304 257.72 33.6206C257.598 33.6108 257.475 33.606 257.353 33.606C257.051 33.606 256.785 33.6499 256.555 33.7378C256.326 33.8208 256.133 33.9429 255.976 34.104C255.825 34.2603 255.708 34.4507 255.625 34.6753C255.542 34.8999 255.493 35.1514 255.478 35.4297L255.076 35.459C255.076 34.9609 255.124 34.4995 255.222 34.0747C255.32 33.6499 255.466 33.2764 255.662 32.9541C255.862 32.6318 256.111 32.3804 256.409 32.1997C256.711 32.019 257.06 31.9287 257.456 31.9287C257.563 31.9287 257.678 31.9385 257.8 31.958C257.927 31.9775 258.022 31.9995 258.086 32.0239ZM263.696 38.4106V34.6313C263.696 34.3481 263.645 34.104 263.542 33.8989C263.44 33.6938 263.283 33.5352 263.073 33.4229C262.868 33.3105 262.609 33.2544 262.297 33.2544C262.009 33.2544 261.76 33.3032 261.55 33.4009C261.34 33.4985 261.176 33.6304 261.059 33.7964C260.942 33.9624 260.883 34.1504 260.883 34.3604H259.126C259.126 34.0479 259.201 33.7451 259.353 33.4521C259.504 33.1592 259.724 32.8979 260.012 32.6685C260.3 32.439 260.644 32.2583 261.045 32.1265C261.445 31.9946 261.894 31.9287 262.392 31.9287C262.988 31.9287 263.515 32.0288 263.974 32.229C264.438 32.4292 264.802 32.7319 265.066 33.1372C265.334 33.5376 265.468 34.0405 265.468 34.646V38.1689C265.468 38.5303 265.493 38.855 265.542 39.1431C265.595 39.4263 265.671 39.6729 265.769 39.8828V40H263.96C263.877 39.8096 263.811 39.5679 263.762 39.2749C263.718 38.9771 263.696 38.689 263.696 38.4106ZM263.952 35.1807L263.967 36.272H262.7C262.373 36.272 262.085 36.3037 261.836 36.3672C261.587 36.4258 261.379 36.5137 261.213 36.6309C261.047 36.748 260.922 36.8896 260.839 37.0557C260.756 37.2217 260.715 37.4097 260.715 37.6196C260.715 37.8296 260.764 38.0225 260.861 38.1982C260.959 38.3691 261.101 38.5034 261.286 38.6011C261.477 38.6987 261.706 38.7476 261.975 38.7476C262.336 38.7476 262.651 38.6743 262.92 38.5278C263.193 38.3765 263.408 38.1934 263.564 37.9785C263.72 37.7588 263.803 37.5513 263.813 37.356L264.384 38.1396C264.326 38.3398 264.226 38.5547 264.084 38.7842C263.942 39.0137 263.757 39.2334 263.527 39.4434C263.303 39.6484 263.032 39.8169 262.714 39.9487C262.402 40.0806 262.041 40.1465 261.63 40.1465C261.113 40.1465 260.651 40.0439 260.246 39.8389C259.841 39.6289 259.524 39.3481 259.294 38.9966C259.065 38.6401 258.95 38.2373 258.95 37.7881C258.95 37.3682 259.028 36.9971 259.184 36.6748C259.345 36.3477 259.58 36.0742 259.887 35.8545C260.2 35.6348 260.581 35.4688 261.03 35.3564C261.479 35.2393 261.992 35.1807 262.568 35.1807H263.952ZM269.387 33.584V40H267.621V32.0752H269.306L269.387 33.584ZM271.811 32.0239L271.796 33.6646C271.689 33.645 271.572 33.6304 271.445 33.6206C271.323 33.6108 271.2 33.606 271.078 33.606C270.776 33.606 270.51 33.6499 270.28 33.7378C270.051 33.8208 269.858 33.9429 269.701 34.104C269.55 34.2603 269.433 34.4507 269.35 34.6753C269.267 34.8999 269.218 35.1514 269.203 35.4297L268.801 35.459C268.801 34.9609 268.849 34.4995 268.947 34.0747C269.045 33.6499 269.191 33.2764 269.387 32.9541C269.587 32.6318 269.836 32.3804 270.134 32.1997C270.436 32.019 270.785 31.9287 271.181 31.9287C271.288 31.9287 271.403 31.9385 271.525 31.958C271.652 31.9775 271.747 31.9995 271.811 32.0239ZM273.224 28.75H274.989V38.3081L274.821 40H273.224V28.75ZM280.16 35.9644V36.1182C280.16 36.7041 280.094 37.2437 279.962 37.7368C279.835 38.2251 279.64 38.6499 279.376 39.0112C279.118 39.3726 278.795 39.6533 278.41 39.8535C278.029 40.0488 277.587 40.1465 277.084 40.1465C276.591 40.1465 276.161 40.0537 275.795 39.8682C275.429 39.6826 275.121 39.4189 274.872 39.0771C274.628 38.7354 274.43 38.3276 274.279 37.854C274.127 37.3804 274.02 36.8579 273.957 36.2866V35.7959C274.02 35.2197 274.127 34.6973 274.279 34.2285C274.43 33.7549 274.628 33.3472 274.872 33.0054C275.121 32.6587 275.426 32.3926 275.788 32.207C276.154 32.0215 276.581 31.9287 277.069 31.9287C277.577 31.9287 278.024 32.0264 278.41 32.2217C278.8 32.417 279.125 32.6953 279.384 33.0566C279.643 33.4131 279.835 33.8379 279.962 34.3311C280.094 34.8242 280.16 35.3687 280.16 35.9644ZM278.395 36.1182V35.9644C278.395 35.6079 278.366 35.2734 278.307 34.9609C278.249 34.6436 278.151 34.3652 278.014 34.126C277.882 33.8867 277.702 33.6987 277.472 33.562C277.248 33.4204 276.967 33.3496 276.63 33.3496C276.317 33.3496 276.049 33.4033 275.824 33.5107C275.6 33.6182 275.412 33.7646 275.26 33.9502C275.109 34.1357 274.989 34.3506 274.901 34.5947C274.818 34.8389 274.762 35.1025 274.733 35.3857V36.7114C274.777 37.0776 274.87 37.4146 275.011 37.7222C275.158 38.0249 275.363 38.269 275.626 38.4546C275.89 38.6353 276.229 38.7256 276.645 38.7256C276.972 38.7256 277.248 38.6597 277.472 38.5278C277.697 38.396 277.875 38.2129 278.007 37.9785C278.144 37.7393 278.241 37.4609 278.3 37.1436C278.363 36.8262 278.395 36.4844 278.395 36.1182ZM285.448 40.1465C284.862 40.1465 284.332 40.0513 283.859 39.8608C283.39 39.6655 282.989 39.3945 282.657 39.0479C282.33 38.7012 282.079 38.2935 281.903 37.8247C281.727 37.356 281.639 36.8506 281.639 36.3086V36.0156C281.639 35.3955 281.73 34.834 281.91 34.3311C282.091 33.8281 282.342 33.3984 282.665 33.042C282.987 32.6807 283.368 32.4048 283.807 32.2144C284.247 32.0239 284.723 31.9287 285.236 31.9287C285.802 31.9287 286.298 32.0239 286.722 32.2144C287.147 32.4048 287.499 32.6733 287.777 33.02C288.06 33.3618 288.27 33.7695 288.407 34.2432C288.549 34.7168 288.619 35.2393 288.619 35.8105V36.5649H282.496V35.2979H286.876V35.1587C286.866 34.8413 286.803 34.5435 286.686 34.2651C286.573 33.9868 286.4 33.7622 286.166 33.5913C285.931 33.4204 285.619 33.335 285.228 33.335C284.935 33.335 284.674 33.3984 284.445 33.5254C284.22 33.6475 284.032 33.8257 283.881 34.0601C283.729 34.2944 283.612 34.5776 283.529 34.9097C283.451 35.2368 283.412 35.6055 283.412 36.0156V36.3086C283.412 36.6553 283.458 36.9775 283.551 37.2754C283.649 37.5684 283.79 37.8247 283.976 38.0444C284.161 38.2642 284.386 38.4375 284.65 38.5645C284.913 38.6865 285.214 38.7476 285.55 38.7476C285.975 38.7476 286.354 38.6621 286.686 38.4912C287.018 38.3203 287.306 38.0786 287.55 37.7661L288.48 38.667C288.309 38.916 288.087 39.1553 287.814 39.3848C287.54 39.6094 287.206 39.7925 286.81 39.9341C286.42 40.0757 285.966 40.1465 285.448 40.1465ZM292.186 32.0752V40H290.413V32.0752H292.186ZM290.296 29.9951C290.296 29.7266 290.384 29.5044 290.56 29.3286C290.741 29.1479 290.99 29.0576 291.307 29.0576C291.62 29.0576 291.866 29.1479 292.047 29.3286C292.227 29.5044 292.318 29.7266 292.318 29.9951C292.318 30.2588 292.227 30.4785 292.047 30.6543C291.866 30.8301 291.62 30.918 291.307 30.918C290.99 30.918 290.741 30.8301 290.56 30.6543C290.384 30.4785 290.296 30.2588 290.296 29.9951ZM298.052 32.0752V33.3643H293.585V32.0752H298.052ZM294.874 30.1343H296.639V37.8101C296.639 38.0542 296.673 38.2422 296.741 38.374C296.815 38.501 296.915 38.5864 297.042 38.6304C297.169 38.6743 297.317 38.6963 297.488 38.6963C297.61 38.6963 297.728 38.689 297.84 38.6743C297.952 38.6597 298.043 38.645 298.111 38.6304L298.118 39.978C297.972 40.022 297.801 40.061 297.606 40.0952C297.415 40.1294 297.195 40.1465 296.946 40.1465C296.541 40.1465 296.182 40.0757 295.87 39.9341C295.557 39.7876 295.313 39.5508 295.137 39.2236C294.962 38.8965 294.874 38.4619 294.874 37.9199V30.1343ZM304.483 38.1323V32.0752H306.255V40H304.585L304.483 38.1323ZM304.732 36.4844L305.325 36.4697C305.325 37.002 305.266 37.4927 305.149 37.9419C305.032 38.3862 304.851 38.7744 304.607 39.1064C304.363 39.4336 304.051 39.6899 303.67 39.8755C303.289 40.0562 302.832 40.1465 302.3 40.1465C301.914 40.1465 301.56 40.0903 301.238 39.978C300.916 39.8657 300.638 39.6924 300.403 39.458C300.174 39.2236 299.995 38.9185 299.868 38.5425C299.742 38.1665 299.678 37.7173 299.678 37.1948V32.0752H301.443V37.2095C301.443 37.4976 301.477 37.7393 301.546 37.9346C301.614 38.125 301.707 38.2788 301.824 38.396C301.941 38.5132 302.078 38.5962 302.234 38.645C302.39 38.6938 302.556 38.7183 302.732 38.7183C303.235 38.7183 303.631 38.6206 303.919 38.4253C304.212 38.2251 304.419 37.9565 304.541 37.6196C304.668 37.2827 304.732 36.9043 304.732 36.4844ZM310.115 33.7671V40H308.35V32.0752H310.012L310.115 33.7671ZM309.8 35.7446L309.229 35.7373C309.233 35.1758 309.312 34.6606 309.463 34.1919C309.619 33.7231 309.834 33.3203 310.107 32.9834C310.386 32.6465 310.718 32.3877 311.104 32.207C311.489 32.0215 311.919 31.9287 312.393 31.9287C312.773 31.9287 313.118 31.9824 313.425 32.0898C313.738 32.1924 314.004 32.3608 314.224 32.5952C314.448 32.8296 314.619 33.1348 314.736 33.5107C314.854 33.8818 314.912 34.3384 314.912 34.8804V40H313.14V34.873C313.14 34.4922 313.083 34.1919 312.971 33.9722C312.864 33.7476 312.705 33.5889 312.495 33.4961C312.29 33.3984 312.034 33.3496 311.726 33.3496C311.423 33.3496 311.152 33.4131 310.913 33.54C310.674 33.667 310.471 33.8403 310.305 34.0601C310.144 34.2798 310.02 34.5337 309.932 34.8218C309.844 35.1099 309.8 35.4175 309.8 35.7446ZM322.09 32.0752H323.694V39.7803C323.694 40.4932 323.542 41.0986 323.239 41.5967C322.937 42.0947 322.514 42.4731 321.972 42.7319C321.43 42.9956 320.803 43.1274 320.09 43.1274C319.787 43.1274 319.45 43.0835 319.079 42.9956C318.713 42.9077 318.357 42.7661 318.01 42.5708C317.668 42.3804 317.383 42.1289 317.153 41.8164L317.981 40.7764C318.264 41.1133 318.576 41.3599 318.918 41.5161C319.26 41.6724 319.619 41.7505 319.995 41.7505C320.4 41.7505 320.744 41.6748 321.028 41.5234C321.316 41.377 321.538 41.1597 321.694 40.8716C321.85 40.5835 321.928 40.2319 321.928 39.8169V33.8696L322.09 32.0752ZM316.706 36.1255V35.9717C316.706 35.3711 316.779 34.8242 316.926 34.3311C317.072 33.833 317.282 33.4058 317.556 33.0493C317.829 32.688 318.161 32.4121 318.552 32.2217C318.943 32.0264 319.384 31.9287 319.878 31.9287C320.39 31.9287 320.827 32.0215 321.189 32.207C321.555 32.3926 321.86 32.6587 322.104 33.0054C322.348 33.3472 322.539 33.7573 322.675 34.2358C322.817 34.7095 322.922 35.2368 322.99 35.8179V36.3086C322.927 36.875 322.82 37.3926 322.668 37.8613C322.517 38.3301 322.317 38.7354 322.068 39.0771C321.819 39.4189 321.511 39.6826 321.145 39.8682C320.783 40.0537 320.356 40.1465 319.863 40.1465C319.38 40.1465 318.943 40.0464 318.552 39.8462C318.166 39.646 317.834 39.3652 317.556 39.0039C317.282 38.6426 317.072 38.2178 316.926 37.7295C316.779 37.2363 316.706 36.7017 316.706 36.1255ZM318.471 35.9717V36.1255C318.471 36.4868 318.506 36.8237 318.574 37.1362C318.647 37.4487 318.757 37.7246 318.904 37.9639C319.055 38.1982 319.245 38.3838 319.475 38.5205C319.709 38.6523 319.985 38.7183 320.302 38.7183C320.717 38.7183 321.057 38.6304 321.321 38.4546C321.589 38.2788 321.794 38.042 321.936 37.7441C322.082 37.4414 322.185 37.1045 322.243 36.7334V35.4077C322.214 35.1196 322.153 34.8511 322.06 34.6021C321.972 34.353 321.853 34.1357 321.701 33.9502C321.55 33.7598 321.36 33.6133 321.13 33.5107C320.901 33.4033 320.63 33.3496 320.317 33.3496C320 33.3496 319.724 33.418 319.489 33.5547C319.255 33.6914 319.062 33.8794 318.911 34.1187C318.764 34.3579 318.654 34.6362 318.581 34.9536C318.508 35.271 318.471 35.6104 318.471 35.9717Z" fill="black"/>
<path d="M317 128L331 142L317 156" stroke="black" stroke-width="2.5"/>
<rect x="459" width="110" height="166" rx="1" fill="#8FDE97"/>
<path d="M472.237 12.7568L469.051 22H467.125L471.138 11.3359H472.369L472.237 12.7568ZM474.903 22L471.709 12.7568L471.57 11.3359H472.808L476.836 22H474.903ZM474.749 18.0449V19.5024H468.948V18.0449H474.749ZM479.934 10.75V22H478.162V10.75H479.934ZM484.856 14.0752L481.406 17.8984L479.517 19.832L479.055 18.3379L480.484 16.5728L482.725 14.0752H484.856ZM483.106 22L480.535 18.2793L481.648 17.0415L485.149 22H483.106ZM489.91 14.0752V15.3643H485.442V14.0752H489.91ZM486.731 12.1343H488.496V19.8101C488.496 20.0542 488.53 20.2422 488.599 20.374C488.672 20.501 488.772 20.5864 488.899 20.6304C489.026 20.6743 489.175 20.6963 489.346 20.6963C489.468 20.6963 489.585 20.689 489.697 20.6743C489.809 20.6597 489.9 20.645 489.968 20.6304L489.975 21.978C489.829 22.022 489.658 22.061 489.463 22.0952C489.272 22.1294 489.053 22.1465 488.804 22.1465C488.398 22.1465 488.039 22.0757 487.727 21.9341C487.414 21.7876 487.17 21.5508 486.995 21.2236C486.819 20.8965 486.731 20.4619 486.731 19.9199V12.1343ZM496.34 20.1323V14.0752H498.112V22H496.442L496.34 20.1323ZM496.589 18.4844L497.182 18.4697C497.182 19.002 497.124 19.4927 497.006 19.9419C496.889 20.3862 496.709 20.7744 496.464 21.1064C496.22 21.4336 495.908 21.6899 495.527 21.8755C495.146 22.0562 494.69 22.1465 494.157 22.1465C493.772 22.1465 493.418 22.0903 493.095 21.978C492.773 21.8657 492.495 21.6924 492.26 21.458C492.031 21.2236 491.853 20.9185 491.726 20.5425C491.599 20.1665 491.535 19.7173 491.535 19.1948V14.0752H493.3V19.2095C493.3 19.4976 493.335 19.7393 493.403 19.9346C493.471 20.125 493.564 20.2788 493.681 20.396C493.798 20.5132 493.935 20.5962 494.091 20.645C494.248 20.6938 494.414 20.7183 494.589 20.7183C495.092 20.7183 495.488 20.6206 495.776 20.4253C496.069 20.2251 496.276 19.9565 496.399 19.6196C496.525 19.2827 496.589 18.9043 496.589 18.4844ZM504.689 20.4106V16.6313C504.689 16.3481 504.638 16.104 504.535 15.8989C504.433 15.6938 504.277 15.5352 504.067 15.4229C503.862 15.3105 503.603 15.2544 503.29 15.2544C503.002 15.2544 502.753 15.3032 502.543 15.4009C502.333 15.4985 502.17 15.6304 502.053 15.7964C501.935 15.9624 501.877 16.1504 501.877 16.3604H500.119C500.119 16.0479 500.195 15.7451 500.346 15.4521C500.497 15.1592 500.717 14.8979 501.005 14.6685C501.293 14.439 501.638 14.2583 502.038 14.1265C502.438 13.9946 502.888 13.9287 503.386 13.9287C503.981 13.9287 504.509 14.0288 504.968 14.229C505.431 14.4292 505.795 14.7319 506.059 15.1372C506.327 15.5376 506.462 16.0405 506.462 16.646V20.1689C506.462 20.5303 506.486 20.855 506.535 21.1431C506.589 21.4263 506.664 21.6729 506.762 21.8828V22H504.953C504.87 21.8096 504.804 21.5679 504.755 21.2749C504.711 20.9771 504.689 20.689 504.689 20.4106ZM504.946 17.1807L504.96 18.272H503.693C503.366 18.272 503.078 18.3037 502.829 18.3672C502.58 18.4258 502.372 18.5137 502.206 18.6309C502.04 18.748 501.916 18.8896 501.833 19.0557C501.75 19.2217 501.708 19.4097 501.708 19.6196C501.708 19.8296 501.757 20.0225 501.855 20.1982C501.952 20.3691 502.094 20.5034 502.28 20.6011C502.47 20.6987 502.7 20.7476 502.968 20.7476C503.329 20.7476 503.644 20.6743 503.913 20.5278C504.186 20.3765 504.401 20.1934 504.557 19.9785C504.714 19.7588 504.797 19.5513 504.806 19.356L505.378 20.1396C505.319 20.3398 505.219 20.5547 505.077 20.7842C504.936 21.0137 504.75 21.2334 504.521 21.4434C504.296 21.6484 504.025 21.8169 503.708 21.9487C503.395 22.0806 503.034 22.1465 502.624 22.1465C502.106 22.1465 501.645 22.0439 501.24 21.8389C500.834 21.6289 500.517 21.3481 500.287 20.9966C500.058 20.6401 499.943 20.2373 499.943 19.7881C499.943 19.3682 500.021 18.9971 500.178 18.6748C500.339 18.3477 500.573 18.0742 500.881 17.8545C501.193 17.6348 501.574 17.4688 502.023 17.3564C502.472 17.2393 502.985 17.1807 503.561 17.1807H504.946ZM512.24 14.0752V15.3643H507.772V14.0752H512.24ZM509.062 12.1343H510.827V19.8101C510.827 20.0542 510.861 20.2422 510.929 20.374C511.002 20.501 511.103 20.5864 511.229 20.6304C511.356 20.6743 511.505 20.6963 511.676 20.6963C511.798 20.6963 511.916 20.689 512.028 20.6743C512.14 20.6597 512.23 20.645 512.299 20.6304L512.306 21.978C512.16 22.022 511.989 22.061 511.793 22.0952C511.603 22.1294 511.383 22.1465 511.134 22.1465C510.729 22.1465 510.37 22.0757 510.058 21.9341C509.745 21.7876 509.501 21.5508 509.325 21.2236C509.149 20.8965 509.062 20.4619 509.062 19.9199V12.1343ZM513.39 18.1255V17.957C513.39 17.3857 513.473 16.856 513.639 16.3677C513.805 15.8745 514.044 15.4473 514.357 15.0859C514.674 14.7197 515.06 14.4365 515.514 14.2363C515.973 14.0312 516.49 13.9287 517.067 13.9287C517.648 13.9287 518.165 14.0312 518.619 14.2363C519.078 14.4365 519.467 14.7197 519.784 15.0859C520.101 15.4473 520.343 15.8745 520.509 16.3677C520.675 16.856 520.758 17.3857 520.758 17.957V18.1255C520.758 18.6968 520.675 19.2266 520.509 19.7148C520.343 20.2031 520.101 20.6304 519.784 20.9966C519.467 21.3579 519.081 21.6411 518.627 21.8462C518.173 22.0464 517.657 22.1465 517.081 22.1465C516.5 22.1465 515.98 22.0464 515.521 21.8462C515.067 21.6411 514.681 21.3579 514.364 20.9966C514.047 20.6304 513.805 20.2031 513.639 19.7148C513.473 19.2266 513.39 18.6968 513.39 18.1255ZM515.155 17.957V18.1255C515.155 18.4819 515.192 18.8188 515.265 19.1362C515.338 19.4536 515.453 19.7319 515.609 19.9712C515.765 20.2104 515.966 20.3984 516.21 20.5352C516.454 20.6719 516.744 20.7402 517.081 20.7402C517.408 20.7402 517.692 20.6719 517.931 20.5352C518.175 20.3984 518.375 20.2104 518.531 19.9712C518.688 19.7319 518.802 19.4536 518.876 19.1362C518.954 18.8188 518.993 18.4819 518.993 18.1255V17.957C518.993 17.6055 518.954 17.2734 518.876 16.9609C518.802 16.6436 518.685 16.3628 518.524 16.1187C518.368 15.8745 518.168 15.6841 517.924 15.5474C517.684 15.4058 517.399 15.335 517.067 15.335C516.735 15.335 516.446 15.4058 516.202 15.5474C515.963 15.6841 515.765 15.8745 515.609 16.1187C515.453 16.3628 515.338 16.6436 515.265 16.9609C515.192 17.2734 515.155 17.6055 515.155 17.957ZM524.31 15.584V22H522.545V14.0752H524.229L524.31 15.584ZM526.734 14.0239L526.72 15.6646C526.612 15.645 526.495 15.6304 526.368 15.6206C526.246 15.6108 526.124 15.606 526.002 15.606C525.699 15.606 525.433 15.6499 525.204 15.7378C524.974 15.8208 524.781 15.9429 524.625 16.104C524.474 16.2603 524.356 16.4507 524.273 16.6753C524.19 16.8999 524.142 17.1514 524.127 17.4297L523.724 17.459C523.724 16.9609 523.773 16.4995 523.871 16.0747C523.968 15.6499 524.115 15.2764 524.31 14.9541C524.51 14.6318 524.759 14.3804 525.057 14.1997C525.36 14.019 525.709 13.9287 526.104 13.9287C526.212 13.9287 526.327 13.9385 526.449 13.958C526.576 13.9775 526.671 13.9995 526.734 14.0239ZM531.487 22.1465C530.901 22.1465 530.372 22.0513 529.898 21.8608C529.429 21.6655 529.029 21.3945 528.697 21.0479C528.37 20.7012 528.118 20.2935 527.942 19.8247C527.767 19.356 527.679 18.8506 527.679 18.3086V18.0156C527.679 17.3955 527.769 16.834 527.95 16.3311C528.13 15.8281 528.382 15.3984 528.704 15.042C529.026 14.6807 529.407 14.4048 529.847 14.2144C530.286 14.0239 530.762 13.9287 531.275 13.9287C531.841 13.9287 532.337 14.0239 532.762 14.2144C533.187 14.4048 533.538 14.6733 533.817 15.02C534.1 15.3618 534.31 15.7695 534.446 16.2432C534.588 16.7168 534.659 17.2393 534.659 17.8105V18.5649H528.536V17.2979H532.916V17.1587C532.906 16.8413 532.842 16.5435 532.725 16.2651C532.613 15.9868 532.44 15.7622 532.205 15.5913C531.971 15.4204 531.658 15.335 531.268 15.335C530.975 15.335 530.713 15.3984 530.484 15.5254C530.259 15.6475 530.071 15.8257 529.92 16.0601C529.769 16.2944 529.651 16.5776 529.568 16.9097C529.49 17.2368 529.451 17.6055 529.451 18.0156V18.3086C529.451 18.6553 529.498 18.9775 529.59 19.2754C529.688 19.5684 529.83 19.8247 530.015 20.0444C530.201 20.2642 530.425 20.4375 530.689 20.5645C530.953 20.6865 531.253 20.7476 531.59 20.7476C532.015 20.7476 532.393 20.6621 532.725 20.4912C533.057 20.3203 533.345 20.0786 533.589 19.7661L534.52 20.667C534.349 20.916 534.127 21.1553 533.853 21.3848C533.58 21.6094 533.245 21.7925 532.85 21.9341C532.459 22.0757 532.005 22.1465 531.487 22.1465ZM538.086 15.7671V22H536.321V14.0752H537.984L538.086 15.7671ZM537.771 17.7446L537.2 17.7373C537.205 17.1758 537.283 16.6606 537.434 16.1919C537.591 15.7231 537.805 15.3203 538.079 14.9834C538.357 14.6465 538.689 14.3877 539.075 14.207C539.461 14.0215 539.89 13.9287 540.364 13.9287C540.745 13.9287 541.089 13.9824 541.397 14.0898C541.709 14.1924 541.975 14.3608 542.195 14.5952C542.42 14.8296 542.591 15.1348 542.708 15.5107C542.825 15.8818 542.884 16.3384 542.884 16.8804V22H541.111V16.873C541.111 16.4922 541.055 16.1919 540.943 15.9722C540.835 15.7476 540.677 15.5889 540.467 15.4961C540.262 15.3984 540.005 15.3496 539.698 15.3496C539.395 15.3496 539.124 15.4131 538.885 15.54C538.645 15.667 538.443 15.8403 538.277 16.0601C538.116 16.2798 537.991 16.5337 537.903 16.8218C537.815 17.1099 537.771 17.4175 537.771 17.7446ZM550.844 16.1992L552.683 14.9614C552.99 14.7563 553.21 14.5562 553.342 14.3608C553.474 14.1606 553.54 13.9116 553.54 13.6138C553.54 13.3599 553.442 13.1255 553.247 12.9106C553.051 12.6958 552.776 12.5884 552.419 12.5884C552.17 12.5884 551.96 12.647 551.789 12.7642C551.618 12.8765 551.489 13.0278 551.401 13.2183C551.318 13.4038 551.277 13.6113 551.277 13.8408C551.277 14.0605 551.333 14.2876 551.445 14.522C551.557 14.7515 551.711 14.9932 551.906 15.2471C552.102 15.4961 552.321 15.7646 552.566 16.0527L557.605 22H555.561L551.445 17.1587C551.089 16.729 550.774 16.3359 550.5 15.9795C550.227 15.6182 550.014 15.269 549.863 14.9321C549.712 14.5903 549.636 14.2388 549.636 13.8774C549.636 13.3208 549.751 12.8423 549.98 12.4419C550.21 12.0415 550.534 11.7339 550.954 11.519C551.374 11.2993 551.865 11.1895 552.426 11.1895C552.968 11.1895 553.435 11.2993 553.825 11.519C554.221 11.7339 554.524 12.0195 554.734 12.376C554.948 12.7324 555.056 13.123 555.056 13.5479C555.056 13.8848 554.995 14.1924 554.873 14.4707C554.751 14.749 554.582 15.0029 554.367 15.2324C554.153 15.4619 553.904 15.6792 553.62 15.8843L551.386 17.5103C551.128 17.7202 550.935 17.9229 550.808 18.1182C550.686 18.3086 550.605 18.4844 550.566 18.6455C550.527 18.8066 550.508 18.9482 550.508 19.0703C550.508 19.3828 550.573 19.666 550.705 19.9199C550.842 20.1738 551.04 20.3765 551.299 20.5278C551.562 20.6743 551.882 20.7476 552.258 20.7476C552.663 20.7476 553.056 20.6572 553.437 20.4766C553.818 20.291 554.16 20.0298 554.463 19.6929C554.765 19.356 555.005 18.9531 555.18 18.4844C555.361 18.0156 555.451 17.4956 555.451 16.9243H556.975C556.975 17.4419 556.924 17.9326 556.821 18.3965C556.723 18.8604 556.565 19.29 556.345 19.6855C556.13 20.0811 555.847 20.4351 555.495 20.7476C555.461 20.7817 555.422 20.8257 555.378 20.8794C555.339 20.9282 555.3 20.9697 555.261 21.0039C554.841 21.3896 554.37 21.6777 553.847 21.8682C553.33 22.0537 552.778 22.1465 552.192 22.1465C551.484 22.1465 550.871 22.0171 550.354 21.7583C549.836 21.4995 549.436 21.1431 549.153 20.689C548.874 20.2349 548.735 19.7148 548.735 19.1289C548.735 18.6943 548.825 18.3135 549.006 17.9863C549.187 17.6543 549.433 17.3467 549.746 17.0635C550.063 16.7754 550.429 16.4873 550.844 16.1992ZM476.543 29.3359V40H474.705L469.922 32.3608V40H468.084V29.3359H469.922L474.72 36.9897V29.3359H476.543ZM483.626 38.1323V32.0752H485.398V40H483.728L483.626 38.1323ZM483.875 36.4844L484.468 36.4697C484.468 37.002 484.409 37.4927 484.292 37.9419C484.175 38.3862 483.994 38.7744 483.75 39.1064C483.506 39.4336 483.194 39.6899 482.813 39.8755C482.432 40.0562 481.975 40.1465 481.443 40.1465C481.057 40.1465 480.703 40.0903 480.381 39.978C480.059 39.8657 479.78 39.6924 479.546 39.458C479.317 39.2236 479.138 38.9185 479.011 38.5425C478.884 38.1665 478.821 37.7173 478.821 37.1948V32.0752H480.586V37.2095C480.586 37.4976 480.62 37.7393 480.689 37.9346C480.757 38.125 480.85 38.2788 480.967 38.396C481.084 38.5132 481.221 38.5962 481.377 38.645C481.533 38.6938 481.699 38.7183 481.875 38.7183C482.378 38.7183 482.774 38.6206 483.062 38.4253C483.355 38.2251 483.562 37.9565 483.684 37.6196C483.811 37.2827 483.875 36.9043 483.875 36.4844ZM491.14 32.0752V33.3643H486.672V32.0752H491.14ZM487.961 30.1343H489.726V37.8101C489.726 38.0542 489.761 38.2422 489.829 38.374C489.902 38.501 490.002 38.5864 490.129 38.6304C490.256 38.6743 490.405 38.6963 490.576 38.6963C490.698 38.6963 490.815 38.689 490.928 38.6743C491.04 38.6597 491.13 38.645 491.199 38.6304L491.206 39.978C491.059 40.022 490.889 40.061 490.693 40.0952C490.503 40.1294 490.283 40.1465 490.034 40.1465C489.629 40.1465 489.27 40.0757 488.957 39.9341C488.645 39.7876 488.401 39.5508 488.225 39.2236C488.049 38.8965 487.961 38.4619 487.961 37.9199V30.1343ZM498.933 38.5938V40H493.029V38.5938H498.933ZM498.772 33.1738L493.63 40H492.487V38.8647L497.6 32.0752H498.772V33.1738ZM498.09 32.0752V33.4814H492.575V32.0752H498.09ZM505.414 38.1323V32.0752H507.187V40H505.517L505.414 38.1323ZM505.663 36.4844L506.257 36.4697C506.257 37.002 506.198 37.4927 506.081 37.9419C505.964 38.3862 505.783 38.7744 505.539 39.1064C505.295 39.4336 504.982 39.6899 504.601 39.8755C504.221 40.0562 503.764 40.1465 503.232 40.1465C502.846 40.1465 502.492 40.0903 502.17 39.978C501.847 39.8657 501.569 39.6924 501.335 39.458C501.105 39.2236 500.927 38.9185 500.8 38.5425C500.673 38.1665 500.61 37.7173 500.61 37.1948V32.0752H502.375V37.2095C502.375 37.4976 502.409 37.7393 502.477 37.9346C502.546 38.125 502.638 38.2788 502.756 38.396C502.873 38.5132 503.01 38.5962 503.166 38.645C503.322 38.6938 503.488 38.7183 503.664 38.7183C504.167 38.7183 504.562 38.6206 504.85 38.4253C505.143 38.2251 505.351 37.9565 505.473 37.6196C505.6 37.2827 505.663 36.9043 505.663 36.4844ZM511.046 33.7671V40H509.281V32.0752H510.944L511.046 33.7671ZM510.731 35.7446L510.16 35.7373C510.165 35.1758 510.243 34.6606 510.395 34.1919C510.551 33.7231 510.766 33.3203 511.039 32.9834C511.317 32.6465 511.649 32.3877 512.035 32.207C512.421 32.0215 512.851 31.9287 513.324 31.9287C513.705 31.9287 514.049 31.9824 514.357 32.0898C514.669 32.1924 514.936 32.3608 515.155 32.5952C515.38 32.8296 515.551 33.1348 515.668 33.5107C515.785 33.8818 515.844 34.3384 515.844 34.8804V40H514.071V34.873C514.071 34.4922 514.015 34.1919 513.903 33.9722C513.795 33.7476 513.637 33.5889 513.427 33.4961C513.222 33.3984 512.965 33.3496 512.658 33.3496C512.355 33.3496 512.084 33.4131 511.845 33.54C511.605 33.667 511.403 33.8403 511.237 34.0601C511.076 34.2798 510.951 34.5337 510.863 34.8218C510.775 35.1099 510.731 35.4175 510.731 35.7446ZM523.021 32.0752H524.625V39.7803C524.625 40.4932 524.474 41.0986 524.171 41.5967C523.868 42.0947 523.446 42.4731 522.904 42.7319C522.362 42.9956 521.735 43.1274 521.022 43.1274C520.719 43.1274 520.382 43.0835 520.011 42.9956C519.645 42.9077 519.288 42.7661 518.942 42.5708C518.6 42.3804 518.314 42.1289 518.085 41.8164L518.912 40.7764C519.196 41.1133 519.508 41.3599 519.85 41.5161C520.192 41.6724 520.55 41.7505 520.926 41.7505C521.332 41.7505 521.676 41.6748 521.959 41.5234C522.247 41.377 522.469 41.1597 522.626 40.8716C522.782 40.5835 522.86 40.2319 522.86 39.8169V33.8696L523.021 32.0752ZM517.638 36.1255V35.9717C517.638 35.3711 517.711 34.8242 517.858 34.3311C518.004 33.833 518.214 33.4058 518.487 33.0493C518.761 32.688 519.093 32.4121 519.484 32.2217C519.874 32.0264 520.316 31.9287 520.809 31.9287C521.322 31.9287 521.759 32.0215 522.12 32.207C522.487 32.3926 522.792 32.6587 523.036 33.0054C523.28 33.3472 523.47 33.7573 523.607 34.2358C523.749 34.7095 523.854 35.2368 523.922 35.8179V36.3086C523.859 36.875 523.751 37.3926 523.6 37.8613C523.448 38.3301 523.248 38.7354 522.999 39.0771C522.75 39.4189 522.443 39.6826 522.076 39.8682C521.715 40.0537 521.288 40.1465 520.795 40.1465C520.311 40.1465 519.874 40.0464 519.484 39.8462C519.098 39.646 518.766 39.3652 518.487 39.0039C518.214 38.6426 518.004 38.2178 517.858 37.7295C517.711 37.2363 517.638 36.7017 517.638 36.1255ZM519.403 35.9717V36.1255C519.403 36.4868 519.437 36.8237 519.506 37.1362C519.579 37.4487 519.689 37.7246 519.835 37.9639C519.987 38.1982 520.177 38.3838 520.406 38.5205C520.641 38.6523 520.917 38.7183 521.234 38.7183C521.649 38.7183 521.988 38.6304 522.252 38.4546C522.521 38.2788 522.726 38.042 522.867 37.7441C523.014 37.4414 523.116 37.1045 523.175 36.7334V35.4077C523.146 35.1196 523.085 34.8511 522.992 34.6021C522.904 34.353 522.784 34.1357 522.633 33.9502C522.482 33.7598 522.291 33.6133 522.062 33.5107C521.832 33.4033 521.561 33.3496 521.249 33.3496C520.931 33.3496 520.655 33.418 520.421 33.5547C520.187 33.6914 519.994 33.8794 519.842 34.1187C519.696 34.3579 519.586 34.6362 519.513 34.9536C519.44 35.271 519.403 35.6104 519.403 35.9717Z" fill="black"/>
<path d="M547 128L561 142L547 156" stroke="black" stroke-width="2.5"/>
</svg>
