<svg width="30" height="30" viewBox="0 0 30 30" fill="none" xmlns="http://www.w3.org/2000/svg">
<path d="M15 27C21.6274 27 27 21.6274 27 15C27 8.37258 21.6274 3 15 3C8.37258 3 3 8.37258 3 15C3 21.6274 8.37258 27 15 27Z" stroke="black" stroke-width="1.1" stroke-linecap="round" stroke-linejoin="round"/>
<path d="M14.9986 22.0636C18.9005 22.0636 22.0636 18.9005 22.0636 14.9986C22.0636 11.0967 18.9005 7.93359 14.9986 7.93359C11.0967 7.93359 7.93359 11.0967 7.93359 14.9986C7.93359 18.9005 11.0967 22.0636 14.9986 22.0636Z" stroke="black" stroke-width="1.1" stroke-linecap="round" stroke-linejoin="round"/>
<path d="M15.0011 17.1311C16.1775 17.1311 17.1311 16.1775 17.1311 15.0011C17.1311 13.8247 16.1775 12.8711 15.0011 12.8711C13.8247 12.8711 12.8711 13.8247 12.8711 15.0011C12.8711 16.1775 13.8247 17.1311 15.0011 17.1311Z" stroke="black" stroke-width="1.1" stroke-linecap="round" stroke-linejoin="round"/>
</svg>
